solid food_caddy_k1se_bag_retainer_ring_spare
  facet normal 0.000000 -1.000000 0.000000
    outer loop
      vertex -78.000 -79.000 0.000
      vertex 78.000 -79.000 0.000
      vertex 78.000 -79.000 2.000
    endloop
  endfacet
  facet normal 0.000000 -1.000000 0.000000
    outer loop
      vertex -78.000 -79.000 0.000
      vertex 78.000 -79.000 2.000
      vertex -78.000 -79.000 2.000
    endloop
  endfacet
  facet normal 0.000000 1.000000 0.000000
    outer loop
      vertex 74.000 -72.000 0.000
      vertex -74.000 -72.000 0.000
      vertex -74.000 -72.000 2.000
    endloop
  endfacet
  facet normal 0.000000 1.000000 0.000000
    outer loop
      vertex 74.000 -72.000 0.000
      vertex -74.000 -72.000 2.000
      vertex 74.000 -72.000 2.000
    endloop
  endfacet
  facet normal 0.000000 0.000000 1.000000
    outer loop
      vertex -78.000 -79.000 2.000
      vertex 78.000 -79.000 2.000
      vertex 74.000 -72.000 2.000
    endloop
  endfacet
  facet normal 0.000000 0.000000 1.000000
    outer loop
      vertex -78.000 -79.000 2.000
      vertex 74.000 -72.000 2.000
      vertex -74.000 -72.000 2.000
    endloop
  endfacet
  facet normal 0.000000 0.000000 -1.000000
    outer loop
      vertex 78.000 -79.000 0.000
      vertex -78.000 -79.000 0.000
      vertex -74.000 -72.000 0.000
    endloop
  endfacet
  facet normal 0.000000 0.000000 -1.000000
    outer loop
      vertex 78.000 -79.000 0.000
      vertex -74.000 -72.000 0.000
      vertex 74.000 -72.000 0.000
    endloop
  endfacet
  facet normal 0.707107 -0.707107 0.000000
    outer loop
      vertex 78.000 -79.000 0.000
      vertex 99.000 -58.000 0.000
      vertex 99.000 -58.000 2.000
    endloop
  endfacet
  facet normal 0.707107 -0.707107 0.000000
    outer loop
      vertex 78.000 -79.000 0.000
      vertex 99.000 -58.000 2.000
      vertex 78.000 -79.000 2.000
    endloop
  endfacet
  facet normal -0.707107 0.707107 0.000000
    outer loop
      vertex 92.000 -54.000 0.000
      vertex 74.000 -72.000 0.000
      vertex 74.000 -72.000 2.000
    endloop
  endfacet
  facet normal -0.707107 0.707107 0.000000
    outer loop
      vertex 92.000 -54.000 0.000
      vertex 74.000 -72.000 2.000
      vertex 92.000 -54.000 2.000
    endloop
  endfacet
  facet normal 0.000000 0.000000 1.000000
    outer loop
      vertex 78.000 -79.000 2.000
      vertex 99.000 -58.000 2.000
      vertex 92.000 -54.000 2.000
    endloop
  endfacet
  facet normal 0.000000 0.000000 1.000000
    outer loop
      vertex 78.000 -79.000 2.000
      vertex 92.000 -54.000 2.000
      vertex 74.000 -72.000 2.000
    endloop
  endfacet
  facet normal 0.000000 0.000000 -1.000000
    outer loop
      vertex 99.000 -58.000 0.000
      vertex 78.000 -79.000 0.000
      vertex 74.000 -72.000 0.000
    endloop
  endfacet
  facet normal 0.000000 0.000000 -1.000000
    outer loop
      vertex 99.000 -58.000 0.000
      vertex 74.000 -72.000 0.000
      vertex 92.000 -54.000 0.000
    endloop
  endfacet
  facet normal 1.000000 0.000000 0.000000
    outer loop
      vertex 99.000 -58.000 0.000
      vertex 99.000 58.000 0.000
      vertex 99.000 58.000 2.000
    endloop
  endfacet
  facet normal 1.000000 0.000000 0.000000
    outer loop
      vertex 99.000 -58.000 0.000
      vertex 99.000 58.000 2.000
      vertex 99.000 -58.000 2.000
    endloop
  endfacet
  facet normal -1.000000 0.000000 0.000000
    outer loop
      vertex 92.000 54.000 0.000
      vertex 92.000 -54.000 0.000
      vertex 92.000 -54.000 2.000
    endloop
  endfacet
  facet normal -1.000000 0.000000 0.000000
    outer loop
      vertex 92.000 54.000 0.000
      vertex 92.000 -54.000 2.000
      vertex 92.000 54.000 2.000
    endloop
  endfacet
  facet normal 0.000000 0.000000 1.000000
    outer loop
      vertex 99.000 -58.000 2.000
      vertex 99.000 58.000 2.000
      vertex 92.000 54.000 2.000
    endloop
  endfacet
  facet normal 0.000000 0.000000 1.000000
    outer loop
      vertex 99.000 -58.000 2.000
      vertex 92.000 54.000 2.000
      vertex 92.000 -54.000 2.000
    endloop
  endfacet
  facet normal 0.000000 0.000000 -1.000000
    outer loop
      vertex 99.000 58.000 0.000
      vertex 99.000 -58.000 0.000
      vertex 92.000 -54.000 0.000
    endloop
  endfacet
  facet normal 0.000000 0.000000 -1.000000
    outer loop
      vertex 99.000 58.000 0.000
      vertex 92.000 -54.000 0.000
      vertex 92.000 54.000 0.000
    endloop
  endfacet
  facet normal 0.707107 0.707107 0.000000
    outer loop
      vertex 99.000 58.000 0.000
      vertex 78.000 79.000 0.000
      vertex 78.000 79.000 2.000
    endloop
  endfacet
  facet normal 0.707107 0.707107 0.000000
    outer loop
      vertex 99.000 58.000 0.000
      vertex 78.000 79.000 2.000
      vertex 99.000 58.000 2.000
    endloop
  endfacet
  facet normal -0.707107 -0.707107 0.000000
    outer loop
      vertex 74.000 72.000 0.000
      vertex 92.000 54.000 0.000
      vertex 92.000 54.000 2.000
    endloop
  endfacet
  facet normal -0.707107 -0.707107 0.000000
    outer loop
      vertex 74.000 72.000 0.000
      vertex 92.000 54.000 2.000
      vertex 74.000 72.000 2.000
    endloop
  endfacet
  facet normal 0.000000 0.000000 1.000000
    outer loop
      vertex 99.000 58.000 2.000
      vertex 78.000 79.000 2.000
      vertex 74.000 72.000 2.000
    endloop
  endfacet
  facet normal 0.000000 0.000000 1.000000
    outer loop
      vertex 99.000 58.000 2.000
      vertex 74.000 72.000 2.000
      vertex 92.000 54.000 2.000
    endloop
  endfacet
  facet normal 0.000000 0.000000 -1.000000
    outer loop
      vertex 78.000 79.000 0.000
      vertex 99.000 58.000 0.000
      vertex 92.000 54.000 0.000
    endloop
  endfacet
  facet normal 0.000000 0.000000 -1.000000
    outer loop
      vertex 78.000 79.000 0.000
      vertex 92.000 54.000 0.000
      vertex 74.000 72.000 0.000
    endloop
  endfacet
  facet normal 0.000000 1.000000 0.000000
    outer loop
      vertex 78.000 79.000 0.000
      vertex -78.000 79.000 0.000
      vertex -78.000 79.000 2.000
    endloop
  endfacet
  facet normal 0.000000 1.000000 0.000000
    outer loop
      vertex 78.000 79.000 0.000
      vertex -78.000 79.000 2.000
      vertex 78.000 79.000 2.000
    endloop
  endfacet
  facet normal 0.000000 -1.000000 0.000000
    outer loop
      vertex -74.000 72.000 0.000
      vertex 74.000 72.000 0.000
      vertex 74.000 72.000 2.000
    endloop
  endfacet
  facet normal 0.000000 -1.000000 0.000000
    outer loop
      vertex -74.000 72.000 0.000
      vertex 74.000 72.000 2.000
      vertex -74.000 72.000 2.000
    endloop
  endfacet
  facet normal 0.000000 0.000000 1.000000
    outer loop
      vertex 78.000 79.000 2.000
      vertex -78.000 79.000 2.000
      vertex -74.000 72.000 2.000
    endloop
  endfacet
  facet normal 0.000000 0.000000 1.000000
    outer loop
      vertex 78.000 79.000 2.000
      vertex -74.000 72.000 2.000
      vertex 74.000 72.000 2.000
    endloop
  endfacet
  facet normal 0.000000 0.000000 -1.000000
    outer loop
      vertex -78.000 79.000 0.000
      vertex 78.000 79.000 0.000
      vertex 74.000 72.000 0.000
    endloop
  endfacet
  facet normal 0.000000 0.000000 -1.000000
    outer loop
      vertex -78.000 79.000 0.000
      vertex 74.000 72.000 0.000
      vertex -74.000 72.000 0.000
    endloop
  endfacet
  facet normal -0.707107 0.707107 0.000000
    outer loop
      vertex -78.000 79.000 0.000
      vertex -99.000 58.000 0.000
      vertex -99.000 58.000 2.000
    endloop
  endfacet
  facet normal -0.707107 0.707107 0.000000
    outer loop
      vertex -78.000 79.000 0.000
      vertex -99.000 58.000 2.000
      vertex -78.000 79.000 2.000
    endloop
  endfacet
  facet normal 0.707107 -0.707107 0.000000
    outer loop
      vertex -92.000 54.000 0.000
      vertex -74.000 72.000 0.000
      vertex -74.000 72.000 2.000
    endloop
  endfacet
  facet normal 0.707107 -0.707107 0.000000
    outer loop
      vertex -92.000 54.000 0.000
      vertex -74.000 72.000 2.000
      vertex -92.000 54.000 2.000
    endloop
  endfacet
  facet normal 0.000000 0.000000 1.000000
    outer loop
      vertex -78.000 79.000 2.000
      vertex -99.000 58.000 2.000
      vertex -92.000 54.000 2.000
    endloop
  endfacet
  facet normal 0.000000 0.000000 1.000000
    outer loop
      vertex -78.000 79.000 2.000
      vertex -92.000 54.000 2.000
      vertex -74.000 72.000 2.000
    endloop
  endfacet
  facet normal 0.000000 0.000000 -1.000000
    outer loop
      vertex -99.000 58.000 0.000
      vertex -78.000 79.000 0.000
      vertex -74.000 72.000 0.000
    endloop
  endfacet
  facet normal 0.000000 0.000000 -1.000000
    outer loop
      vertex -99.000 58.000 0.000
      vertex -74.000 72.000 0.000
      vertex -92.000 54.000 0.000
    endloop
  endfacet
  facet normal -1.000000 0.000000 0.000000
    outer loop
      vertex -99.000 58.000 0.000
      vertex -99.000 -58.000 0.000
      vertex -99.000 -58.000 2.000
    endloop
  endfacet
  facet normal -1.000000 0.000000 0.000000
    outer loop
      vertex -99.000 58.000 0.000
      vertex -99.000 -58.000 2.000
      vertex -99.000 58.000 2.000
    endloop
  endfacet
  facet normal 1.000000 0.000000 0.000000
    outer loop
      vertex -92.000 -54.000 0.000
      vertex -92.000 54.000 0.000
      vertex -92.000 54.000 2.000
    endloop
  endfacet
  facet normal 1.000000 0.000000 0.000000
    outer loop
      vertex -92.000 -54.000 0.000
      vertex -92.000 54.000 2.000
      vertex -92.000 -54.000 2.000
    endloop
  endfacet
  facet normal 0.000000 0.000000 1.000000
    outer loop
      vertex -99.000 58.000 2.000
      vertex -99.000 -58.000 2.000
      vertex -92.000 -54.000 2.000
    endloop
  endfacet
  facet normal 0.000000 0.000000 1.000000
    outer loop
      vertex -99.000 58.000 2.000
      vertex -92.000 -54.000 2.000
      vertex -92.000 54.000 2.000
    endloop
  endfacet
  facet normal 0.000000 0.000000 -1.000000
    outer loop
      vertex -99.000 -58.000 0.000
      vertex -99.000 58.000 0.000
      vertex -92.000 54.000 0.000
    endloop
  endfacet
  facet normal 0.000000 0.000000 -1.000000
    outer loop
      vertex -99.000 -58.000 0.000
      vertex -92.000 54.000 0.000
      vertex -92.000 -54.000 0.000
    endloop
  endfacet
  facet normal -0.707107 -0.707107 0.000000
    outer loop
      vertex -99.000 -58.000 0.000
      vertex -78.000 -79.000 0.000
      vertex -78.000 -79.000 2.000
    endloop
  endfacet
  facet normal -0.707107 -0.707107 0.000000
    outer loop
      vertex -99.000 -58.000 0.000
      vertex -78.000 -79.000 2.000
      vertex -99.000 -58.000 2.000
    endloop
  endfacet
  facet normal 0.707107 0.707107 0.000000
    outer loop
      vertex -74.000 -72.000 0.000
      vertex -92.000 -54.000 0.000
      vertex -92.000 -54.000 2.000
    endloop
  endfacet
  facet normal 0.707107 0.707107 0.000000
    outer loop
      vertex -74.000 -72.000 0.000
      vertex -92.000 -54.000 2.000
      vertex -74.000 -72.000 2.000
    endloop
  endfacet
  facet normal 0.000000 0.000000 1.000000
    outer loop
      vertex -99.000 -58.000 2.000
      vertex -78.000 -79.000 2.000
      vertex -74.000 -72.000 2.000
    endloop
  endfacet
  facet normal 0.000000 0.000000 1.000000
    outer loop
      vertex -99.000 -58.000 2.000
      vertex -74.000 -72.000 2.000
      vertex -92.000 -54.000 2.000
    endloop
  endfacet
  facet normal 0.000000 0.000000 -1.000000
    outer loop
      vertex -78.000 -79.000 0.000
      vertex -99.000 -58.000 0.000
      vertex -92.000 -54.000 0.000
    endloop
  endfacet
  facet normal 0.000000 0.000000 -1.000000
    outer loop
      vertex -78.000 -79.000 0.000
      vertex -92.000 -54.000 0.000
      vertex -74.000 -72.000 0.000
    endloop
  endfacet
  facet normal 0.000000 0.000000 1.000000
    outer loop
      vertex -30.000 -82.000 0.000
      vertex 30.000 -82.000 0.000
      vertex 30.000 -75.000 0.000
    endloop
  endfacet
  facet normal 0.000000 0.000000 1.000000
    outer loop
      vertex -30.000 -82.000 0.000
      vertex 30.000 -75.000 0.000
      vertex -30.000 -75.000 0.000
    endloop
  endfacet
  facet normal 0.000000 0.000000 -1.000000
    outer loop
      vertex -30.000 -82.000 4.000
      vertex -30.000 -75.000 4.000
      vertex 30.000 -75.000 4.000
    endloop
  endfacet
  facet normal 0.000000 0.000000 -1.000000
    outer loop
      vertex -30.000 -82.000 4.000
      vertex 30.000 -75.000 4.000
      vertex 30.000 -82.000 4.000
    endloop
  endfacet
  facet normal 0.000000 1.000000 0.000000
    outer loop
      vertex -30.000 -82.000 0.000
      vertex -30.000 -82.000 4.000
      vertex 30.000 -82.000 4.000
    endloop
  endfacet
  facet normal 0.000000 1.000000 0.000000
    outer loop
      vertex -30.000 -82.000 0.000
      vertex 30.000 -82.000 4.000
      vertex 30.000 -82.000 0.000
    endloop
  endfacet
  facet normal -1.000000 0.000000 0.000000
    outer loop
      vertex 30.000 -82.000 0.000
      vertex 30.000 -82.000 4.000
      vertex 30.000 -75.000 4.000
    endloop
  endfacet
  facet normal -1.000000 0.000000 0.000000
    outer loop
      vertex 30.000 -82.000 0.000
      vertex 30.000 -75.000 4.000
      vertex 30.000 -75.000 0.000
    endloop
  endfacet
  facet normal 0.000000 -1.000000 0.000000
    outer loop
      vertex 30.000 -75.000 0.000
      vertex 30.000 -75.000 4.000
      vertex -30.000 -75.000 4.000
    endloop
  endfacet
  facet normal 0.000000 -1.000000 0.000000
    outer loop
      vertex 30.000 -75.000 0.000
      vertex -30.000 -75.000 4.000
      vertex -30.000 -75.000 0.000
    endloop
  endfacet
  facet normal 1.000000 0.000000 0.000000
    outer loop
      vertex -30.000 -75.000 0.000
      vertex -30.000 -75.000 4.000
      vertex -30.000 -82.000 4.000
    endloop
  endfacet
  facet normal 1.000000 0.000000 0.000000
    outer loop
      vertex -30.000 -75.000 0.000
      vertex -30.000 -82.000 4.000
      vertex -30.000 -82.000 0.000
    endloop
  endfacet
  facet normal 0.000000 0.000000 1.000000
    outer loop
      vertex -30.000 75.000 0.000
      vertex 30.000 75.000 0.000
      vertex 30.000 82.000 0.000
    endloop
  endfacet
  facet normal 0.000000 0.000000 1.000000
    outer loop
      vertex -30.000 75.000 0.000
      vertex 30.000 82.000 0.000
      vertex -30.000 82.000 0.000
    endloop
  endfacet
  facet normal 0.000000 0.000000 -1.000000
    outer loop
      vertex -30.000 75.000 4.000
      vertex -30.000 82.000 4.000
      vertex 30.000 82.000 4.000
    endloop
  endfacet
  facet normal 0.000000 0.000000 -1.000000
    outer loop
      vertex -30.000 75.000 4.000
      vertex 30.000 82.000 4.000
      vertex 30.000 75.000 4.000
    endloop
  endfacet
  facet normal 0.000000 1.000000 0.000000
    outer loop
      vertex -30.000 75.000 0.000
      vertex -30.000 75.000 4.000
      vertex 30.000 75.000 4.000
    endloop
  endfacet
  facet normal 0.000000 1.000000 0.000000
    outer loop
      vertex -30.000 75.000 0.000
      vertex 30.000 75.000 4.000
      vertex 30.000 75.000 0.000
    endloop
  endfacet
  facet normal -1.000000 0.000000 0.000000
    outer loop
      vertex 30.000 75.000 0.000
      vertex 30.000 75.000 4.000
      vertex 30.000 82.000 4.000
    endloop
  endfacet
  facet normal -1.000000 0.000000 0.000000
    outer loop
      vertex 30.000 75.000 0.000
      vertex 30.000 82.000 4.000
      vertex 30.000 82.000 0.000
    endloop
  endfacet
  facet normal 0.000000 -1.000000 0.000000
    outer loop
      vertex 30.000 82.000 0.000
      vertex 30.000 82.000 4.000
      vertex -30.000 82.000 4.000
    endloop
  endfacet
  facet normal 0.000000 -1.000000 0.000000
    outer loop
      vertex 30.000 82.000 0.000
      vertex -30.000 82.000 4.000
      vertex -30.000 82.000 0.000
    endloop
  endfacet
  facet normal 1.000000 0.000000 0.000000
    outer loop
      vertex -30.000 82.000 0.000
      vertex -30.000 82.000 4.000
      vertex -30.000 75.000 4.000
    endloop
  endfacet
  facet normal 1.000000 0.000000 0.000000
    outer loop
      vertex -30.000 82.000 0.000
      vertex -30.000 75.000 4.000
      vertex -30.000 75.000 0.000
    endloop
  endfacet
  facet normal 0.000000 0.000000 1.000000
    outer loop
      vertex -102.000 -20.000 0.000
      vertex -95.000 -20.000 0.000
      vertex -95.000 20.000 0.000
    endloop
  endfacet
  facet normal 0.000000 0.000000 1.000000
    outer loop
      vertex -102.000 -20.000 0.000
      vertex -95.000 20.000 0.000
      vertex -102.000 20.000 0.000
    endloop
  endfacet
  facet normal 0.000000 0.000000 -1.000000
    outer loop
      vertex -102.000 -20.000 4.000
      vertex -102.000 20.000 4.000
      vertex -95.000 20.000 4.000
    endloop
  endfacet
  facet normal 0.000000 0.000000 -1.000000
    outer loop
      vertex -102.000 -20.000 4.000
      vertex -95.000 20.000 4.000
      vertex -95.000 -20.000 4.000
    endloop
  endfacet
  facet normal 0.000000 1.000000 0.000000
    outer loop
      vertex -102.000 -20.000 0.000
      vertex -102.000 -20.000 4.000
      vertex -95.000 -20.000 4.000
    endloop
  endfacet
  facet normal 0.000000 1.000000 0.000000
    outer loop
      vertex -102.000 -20.000 0.000
      vertex -95.000 -20.000 4.000
      vertex -95.000 -20.000 0.000
    endloop
  endfacet
  facet normal -1.000000 0.000000 0.000000
    outer loop
      vertex -95.000 -20.000 0.000
      vertex -95.000 -20.000 4.000
      vertex -95.000 20.000 4.000
    endloop
  endfacet
  facet normal -1.000000 0.000000 0.000000
    outer loop
      vertex -95.000 -20.000 0.000
      vertex -95.000 20.000 4.000
      vertex -95.000 20.000 0.000
    endloop
  endfacet
  facet normal 0.000000 -1.000000 0.000000
    outer loop
      vertex -95.000 20.000 0.000
      vertex -95.000 20.000 4.000
      vertex -102.000 20.000 4.000
    endloop
  endfacet
  facet normal 0.000000 -1.000000 0.000000
    outer loop
      vertex -95.000 20.000 0.000
      vertex -102.000 20.000 4.000
      vertex -102.000 20.000 0.000
    endloop
  endfacet
  facet normal 1.000000 0.000000 0.000000
    outer loop
      vertex -102.000 20.000 0.000
      vertex -102.000 20.000 4.000
      vertex -102.000 -20.000 4.000
    endloop
  endfacet
  facet normal 1.000000 0.000000 0.000000
    outer loop
      vertex -102.000 20.000 0.000
      vertex -102.000 -20.000 4.000
      vertex -102.000 -20.000 0.000
    endloop
  endfacet
  facet normal 0.000000 0.000000 1.000000
    outer loop
      vertex 95.000 -20.000 0.000
      vertex 102.000 -20.000 0.000
      vertex 102.000 20.000 0.000
    endloop
  endfacet
  facet normal 0.000000 0.000000 1.000000
    outer loop
      vertex 95.000 -20.000 0.000
      vertex 102.000 20.000 0.000
      vertex 95.000 20.000 0.000
    endloop
  endfacet
  facet normal 0.000000 0.000000 -1.000000
    outer loop
      vertex 95.000 -20.000 4.000
      vertex 95.000 20.000 4.000
      vertex 102.000 20.000 4.000
    endloop
  endfacet
  facet normal 0.000000 0.000000 -1.000000
    outer loop
      vertex 95.000 -20.000 4.000
      vertex 102.000 20.000 4.000
      vertex 102.000 -20.000 4.000
    endloop
  endfacet
  facet normal 0.000000 1.000000 0.000000
    outer loop
      vertex 95.000 -20.000 0.000
      vertex 95.000 -20.000 4.000
      vertex 102.000 -20.000 4.000
    endloop
  endfacet
  facet normal 0.000000 1.000000 0.000000
    outer loop
      vertex 95.000 -20.000 0.000
      vertex 102.000 -20.000 4.000
      vertex 102.000 -20.000 0.000
    endloop
  endfacet
  facet normal -1.000000 0.000000 0.000000
    outer loop
      vertex 102.000 -20.000 0.000
      vertex 102.000 -20.000 4.000
      vertex 102.000 20.000 4.000
    endloop
  endfacet
  facet normal -1.000000 0.000000 0.000000
    outer loop
      vertex 102.000 -20.000 0.000
      vertex 102.000 20.000 4.000
      vertex 102.000 20.000 0.000
    endloop
  endfacet
  facet normal 0.000000 -1.000000 0.000000
    outer loop
      vertex 102.000 20.000 0.000
      vertex 102.000 20.000 4.000
      vertex 95.000 20.000 4.000
    endloop
  endfacet
  facet normal 0.000000 -1.000000 0.000000
    outer loop
      vertex 102.000 20.000 0.000
      vertex 95.000 20.000 4.000
      vertex 95.000 20.000 0.000
    endloop
  endfacet
  facet normal 1.000000 0.000000 0.000000
    outer loop
      vertex 95.000 20.000 0.000
      vertex 95.000 20.000 4.000
      vertex 95.000 -20.000 4.000
    endloop
  endfacet
  facet normal 1.000000 0.000000 0.000000
    outer loop
      vertex 95.000 20.000 0.000
      vertex 95.000 -20.000 4.000
      vertex 95.000 -20.000 0.000
    endloop
  endfacet
endsolid food_caddy_k1se_bag_retainer_ring_spare
