solid food_caddy_k1se_hinge_pin_spare
  facet normal 0.000000 -0.991445 -0.130526
    outer loop
      vertex -106.000 1.450 1.450
      vertex 106.000 1.450 1.450
      vertex 106.000 1.401 1.825
    endloop
  endfacet
  facet normal 0.000000 -0.991445 -0.130526
    outer loop
      vertex -106.000 1.450 1.450
      vertex 106.000 1.401 1.825
      vertex -106.000 1.401 1.825
    endloop
  endfacet
  facet normal 0.000000 -0.923880 -0.382683
    outer loop
      vertex -106.000 1.401 1.825
      vertex 106.000 1.401 1.825
      vertex 106.000 1.256 2.175
    endloop
  endfacet
  facet normal 0.000000 -0.923880 -0.382683
    outer loop
      vertex -106.000 1.401 1.825
      vertex 106.000 1.256 2.175
      vertex -106.000 1.256 2.175
    endloop
  endfacet
  facet normal 0.000000 -0.793353 -0.608761
    outer loop
      vertex -106.000 1.256 2.175
      vertex 106.000 1.256 2.175
      vertex 106.000 1.025 2.475
    endloop
  endfacet
  facet normal 0.000000 -0.793353 -0.608761
    outer loop
      vertex -106.000 1.256 2.175
      vertex 106.000 1.025 2.475
      vertex -106.000 1.025 2.475
    endloop
  endfacet
  facet normal 0.000000 -0.608761 -0.793353
    outer loop
      vertex -106.000 1.025 2.475
      vertex 106.000 1.025 2.475
      vertex 106.000 0.725 2.706
    endloop
  endfacet
  facet normal 0.000000 -0.608761 -0.793353
    outer loop
      vertex -106.000 1.025 2.475
      vertex 106.000 0.725 2.706
      vertex -106.000 0.725 2.706
    endloop
  endfacet
  facet normal 0.000000 -0.382683 -0.923880
    outer loop
      vertex -106.000 0.725 2.706
      vertex 106.000 0.725 2.706
      vertex 106.000 0.375 2.851
    endloop
  endfacet
  facet normal 0.000000 -0.382683 -0.923880
    outer loop
      vertex -106.000 0.725 2.706
      vertex 106.000 0.375 2.851
      vertex -106.000 0.375 2.851
    endloop
  endfacet
  facet normal 0.000000 -0.130526 -0.991445
    outer loop
      vertex -106.000 0.375 2.851
      vertex 106.000 0.375 2.851
      vertex 106.000 0.000 2.900
    endloop
  endfacet
  facet normal 0.000000 -0.130526 -0.991445
    outer loop
      vertex -106.000 0.375 2.851
      vertex 106.000 0.000 2.900
      vertex -106.000 0.000 2.900
    endloop
  endfacet
  facet normal 0.000000 0.130526 -0.991445
    outer loop
      vertex -106.000 0.000 2.900
      vertex 106.000 0.000 2.900
      vertex 106.000 -0.375 2.851
    endloop
  endfacet
  facet normal 0.000000 0.130526 -0.991445
    outer loop
      vertex -106.000 0.000 2.900
      vertex 106.000 -0.375 2.851
      vertex -106.000 -0.375 2.851
    endloop
  endfacet
  facet normal 0.000000 0.382683 -0.923880
    outer loop
      vertex -106.000 -0.375 2.851
      vertex 106.000 -0.375 2.851
      vertex 106.000 -0.725 2.706
    endloop
  endfacet
  facet normal 0.000000 0.382683 -0.923880
    outer loop
      vertex -106.000 -0.375 2.851
      vertex 106.000 -0.725 2.706
      vertex -106.000 -0.725 2.706
    endloop
  endfacet
  facet normal 0.000000 0.608761 -0.793353
    outer loop
      vertex -106.000 -0.725 2.706
      vertex 106.000 -0.725 2.706
      vertex 106.000 -1.025 2.475
    endloop
  endfacet
  facet normal 0.000000 0.608761 -0.793353
    outer loop
      vertex -106.000 -0.725 2.706
      vertex 106.000 -1.025 2.475
      vertex -106.000 -1.025 2.475
    endloop
  endfacet
  facet normal 0.000000 0.793353 -0.608761
    outer loop
      vertex -106.000 -1.025 2.475
      vertex 106.000 -1.025 2.475
      vertex 106.000 -1.256 2.175
    endloop
  endfacet
  facet normal 0.000000 0.793353 -0.608761
    outer loop
      vertex -106.000 -1.025 2.475
      vertex 106.000 -1.256 2.175
      vertex -106.000 -1.256 2.175
    endloop
  endfacet
  facet normal 0.000000 0.923880 -0.382683
    outer loop
      vertex -106.000 -1.256 2.175
      vertex 106.000 -1.256 2.175
      vertex 106.000 -1.401 1.825
    endloop
  endfacet
  facet normal 0.000000 0.923880 -0.382683
    outer loop
      vertex -106.000 -1.256 2.175
      vertex 106.000 -1.401 1.825
      vertex -106.000 -1.401 1.825
    endloop
  endfacet
  facet normal 0.000000 0.991445 -0.130526
    outer loop
      vertex -106.000 -1.401 1.825
      vertex 106.000 -1.401 1.825
      vertex 106.000 -1.450 1.450
    endloop
  endfacet
  facet normal 0.000000 0.991445 -0.130526
    outer loop
      vertex -106.000 -1.401 1.825
      vertex 106.000 -1.450 1.450
      vertex -106.000 -1.450 1.450
    endloop
  endfacet
  facet normal 0.000000 0.991445 0.130526
    outer loop
      vertex -106.000 -1.450 1.450
      vertex 106.000 -1.450 1.450
      vertex 106.000 -1.401 1.075
    endloop
  endfacet
  facet normal 0.000000 0.991445 0.130526
    outer loop
      vertex -106.000 -1.450 1.450
      vertex 106.000 -1.401 1.075
      vertex -106.000 -1.401 1.075
    endloop
  endfacet
  facet normal 0.000000 0.923880 0.382683
    outer loop
      vertex -106.000 -1.401 1.075
      vertex 106.000 -1.401 1.075
      vertex 106.000 -1.256 0.725
    endloop
  endfacet
  facet normal 0.000000 0.923880 0.382683
    outer loop
      vertex -106.000 -1.401 1.075
      vertex 106.000 -1.256 0.725
      vertex -106.000 -1.256 0.725
    endloop
  endfacet
  facet normal 0.000000 0.793353 0.608761
    outer loop
      vertex -106.000 -1.256 0.725
      vertex 106.000 -1.256 0.725
      vertex 106.000 -1.025 0.425
    endloop
  endfacet
  facet normal 0.000000 0.793353 0.608761
    outer loop
      vertex -106.000 -1.256 0.725
      vertex 106.000 -1.025 0.425
      vertex -106.000 -1.025 0.425
    endloop
  endfacet
  facet normal 0.000000 0.608761 0.793353
    outer loop
      vertex -106.000 -1.025 0.425
      vertex 106.000 -1.025 0.425
      vertex 106.000 -0.725 0.194
    endloop
  endfacet
  facet normal 0.000000 0.608761 0.793353
    outer loop
      vertex -106.000 -1.025 0.425
      vertex 106.000 -0.725 0.194
      vertex -106.000 -0.725 0.194
    endloop
  endfacet
  facet normal 0.000000 0.382683 0.923880
    outer loop
      vertex -106.000 -0.725 0.194
      vertex 106.000 -0.725 0.194
      vertex 106.000 -0.375 0.049
    endloop
  endfacet
  facet normal 0.000000 0.382683 0.923880
    outer loop
      vertex -106.000 -0.725 0.194
      vertex 106.000 -0.375 0.049
      vertex -106.000 -0.375 0.049
    endloop
  endfacet
  facet normal 0.000000 0.130526 0.991445
    outer loop
      vertex -106.000 -0.375 0.049
      vertex 106.000 -0.375 0.049
      vertex 106.000 -0.000 0.000
    endloop
  endfacet
  facet normal 0.000000 0.130526 0.991445
    outer loop
      vertex -106.000 -0.375 0.049
      vertex 106.000 -0.000 0.000
      vertex -106.000 -0.000 0.000
    endloop
  endfacet
  facet normal 0.000000 -0.130526 0.991445
    outer loop
      vertex -106.000 -0.000 0.000
      vertex 106.000 -0.000 0.000
      vertex 106.000 0.375 0.049
    endloop
  endfacet
  facet normal 0.000000 -0.130526 0.991445
    outer loop
      vertex -106.000 -0.000 0.000
      vertex 106.000 0.375 0.049
      vertex -106.000 0.375 0.049
    endloop
  endfacet
  facet normal 0.000000 -0.382683 0.923880
    outer loop
      vertex -106.000 0.375 0.049
      vertex 106.000 0.375 0.049
      vertex 106.000 0.725 0.194
    endloop
  endfacet
  facet normal 0.000000 -0.382683 0.923880
    outer loop
      vertex -106.000 0.375 0.049
      vertex 106.000 0.725 0.194
      vertex -106.000 0.725 0.194
    endloop
  endfacet
  facet normal 0.000000 -0.608761 0.793353
    outer loop
      vertex -106.000 0.725 0.194
      vertex 106.000 0.725 0.194
      vertex 106.000 1.025 0.425
    endloop
  endfacet
  facet normal 0.000000 -0.608761 0.793353
    outer loop
      vertex -106.000 0.725 0.194
      vertex 106.000 1.025 0.425
      vertex -106.000 1.025 0.425
    endloop
  endfacet
  facet normal 0.000000 -0.793353 0.608761
    outer loop
      vertex -106.000 1.025 0.425
      vertex 106.000 1.025 0.425
      vertex 106.000 1.256 0.725
    endloop
  endfacet
  facet normal 0.000000 -0.793353 0.608761
    outer loop
      vertex -106.000 1.025 0.425
      vertex 106.000 1.256 0.725
      vertex -106.000 1.256 0.725
    endloop
  endfacet
  facet normal 0.000000 -0.923880 0.382683
    outer loop
      vertex -106.000 1.256 0.725
      vertex 106.000 1.256 0.725
      vertex 106.000 1.401 1.075
    endloop
  endfacet
  facet normal 0.000000 -0.923880 0.382683
    outer loop
      vertex -106.000 1.256 0.725
      vertex 106.000 1.401 1.075
      vertex -106.000 1.401 1.075
    endloop
  endfacet
  facet normal 0.000000 -0.991445 0.130526
    outer loop
      vertex -106.000 1.401 1.075
      vertex 106.000 1.401 1.075
      vertex 106.000 1.450 1.450
    endloop
  endfacet
  facet normal 0.000000 -0.991445 0.130526
    outer loop
      vertex -106.000 1.401 1.075
      vertex 106.000 1.450 1.450
      vertex -106.000 1.450 1.450
    endloop
  endfacet
  facet normal -1.000000 0.000000 0.000000
    outer loop
      vertex -106.000 0.000 1.450
      vertex -106.000 1.401 1.825
      vertex -106.000 1.450 1.450
    endloop
  endfacet
  facet normal 1.000000 0.000000 0.000000
    outer loop
      vertex 106.000 0.000 1.450
      vertex 106.000 1.450 1.450
      vertex 106.000 1.401 1.825
    endloop
  endfacet
  facet normal -1.000000 0.000000 0.000000
    outer loop
      vertex -106.000 0.000 1.450
      vertex -106.000 1.256 2.175
      vertex -106.000 1.401 1.825
    endloop
  endfacet
  facet normal 1.000000 0.000000 0.000000
    outer loop
      vertex 106.000 0.000 1.450
      vertex 106.000 1.401 1.825
      vertex 106.000 1.256 2.175
    endloop
  endfacet
  facet normal -1.000000 0.000000 0.000000
    outer loop
      vertex -106.000 0.000 1.450
      vertex -106.000 1.025 2.475
      vertex -106.000 1.256 2.175
    endloop
  endfacet
  facet normal 1.000000 0.000000 0.000000
    outer loop
      vertex 106.000 0.000 1.450
      vertex 106.000 1.256 2.175
      vertex 106.000 1.025 2.475
    endloop
  endfacet
  facet normal -1.000000 0.000000 0.000000
    outer loop
      vertex -106.000 0.000 1.450
      vertex -106.000 0.725 2.706
      vertex -106.000 1.025 2.475
    endloop
  endfacet
  facet normal 1.000000 0.000000 0.000000
    outer loop
      vertex 106.000 0.000 1.450
      vertex 106.000 1.025 2.475
      vertex 106.000 0.725 2.706
    endloop
  endfacet
  facet normal -1.000000 0.000000 0.000000
    outer loop
      vertex -106.000 0.000 1.450
      vertex -106.000 0.375 2.851
      vertex -106.000 0.725 2.706
    endloop
  endfacet
  facet normal 1.000000 0.000000 0.000000
    outer loop
      vertex 106.000 0.000 1.450
      vertex 106.000 0.725 2.706
      vertex 106.000 0.375 2.851
    endloop
  endfacet
  facet normal -1.000000 0.000000 0.000000
    outer loop
      vertex -106.000 0.000 1.450
      vertex -106.000 0.000 2.900
      vertex -106.000 0.375 2.851
    endloop
  endfacet
  facet normal 1.000000 0.000000 0.000000
    outer loop
      vertex 106.000 0.000 1.450
      vertex 106.000 0.375 2.851
      vertex 106.000 0.000 2.900
    endloop
  endfacet
  facet normal -1.000000 0.000000 0.000000
    outer loop
      vertex -106.000 0.000 1.450
      vertex -106.000 -0.375 2.851
      vertex -106.000 0.000 2.900
    endloop
  endfacet
  facet normal 1.000000 0.000000 0.000000
    outer loop
      vertex 106.000 0.000 1.450
      vertex 106.000 0.000 2.900
      vertex 106.000 -0.375 2.851
    endloop
  endfacet
  facet normal -1.000000 0.000000 0.000000
    outer loop
      vertex -106.000 0.000 1.450
      vertex -106.000 -0.725 2.706
      vertex -106.000 -0.375 2.851
    endloop
  endfacet
  facet normal 1.000000 0.000000 0.000000
    outer loop
      vertex 106.000 0.000 1.450
      vertex 106.000 -0.375 2.851
      vertex 106.000 -0.725 2.706
    endloop
  endfacet
  facet normal -1.000000 0.000000 0.000000
    outer loop
      vertex -106.000 0.000 1.450
      vertex -106.000 -1.025 2.475
      vertex -106.000 -0.725 2.706
    endloop
  endfacet
  facet normal 1.000000 0.000000 0.000000
    outer loop
      vertex 106.000 0.000 1.450
      vertex 106.000 -0.725 2.706
      vertex 106.000 -1.025 2.475
    endloop
  endfacet
  facet normal -1.000000 0.000000 0.000000
    outer loop
      vertex -106.000 0.000 1.450
      vertex -106.000 -1.256 2.175
      vertex -106.000 -1.025 2.475
    endloop
  endfacet
  facet normal 1.000000 0.000000 0.000000
    outer loop
      vertex 106.000 0.000 1.450
      vertex 106.000 -1.025 2.475
      vertex 106.000 -1.256 2.175
    endloop
  endfacet
  facet normal -1.000000 0.000000 0.000000
    outer loop
      vertex -106.000 0.000 1.450
      vertex -106.000 -1.401 1.825
      vertex -106.000 -1.256 2.175
    endloop
  endfacet
  facet normal 1.000000 0.000000 0.000000
    outer loop
      vertex 106.000 0.000 1.450
      vertex 106.000 -1.256 2.175
      vertex 106.000 -1.401 1.825
    endloop
  endfacet
  facet normal -1.000000 0.000000 0.000000
    outer loop
      vertex -106.000 0.000 1.450
      vertex -106.000 -1.450 1.450
      vertex -106.000 -1.401 1.825
    endloop
  endfacet
  facet normal 1.000000 0.000000 0.000000
    outer loop
      vertex 106.000 0.000 1.450
      vertex 106.000 -1.401 1.825
      vertex 106.000 -1.450 1.450
    endloop
  endfacet
  facet normal -1.000000 0.000000 0.000000
    outer loop
      vertex -106.000 0.000 1.450
      vertex -106.000 -1.401 1.075
      vertex -106.000 -1.450 1.450
    endloop
  endfacet
  facet normal 1.000000 0.000000 0.000000
    outer loop
      vertex 106.000 0.000 1.450
      vertex 106.000 -1.450 1.450
      vertex 106.000 -1.401 1.075
    endloop
  endfacet
  facet normal -1.000000 0.000000 0.000000
    outer loop
      vertex -106.000 0.000 1.450
      vertex -106.000 -1.256 0.725
      vertex -106.000 -1.401 1.075
    endloop
  endfacet
  facet normal 1.000000 0.000000 0.000000
    outer loop
      vertex 106.000 0.000 1.450
      vertex 106.000 -1.401 1.075
      vertex 106.000 -1.256 0.725
    endloop
  endfacet
  facet normal -1.000000 0.000000 0.000000
    outer loop
      vertex -106.000 0.000 1.450
      vertex -106.000 -1.025 0.425
      vertex -106.000 -1.256 0.725
    endloop
  endfacet
  facet normal 1.000000 0.000000 0.000000
    outer loop
      vertex 106.000 0.000 1.450
      vertex 106.000 -1.256 0.725
      vertex 106.000 -1.025 0.425
    endloop
  endfacet
  facet normal -1.000000 0.000000 0.000000
    outer loop
      vertex -106.000 0.000 1.450
      vertex -106.000 -0.725 0.194
      vertex -106.000 -1.025 0.425
    endloop
  endfacet
  facet normal 1.000000 0.000000 0.000000
    outer loop
      vertex 106.000 0.000 1.450
      vertex 106.000 -1.025 0.425
      vertex 106.000 -0.725 0.194
    endloop
  endfacet
  facet normal -1.000000 0.000000 0.000000
    outer loop
      vertex -106.000 0.000 1.450
      vertex -106.000 -0.375 0.049
      vertex -106.000 -0.725 0.194
    endloop
  endfacet
  facet normal 1.000000 0.000000 0.000000
    outer loop
      vertex 106.000 0.000 1.450
      vertex 106.000 -0.725 0.194
      vertex 106.000 -0.375 0.049
    endloop
  endfacet
  facet normal -1.000000 0.000000 0.000000
    outer loop
      vertex -106.000 0.000 1.450
      vertex -106.000 -0.000 0.000
      vertex -106.000 -0.375 0.049
    endloop
  endfacet
  facet normal 1.000000 0.000000 0.000000
    outer loop
      vertex 106.000 0.000 1.450
      vertex 106.000 -0.375 0.049
      vertex 106.000 -0.000 0.000
    endloop
  endfacet
  facet normal -1.000000 0.000000 0.000000
    outer loop
      vertex -106.000 0.000 1.450
      vertex -106.000 0.375 0.049
      vertex -106.000 -0.000 0.000
    endloop
  endfacet
  facet normal 1.000000 0.000000 0.000000
    outer loop
      vertex 106.000 0.000 1.450
      vertex 106.000 -0.000 0.000
      vertex 106.000 0.375 0.049
    endloop
  endfacet
  facet normal -1.000000 0.000000 0.000000
    outer loop
      vertex -106.000 0.000 1.450
      vertex -106.000 0.725 0.194
      vertex -106.000 0.375 0.049
    endloop
  endfacet
  facet normal 1.000000 0.000000 0.000000
    outer loop
      vertex 106.000 0.000 1.450
      vertex 106.000 0.375 0.049
      vertex 106.000 0.725 0.194
    endloop
  endfacet
  facet normal -1.000000 0.000000 0.000000
    outer loop
      vertex -106.000 0.000 1.450
      vertex -106.000 1.025 0.425
      vertex -106.000 0.725 0.194
    endloop
  endfacet
  facet normal 1.000000 0.000000 0.000000
    outer loop
      vertex 106.000 0.000 1.450
      vertex 106.000 0.725 0.194
      vertex 106.000 1.025 0.425
    endloop
  endfacet
  facet normal -1.000000 0.000000 0.000000
    outer loop
      vertex -106.000 0.000 1.450
      vertex -106.000 1.256 0.725
      vertex -106.000 1.025 0.425
    endloop
  endfacet
  facet normal 1.000000 0.000000 0.000000
    outer loop
      vertex 106.000 0.000 1.450
      vertex 106.000 1.025 0.425
      vertex 106.000 1.256 0.725
    endloop
  endfacet
  facet normal -1.000000 0.000000 0.000000
    outer loop
      vertex -106.000 0.000 1.450
      vertex -106.000 1.401 1.075
      vertex -106.000 1.256 0.725
    endloop
  endfacet
  facet normal 1.000000 0.000000 0.000000
    outer loop
      vertex 106.000 0.000 1.450
      vertex 106.000 1.256 0.725
      vertex 106.000 1.401 1.075
    endloop
  endfacet
  facet normal -1.000000 0.000000 0.000000
    outer loop
      vertex -106.000 0.000 1.450
      vertex -106.000 1.450 1.450
      vertex -106.000 1.401 1.075
    endloop
  endfacet
  facet normal 1.000000 0.000000 0.000000
    outer loop
      vertex 106.000 0.000 1.450
      vertex 106.000 1.401 1.075
      vertex 106.000 1.450 1.450
    endloop
  endfacet
  facet normal 0.000000 0.000000 1.000000
    outer loop
      vertex -111.000 -3.500 0.000
      vertex -106.000 -3.500 0.000
      vertex -106.000 3.500 0.000
    endloop
  endfacet
  facet normal 0.000000 0.000000 1.000000
    outer loop
      vertex -111.000 -3.500 0.000
      vertex -106.000 3.500 0.000
      vertex -111.000 3.500 0.000
    endloop
  endfacet
  facet normal 0.000000 0.000000 -1.000000
    outer loop
      vertex -111.000 -3.500 2.900
      vertex -111.000 3.500 2.900
      vertex -106.000 3.500 2.900
    endloop
  endfacet
  facet normal 0.000000 0.000000 -1.000000
    outer loop
      vertex -111.000 -3.500 2.900
      vertex -106.000 3.500 2.900
      vertex -106.000 -3.500 2.900
    endloop
  endfacet
  facet normal 0.000000 1.000000 0.000000
    outer loop
      vertex -111.000 -3.500 0.000
      vertex -111.000 -3.500 2.900
      vertex -106.000 -3.500 2.900
    endloop
  endfacet
  facet normal 0.000000 1.000000 0.000000
    outer loop
      vertex -111.000 -3.500 0.000
      vertex -106.000 -3.500 2.900
      vertex -106.000 -3.500 0.000
    endloop
  endfacet
  facet normal -1.000000 0.000000 0.000000
    outer loop
      vertex -106.000 -3.500 0.000
      vertex -106.000 -3.500 2.900
      vertex -106.000 3.500 2.900
    endloop
  endfacet
  facet normal -1.000000 0.000000 0.000000
    outer loop
      vertex -106.000 -3.500 0.000
      vertex -106.000 3.500 2.900
      vertex -106.000 3.500 0.000
    endloop
  endfacet
  facet normal 0.000000 -1.000000 0.000000
    outer loop
      vertex -106.000 3.500 0.000
      vertex -106.000 3.500 2.900
      vertex -111.000 3.500 2.900
    endloop
  endfacet
  facet normal 0.000000 -1.000000 0.000000
    outer loop
      vertex -106.000 3.500 0.000
      vertex -111.000 3.500 2.900
      vertex -111.000 3.500 0.000
    endloop
  endfacet
  facet normal 1.000000 0.000000 0.000000
    outer loop
      vertex -111.000 3.500 0.000
      vertex -111.000 3.500 2.900
      vertex -111.000 -3.500 2.900
    endloop
  endfacet
  facet normal 1.000000 0.000000 0.000000
    outer loop
      vertex -111.000 3.500 0.000
      vertex -111.000 -3.500 2.900
      vertex -111.000 -3.500 0.000
    endloop
  endfacet
endsolid food_caddy_k1se_hinge_pin_spare
