solid food_caddy_k1se_hanger_ears_pair
  facet normal 0.000000 0.000000 1.000000
    outer loop
      vertex -35.000 -50.000 3.400
      vertex -16.000 -50.000 3.400
      vertex -16.000 50.000 3.400
    endloop
  endfacet
  facet normal 0.000000 0.000000 1.000000
    outer loop
      vertex -35.000 -50.000 3.400
      vertex -16.000 50.000 3.400
      vertex -35.000 50.000 3.400
    endloop
  endfacet
  facet normal 0.000000 0.000000 -1.000000
    outer loop
      vertex -35.000 -50.000 0.000
      vertex -35.000 50.000 0.000
      vertex -16.000 50.000 0.000
    endloop
  endfacet
  facet normal 0.000000 0.000000 -1.000000
    outer loop
      vertex -35.000 -50.000 0.000
      vertex -16.000 50.000 0.000
      vertex -16.000 -50.000 0.000
    endloop
  endfacet
  facet normal 0.000000 -1.000000 0.000000
    outer loop
      vertex -35.000 -50.000 3.400
      vertex -35.000 -50.000 0.000
      vertex -16.000 -50.000 0.000
    endloop
  endfacet
  facet normal 0.000000 -1.000000 0.000000
    outer loop
      vertex -35.000 -50.000 3.400
      vertex -16.000 -50.000 0.000
      vertex -16.000 -50.000 3.400
    endloop
  endfacet
  facet normal 1.000000 0.000000 0.000000
    outer loop
      vertex -16.000 -50.000 3.400
      vertex -16.000 -50.000 0.000
      vertex -16.000 50.000 0.000
    endloop
  endfacet
  facet normal 1.000000 0.000000 0.000000
    outer loop
      vertex -16.000 -50.000 3.400
      vertex -16.000 50.000 0.000
      vertex -16.000 50.000 3.400
    endloop
  endfacet
  facet normal 0.000000 1.000000 0.000000
    outer loop
      vertex -16.000 50.000 3.400
      vertex -16.000 50.000 0.000
      vertex -35.000 50.000 0.000
    endloop
  endfacet
  facet normal 0.000000 1.000000 0.000000
    outer loop
      vertex -16.000 50.000 3.400
      vertex -35.000 50.000 0.000
      vertex -35.000 50.000 3.400
    endloop
  endfacet
  facet normal -1.000000 0.000000 0.000000
    outer loop
      vertex -35.000 50.000 3.400
      vertex -35.000 50.000 0.000
      vertex -35.000 -50.000 0.000
    endloop
  endfacet
  facet normal -1.000000 0.000000 0.000000
    outer loop
      vertex -35.000 50.000 3.400
      vertex -35.000 -50.000 0.000
      vertex -35.000 -50.000 3.400
    endloop
  endfacet
  facet normal 0.000000 0.000000 1.000000
    outer loop
      vertex -35.000 -50.000 12.000
      vertex -32.000 -50.000 12.000
      vertex -32.000 50.000 12.000
    endloop
  endfacet
  facet normal 0.000000 0.000000 1.000000
    outer loop
      vertex -35.000 -50.000 12.000
      vertex -32.000 50.000 12.000
      vertex -35.000 50.000 12.000
    endloop
  endfacet
  facet normal 0.000000 0.000000 -1.000000
    outer loop
      vertex -35.000 -50.000 0.000
      vertex -35.000 50.000 0.000
      vertex -32.000 50.000 0.000
    endloop
  endfacet
  facet normal 0.000000 0.000000 -1.000000
    outer loop
      vertex -35.000 -50.000 0.000
      vertex -32.000 50.000 0.000
      vertex -32.000 -50.000 0.000
    endloop
  endfacet
  facet normal 0.000000 -1.000000 0.000000
    outer loop
      vertex -35.000 -50.000 12.000
      vertex -35.000 -50.000 0.000
      vertex -32.000 -50.000 0.000
    endloop
  endfacet
  facet normal 0.000000 -1.000000 0.000000
    outer loop
      vertex -35.000 -50.000 12.000
      vertex -32.000 -50.000 0.000
      vertex -32.000 -50.000 12.000
    endloop
  endfacet
  facet normal 1.000000 0.000000 0.000000
    outer loop
      vertex -32.000 -50.000 12.000
      vertex -32.000 -50.000 0.000
      vertex -32.000 50.000 0.000
    endloop
  endfacet
  facet normal 1.000000 0.000000 0.000000
    outer loop
      vertex -32.000 -50.000 12.000
      vertex -32.000 50.000 0.000
      vertex -32.000 50.000 12.000
    endloop
  endfacet
  facet normal 0.000000 1.000000 0.000000
    outer loop
      vertex -32.000 50.000 12.000
      vertex -32.000 50.000 0.000
      vertex -35.000 50.000 0.000
    endloop
  endfacet
  facet normal 0.000000 1.000000 0.000000
    outer loop
      vertex -32.000 50.000 12.000
      vertex -35.000 50.000 0.000
      vertex -35.000 50.000 12.000
    endloop
  endfacet
  facet normal -1.000000 0.000000 0.000000
    outer loop
      vertex -35.000 50.000 12.000
      vertex -35.000 50.000 0.000
      vertex -35.000 -50.000 0.000
    endloop
  endfacet
  facet normal -1.000000 0.000000 0.000000
    outer loop
      vertex -35.000 50.000 12.000
      vertex -35.000 -50.000 0.000
      vertex -35.000 -50.000 12.000
    endloop
  endfacet
  facet normal 0.000000 0.000000 1.000000
    outer loop
      vertex -22.000 -50.000 15.000
      vertex -17.000 -50.000 15.000
      vertex -17.000 50.000 15.000
    endloop
  endfacet
  facet normal 0.000000 0.000000 1.000000
    outer loop
      vertex -22.000 -50.000 15.000
      vertex -17.000 50.000 15.000
      vertex -22.000 50.000 15.000
    endloop
  endfacet
  facet normal 0.000000 0.000000 -1.000000
    outer loop
      vertex -22.000 -50.000 11.300
      vertex -22.000 50.000 11.300
      vertex -17.000 50.000 11.300
    endloop
  endfacet
  facet normal 0.000000 0.000000 -1.000000
    outer loop
      vertex -22.000 -50.000 11.300
      vertex -17.000 50.000 11.300
      vertex -17.000 -50.000 11.300
    endloop
  endfacet
  facet normal 0.000000 -1.000000 0.000000
    outer loop
      vertex -22.000 -50.000 15.000
      vertex -22.000 -50.000 11.300
      vertex -17.000 -50.000 11.300
    endloop
  endfacet
  facet normal 0.000000 -1.000000 0.000000
    outer loop
      vertex -22.000 -50.000 15.000
      vertex -17.000 -50.000 11.300
      vertex -17.000 -50.000 15.000
    endloop
  endfacet
  facet normal 1.000000 0.000000 0.000000
    outer loop
      vertex -17.000 -50.000 15.000
      vertex -17.000 -50.000 11.300
      vertex -17.000 50.000 11.300
    endloop
  endfacet
  facet normal 1.000000 0.000000 0.000000
    outer loop
      vertex -17.000 -50.000 15.000
      vertex -17.000 50.000 11.300
      vertex -17.000 50.000 15.000
    endloop
  endfacet
  facet normal 0.000000 1.000000 0.000000
    outer loop
      vertex -17.000 50.000 15.000
      vertex -17.000 50.000 11.300
      vertex -22.000 50.000 11.300
    endloop
  endfacet
  facet normal 0.000000 1.000000 0.000000
    outer loop
      vertex -17.000 50.000 15.000
      vertex -22.000 50.000 11.300
      vertex -22.000 50.000 15.000
    endloop
  endfacet
  facet normal -1.000000 0.000000 0.000000
    outer loop
      vertex -22.000 50.000 15.000
      vertex -22.000 50.000 11.300
      vertex -22.000 -50.000 11.300
    endloop
  endfacet
  facet normal -1.000000 0.000000 0.000000
    outer loop
      vertex -22.000 50.000 15.000
      vertex -22.000 -50.000 11.300
      vertex -22.000 -50.000 15.000
    endloop
  endfacet
  facet normal 0.969416 0.000000 -0.245422
    outer loop
      vertex -17.200 -50.000 11.300
      vertex -19.200 -50.000 3.400
      vertex -19.200 50.000 3.400
    endloop
  endfacet
  facet normal 0.969416 0.000000 -0.245422
    outer loop
      vertex -17.200 -50.000 11.300
      vertex -19.200 50.000 3.400
      vertex -17.200 50.000 11.300
    endloop
  endfacet
  facet normal 0.000000 0.000000 -1.000000
    outer loop
      vertex -19.200 -50.000 3.400
      vertex -21.500 -50.000 3.400
      vertex -21.500 50.000 3.400
    endloop
  endfacet
  facet normal 0.000000 0.000000 -1.000000
    outer loop
      vertex -19.200 -50.000 3.400
      vertex -21.500 50.000 3.400
      vertex -19.200 50.000 3.400
    endloop
  endfacet
  facet normal -0.969416 0.000000 0.245422
    outer loop
      vertex -21.500 -50.000 3.400
      vertex -19.500 -50.000 11.300
      vertex -19.500 50.000 11.300
    endloop
  endfacet
  facet normal -0.969416 0.000000 0.245422
    outer loop
      vertex -21.500 -50.000 3.400
      vertex -19.500 50.000 11.300
      vertex -21.500 50.000 3.400
    endloop
  endfacet
  facet normal 0.000000 0.000000 1.000000
    outer loop
      vertex -19.500 -50.000 11.300
      vertex -17.200 -50.000 11.300
      vertex -17.200 50.000 11.300
    endloop
  endfacet
  facet normal 0.000000 0.000000 1.000000
    outer loop
      vertex -19.500 -50.000 11.300
      vertex -17.200 50.000 11.300
      vertex -19.500 50.000 11.300
    endloop
  endfacet
  facet normal 0.000000 -1.000000 0.000000
    outer loop
      vertex -19.350 -50.000 7.350
      vertex -19.200 -50.000 3.400
      vertex -17.200 -50.000 11.300
    endloop
  endfacet
  facet normal 0.000000 -1.000000 0.000000
    outer loop
      vertex -19.350 -50.000 7.350
      vertex -21.500 -50.000 3.400
      vertex -19.200 -50.000 3.400
    endloop
  endfacet
  facet normal 0.000000 -1.000000 0.000000
    outer loop
      vertex -19.350 -50.000 7.350
      vertex -19.500 -50.000 11.300
      vertex -21.500 -50.000 3.400
    endloop
  endfacet
  facet normal 0.000000 -1.000000 0.000000
    outer loop
      vertex -19.350 -50.000 7.350
      vertex -17.200 -50.000 11.300
      vertex -19.500 -50.000 11.300
    endloop
  endfacet
  facet normal 0.000000 1.000000 0.000000
    outer loop
      vertex -19.350 50.000 7.350
      vertex -17.200 50.000 11.300
      vertex -19.200 50.000 3.400
    endloop
  endfacet
  facet normal 0.000000 1.000000 0.000000
    outer loop
      vertex -19.350 50.000 7.350
      vertex -19.200 50.000 3.400
      vertex -21.500 50.000 3.400
    endloop
  endfacet
  facet normal 0.000000 1.000000 0.000000
    outer loop
      vertex -19.350 50.000 7.350
      vertex -21.500 50.000 3.400
      vertex -19.500 50.000 11.300
    endloop
  endfacet
  facet normal 0.000000 1.000000 0.000000
    outer loop
      vertex -19.350 50.000 7.350
      vertex -19.500 50.000 11.300
      vertex -17.200 50.000 11.300
    endloop
  endfacet
  facet normal 0.000000 0.000000 1.000000
    outer loop
      vertex 16.000 -50.000 3.400
      vertex 35.000 -50.000 3.400
      vertex 35.000 50.000 3.400
    endloop
  endfacet
  facet normal 0.000000 0.000000 1.000000
    outer loop
      vertex 16.000 -50.000 3.400
      vertex 35.000 50.000 3.400
      vertex 16.000 50.000 3.400
    endloop
  endfacet
  facet normal 0.000000 0.000000 -1.000000
    outer loop
      vertex 16.000 -50.000 0.000
      vertex 16.000 50.000 0.000
      vertex 35.000 50.000 0.000
    endloop
  endfacet
  facet normal 0.000000 0.000000 -1.000000
    outer loop
      vertex 16.000 -50.000 0.000
      vertex 35.000 50.000 0.000
      vertex 35.000 -50.000 0.000
    endloop
  endfacet
  facet normal 0.000000 -1.000000 0.000000
    outer loop
      vertex 16.000 -50.000 3.400
      vertex 16.000 -50.000 0.000
      vertex 35.000 -50.000 0.000
    endloop
  endfacet
  facet normal 0.000000 -1.000000 0.000000
    outer loop
      vertex 16.000 -50.000 3.400
      vertex 35.000 -50.000 0.000
      vertex 35.000 -50.000 3.400
    endloop
  endfacet
  facet normal 1.000000 0.000000 0.000000
    outer loop
      vertex 35.000 -50.000 3.400
      vertex 35.000 -50.000 0.000
      vertex 35.000 50.000 0.000
    endloop
  endfacet
  facet normal 1.000000 0.000000 0.000000
    outer loop
      vertex 35.000 -50.000 3.400
      vertex 35.000 50.000 0.000
      vertex 35.000 50.000 3.400
    endloop
  endfacet
  facet normal 0.000000 1.000000 0.000000
    outer loop
      vertex 35.000 50.000 3.400
      vertex 35.000 50.000 0.000
      vertex 16.000 50.000 0.000
    endloop
  endfacet
  facet normal 0.000000 1.000000 0.000000
    outer loop
      vertex 35.000 50.000 3.400
      vertex 16.000 50.000 0.000
      vertex 16.000 50.000 3.400
    endloop
  endfacet
  facet normal -1.000000 0.000000 0.000000
    outer loop
      vertex 16.000 50.000 3.400
      vertex 16.000 50.000 0.000
      vertex 16.000 -50.000 0.000
    endloop
  endfacet
  facet normal -1.000000 0.000000 0.000000
    outer loop
      vertex 16.000 50.000 3.400
      vertex 16.000 -50.000 0.000
      vertex 16.000 -50.000 3.400
    endloop
  endfacet
  facet normal 0.000000 0.000000 1.000000
    outer loop
      vertex 32.000 -50.000 12.000
      vertex 35.000 -50.000 12.000
      vertex 35.000 50.000 12.000
    endloop
  endfacet
  facet normal 0.000000 0.000000 1.000000
    outer loop
      vertex 32.000 -50.000 12.000
      vertex 35.000 50.000 12.000
      vertex 32.000 50.000 12.000
    endloop
  endfacet
  facet normal 0.000000 0.000000 -1.000000
    outer loop
      vertex 32.000 -50.000 0.000
      vertex 32.000 50.000 0.000
      vertex 35.000 50.000 0.000
    endloop
  endfacet
  facet normal 0.000000 0.000000 -1.000000
    outer loop
      vertex 32.000 -50.000 0.000
      vertex 35.000 50.000 0.000
      vertex 35.000 -50.000 0.000
    endloop
  endfacet
  facet normal 0.000000 -1.000000 0.000000
    outer loop
      vertex 32.000 -50.000 12.000
      vertex 32.000 -50.000 0.000
      vertex 35.000 -50.000 0.000
    endloop
  endfacet
  facet normal 0.000000 -1.000000 0.000000
    outer loop
      vertex 32.000 -50.000 12.000
      vertex 35.000 -50.000 0.000
      vertex 35.000 -50.000 12.000
    endloop
  endfacet
  facet normal 1.000000 0.000000 0.000000
    outer loop
      vertex 35.000 -50.000 12.000
      vertex 35.000 -50.000 0.000
      vertex 35.000 50.000 0.000
    endloop
  endfacet
  facet normal 1.000000 0.000000 0.000000
    outer loop
      vertex 35.000 -50.000 12.000
      vertex 35.000 50.000 0.000
      vertex 35.000 50.000 12.000
    endloop
  endfacet
  facet normal 0.000000 1.000000 0.000000
    outer loop
      vertex 35.000 50.000 12.000
      vertex 35.000 50.000 0.000
      vertex 32.000 50.000 0.000
    endloop
  endfacet
  facet normal 0.000000 1.000000 0.000000
    outer loop
      vertex 35.000 50.000 12.000
      vertex 32.000 50.000 0.000
      vertex 32.000 50.000 12.000
    endloop
  endfacet
  facet normal -1.000000 0.000000 0.000000
    outer loop
      vertex 32.000 50.000 12.000
      vertex 32.000 50.000 0.000
      vertex 32.000 -50.000 0.000
    endloop
  endfacet
  facet normal -1.000000 0.000000 0.000000
    outer loop
      vertex 32.000 50.000 12.000
      vertex 32.000 -50.000 0.000
      vertex 32.000 -50.000 12.000
    endloop
  endfacet
  facet normal 0.000000 0.000000 1.000000
    outer loop
      vertex 17.000 -50.000 15.000
      vertex 22.000 -50.000 15.000
      vertex 22.000 50.000 15.000
    endloop
  endfacet
  facet normal 0.000000 0.000000 1.000000
    outer loop
      vertex 17.000 -50.000 15.000
      vertex 22.000 50.000 15.000
      vertex 17.000 50.000 15.000
    endloop
  endfacet
  facet normal 0.000000 0.000000 -1.000000
    outer loop
      vertex 17.000 -50.000 11.300
      vertex 17.000 50.000 11.300
      vertex 22.000 50.000 11.300
    endloop
  endfacet
  facet normal 0.000000 0.000000 -1.000000
    outer loop
      vertex 17.000 -50.000 11.300
      vertex 22.000 50.000 11.300
      vertex 22.000 -50.000 11.300
    endloop
  endfacet
  facet normal 0.000000 -1.000000 0.000000
    outer loop
      vertex 17.000 -50.000 15.000
      vertex 17.000 -50.000 11.300
      vertex 22.000 -50.000 11.300
    endloop
  endfacet
  facet normal 0.000000 -1.000000 0.000000
    outer loop
      vertex 17.000 -50.000 15.000
      vertex 22.000 -50.000 11.300
      vertex 22.000 -50.000 15.000
    endloop
  endfacet
  facet normal 1.000000 0.000000 0.000000
    outer loop
      vertex 22.000 -50.000 15.000
      vertex 22.000 -50.000 11.300
      vertex 22.000 50.000 11.300
    endloop
  endfacet
  facet normal 1.000000 0.000000 0.000000
    outer loop
      vertex 22.000 -50.000 15.000
      vertex 22.000 50.000 11.300
      vertex 22.000 50.000 15.000
    endloop
  endfacet
  facet normal 0.000000 1.000000 0.000000
    outer loop
      vertex 22.000 50.000 15.000
      vertex 22.000 50.000 11.300
      vertex 17.000 50.000 11.300
    endloop
  endfacet
  facet normal 0.000000 1.000000 0.000000
    outer loop
      vertex 22.000 50.000 15.000
      vertex 17.000 50.000 11.300
      vertex 17.000 50.000 15.000
    endloop
  endfacet
  facet normal -1.000000 0.000000 0.000000
    outer loop
      vertex 17.000 50.000 15.000
      vertex 17.000 50.000 11.300
      vertex 17.000 -50.000 11.300
    endloop
  endfacet
  facet normal -1.000000 0.000000 0.000000
    outer loop
      vertex 17.000 50.000 15.000
      vertex 17.000 -50.000 11.300
      vertex 17.000 -50.000 15.000
    endloop
  endfacet
  facet normal 0.969416 0.000000 0.245422
    outer loop
      vertex 17.200 -50.000 11.300
      vertex 19.200 -50.000 3.400
      vertex 19.200 50.000 3.400
    endloop
  endfacet
  facet normal 0.969416 0.000000 0.245422
    outer loop
      vertex 17.200 -50.000 11.300
      vertex 19.200 50.000 3.400
      vertex 17.200 50.000 11.300
    endloop
  endfacet
  facet normal 0.000000 0.000000 1.000000
    outer loop
      vertex 19.200 -50.000 3.400
      vertex 21.500 -50.000 3.400
      vertex 21.500 50.000 3.400
    endloop
  endfacet
  facet normal 0.000000 0.000000 1.000000
    outer loop
      vertex 19.200 -50.000 3.400
      vertex 21.500 50.000 3.400
      vertex 19.200 50.000 3.400
    endloop
  endfacet
  facet normal -0.969416 0.000000 -0.245422
    outer loop
      vertex 21.500 -50.000 3.400
      vertex 19.500 -50.000 11.300
      vertex 19.500 50.000 11.300
    endloop
  endfacet
  facet normal -0.969416 0.000000 -0.245422
    outer loop
      vertex 21.500 -50.000 3.400
      vertex 19.500 50.000 11.300
      vertex 21.500 50.000 3.400
    endloop
  endfacet
  facet normal 0.000000 0.000000 -1.000000
    outer loop
      vertex 19.500 -50.000 11.300
      vertex 17.200 -50.000 11.300
      vertex 17.200 50.000 11.300
    endloop
  endfacet
  facet normal 0.000000 0.000000 -1.000000
    outer loop
      vertex 19.500 -50.000 11.300
      vertex 17.200 50.000 11.300
      vertex 19.500 50.000 11.300
    endloop
  endfacet
  facet normal 0.000000 1.000000 0.000000
    outer loop
      vertex 19.350 -50.000 7.350
      vertex 19.200 -50.000 3.400
      vertex 17.200 -50.000 11.300
    endloop
  endfacet
  facet normal 0.000000 1.000000 0.000000
    outer loop
      vertex 19.350 -50.000 7.350
      vertex 21.500 -50.000 3.400
      vertex 19.200 -50.000 3.400
    endloop
  endfacet
  facet normal 0.000000 1.000000 0.000000
    outer loop
      vertex 19.350 -50.000 7.350
      vertex 19.500 -50.000 11.300
      vertex 21.500 -50.000 3.400
    endloop
  endfacet
  facet normal 0.000000 1.000000 0.000000
    outer loop
      vertex 19.350 -50.000 7.350
      vertex 17.200 -50.000 11.300
      vertex 19.500 -50.000 11.300
    endloop
  endfacet
  facet normal 0.000000 -1.000000 0.000000
    outer loop
      vertex 19.350 50.000 7.350
      vertex 17.200 50.000 11.300
      vertex 19.200 50.000 3.400
    endloop
  endfacet
  facet normal 0.000000 -1.000000 0.000000
    outer loop
      vertex 19.350 50.000 7.350
      vertex 19.200 50.000 3.400
      vertex 21.500 50.000 3.400
    endloop
  endfacet
  facet normal 0.000000 -1.000000 0.000000
    outer loop
      vertex 19.350 50.000 7.350
      vertex 21.500 50.000 3.400
      vertex 19.500 50.000 11.300
    endloop
  endfacet
  facet normal 0.000000 -1.000000 0.000000
    outer loop
      vertex 19.350 50.000 7.350
      vertex 19.500 50.000 11.300
      vertex 17.200 50.000 11.300
    endloop
  endfacet
endsolid food_caddy_k1se_hanger_ears_pair
