solid food_caddy_k1se_liner_hanger_plate_bed_centered
  facet normal 0.000000 -1.000000 0.000000
    outer loop
      vertex 32.000 31.000 0.000
      vertex 188.000 31.000 0.000
      vertex 188.000 31.000 2.000
    endloop
  endfacet
  facet normal 0.000000 -1.000000 0.000000
    outer loop
      vertex 32.000 31.000 0.000
      vertex 188.000 31.000 2.000
      vertex 32.000 31.000 2.000
    endloop
  endfacet
  facet normal 0.000000 1.000000 0.000000
    outer loop
      vertex 184.000 38.000 0.000
      vertex 36.000 38.000 0.000
      vertex 36.000 38.000 2.000
    endloop
  endfacet
  facet normal 0.000000 1.000000 0.000000
    outer loop
      vertex 184.000 38.000 0.000
      vertex 36.000 38.000 2.000
      vertex 184.000 38.000 2.000
    endloop
  endfacet
  facet normal 0.000000 0.000000 1.000000
    outer loop
      vertex 32.000 31.000 2.000
      vertex 188.000 31.000 2.000
      vertex 184.000 38.000 2.000
    endloop
  endfacet
  facet normal 0.000000 0.000000 1.000000
    outer loop
      vertex 32.000 31.000 2.000
      vertex 184.000 38.000 2.000
      vertex 36.000 38.000 2.000
    endloop
  endfacet
  facet normal 0.000000 0.000000 -1.000000
    outer loop
      vertex 188.000 31.000 0.000
      vertex 32.000 31.000 0.000
      vertex 36.000 38.000 0.000
    endloop
  endfacet
  facet normal 0.000000 0.000000 -1.000000
    outer loop
      vertex 188.000 31.000 0.000
      vertex 36.000 38.000 0.000
      vertex 184.000 38.000 0.000
    endloop
  endfacet
  facet normal 0.707107 -0.707107 0.000000
    outer loop
      vertex 188.000 31.000 0.000
      vertex 209.000 52.000 0.000
      vertex 209.000 52.000 2.000
    endloop
  endfacet
  facet normal 0.707107 -0.707107 0.000000
    outer loop
      vertex 188.000 31.000 0.000
      vertex 209.000 52.000 2.000
      vertex 188.000 31.000 2.000
    endloop
  endfacet
  facet normal -0.707107 0.707107 0.000000
    outer loop
      vertex 202.000 56.000 0.000
      vertex 184.000 38.000 0.000
      vertex 184.000 38.000 2.000
    endloop
  endfacet
  facet normal -0.707107 0.707107 0.000000
    outer loop
      vertex 202.000 56.000 0.000
      vertex 184.000 38.000 2.000
      vertex 202.000 56.000 2.000
    endloop
  endfacet
  facet normal 0.000000 0.000000 1.000000
    outer loop
      vertex 188.000 31.000 2.000
      vertex 209.000 52.000 2.000
      vertex 202.000 56.000 2.000
    endloop
  endfacet
  facet normal 0.000000 0.000000 1.000000
    outer loop
      vertex 188.000 31.000 2.000
      vertex 202.000 56.000 2.000
      vertex 184.000 38.000 2.000
    endloop
  endfacet
  facet normal 0.000000 0.000000 -1.000000
    outer loop
      vertex 209.000 52.000 0.000
      vertex 188.000 31.000 0.000
      vertex 184.000 38.000 0.000
    endloop
  endfacet
  facet normal 0.000000 0.000000 -1.000000
    outer loop
      vertex 209.000 52.000 0.000
      vertex 184.000 38.000 0.000
      vertex 202.000 56.000 0.000
    endloop
  endfacet
  facet normal 1.000000 0.000000 0.000000
    outer loop
      vertex 209.000 52.000 0.000
      vertex 209.000 168.000 0.000
      vertex 209.000 168.000 2.000
    endloop
  endfacet
  facet normal 1.000000 0.000000 0.000000
    outer loop
      vertex 209.000 52.000 0.000
      vertex 209.000 168.000 2.000
      vertex 209.000 52.000 2.000
    endloop
  endfacet
  facet normal -1.000000 0.000000 0.000000
    outer loop
      vertex 202.000 164.000 0.000
      vertex 202.000 56.000 0.000
      vertex 202.000 56.000 2.000
    endloop
  endfacet
  facet normal -1.000000 0.000000 0.000000
    outer loop
      vertex 202.000 164.000 0.000
      vertex 202.000 56.000 2.000
      vertex 202.000 164.000 2.000
    endloop
  endfacet
  facet normal 0.000000 0.000000 1.000000
    outer loop
      vertex 209.000 52.000 2.000
      vertex 209.000 168.000 2.000
      vertex 202.000 164.000 2.000
    endloop
  endfacet
  facet normal 0.000000 0.000000 1.000000
    outer loop
      vertex 209.000 52.000 2.000
      vertex 202.000 164.000 2.000
      vertex 202.000 56.000 2.000
    endloop
  endfacet
  facet normal 0.000000 0.000000 -1.000000
    outer loop
      vertex 209.000 168.000 0.000
      vertex 209.000 52.000 0.000
      vertex 202.000 56.000 0.000
    endloop
  endfacet
  facet normal 0.000000 0.000000 -1.000000
    outer loop
      vertex 209.000 168.000 0.000
      vertex 202.000 56.000 0.000
      vertex 202.000 164.000 0.000
    endloop
  endfacet
  facet normal 0.707107 0.707107 0.000000
    outer loop
      vertex 209.000 168.000 0.000
      vertex 188.000 189.000 0.000
      vertex 188.000 189.000 2.000
    endloop
  endfacet
  facet normal 0.707107 0.707107 0.000000
    outer loop
      vertex 209.000 168.000 0.000
      vertex 188.000 189.000 2.000
      vertex 209.000 168.000 2.000
    endloop
  endfacet
  facet normal -0.707107 -0.707107 0.000000
    outer loop
      vertex 184.000 182.000 0.000
      vertex 202.000 164.000 0.000
      vertex 202.000 164.000 2.000
    endloop
  endfacet
  facet normal -0.707107 -0.707107 0.000000
    outer loop
      vertex 184.000 182.000 0.000
      vertex 202.000 164.000 2.000
      vertex 184.000 182.000 2.000
    endloop
  endfacet
  facet normal 0.000000 0.000000 1.000000
    outer loop
      vertex 209.000 168.000 2.000
      vertex 188.000 189.000 2.000
      vertex 184.000 182.000 2.000
    endloop
  endfacet
  facet normal 0.000000 0.000000 1.000000
    outer loop
      vertex 209.000 168.000 2.000
      vertex 184.000 182.000 2.000
      vertex 202.000 164.000 2.000
    endloop
  endfacet
  facet normal 0.000000 0.000000 -1.000000
    outer loop
      vertex 188.000 189.000 0.000
      vertex 209.000 168.000 0.000
      vertex 202.000 164.000 0.000
    endloop
  endfacet
  facet normal 0.000000 0.000000 -1.000000
    outer loop
      vertex 188.000 189.000 0.000
      vertex 202.000 164.000 0.000
      vertex 184.000 182.000 0.000
    endloop
  endfacet
  facet normal 0.000000 1.000000 0.000000
    outer loop
      vertex 188.000 189.000 0.000
      vertex 32.000 189.000 0.000
      vertex 32.000 189.000 2.000
    endloop
  endfacet
  facet normal 0.000000 1.000000 0.000000
    outer loop
      vertex 188.000 189.000 0.000
      vertex 32.000 189.000 2.000
      vertex 188.000 189.000 2.000
    endloop
  endfacet
  facet normal 0.000000 -1.000000 0.000000
    outer loop
      vertex 36.000 182.000 0.000
      vertex 184.000 182.000 0.000
      vertex 184.000 182.000 2.000
    endloop
  endfacet
  facet normal 0.000000 -1.000000 0.000000
    outer loop
      vertex 36.000 182.000 0.000
      vertex 184.000 182.000 2.000
      vertex 36.000 182.000 2.000
    endloop
  endfacet
  facet normal 0.000000 0.000000 1.000000
    outer loop
      vertex 188.000 189.000 2.000
      vertex 32.000 189.000 2.000
      vertex 36.000 182.000 2.000
    endloop
  endfacet
  facet normal 0.000000 0.000000 1.000000
    outer loop
      vertex 188.000 189.000 2.000
      vertex 36.000 182.000 2.000
      vertex 184.000 182.000 2.000
    endloop
  endfacet
  facet normal 0.000000 0.000000 -1.000000
    outer loop
      vertex 32.000 189.000 0.000
      vertex 188.000 189.000 0.000
      vertex 184.000 182.000 0.000
    endloop
  endfacet
  facet normal 0.000000 0.000000 -1.000000
    outer loop
      vertex 32.000 189.000 0.000
      vertex 184.000 182.000 0.000
      vertex 36.000 182.000 0.000
    endloop
  endfacet
  facet normal -0.707107 0.707107 0.000000
    outer loop
      vertex 32.000 189.000 0.000
      vertex 11.000 168.000 0.000
      vertex 11.000 168.000 2.000
    endloop
  endfacet
  facet normal -0.707107 0.707107 0.000000
    outer loop
      vertex 32.000 189.000 0.000
      vertex 11.000 168.000 2.000
      vertex 32.000 189.000 2.000
    endloop
  endfacet
  facet normal 0.707107 -0.707107 0.000000
    outer loop
      vertex 18.000 164.000 0.000
      vertex 36.000 182.000 0.000
      vertex 36.000 182.000 2.000
    endloop
  endfacet
  facet normal 0.707107 -0.707107 0.000000
    outer loop
      vertex 18.000 164.000 0.000
      vertex 36.000 182.000 2.000
      vertex 18.000 164.000 2.000
    endloop
  endfacet
  facet normal 0.000000 0.000000 1.000000
    outer loop
      vertex 32.000 189.000 2.000
      vertex 11.000 168.000 2.000
      vertex 18.000 164.000 2.000
    endloop
  endfacet
  facet normal 0.000000 0.000000 1.000000
    outer loop
      vertex 32.000 189.000 2.000
      vertex 18.000 164.000 2.000
      vertex 36.000 182.000 2.000
    endloop
  endfacet
  facet normal 0.000000 0.000000 -1.000000
    outer loop
      vertex 11.000 168.000 0.000
      vertex 32.000 189.000 0.000
      vertex 36.000 182.000 0.000
    endloop
  endfacet
  facet normal 0.000000 0.000000 -1.000000
    outer loop
      vertex 11.000 168.000 0.000
      vertex 36.000 182.000 0.000
      vertex 18.000 164.000 0.000
    endloop
  endfacet
  facet normal -1.000000 0.000000 0.000000
    outer loop
      vertex 11.000 168.000 0.000
      vertex 11.000 52.000 0.000
      vertex 11.000 52.000 2.000
    endloop
  endfacet
  facet normal -1.000000 0.000000 0.000000
    outer loop
      vertex 11.000 168.000 0.000
      vertex 11.000 52.000 2.000
      vertex 11.000 168.000 2.000
    endloop
  endfacet
  facet normal 1.000000 0.000000 0.000000
    outer loop
      vertex 18.000 56.000 0.000
      vertex 18.000 164.000 0.000
      vertex 18.000 164.000 2.000
    endloop
  endfacet
  facet normal 1.000000 0.000000 0.000000
    outer loop
      vertex 18.000 56.000 0.000
      vertex 18.000 164.000 2.000
      vertex 18.000 56.000 2.000
    endloop
  endfacet
  facet normal 0.000000 0.000000 1.000000
    outer loop
      vertex 11.000 168.000 2.000
      vertex 11.000 52.000 2.000
      vertex 18.000 56.000 2.000
    endloop
  endfacet
  facet normal 0.000000 0.000000 1.000000
    outer loop
      vertex 11.000 168.000 2.000
      vertex 18.000 56.000 2.000
      vertex 18.000 164.000 2.000
    endloop
  endfacet
  facet normal 0.000000 0.000000 -1.000000
    outer loop
      vertex 11.000 52.000 0.000
      vertex 11.000 168.000 0.000
      vertex 18.000 164.000 0.000
    endloop
  endfacet
  facet normal 0.000000 0.000000 -1.000000
    outer loop
      vertex 11.000 52.000 0.000
      vertex 18.000 164.000 0.000
      vertex 18.000 56.000 0.000
    endloop
  endfacet
  facet normal -0.707107 -0.707107 0.000000
    outer loop
      vertex 11.000 52.000 0.000
      vertex 32.000 31.000 0.000
      vertex 32.000 31.000 2.000
    endloop
  endfacet
  facet normal -0.707107 -0.707107 0.000000
    outer loop
      vertex 11.000 52.000 0.000
      vertex 32.000 31.000 2.000
      vertex 11.000 52.000 2.000
    endloop
  endfacet
  facet normal 0.707107 0.707107 0.000000
    outer loop
      vertex 36.000 38.000 0.000
      vertex 18.000 56.000 0.000
      vertex 18.000 56.000 2.000
    endloop
  endfacet
  facet normal 0.707107 0.707107 0.000000
    outer loop
      vertex 36.000 38.000 0.000
      vertex 18.000 56.000 2.000
      vertex 36.000 38.000 2.000
    endloop
  endfacet
  facet normal 0.000000 0.000000 1.000000
    outer loop
      vertex 11.000 52.000 2.000
      vertex 32.000 31.000 2.000
      vertex 36.000 38.000 2.000
    endloop
  endfacet
  facet normal 0.000000 0.000000 1.000000
    outer loop
      vertex 11.000 52.000 2.000
      vertex 36.000 38.000 2.000
      vertex 18.000 56.000 2.000
    endloop
  endfacet
  facet normal 0.000000 0.000000 -1.000000
    outer loop
      vertex 32.000 31.000 0.000
      vertex 11.000 52.000 0.000
      vertex 18.000 56.000 0.000
    endloop
  endfacet
  facet normal 0.000000 0.000000 -1.000000
    outer loop
      vertex 32.000 31.000 0.000
      vertex 18.000 56.000 0.000
      vertex 36.000 38.000 0.000
    endloop
  endfacet
  facet normal 0.000000 0.000000 1.000000
    outer loop
      vertex 80.000 28.000 0.000
      vertex 140.000 28.000 0.000
      vertex 140.000 35.000 0.000
    endloop
  endfacet
  facet normal 0.000000 0.000000 1.000000
    outer loop
      vertex 80.000 28.000 0.000
      vertex 140.000 35.000 0.000
      vertex 80.000 35.000 0.000
    endloop
  endfacet
  facet normal 0.000000 0.000000 -1.000000
    outer loop
      vertex 80.000 28.000 4.000
      vertex 80.000 35.000 4.000
      vertex 140.000 35.000 4.000
    endloop
  endfacet
  facet normal 0.000000 0.000000 -1.000000
    outer loop
      vertex 80.000 28.000 4.000
      vertex 140.000 35.000 4.000
      vertex 140.000 28.000 4.000
    endloop
  endfacet
  facet normal 0.000000 1.000000 0.000000
    outer loop
      vertex 80.000 28.000 0.000
      vertex 80.000 28.000 4.000
      vertex 140.000 28.000 4.000
    endloop
  endfacet
  facet normal 0.000000 1.000000 0.000000
    outer loop
      vertex 80.000 28.000 0.000
      vertex 140.000 28.000 4.000
      vertex 140.000 28.000 0.000
    endloop
  endfacet
  facet normal -1.000000 0.000000 0.000000
    outer loop
      vertex 140.000 28.000 0.000
      vertex 140.000 28.000 4.000
      vertex 140.000 35.000 4.000
    endloop
  endfacet
  facet normal -1.000000 0.000000 0.000000
    outer loop
      vertex 140.000 28.000 0.000
      vertex 140.000 35.000 4.000
      vertex 140.000 35.000 0.000
    endloop
  endfacet
  facet normal 0.000000 -1.000000 0.000000
    outer loop
      vertex 140.000 35.000 0.000
      vertex 140.000 35.000 4.000
      vertex 80.000 35.000 4.000
    endloop
  endfacet
  facet normal 0.000000 -1.000000 0.000000
    outer loop
      vertex 140.000 35.000 0.000
      vertex 80.000 35.000 4.000
      vertex 80.000 35.000 0.000
    endloop
  endfacet
  facet normal 1.000000 0.000000 0.000000
    outer loop
      vertex 80.000 35.000 0.000
      vertex 80.000 35.000 4.000
      vertex 80.000 28.000 4.000
    endloop
  endfacet
  facet normal 1.000000 0.000000 0.000000
    outer loop
      vertex 80.000 35.000 0.000
      vertex 80.000 28.000 4.000
      vertex 80.000 28.000 0.000
    endloop
  endfacet
  facet normal 0.000000 0.000000 1.000000
    outer loop
      vertex 80.000 185.000 0.000
      vertex 140.000 185.000 0.000
      vertex 140.000 192.000 0.000
    endloop
  endfacet
  facet normal 0.000000 0.000000 1.000000
    outer loop
      vertex 80.000 185.000 0.000
      vertex 140.000 192.000 0.000
      vertex 80.000 192.000 0.000
    endloop
  endfacet
  facet normal 0.000000 0.000000 -1.000000
    outer loop
      vertex 80.000 185.000 4.000
      vertex 80.000 192.000 4.000
      vertex 140.000 192.000 4.000
    endloop
  endfacet
  facet normal 0.000000 0.000000 -1.000000
    outer loop
      vertex 80.000 185.000 4.000
      vertex 140.000 192.000 4.000
      vertex 140.000 185.000 4.000
    endloop
  endfacet
  facet normal 0.000000 1.000000 0.000000
    outer loop
      vertex 80.000 185.000 0.000
      vertex 80.000 185.000 4.000
      vertex 140.000 185.000 4.000
    endloop
  endfacet
  facet normal 0.000000 1.000000 0.000000
    outer loop
      vertex 80.000 185.000 0.000
      vertex 140.000 185.000 4.000
      vertex 140.000 185.000 0.000
    endloop
  endfacet
  facet normal -1.000000 0.000000 0.000000
    outer loop
      vertex 140.000 185.000 0.000
      vertex 140.000 185.000 4.000
      vertex 140.000 192.000 4.000
    endloop
  endfacet
  facet normal -1.000000 0.000000 0.000000
    outer loop
      vertex 140.000 185.000 0.000
      vertex 140.000 192.000 4.000
      vertex 140.000 192.000 0.000
    endloop
  endfacet
  facet normal 0.000000 -1.000000 0.000000
    outer loop
      vertex 140.000 192.000 0.000
      vertex 140.000 192.000 4.000
      vertex 80.000 192.000 4.000
    endloop
  endfacet
  facet normal 0.000000 -1.000000 0.000000
    outer loop
      vertex 140.000 192.000 0.000
      vertex 80.000 192.000 4.000
      vertex 80.000 192.000 0.000
    endloop
  endfacet
  facet normal 1.000000 0.000000 0.000000
    outer loop
      vertex 80.000 192.000 0.000
      vertex 80.000 192.000 4.000
      vertex 80.000 185.000 4.000
    endloop
  endfacet
  facet normal 1.000000 0.000000 0.000000
    outer loop
      vertex 80.000 192.000 0.000
      vertex 80.000 185.000 4.000
      vertex 80.000 185.000 0.000
    endloop
  endfacet
  facet normal 0.000000 0.000000 1.000000
    outer loop
      vertex 8.000 90.000 0.000
      vertex 15.000 90.000 0.000
      vertex 15.000 130.000 0.000
    endloop
  endfacet
  facet normal 0.000000 0.000000 1.000000
    outer loop
      vertex 8.000 90.000 0.000
      vertex 15.000 130.000 0.000
      vertex 8.000 130.000 0.000
    endloop
  endfacet
  facet normal 0.000000 0.000000 -1.000000
    outer loop
      vertex 8.000 90.000 4.000
      vertex 8.000 130.000 4.000
      vertex 15.000 130.000 4.000
    endloop
  endfacet
  facet normal 0.000000 0.000000 -1.000000
    outer loop
      vertex 8.000 90.000 4.000
      vertex 15.000 130.000 4.000
      vertex 15.000 90.000 4.000
    endloop
  endfacet
  facet normal 0.000000 1.000000 0.000000
    outer loop
      vertex 8.000 90.000 0.000
      vertex 8.000 90.000 4.000
      vertex 15.000 90.000 4.000
    endloop
  endfacet
  facet normal 0.000000 1.000000 0.000000
    outer loop
      vertex 8.000 90.000 0.000
      vertex 15.000 90.000 4.000
      vertex 15.000 90.000 0.000
    endloop
  endfacet
  facet normal -1.000000 0.000000 0.000000
    outer loop
      vertex 15.000 90.000 0.000
      vertex 15.000 90.000 4.000
      vertex 15.000 130.000 4.000
    endloop
  endfacet
  facet normal -1.000000 0.000000 0.000000
    outer loop
      vertex 15.000 90.000 0.000
      vertex 15.000 130.000 4.000
      vertex 15.000 130.000 0.000
    endloop
  endfacet
  facet normal 0.000000 -1.000000 0.000000
    outer loop
      vertex 15.000 130.000 0.000
      vertex 15.000 130.000 4.000
      vertex 8.000 130.000 4.000
    endloop
  endfacet
  facet normal 0.000000 -1.000000 0.000000
    outer loop
      vertex 15.000 130.000 0.000
      vertex 8.000 130.000 4.000
      vertex 8.000 130.000 0.000
    endloop
  endfacet
  facet normal 1.000000 0.000000 0.000000
    outer loop
      vertex 8.000 130.000 0.000
      vertex 8.000 130.000 4.000
      vertex 8.000 90.000 4.000
    endloop
  endfacet
  facet normal 1.000000 0.000000 0.000000
    outer loop
      vertex 8.000 130.000 0.000
      vertex 8.000 90.000 4.000
      vertex 8.000 90.000 0.000
    endloop
  endfacet
  facet normal 0.000000 0.000000 1.000000
    outer loop
      vertex 205.000 90.000 0.000
      vertex 212.000 90.000 0.000
      vertex 212.000 130.000 0.000
    endloop
  endfacet
  facet normal 0.000000 0.000000 1.000000
    outer loop
      vertex 205.000 90.000 0.000
      vertex 212.000 130.000 0.000
      vertex 205.000 130.000 0.000
    endloop
  endfacet
  facet normal 0.000000 0.000000 -1.000000
    outer loop
      vertex 205.000 90.000 4.000
      vertex 205.000 130.000 4.000
      vertex 212.000 130.000 4.000
    endloop
  endfacet
  facet normal 0.000000 0.000000 -1.000000
    outer loop
      vertex 205.000 90.000 4.000
      vertex 212.000 130.000 4.000
      vertex 212.000 90.000 4.000
    endloop
  endfacet
  facet normal 0.000000 1.000000 0.000000
    outer loop
      vertex 205.000 90.000 0.000
      vertex 205.000 90.000 4.000
      vertex 212.000 90.000 4.000
    endloop
  endfacet
  facet normal 0.000000 1.000000 0.000000
    outer loop
      vertex 205.000 90.000 0.000
      vertex 212.000 90.000 4.000
      vertex 212.000 90.000 0.000
    endloop
  endfacet
  facet normal -1.000000 0.000000 0.000000
    outer loop
      vertex 212.000 90.000 0.000
      vertex 212.000 90.000 4.000
      vertex 212.000 130.000 4.000
    endloop
  endfacet
  facet normal -1.000000 0.000000 0.000000
    outer loop
      vertex 212.000 90.000 0.000
      vertex 212.000 130.000 4.000
      vertex 212.000 130.000 0.000
    endloop
  endfacet
  facet normal 0.000000 -1.000000 0.000000
    outer loop
      vertex 212.000 130.000 0.000
      vertex 212.000 130.000 4.000
      vertex 205.000 130.000 4.000
    endloop
  endfacet
  facet normal 0.000000 -1.000000 0.000000
    outer loop
      vertex 212.000 130.000 0.000
      vertex 205.000 130.000 4.000
      vertex 205.000 130.000 0.000
    endloop
  endfacet
  facet normal 1.000000 0.000000 0.000000
    outer loop
      vertex 205.000 130.000 0.000
      vertex 205.000 130.000 4.000
      vertex 205.000 90.000 4.000
    endloop
  endfacet
  facet normal 1.000000 0.000000 0.000000
    outer loop
      vertex 205.000 130.000 0.000
      vertex 205.000 90.000 4.000
      vertex 205.000 90.000 0.000
    endloop
  endfacet
  facet normal 0.000000 0.000000 1.000000
    outer loop
      vertex 75.000 60.000 3.400
      vertex 94.000 60.000 3.400
      vertex 94.000 160.000 3.400
    endloop
  endfacet
  facet normal 0.000000 0.000000 1.000000
    outer loop
      vertex 75.000 60.000 3.400
      vertex 94.000 160.000 3.400
      vertex 75.000 160.000 3.400
    endloop
  endfacet
  facet normal 0.000000 0.000000 -1.000000
    outer loop
      vertex 75.000 60.000 0.000
      vertex 75.000 160.000 0.000
      vertex 94.000 160.000 0.000
    endloop
  endfacet
  facet normal 0.000000 0.000000 -1.000000
    outer loop
      vertex 75.000 60.000 0.000
      vertex 94.000 160.000 0.000
      vertex 94.000 60.000 0.000
    endloop
  endfacet
  facet normal 0.000000 -1.000000 0.000000
    outer loop
      vertex 75.000 60.000 3.400
      vertex 75.000 60.000 0.000
      vertex 94.000 60.000 0.000
    endloop
  endfacet
  facet normal 0.000000 -1.000000 0.000000
    outer loop
      vertex 75.000 60.000 3.400
      vertex 94.000 60.000 0.000
      vertex 94.000 60.000 3.400
    endloop
  endfacet
  facet normal 1.000000 0.000000 0.000000
    outer loop
      vertex 94.000 60.000 3.400
      vertex 94.000 60.000 0.000
      vertex 94.000 160.000 0.000
    endloop
  endfacet
  facet normal 1.000000 0.000000 0.000000
    outer loop
      vertex 94.000 60.000 3.400
      vertex 94.000 160.000 0.000
      vertex 94.000 160.000 3.400
    endloop
  endfacet
  facet normal 0.000000 1.000000 0.000000
    outer loop
      vertex 94.000 160.000 3.400
      vertex 94.000 160.000 0.000
      vertex 75.000 160.000 0.000
    endloop
  endfacet
  facet normal 0.000000 1.000000 0.000000
    outer loop
      vertex 94.000 160.000 3.400
      vertex 75.000 160.000 0.000
      vertex 75.000 160.000 3.400
    endloop
  endfacet
  facet normal -1.000000 0.000000 0.000000
    outer loop
      vertex 75.000 160.000 3.400
      vertex 75.000 160.000 0.000
      vertex 75.000 60.000 0.000
    endloop
  endfacet
  facet normal -1.000000 0.000000 0.000000
    outer loop
      vertex 75.000 160.000 3.400
      vertex 75.000 60.000 0.000
      vertex 75.000 60.000 3.400
    endloop
  endfacet
  facet normal 0.000000 0.000000 1.000000
    outer loop
      vertex 75.000 60.000 12.000
      vertex 78.000 60.000 12.000
      vertex 78.000 160.000 12.000
    endloop
  endfacet
  facet normal 0.000000 0.000000 1.000000
    outer loop
      vertex 75.000 60.000 12.000
      vertex 78.000 160.000 12.000
      vertex 75.000 160.000 12.000
    endloop
  endfacet
  facet normal 0.000000 0.000000 -1.000000
    outer loop
      vertex 75.000 60.000 0.000
      vertex 75.000 160.000 0.000
      vertex 78.000 160.000 0.000
    endloop
  endfacet
  facet normal 0.000000 0.000000 -1.000000
    outer loop
      vertex 75.000 60.000 0.000
      vertex 78.000 160.000 0.000
      vertex 78.000 60.000 0.000
    endloop
  endfacet
  facet normal 0.000000 -1.000000 0.000000
    outer loop
      vertex 75.000 60.000 12.000
      vertex 75.000 60.000 0.000
      vertex 78.000 60.000 0.000
    endloop
  endfacet
  facet normal 0.000000 -1.000000 0.000000
    outer loop
      vertex 75.000 60.000 12.000
      vertex 78.000 60.000 0.000
      vertex 78.000 60.000 12.000
    endloop
  endfacet
  facet normal 1.000000 0.000000 0.000000
    outer loop
      vertex 78.000 60.000 12.000
      vertex 78.000 60.000 0.000
      vertex 78.000 160.000 0.000
    endloop
  endfacet
  facet normal 1.000000 0.000000 0.000000
    outer loop
      vertex 78.000 60.000 12.000
      vertex 78.000 160.000 0.000
      vertex 78.000 160.000 12.000
    endloop
  endfacet
  facet normal 0.000000 1.000000 0.000000
    outer loop
      vertex 78.000 160.000 12.000
      vertex 78.000 160.000 0.000
      vertex 75.000 160.000 0.000
    endloop
  endfacet
  facet normal 0.000000 1.000000 0.000000
    outer loop
      vertex 78.000 160.000 12.000
      vertex 75.000 160.000 0.000
      vertex 75.000 160.000 12.000
    endloop
  endfacet
  facet normal -1.000000 0.000000 0.000000
    outer loop
      vertex 75.000 160.000 12.000
      vertex 75.000 160.000 0.000
      vertex 75.000 60.000 0.000
    endloop
  endfacet
  facet normal -1.000000 0.000000 0.000000
    outer loop
      vertex 75.000 160.000 12.000
      vertex 75.000 60.000 0.000
      vertex 75.000 60.000 12.000
    endloop
  endfacet
  facet normal 0.000000 0.000000 1.000000
    outer loop
      vertex 88.000 60.000 15.000
      vertex 93.000 60.000 15.000
      vertex 93.000 160.000 15.000
    endloop
  endfacet
  facet normal 0.000000 0.000000 1.000000
    outer loop
      vertex 88.000 60.000 15.000
      vertex 93.000 160.000 15.000
      vertex 88.000 160.000 15.000
    endloop
  endfacet
  facet normal 0.000000 0.000000 -1.000000
    outer loop
      vertex 88.000 60.000 11.300
      vertex 88.000 160.000 11.300
      vertex 93.000 160.000 11.300
    endloop
  endfacet
  facet normal 0.000000 0.000000 -1.000000
    outer loop
      vertex 88.000 60.000 11.300
      vertex 93.000 160.000 11.300
      vertex 93.000 60.000 11.300
    endloop
  endfacet
  facet normal 0.000000 -1.000000 0.000000
    outer loop
      vertex 88.000 60.000 15.000
      vertex 88.000 60.000 11.300
      vertex 93.000 60.000 11.300
    endloop
  endfacet
  facet normal 0.000000 -1.000000 0.000000
    outer loop
      vertex 88.000 60.000 15.000
      vertex 93.000 60.000 11.300
      vertex 93.000 60.000 15.000
    endloop
  endfacet
  facet normal 1.000000 0.000000 0.000000
    outer loop
      vertex 93.000 60.000 15.000
      vertex 93.000 60.000 11.300
      vertex 93.000 160.000 11.300
    endloop
  endfacet
  facet normal 1.000000 0.000000 0.000000
    outer loop
      vertex 93.000 60.000 15.000
      vertex 93.000 160.000 11.300
      vertex 93.000 160.000 15.000
    endloop
  endfacet
  facet normal 0.000000 1.000000 0.000000
    outer loop
      vertex 93.000 160.000 15.000
      vertex 93.000 160.000 11.300
      vertex 88.000 160.000 11.300
    endloop
  endfacet
  facet normal 0.000000 1.000000 0.000000
    outer loop
      vertex 93.000 160.000 15.000
      vertex 88.000 160.000 11.300
      vertex 88.000 160.000 15.000
    endloop
  endfacet
  facet normal -1.000000 0.000000 0.000000
    outer loop
      vertex 88.000 160.000 15.000
      vertex 88.000 160.000 11.300
      vertex 88.000 60.000 11.300
    endloop
  endfacet
  facet normal -1.000000 0.000000 0.000000
    outer loop
      vertex 88.000 160.000 15.000
      vertex 88.000 60.000 11.300
      vertex 88.000 60.000 15.000
    endloop
  endfacet
  facet normal 0.969416 0.000000 -0.245422
    outer loop
      vertex 92.800 60.000 11.300
      vertex 90.800 60.000 3.400
      vertex 90.800 160.000 3.400
    endloop
  endfacet
  facet normal 0.969416 0.000000 -0.245422
    outer loop
      vertex 92.800 60.000 11.300
      vertex 90.800 160.000 3.400
      vertex 92.800 160.000 11.300
    endloop
  endfacet
  facet normal 0.000000 0.000000 -1.000000
    outer loop
      vertex 90.800 60.000 3.400
      vertex 88.500 60.000 3.400
      vertex 88.500 160.000 3.400
    endloop
  endfacet
  facet normal 0.000000 0.000000 -1.000000
    outer loop
      vertex 90.800 60.000 3.400
      vertex 88.500 160.000 3.400
      vertex 90.800 160.000 3.400
    endloop
  endfacet
  facet normal -0.969416 0.000000 0.245422
    outer loop
      vertex 88.500 60.000 3.400
      vertex 90.500 60.000 11.300
      vertex 90.500 160.000 11.300
    endloop
  endfacet
  facet normal -0.969416 0.000000 0.245422
    outer loop
      vertex 88.500 60.000 3.400
      vertex 90.500 160.000 11.300
      vertex 88.500 160.000 3.400
    endloop
  endfacet
  facet normal 0.000000 0.000000 1.000000
    outer loop
      vertex 90.500 60.000 11.300
      vertex 92.800 60.000 11.300
      vertex 92.800 160.000 11.300
    endloop
  endfacet
  facet normal 0.000000 0.000000 1.000000
    outer loop
      vertex 90.500 60.000 11.300
      vertex 92.800 160.000 11.300
      vertex 90.500 160.000 11.300
    endloop
  endfacet
  facet normal 0.000000 -1.000000 0.000000
    outer loop
      vertex 90.650 60.000 7.350
      vertex 90.800 60.000 3.400
      vertex 92.800 60.000 11.300
    endloop
  endfacet
  facet normal 0.000000 -1.000000 0.000000
    outer loop
      vertex 90.650 60.000 7.350
      vertex 88.500 60.000 3.400
      vertex 90.800 60.000 3.400
    endloop
  endfacet
  facet normal 0.000000 -1.000000 0.000000
    outer loop
      vertex 90.650 60.000 7.350
      vertex 90.500 60.000 11.300
      vertex 88.500 60.000 3.400
    endloop
  endfacet
  facet normal 0.000000 -1.000000 0.000000
    outer loop
      vertex 90.650 60.000 7.350
      vertex 92.800 60.000 11.300
      vertex 90.500 60.000 11.300
    endloop
  endfacet
  facet normal 0.000000 1.000000 0.000000
    outer loop
      vertex 90.650 160.000 7.350
      vertex 92.800 160.000 11.300
      vertex 90.800 160.000 3.400
    endloop
  endfacet
  facet normal 0.000000 1.000000 0.000000
    outer loop
      vertex 90.650 160.000 7.350
      vertex 90.800 160.000 3.400
      vertex 88.500 160.000 3.400
    endloop
  endfacet
  facet normal 0.000000 1.000000 0.000000
    outer loop
      vertex 90.650 160.000 7.350
      vertex 88.500 160.000 3.400
      vertex 90.500 160.000 11.300
    endloop
  endfacet
  facet normal 0.000000 1.000000 0.000000
    outer loop
      vertex 90.650 160.000 7.350
      vertex 90.500 160.000 11.300
      vertex 92.800 160.000 11.300
    endloop
  endfacet
  facet normal 0.000000 0.000000 1.000000
    outer loop
      vertex 126.000 60.000 3.400
      vertex 145.000 60.000 3.400
      vertex 145.000 160.000 3.400
    endloop
  endfacet
  facet normal 0.000000 0.000000 1.000000
    outer loop
      vertex 126.000 60.000 3.400
      vertex 145.000 160.000 3.400
      vertex 126.000 160.000 3.400
    endloop
  endfacet
  facet normal 0.000000 0.000000 -1.000000
    outer loop
      vertex 126.000 60.000 0.000
      vertex 126.000 160.000 0.000
      vertex 145.000 160.000 0.000
    endloop
  endfacet
  facet normal 0.000000 0.000000 -1.000000
    outer loop
      vertex 126.000 60.000 0.000
      vertex 145.000 160.000 0.000
      vertex 145.000 60.000 0.000
    endloop
  endfacet
  facet normal 0.000000 -1.000000 0.000000
    outer loop
      vertex 126.000 60.000 3.400
      vertex 126.000 60.000 0.000
      vertex 145.000 60.000 0.000
    endloop
  endfacet
  facet normal 0.000000 -1.000000 0.000000
    outer loop
      vertex 126.000 60.000 3.400
      vertex 145.000 60.000 0.000
      vertex 145.000 60.000 3.400
    endloop
  endfacet
  facet normal 1.000000 0.000000 0.000000
    outer loop
      vertex 145.000 60.000 3.400
      vertex 145.000 60.000 0.000
      vertex 145.000 160.000 0.000
    endloop
  endfacet
  facet normal 1.000000 0.000000 0.000000
    outer loop
      vertex 145.000 60.000 3.400
      vertex 145.000 160.000 0.000
      vertex 145.000 160.000 3.400
    endloop
  endfacet
  facet normal 0.000000 1.000000 0.000000
    outer loop
      vertex 145.000 160.000 3.400
      vertex 145.000 160.000 0.000
      vertex 126.000 160.000 0.000
    endloop
  endfacet
  facet normal 0.000000 1.000000 0.000000
    outer loop
      vertex 145.000 160.000 3.400
      vertex 126.000 160.000 0.000
      vertex 126.000 160.000 3.400
    endloop
  endfacet
  facet normal -1.000000 0.000000 0.000000
    outer loop
      vertex 126.000 160.000 3.400
      vertex 126.000 160.000 0.000
      vertex 126.000 60.000 0.000
    endloop
  endfacet
  facet normal -1.000000 0.000000 0.000000
    outer loop
      vertex 126.000 160.000 3.400
      vertex 126.000 60.000 0.000
      vertex 126.000 60.000 3.400
    endloop
  endfacet
  facet normal 0.000000 0.000000 1.000000
    outer loop
      vertex 142.000 60.000 12.000
      vertex 145.000 60.000 12.000
      vertex 145.000 160.000 12.000
    endloop
  endfacet
  facet normal 0.000000 0.000000 1.000000
    outer loop
      vertex 142.000 60.000 12.000
      vertex 145.000 160.000 12.000
      vertex 142.000 160.000 12.000
    endloop
  endfacet
  facet normal 0.000000 0.000000 -1.000000
    outer loop
      vertex 142.000 60.000 0.000
      vertex 142.000 160.000 0.000
      vertex 145.000 160.000 0.000
    endloop
  endfacet
  facet normal 0.000000 0.000000 -1.000000
    outer loop
      vertex 142.000 60.000 0.000
      vertex 145.000 160.000 0.000
      vertex 145.000 60.000 0.000
    endloop
  endfacet
  facet normal 0.000000 -1.000000 0.000000
    outer loop
      vertex 142.000 60.000 12.000
      vertex 142.000 60.000 0.000
      vertex 145.000 60.000 0.000
    endloop
  endfacet
  facet normal 0.000000 -1.000000 0.000000
    outer loop
      vertex 142.000 60.000 12.000
      vertex 145.000 60.000 0.000
      vertex 145.000 60.000 12.000
    endloop
  endfacet
  facet normal 1.000000 0.000000 0.000000
    outer loop
      vertex 145.000 60.000 12.000
      vertex 145.000 60.000 0.000
      vertex 145.000 160.000 0.000
    endloop
  endfacet
  facet normal 1.000000 0.000000 0.000000
    outer loop
      vertex 145.000 60.000 12.000
      vertex 145.000 160.000 0.000
      vertex 145.000 160.000 12.000
    endloop
  endfacet
  facet normal 0.000000 1.000000 0.000000
    outer loop
      vertex 145.000 160.000 12.000
      vertex 145.000 160.000 0.000
      vertex 142.000 160.000 0.000
    endloop
  endfacet
  facet normal 0.000000 1.000000 0.000000
    outer loop
      vertex 145.000 160.000 12.000
      vertex 142.000 160.000 0.000
      vertex 142.000 160.000 12.000
    endloop
  endfacet
  facet normal -1.000000 0.000000 0.000000
    outer loop
      vertex 142.000 160.000 12.000
      vertex 142.000 160.000 0.000
      vertex 142.000 60.000 0.000
    endloop
  endfacet
  facet normal -1.000000 0.000000 0.000000
    outer loop
      vertex 142.000 160.000 12.000
      vertex 142.000 60.000 0.000
      vertex 142.000 60.000 12.000
    endloop
  endfacet
  facet normal 0.000000 0.000000 1.000000
    outer loop
      vertex 127.000 60.000 15.000
      vertex 132.000 60.000 15.000
      vertex 132.000 160.000 15.000
    endloop
  endfacet
  facet normal 0.000000 0.000000 1.000000
    outer loop
      vertex 127.000 60.000 15.000
      vertex 132.000 160.000 15.000
      vertex 127.000 160.000 15.000
    endloop
  endfacet
  facet normal 0.000000 0.000000 -1.000000
    outer loop
      vertex 127.000 60.000 11.300
      vertex 127.000 160.000 11.300
      vertex 132.000 160.000 11.300
    endloop
  endfacet
  facet normal 0.000000 0.000000 -1.000000
    outer loop
      vertex 127.000 60.000 11.300
      vertex 132.000 160.000 11.300
      vertex 132.000 60.000 11.300
    endloop
  endfacet
  facet normal 0.000000 -1.000000 0.000000
    outer loop
      vertex 127.000 60.000 15.000
      vertex 127.000 60.000 11.300
      vertex 132.000 60.000 11.300
    endloop
  endfacet
  facet normal 0.000000 -1.000000 0.000000
    outer loop
      vertex 127.000 60.000 15.000
      vertex 132.000 60.000 11.300
      vertex 132.000 60.000 15.000
    endloop
  endfacet
  facet normal 1.000000 0.000000 0.000000
    outer loop
      vertex 132.000 60.000 15.000
      vertex 132.000 60.000 11.300
      vertex 132.000 160.000 11.300
    endloop
  endfacet
  facet normal 1.000000 0.000000 0.000000
    outer loop
      vertex 132.000 60.000 15.000
      vertex 132.000 160.000 11.300
      vertex 132.000 160.000 15.000
    endloop
  endfacet
  facet normal 0.000000 1.000000 0.000000
    outer loop
      vertex 132.000 160.000 15.000
      vertex 132.000 160.000 11.300
      vertex 127.000 160.000 11.300
    endloop
  endfacet
  facet normal 0.000000 1.000000 0.000000
    outer loop
      vertex 132.000 160.000 15.000
      vertex 127.000 160.000 11.300
      vertex 127.000 160.000 15.000
    endloop
  endfacet
  facet normal -1.000000 0.000000 0.000000
    outer loop
      vertex 127.000 160.000 15.000
      vertex 127.000 160.000 11.300
      vertex 127.000 60.000 11.300
    endloop
  endfacet
  facet normal -1.000000 0.000000 0.000000
    outer loop
      vertex 127.000 160.000 15.000
      vertex 127.000 60.000 11.300
      vertex 127.000 60.000 15.000
    endloop
  endfacet
  facet normal 0.969416 0.000000 0.245422
    outer loop
      vertex 127.200 60.000 11.300
      vertex 129.200 60.000 3.400
      vertex 129.200 160.000 3.400
    endloop
  endfacet
  facet normal 0.969416 0.000000 0.245422
    outer loop
      vertex 127.200 60.000 11.300
      vertex 129.200 160.000 3.400
      vertex 127.200 160.000 11.300
    endloop
  endfacet
  facet normal 0.000000 0.000000 1.000000
    outer loop
      vertex 129.200 60.000 3.400
      vertex 131.500 60.000 3.400
      vertex 131.500 160.000 3.400
    endloop
  endfacet
  facet normal 0.000000 0.000000 1.000000
    outer loop
      vertex 129.200 60.000 3.400
      vertex 131.500 160.000 3.400
      vertex 129.200 160.000 3.400
    endloop
  endfacet
  facet normal -0.969416 0.000000 -0.245422
    outer loop
      vertex 131.500 60.000 3.400
      vertex 129.500 60.000 11.300
      vertex 129.500 160.000 11.300
    endloop
  endfacet
  facet normal -0.969416 0.000000 -0.245422
    outer loop
      vertex 131.500 60.000 3.400
      vertex 129.500 160.000 11.300
      vertex 131.500 160.000 3.400
    endloop
  endfacet
  facet normal 0.000000 0.000000 -1.000000
    outer loop
      vertex 129.500 60.000 11.300
      vertex 127.200 60.000 11.300
      vertex 127.200 160.000 11.300
    endloop
  endfacet
  facet normal 0.000000 0.000000 -1.000000
    outer loop
      vertex 129.500 60.000 11.300
      vertex 127.200 160.000 11.300
      vertex 129.500 160.000 11.300
    endloop
  endfacet
  facet normal 0.000000 1.000000 0.000000
    outer loop
      vertex 129.350 60.000 7.350
      vertex 129.200 60.000 3.400
      vertex 127.200 60.000 11.300
    endloop
  endfacet
  facet normal 0.000000 1.000000 0.000000
    outer loop
      vertex 129.350 60.000 7.350
      vertex 131.500 60.000 3.400
      vertex 129.200 60.000 3.400
    endloop
  endfacet
  facet normal 0.000000 1.000000 0.000000
    outer loop
      vertex 129.350 60.000 7.350
      vertex 129.500 60.000 11.300
      vertex 131.500 60.000 3.400
    endloop
  endfacet
  facet normal 0.000000 1.000000 0.000000
    outer loop
      vertex 129.350 60.000 7.350
      vertex 127.200 60.000 11.300
      vertex 129.500 60.000 11.300
    endloop
  endfacet
  facet normal 0.000000 -1.000000 0.000000
    outer loop
      vertex 129.350 160.000 7.350
      vertex 127.200 160.000 11.300
      vertex 129.200 160.000 3.400
    endloop
  endfacet
  facet normal 0.000000 -1.000000 0.000000
    outer loop
      vertex 129.350 160.000 7.350
      vertex 129.200 160.000 3.400
      vertex 131.500 160.000 3.400
    endloop
  endfacet
  facet normal 0.000000 -1.000000 0.000000
    outer loop
      vertex 129.350 160.000 7.350
      vertex 131.500 160.000 3.400
      vertex 129.500 160.000 11.300
    endloop
  endfacet
  facet normal 0.000000 -1.000000 0.000000
    outer loop
      vertex 129.350 160.000 7.350
      vertex 129.500 160.000 11.300
      vertex 127.200 160.000 11.300
    endloop
  endfacet
  facet normal 0.000000 -0.995185 -0.098017
    outer loop
      vertex 182.000 113.800 3.800
      vertex 190.000 113.800 3.800
      vertex 190.000 113.727 4.541
    endloop
  endfacet
  facet normal 0.000000 -0.995185 -0.098017
    outer loop
      vertex 182.000 113.800 3.800
      vertex 190.000 113.727 4.541
      vertex 182.000 113.727 4.541
    endloop
  endfacet
  facet normal 0.000000 0.995185 0.098017
    outer loop
      vertex 182.000 111.422 4.083
      vertex 190.000 111.422 4.083
      vertex 190.000 111.450 3.800
    endloop
  endfacet
  facet normal 0.000000 0.995185 0.098017
    outer loop
      vertex 182.000 111.422 4.083
      vertex 190.000 111.450 3.800
      vertex 182.000 111.450 3.800
    endloop
  endfacet
  facet normal -1.000000 0.000000 0.000000
    outer loop
      vertex 182.000 113.727 4.541
      vertex 182.000 113.800 3.800
      vertex 182.000 111.450 3.800
    endloop
  endfacet
  facet normal -1.000000 0.000000 0.000000
    outer loop
      vertex 182.000 113.727 4.541
      vertex 182.000 111.450 3.800
      vertex 182.000 111.422 4.083
    endloop
  endfacet
  facet normal 1.000000 0.000000 0.000000
    outer loop
      vertex 190.000 113.800 3.800
      vertex 190.000 113.727 4.541
      vertex 190.000 111.422 4.083
    endloop
  endfacet
  facet normal 1.000000 0.000000 0.000000
    outer loop
      vertex 190.000 113.800 3.800
      vertex 190.000 111.422 4.083
      vertex 190.000 111.450 3.800
    endloop
  endfacet
  facet normal 0.000000 -0.956940 -0.290285
    outer loop
      vertex 182.000 113.727 4.541
      vertex 190.000 113.727 4.541
      vertex 190.000 113.511 5.254
    endloop
  endfacet
  facet normal 0.000000 -0.956940 -0.290285
    outer loop
      vertex 182.000 113.727 4.541
      vertex 190.000 113.511 5.254
      vertex 182.000 113.511 5.254
    endloop
  endfacet
  facet normal 0.000000 0.956940 0.290285
    outer loop
      vertex 182.000 111.340 4.355
      vertex 190.000 111.340 4.355
      vertex 190.000 111.422 4.083
    endloop
  endfacet
  facet normal 0.000000 0.956940 0.290285
    outer loop
      vertex 182.000 111.340 4.355
      vertex 190.000 111.422 4.083
      vertex 182.000 111.422 4.083
    endloop
  endfacet
  facet normal -1.000000 0.000000 0.000000
    outer loop
      vertex 182.000 113.511 5.254
      vertex 182.000 113.727 4.541
      vertex 182.000 111.422 4.083
    endloop
  endfacet
  facet normal -1.000000 0.000000 0.000000
    outer loop
      vertex 182.000 113.511 5.254
      vertex 182.000 111.422 4.083
      vertex 182.000 111.340 4.355
    endloop
  endfacet
  facet normal 1.000000 0.000000 0.000000
    outer loop
      vertex 190.000 113.727 4.541
      vertex 190.000 113.511 5.254
      vertex 190.000 111.340 4.355
    endloop
  endfacet
  facet normal 1.000000 0.000000 0.000000
    outer loop
      vertex 190.000 113.727 4.541
      vertex 190.000 111.340 4.355
      vertex 190.000 111.422 4.083
    endloop
  endfacet
  facet normal 0.000000 -0.881921 -0.471397
    outer loop
      vertex 182.000 113.511 5.254
      vertex 190.000 113.511 5.254
      vertex 190.000 113.160 5.911
    endloop
  endfacet
  facet normal 0.000000 -0.881921 -0.471397
    outer loop
      vertex 182.000 113.511 5.254
      vertex 190.000 113.160 5.911
      vertex 182.000 113.160 5.911
    endloop
  endfacet
  facet normal 0.000000 0.881921 0.471397
    outer loop
      vertex 182.000 111.206 4.606
      vertex 190.000 111.206 4.606
      vertex 190.000 111.340 4.355
    endloop
  endfacet
  facet normal 0.000000 0.881921 0.471397
    outer loop
      vertex 182.000 111.206 4.606
      vertex 190.000 111.340 4.355
      vertex 182.000 111.340 4.355
    endloop
  endfacet
  facet normal -1.000000 0.000000 0.000000
    outer loop
      vertex 182.000 113.160 5.911
      vertex 182.000 113.511 5.254
      vertex 182.000 111.340 4.355
    endloop
  endfacet
  facet normal -1.000000 0.000000 0.000000
    outer loop
      vertex 182.000 113.160 5.911
      vertex 182.000 111.340 4.355
      vertex 182.000 111.206 4.606
    endloop
  endfacet
  facet normal 1.000000 0.000000 0.000000
    outer loop
      vertex 190.000 113.511 5.254
      vertex 190.000 113.160 5.911
      vertex 190.000 111.206 4.606
    endloop
  endfacet
  facet normal 1.000000 0.000000 0.000000
    outer loop
      vertex 190.000 113.511 5.254
      vertex 190.000 111.206 4.606
      vertex 190.000 111.340 4.355
    endloop
  endfacet
  facet normal 0.000000 -0.773010 -0.634393
    outer loop
      vertex 182.000 113.160 5.911
      vertex 190.000 113.160 5.911
      vertex 190.000 112.687 6.487
    endloop
  endfacet
  facet normal 0.000000 -0.773010 -0.634393
    outer loop
      vertex 182.000 113.160 5.911
      vertex 190.000 112.687 6.487
      vertex 182.000 112.687 6.487
    endloop
  endfacet
  facet normal 0.000000 0.773010 0.634393
    outer loop
      vertex 182.000 111.025 4.825
      vertex 190.000 111.025 4.825
      vertex 190.000 111.206 4.606
    endloop
  endfacet
  facet normal 0.000000 0.773010 0.634393
    outer loop
      vertex 182.000 111.025 4.825
      vertex 190.000 111.206 4.606
      vertex 182.000 111.206 4.606
    endloop
  endfacet
  facet normal -1.000000 0.000000 0.000000
    outer loop
      vertex 182.000 112.687 6.487
      vertex 182.000 113.160 5.911
      vertex 182.000 111.206 4.606
    endloop
  endfacet
  facet normal -1.000000 0.000000 0.000000
    outer loop
      vertex 182.000 112.687 6.487
      vertex 182.000 111.206 4.606
      vertex 182.000 111.025 4.825
    endloop
  endfacet
  facet normal 1.000000 0.000000 0.000000
    outer loop
      vertex 190.000 113.160 5.911
      vertex 190.000 112.687 6.487
      vertex 190.000 111.025 4.825
    endloop
  endfacet
  facet normal 1.000000 0.000000 0.000000
    outer loop
      vertex 190.000 113.160 5.911
      vertex 190.000 111.025 4.825
      vertex 190.000 111.206 4.606
    endloop
  endfacet
  facet normal 0.000000 -0.634393 -0.773010
    outer loop
      vertex 182.000 112.687 6.487
      vertex 190.000 112.687 6.487
      vertex 190.000 112.111 6.960
    endloop
  endfacet
  facet normal 0.000000 -0.634393 -0.773010
    outer loop
      vertex 182.000 112.687 6.487
      vertex 190.000 112.111 6.960
      vertex 182.000 112.111 6.960
    endloop
  endfacet
  facet normal 0.000000 0.634393 0.773010
    outer loop
      vertex 182.000 110.806 5.006
      vertex 190.000 110.806 5.006
      vertex 190.000 111.025 4.825
    endloop
  endfacet
  facet normal 0.000000 0.634393 0.773010
    outer loop
      vertex 182.000 110.806 5.006
      vertex 190.000 111.025 4.825
      vertex 182.000 111.025 4.825
    endloop
  endfacet
  facet normal -1.000000 0.000000 0.000000
    outer loop
      vertex 182.000 112.111 6.960
      vertex 182.000 112.687 6.487
      vertex 182.000 111.025 4.825
    endloop
  endfacet
  facet normal -1.000000 0.000000 0.000000
    outer loop
      vertex 182.000 112.111 6.960
      vertex 182.000 111.025 4.825
      vertex 182.000 110.806 5.006
    endloop
  endfacet
  facet normal 1.000000 0.000000 0.000000
    outer loop
      vertex 190.000 112.687 6.487
      vertex 190.000 112.111 6.960
      vertex 190.000 110.806 5.006
    endloop
  endfacet
  facet normal 1.000000 0.000000 0.000000
    outer loop
      vertex 190.000 112.687 6.487
      vertex 190.000 110.806 5.006
      vertex 190.000 111.025 4.825
    endloop
  endfacet
  facet normal 0.000000 -0.471397 -0.881921
    outer loop
      vertex 182.000 112.111 6.960
      vertex 190.000 112.111 6.960
      vertex 190.000 111.454 7.311
    endloop
  endfacet
  facet normal 0.000000 -0.471397 -0.881921
    outer loop
      vertex 182.000 112.111 6.960
      vertex 190.000 111.454 7.311
      vertex 182.000 111.454 7.311
    endloop
  endfacet
  facet normal 0.000000 0.471397 0.881921
    outer loop
      vertex 182.000 110.555 5.140
      vertex 190.000 110.555 5.140
      vertex 190.000 110.806 5.006
    endloop
  endfacet
  facet normal 0.000000 0.471397 0.881921
    outer loop
      vertex 182.000 110.555 5.140
      vertex 190.000 110.806 5.006
      vertex 182.000 110.806 5.006
    endloop
  endfacet
  facet normal -1.000000 0.000000 0.000000
    outer loop
      vertex 182.000 111.454 7.311
      vertex 182.000 112.111 6.960
      vertex 182.000 110.806 5.006
    endloop
  endfacet
  facet normal -1.000000 0.000000 0.000000
    outer loop
      vertex 182.000 111.454 7.311
      vertex 182.000 110.806 5.006
      vertex 182.000 110.555 5.140
    endloop
  endfacet
  facet normal 1.000000 0.000000 0.000000
    outer loop
      vertex 190.000 112.111 6.960
      vertex 190.000 111.454 7.311
      vertex 190.000 110.555 5.140
    endloop
  endfacet
  facet normal 1.000000 0.000000 0.000000
    outer loop
      vertex 190.000 112.111 6.960
      vertex 190.000 110.555 5.140
      vertex 190.000 110.806 5.006
    endloop
  endfacet
  facet normal 0.000000 -0.290285 -0.956940
    outer loop
      vertex 182.000 111.454 7.311
      vertex 190.000 111.454 7.311
      vertex 190.000 110.741 7.527
    endloop
  endfacet
  facet normal 0.000000 -0.290285 -0.956940
    outer loop
      vertex 182.000 111.454 7.311
      vertex 190.000 110.741 7.527
      vertex 182.000 110.741 7.527
    endloop
  endfacet
  facet normal 0.000000 0.290285 0.956940
    outer loop
      vertex 182.000 110.283 5.222
      vertex 190.000 110.283 5.222
      vertex 190.000 110.555 5.140
    endloop
  endfacet
  facet normal 0.000000 0.290285 0.956940
    outer loop
      vertex 182.000 110.283 5.222
      vertex 190.000 110.555 5.140
      vertex 182.000 110.555 5.140
    endloop
  endfacet
  facet normal -1.000000 0.000000 0.000000
    outer loop
      vertex 182.000 110.741 7.527
      vertex 182.000 111.454 7.311
      vertex 182.000 110.555 5.140
    endloop
  endfacet
  facet normal -1.000000 0.000000 0.000000
    outer loop
      vertex 182.000 110.741 7.527
      vertex 182.000 110.555 5.140
      vertex 182.000 110.283 5.222
    endloop
  endfacet
  facet normal 1.000000 0.000000 0.000000
    outer loop
      vertex 190.000 111.454 7.311
      vertex 190.000 110.741 7.527
      vertex 190.000 110.283 5.222
    endloop
  endfacet
  facet normal 1.000000 0.000000 0.000000
    outer loop
      vertex 190.000 111.454 7.311
      vertex 190.000 110.283 5.222
      vertex 190.000 110.555 5.140
    endloop
  endfacet
  facet normal 0.000000 -0.098017 -0.995185
    outer loop
      vertex 182.000 110.741 7.527
      vertex 190.000 110.741 7.527
      vertex 190.000 110.000 7.600
    endloop
  endfacet
  facet normal 0.000000 -0.098017 -0.995185
    outer loop
      vertex 182.000 110.741 7.527
      vertex 190.000 110.000 7.600
      vertex 182.000 110.000 7.600
    endloop
  endfacet
  facet normal 0.000000 0.098017 0.995185
    outer loop
      vertex 182.000 110.000 5.250
      vertex 190.000 110.000 5.250
      vertex 190.000 110.283 5.222
    endloop
  endfacet
  facet normal 0.000000 0.098017 0.995185
    outer loop
      vertex 182.000 110.000 5.250
      vertex 190.000 110.283 5.222
      vertex 182.000 110.283 5.222
    endloop
  endfacet
  facet normal -1.000000 0.000000 0.000000
    outer loop
      vertex 182.000 110.000 7.600
      vertex 182.000 110.741 7.527
      vertex 182.000 110.283 5.222
    endloop
  endfacet
  facet normal -1.000000 0.000000 0.000000
    outer loop
      vertex 182.000 110.000 7.600
      vertex 182.000 110.283 5.222
      vertex 182.000 110.000 5.250
    endloop
  endfacet
  facet normal 1.000000 0.000000 0.000000
    outer loop
      vertex 190.000 110.741 7.527
      vertex 190.000 110.000 7.600
      vertex 190.000 110.000 5.250
    endloop
  endfacet
  facet normal 1.000000 0.000000 0.000000
    outer loop
      vertex 190.000 110.741 7.527
      vertex 190.000 110.000 5.250
      vertex 190.000 110.283 5.222
    endloop
  endfacet
  facet normal 0.000000 0.098017 -0.995185
    outer loop
      vertex 182.000 110.000 7.600
      vertex 190.000 110.000 7.600
      vertex 190.000 109.259 7.527
    endloop
  endfacet
  facet normal 0.000000 0.098017 -0.995185
    outer loop
      vertex 182.000 110.000 7.600
      vertex 190.000 109.259 7.527
      vertex 182.000 109.259 7.527
    endloop
  endfacet
  facet normal 0.000000 -0.098017 0.995185
    outer loop
      vertex 182.000 109.717 5.222
      vertex 190.000 109.717 5.222
      vertex 190.000 110.000 5.250
    endloop
  endfacet
  facet normal 0.000000 -0.098017 0.995185
    outer loop
      vertex 182.000 109.717 5.222
      vertex 190.000 110.000 5.250
      vertex 182.000 110.000 5.250
    endloop
  endfacet
  facet normal -1.000000 0.000000 0.000000
    outer loop
      vertex 182.000 109.259 7.527
      vertex 182.000 110.000 7.600
      vertex 182.000 110.000 5.250
    endloop
  endfacet
  facet normal -1.000000 0.000000 0.000000
    outer loop
      vertex 182.000 109.259 7.527
      vertex 182.000 110.000 5.250
      vertex 182.000 109.717 5.222
    endloop
  endfacet
  facet normal 1.000000 0.000000 0.000000
    outer loop
      vertex 190.000 110.000 7.600
      vertex 190.000 109.259 7.527
      vertex 190.000 109.717 5.222
    endloop
  endfacet
  facet normal 1.000000 0.000000 0.000000
    outer loop
      vertex 190.000 110.000 7.600
      vertex 190.000 109.717 5.222
      vertex 190.000 110.000 5.250
    endloop
  endfacet
  facet normal 0.000000 0.290285 -0.956940
    outer loop
      vertex 182.000 109.259 7.527
      vertex 190.000 109.259 7.527
      vertex 190.000 108.546 7.311
    endloop
  endfacet
  facet normal 0.000000 0.290285 -0.956940
    outer loop
      vertex 182.000 109.259 7.527
      vertex 190.000 108.546 7.311
      vertex 182.000 108.546 7.311
    endloop
  endfacet
  facet normal 0.000000 -0.290285 0.956940
    outer loop
      vertex 182.000 109.445 5.140
      vertex 190.000 109.445 5.140
      vertex 190.000 109.717 5.222
    endloop
  endfacet
  facet normal 0.000000 -0.290285 0.956940
    outer loop
      vertex 182.000 109.445 5.140
      vertex 190.000 109.717 5.222
      vertex 182.000 109.717 5.222
    endloop
  endfacet
  facet normal -1.000000 0.000000 0.000000
    outer loop
      vertex 182.000 108.546 7.311
      vertex 182.000 109.259 7.527
      vertex 182.000 109.717 5.222
    endloop
  endfacet
  facet normal -1.000000 0.000000 0.000000
    outer loop
      vertex 182.000 108.546 7.311
      vertex 182.000 109.717 5.222
      vertex 182.000 109.445 5.140
    endloop
  endfacet
  facet normal 1.000000 0.000000 0.000000
    outer loop
      vertex 190.000 109.259 7.527
      vertex 190.000 108.546 7.311
      vertex 190.000 109.445 5.140
    endloop
  endfacet
  facet normal 1.000000 0.000000 0.000000
    outer loop
      vertex 190.000 109.259 7.527
      vertex 190.000 109.445 5.140
      vertex 190.000 109.717 5.222
    endloop
  endfacet
  facet normal 0.000000 0.471397 -0.881921
    outer loop
      vertex 182.000 108.546 7.311
      vertex 190.000 108.546 7.311
      vertex 190.000 107.889 6.960
    endloop
  endfacet
  facet normal 0.000000 0.471397 -0.881921
    outer loop
      vertex 182.000 108.546 7.311
      vertex 190.000 107.889 6.960
      vertex 182.000 107.889 6.960
    endloop
  endfacet
  facet normal 0.000000 -0.471397 0.881921
    outer loop
      vertex 182.000 109.194 5.006
      vertex 190.000 109.194 5.006
      vertex 190.000 109.445 5.140
    endloop
  endfacet
  facet normal 0.000000 -0.471397 0.881921
    outer loop
      vertex 182.000 109.194 5.006
      vertex 190.000 109.445 5.140
      vertex 182.000 109.445 5.140
    endloop
  endfacet
  facet normal -1.000000 0.000000 0.000000
    outer loop
      vertex 182.000 107.889 6.960
      vertex 182.000 108.546 7.311
      vertex 182.000 109.445 5.140
    endloop
  endfacet
  facet normal -1.000000 0.000000 0.000000
    outer loop
      vertex 182.000 107.889 6.960
      vertex 182.000 109.445 5.140
      vertex 182.000 109.194 5.006
    endloop
  endfacet
  facet normal 1.000000 0.000000 0.000000
    outer loop
      vertex 190.000 108.546 7.311
      vertex 190.000 107.889 6.960
      vertex 190.000 109.194 5.006
    endloop
  endfacet
  facet normal 1.000000 0.000000 0.000000
    outer loop
      vertex 190.000 108.546 7.311
      vertex 190.000 109.194 5.006
      vertex 190.000 109.445 5.140
    endloop
  endfacet
  facet normal 0.000000 0.634393 -0.773010
    outer loop
      vertex 182.000 107.889 6.960
      vertex 190.000 107.889 6.960
      vertex 190.000 107.313 6.487
    endloop
  endfacet
  facet normal 0.000000 0.634393 -0.773010
    outer loop
      vertex 182.000 107.889 6.960
      vertex 190.000 107.313 6.487
      vertex 182.000 107.313 6.487
    endloop
  endfacet
  facet normal 0.000000 -0.634393 0.773010
    outer loop
      vertex 182.000 108.975 4.825
      vertex 190.000 108.975 4.825
      vertex 190.000 109.194 5.006
    endloop
  endfacet
  facet normal 0.000000 -0.634393 0.773010
    outer loop
      vertex 182.000 108.975 4.825
      vertex 190.000 109.194 5.006
      vertex 182.000 109.194 5.006
    endloop
  endfacet
  facet normal -1.000000 0.000000 0.000000
    outer loop
      vertex 182.000 107.313 6.487
      vertex 182.000 107.889 6.960
      vertex 182.000 109.194 5.006
    endloop
  endfacet
  facet normal -1.000000 0.000000 0.000000
    outer loop
      vertex 182.000 107.313 6.487
      vertex 182.000 109.194 5.006
      vertex 182.000 108.975 4.825
    endloop
  endfacet
  facet normal 1.000000 0.000000 0.000000
    outer loop
      vertex 190.000 107.889 6.960
      vertex 190.000 107.313 6.487
      vertex 190.000 108.975 4.825
    endloop
  endfacet
  facet normal 1.000000 0.000000 0.000000
    outer loop
      vertex 190.000 107.889 6.960
      vertex 190.000 108.975 4.825
      vertex 190.000 109.194 5.006
    endloop
  endfacet
  facet normal 0.000000 0.773010 -0.634393
    outer loop
      vertex 182.000 107.313 6.487
      vertex 190.000 107.313 6.487
      vertex 190.000 106.840 5.911
    endloop
  endfacet
  facet normal 0.000000 0.773010 -0.634393
    outer loop
      vertex 182.000 107.313 6.487
      vertex 190.000 106.840 5.911
      vertex 182.000 106.840 5.911
    endloop
  endfacet
  facet normal 0.000000 -0.773010 0.634393
    outer loop
      vertex 182.000 108.794 4.606
      vertex 190.000 108.794 4.606
      vertex 190.000 108.975 4.825
    endloop
  endfacet
  facet normal 0.000000 -0.773010 0.634393
    outer loop
      vertex 182.000 108.794 4.606
      vertex 190.000 108.975 4.825
      vertex 182.000 108.975 4.825
    endloop
  endfacet
  facet normal -1.000000 0.000000 0.000000
    outer loop
      vertex 182.000 106.840 5.911
      vertex 182.000 107.313 6.487
      vertex 182.000 108.975 4.825
    endloop
  endfacet
  facet normal -1.000000 0.000000 0.000000
    outer loop
      vertex 182.000 106.840 5.911
      vertex 182.000 108.975 4.825
      vertex 182.000 108.794 4.606
    endloop
  endfacet
  facet normal 1.000000 0.000000 0.000000
    outer loop
      vertex 190.000 107.313 6.487
      vertex 190.000 106.840 5.911
      vertex 190.000 108.794 4.606
    endloop
  endfacet
  facet normal 1.000000 0.000000 0.000000
    outer loop
      vertex 190.000 107.313 6.487
      vertex 190.000 108.794 4.606
      vertex 190.000 108.975 4.825
    endloop
  endfacet
  facet normal 0.000000 0.881921 -0.471397
    outer loop
      vertex 182.000 106.840 5.911
      vertex 190.000 106.840 5.911
      vertex 190.000 106.489 5.254
    endloop
  endfacet
  facet normal 0.000000 0.881921 -0.471397
    outer loop
      vertex 182.000 106.840 5.911
      vertex 190.000 106.489 5.254
      vertex 182.000 106.489 5.254
    endloop
  endfacet
  facet normal 0.000000 -0.881921 0.471397
    outer loop
      vertex 182.000 108.660 4.355
      vertex 190.000 108.660 4.355
      vertex 190.000 108.794 4.606
    endloop
  endfacet
  facet normal 0.000000 -0.881921 0.471397
    outer loop
      vertex 182.000 108.660 4.355
      vertex 190.000 108.794 4.606
      vertex 182.000 108.794 4.606
    endloop
  endfacet
  facet normal -1.000000 0.000000 0.000000
    outer loop
      vertex 182.000 106.489 5.254
      vertex 182.000 106.840 5.911
      vertex 182.000 108.794 4.606
    endloop
  endfacet
  facet normal -1.000000 0.000000 0.000000
    outer loop
      vertex 182.000 106.489 5.254
      vertex 182.000 108.794 4.606
      vertex 182.000 108.660 4.355
    endloop
  endfacet
  facet normal 1.000000 0.000000 0.000000
    outer loop
      vertex 190.000 106.840 5.911
      vertex 190.000 106.489 5.254
      vertex 190.000 108.660 4.355
    endloop
  endfacet
  facet normal 1.000000 0.000000 0.000000
    outer loop
      vertex 190.000 106.840 5.911
      vertex 190.000 108.660 4.355
      vertex 190.000 108.794 4.606
    endloop
  endfacet
  facet normal 0.000000 0.956940 -0.290285
    outer loop
      vertex 182.000 106.489 5.254
      vertex 190.000 106.489 5.254
      vertex 190.000 106.273 4.541
    endloop
  endfacet
  facet normal 0.000000 0.956940 -0.290285
    outer loop
      vertex 182.000 106.489 5.254
      vertex 190.000 106.273 4.541
      vertex 182.000 106.273 4.541
    endloop
  endfacet
  facet normal 0.000000 -0.956940 0.290285
    outer loop
      vertex 182.000 108.578 4.083
      vertex 190.000 108.578 4.083
      vertex 190.000 108.660 4.355
    endloop
  endfacet
  facet normal 0.000000 -0.956940 0.290285
    outer loop
      vertex 182.000 108.578 4.083
      vertex 190.000 108.660 4.355
      vertex 182.000 108.660 4.355
    endloop
  endfacet
  facet normal -1.000000 0.000000 0.000000
    outer loop
      vertex 182.000 106.273 4.541
      vertex 182.000 106.489 5.254
      vertex 182.000 108.660 4.355
    endloop
  endfacet
  facet normal -1.000000 0.000000 0.000000
    outer loop
      vertex 182.000 106.273 4.541
      vertex 182.000 108.660 4.355
      vertex 182.000 108.578 4.083
    endloop
  endfacet
  facet normal 1.000000 0.000000 0.000000
    outer loop
      vertex 190.000 106.489 5.254
      vertex 190.000 106.273 4.541
      vertex 190.000 108.578 4.083
    endloop
  endfacet
  facet normal 1.000000 0.000000 0.000000
    outer loop
      vertex 190.000 106.489 5.254
      vertex 190.000 108.578 4.083
      vertex 190.000 108.660 4.355
    endloop
  endfacet
  facet normal 0.000000 0.995185 -0.098017
    outer loop
      vertex 182.000 106.273 4.541
      vertex 190.000 106.273 4.541
      vertex 190.000 106.200 3.800
    endloop
  endfacet
  facet normal 0.000000 0.995185 -0.098017
    outer loop
      vertex 182.000 106.273 4.541
      vertex 190.000 106.200 3.800
      vertex 182.000 106.200 3.800
    endloop
  endfacet
  facet normal 0.000000 -0.995185 0.098017
    outer loop
      vertex 182.000 108.550 3.800
      vertex 190.000 108.550 3.800
      vertex 190.000 108.578 4.083
    endloop
  endfacet
  facet normal 0.000000 -0.995185 0.098017
    outer loop
      vertex 182.000 108.550 3.800
      vertex 190.000 108.578 4.083
      vertex 182.000 108.578 4.083
    endloop
  endfacet
  facet normal -1.000000 0.000000 0.000000
    outer loop
      vertex 182.000 106.200 3.800
      vertex 182.000 106.273 4.541
      vertex 182.000 108.578 4.083
    endloop
  endfacet
  facet normal -1.000000 0.000000 0.000000
    outer loop
      vertex 182.000 106.200 3.800
      vertex 182.000 108.578 4.083
      vertex 182.000 108.550 3.800
    endloop
  endfacet
  facet normal 1.000000 0.000000 0.000000
    outer loop
      vertex 190.000 106.273 4.541
      vertex 190.000 106.200 3.800
      vertex 190.000 108.550 3.800
    endloop
  endfacet
  facet normal 1.000000 0.000000 0.000000
    outer loop
      vertex 190.000 106.273 4.541
      vertex 190.000 108.550 3.800
      vertex 190.000 108.578 4.083
    endloop
  endfacet
  facet normal 0.000000 0.995185 0.098017
    outer loop
      vertex 182.000 106.200 3.800
      vertex 190.000 106.200 3.800
      vertex 190.000 106.273 3.059
    endloop
  endfacet
  facet normal 0.000000 0.995185 0.098017
    outer loop
      vertex 182.000 106.200 3.800
      vertex 190.000 106.273 3.059
      vertex 182.000 106.273 3.059
    endloop
  endfacet
  facet normal 0.000000 -0.995185 -0.098017
    outer loop
      vertex 182.000 108.578 3.517
      vertex 190.000 108.578 3.517
      vertex 190.000 108.550 3.800
    endloop
  endfacet
  facet normal 0.000000 -0.995185 -0.098017
    outer loop
      vertex 182.000 108.578 3.517
      vertex 190.000 108.550 3.800
      vertex 182.000 108.550 3.800
    endloop
  endfacet
  facet normal -1.000000 0.000000 0.000000
    outer loop
      vertex 182.000 106.273 3.059
      vertex 182.000 106.200 3.800
      vertex 182.000 108.550 3.800
    endloop
  endfacet
  facet normal -1.000000 0.000000 0.000000
    outer loop
      vertex 182.000 106.273 3.059
      vertex 182.000 108.550 3.800
      vertex 182.000 108.578 3.517
    endloop
  endfacet
  facet normal 1.000000 0.000000 0.000000
    outer loop
      vertex 190.000 106.200 3.800
      vertex 190.000 106.273 3.059
      vertex 190.000 108.578 3.517
    endloop
  endfacet
  facet normal 1.000000 0.000000 0.000000
    outer loop
      vertex 190.000 106.200 3.800
      vertex 190.000 108.578 3.517
      vertex 190.000 108.550 3.800
    endloop
  endfacet
  facet normal 0.000000 0.956940 0.290285
    outer loop
      vertex 182.000 106.273 3.059
      vertex 190.000 106.273 3.059
      vertex 190.000 106.489 2.346
    endloop
  endfacet
  facet normal 0.000000 0.956940 0.290285
    outer loop
      vertex 182.000 106.273 3.059
      vertex 190.000 106.489 2.346
      vertex 182.000 106.489 2.346
    endloop
  endfacet
  facet normal 0.000000 -0.956940 -0.290285
    outer loop
      vertex 182.000 108.660 3.245
      vertex 190.000 108.660 3.245
      vertex 190.000 108.578 3.517
    endloop
  endfacet
  facet normal 0.000000 -0.956940 -0.290285
    outer loop
      vertex 182.000 108.660 3.245
      vertex 190.000 108.578 3.517
      vertex 182.000 108.578 3.517
    endloop
  endfacet
  facet normal -1.000000 0.000000 0.000000
    outer loop
      vertex 182.000 106.489 2.346
      vertex 182.000 106.273 3.059
      vertex 182.000 108.578 3.517
    endloop
  endfacet
  facet normal -1.000000 0.000000 0.000000
    outer loop
      vertex 182.000 106.489 2.346
      vertex 182.000 108.578 3.517
      vertex 182.000 108.660 3.245
    endloop
  endfacet
  facet normal 1.000000 0.000000 0.000000
    outer loop
      vertex 190.000 106.273 3.059
      vertex 190.000 106.489 2.346
      vertex 190.000 108.660 3.245
    endloop
  endfacet
  facet normal 1.000000 0.000000 0.000000
    outer loop
      vertex 190.000 106.273 3.059
      vertex 190.000 108.660 3.245
      vertex 190.000 108.578 3.517
    endloop
  endfacet
  facet normal 0.000000 0.881921 0.471397
    outer loop
      vertex 182.000 106.489 2.346
      vertex 190.000 106.489 2.346
      vertex 190.000 106.840 1.689
    endloop
  endfacet
  facet normal 0.000000 0.881921 0.471397
    outer loop
      vertex 182.000 106.489 2.346
      vertex 190.000 106.840 1.689
      vertex 182.000 106.840 1.689
    endloop
  endfacet
  facet normal 0.000000 -0.881921 -0.471397
    outer loop
      vertex 182.000 108.794 2.994
      vertex 190.000 108.794 2.994
      vertex 190.000 108.660 3.245
    endloop
  endfacet
  facet normal 0.000000 -0.881921 -0.471397
    outer loop
      vertex 182.000 108.794 2.994
      vertex 190.000 108.660 3.245
      vertex 182.000 108.660 3.245
    endloop
  endfacet
  facet normal -1.000000 0.000000 0.000000
    outer loop
      vertex 182.000 106.840 1.689
      vertex 182.000 106.489 2.346
      vertex 182.000 108.660 3.245
    endloop
  endfacet
  facet normal -1.000000 0.000000 0.000000
    outer loop
      vertex 182.000 106.840 1.689
      vertex 182.000 108.660 3.245
      vertex 182.000 108.794 2.994
    endloop
  endfacet
  facet normal 1.000000 0.000000 0.000000
    outer loop
      vertex 190.000 106.489 2.346
      vertex 190.000 106.840 1.689
      vertex 190.000 108.794 2.994
    endloop
  endfacet
  facet normal 1.000000 0.000000 0.000000
    outer loop
      vertex 190.000 106.489 2.346
      vertex 190.000 108.794 2.994
      vertex 190.000 108.660 3.245
    endloop
  endfacet
  facet normal 0.000000 0.773010 0.634393
    outer loop
      vertex 182.000 106.840 1.689
      vertex 190.000 106.840 1.689
      vertex 190.000 107.313 1.113
    endloop
  endfacet
  facet normal 0.000000 0.773010 0.634393
    outer loop
      vertex 182.000 106.840 1.689
      vertex 190.000 107.313 1.113
      vertex 182.000 107.313 1.113
    endloop
  endfacet
  facet normal 0.000000 -0.773010 -0.634393
    outer loop
      vertex 182.000 108.975 2.775
      vertex 190.000 108.975 2.775
      vertex 190.000 108.794 2.994
    endloop
  endfacet
  facet normal 0.000000 -0.773010 -0.634393
    outer loop
      vertex 182.000 108.975 2.775
      vertex 190.000 108.794 2.994
      vertex 182.000 108.794 2.994
    endloop
  endfacet
  facet normal -1.000000 0.000000 0.000000
    outer loop
      vertex 182.000 107.313 1.113
      vertex 182.000 106.840 1.689
      vertex 182.000 108.794 2.994
    endloop
  endfacet
  facet normal -1.000000 0.000000 0.000000
    outer loop
      vertex 182.000 107.313 1.113
      vertex 182.000 108.794 2.994
      vertex 182.000 108.975 2.775
    endloop
  endfacet
  facet normal 1.000000 0.000000 0.000000
    outer loop
      vertex 190.000 106.840 1.689
      vertex 190.000 107.313 1.113
      vertex 190.000 108.975 2.775
    endloop
  endfacet
  facet normal 1.000000 0.000000 0.000000
    outer loop
      vertex 190.000 106.840 1.689
      vertex 190.000 108.975 2.775
      vertex 190.000 108.794 2.994
    endloop
  endfacet
  facet normal 0.000000 0.634393 0.773010
    outer loop
      vertex 182.000 107.313 1.113
      vertex 190.000 107.313 1.113
      vertex 190.000 107.889 0.640
    endloop
  endfacet
  facet normal 0.000000 0.634393 0.773010
    outer loop
      vertex 182.000 107.313 1.113
      vertex 190.000 107.889 0.640
      vertex 182.000 107.889 0.640
    endloop
  endfacet
  facet normal 0.000000 -0.634393 -0.773010
    outer loop
      vertex 182.000 109.194 2.594
      vertex 190.000 109.194 2.594
      vertex 190.000 108.975 2.775
    endloop
  endfacet
  facet normal 0.000000 -0.634393 -0.773010
    outer loop
      vertex 182.000 109.194 2.594
      vertex 190.000 108.975 2.775
      vertex 182.000 108.975 2.775
    endloop
  endfacet
  facet normal -1.000000 0.000000 0.000000
    outer loop
      vertex 182.000 107.889 0.640
      vertex 182.000 107.313 1.113
      vertex 182.000 108.975 2.775
    endloop
  endfacet
  facet normal -1.000000 0.000000 0.000000
    outer loop
      vertex 182.000 107.889 0.640
      vertex 182.000 108.975 2.775
      vertex 182.000 109.194 2.594
    endloop
  endfacet
  facet normal 1.000000 0.000000 0.000000
    outer loop
      vertex 190.000 107.313 1.113
      vertex 190.000 107.889 0.640
      vertex 190.000 109.194 2.594
    endloop
  endfacet
  facet normal 1.000000 0.000000 0.000000
    outer loop
      vertex 190.000 107.313 1.113
      vertex 190.000 109.194 2.594
      vertex 190.000 108.975 2.775
    endloop
  endfacet
  facet normal 0.000000 0.471397 0.881921
    outer loop
      vertex 182.000 107.889 0.640
      vertex 190.000 107.889 0.640
      vertex 190.000 108.546 0.289
    endloop
  endfacet
  facet normal 0.000000 0.471397 0.881921
    outer loop
      vertex 182.000 107.889 0.640
      vertex 190.000 108.546 0.289
      vertex 182.000 108.546 0.289
    endloop
  endfacet
  facet normal 0.000000 -0.471397 -0.881921
    outer loop
      vertex 182.000 109.445 2.460
      vertex 190.000 109.445 2.460
      vertex 190.000 109.194 2.594
    endloop
  endfacet
  facet normal 0.000000 -0.471397 -0.881921
    outer loop
      vertex 182.000 109.445 2.460
      vertex 190.000 109.194 2.594
      vertex 182.000 109.194 2.594
    endloop
  endfacet
  facet normal -1.000000 0.000000 0.000000
    outer loop
      vertex 182.000 108.546 0.289
      vertex 182.000 107.889 0.640
      vertex 182.000 109.194 2.594
    endloop
  endfacet
  facet normal -1.000000 0.000000 0.000000
    outer loop
      vertex 182.000 108.546 0.289
      vertex 182.000 109.194 2.594
      vertex 182.000 109.445 2.460
    endloop
  endfacet
  facet normal 1.000000 0.000000 0.000000
    outer loop
      vertex 190.000 107.889 0.640
      vertex 190.000 108.546 0.289
      vertex 190.000 109.445 2.460
    endloop
  endfacet
  facet normal 1.000000 0.000000 0.000000
    outer loop
      vertex 190.000 107.889 0.640
      vertex 190.000 109.445 2.460
      vertex 190.000 109.194 2.594
    endloop
  endfacet
  facet normal 0.000000 0.290285 0.956940
    outer loop
      vertex 182.000 108.546 0.289
      vertex 190.000 108.546 0.289
      vertex 190.000 109.259 0.073
    endloop
  endfacet
  facet normal 0.000000 0.290285 0.956940
    outer loop
      vertex 182.000 108.546 0.289
      vertex 190.000 109.259 0.073
      vertex 182.000 109.259 0.073
    endloop
  endfacet
  facet normal 0.000000 -0.290285 -0.956940
    outer loop
      vertex 182.000 109.717 2.378
      vertex 190.000 109.717 2.378
      vertex 190.000 109.445 2.460
    endloop
  endfacet
  facet normal 0.000000 -0.290285 -0.956940
    outer loop
      vertex 182.000 109.717 2.378
      vertex 190.000 109.445 2.460
      vertex 182.000 109.445 2.460
    endloop
  endfacet
  facet normal -1.000000 0.000000 0.000000
    outer loop
      vertex 182.000 109.259 0.073
      vertex 182.000 108.546 0.289
      vertex 182.000 109.445 2.460
    endloop
  endfacet
  facet normal -1.000000 0.000000 0.000000
    outer loop
      vertex 182.000 109.259 0.073
      vertex 182.000 109.445 2.460
      vertex 182.000 109.717 2.378
    endloop
  endfacet
  facet normal 1.000000 0.000000 0.000000
    outer loop
      vertex 190.000 108.546 0.289
      vertex 190.000 109.259 0.073
      vertex 190.000 109.717 2.378
    endloop
  endfacet
  facet normal 1.000000 0.000000 0.000000
    outer loop
      vertex 190.000 108.546 0.289
      vertex 190.000 109.717 2.378
      vertex 190.000 109.445 2.460
    endloop
  endfacet
  facet normal 0.000000 0.098017 0.995185
    outer loop
      vertex 182.000 109.259 0.073
      vertex 190.000 109.259 0.073
      vertex 190.000 110.000 0.000
    endloop
  endfacet
  facet normal 0.000000 0.098017 0.995185
    outer loop
      vertex 182.000 109.259 0.073
      vertex 190.000 110.000 0.000
      vertex 182.000 110.000 0.000
    endloop
  endfacet
  facet normal 0.000000 -0.098017 -0.995185
    outer loop
      vertex 182.000 110.000 2.350
      vertex 190.000 110.000 2.350
      vertex 190.000 109.717 2.378
    endloop
  endfacet
  facet normal 0.000000 -0.098017 -0.995185
    outer loop
      vertex 182.000 110.000 2.350
      vertex 190.000 109.717 2.378
      vertex 182.000 109.717 2.378
    endloop
  endfacet
  facet normal -1.000000 0.000000 0.000000
    outer loop
      vertex 182.000 110.000 0.000
      vertex 182.000 109.259 0.073
      vertex 182.000 109.717 2.378
    endloop
  endfacet
  facet normal -1.000000 0.000000 0.000000
    outer loop
      vertex 182.000 110.000 0.000
      vertex 182.000 109.717 2.378
      vertex 182.000 110.000 2.350
    endloop
  endfacet
  facet normal 1.000000 0.000000 0.000000
    outer loop
      vertex 190.000 109.259 0.073
      vertex 190.000 110.000 0.000
      vertex 190.000 110.000 2.350
    endloop
  endfacet
  facet normal 1.000000 0.000000 0.000000
    outer loop
      vertex 190.000 109.259 0.073
      vertex 190.000 110.000 2.350
      vertex 190.000 109.717 2.378
    endloop
  endfacet
  facet normal 0.000000 -0.098017 0.995185
    outer loop
      vertex 182.000 110.000 0.000
      vertex 190.000 110.000 0.000
      vertex 190.000 110.741 0.073
    endloop
  endfacet
  facet normal 0.000000 -0.098017 0.995185
    outer loop
      vertex 182.000 110.000 0.000
      vertex 190.000 110.741 0.073
      vertex 182.000 110.741 0.073
    endloop
  endfacet
  facet normal 0.000000 0.098017 -0.995185
    outer loop
      vertex 182.000 110.283 2.378
      vertex 190.000 110.283 2.378
      vertex 190.000 110.000 2.350
    endloop
  endfacet
  facet normal 0.000000 0.098017 -0.995185
    outer loop
      vertex 182.000 110.283 2.378
      vertex 190.000 110.000 2.350
      vertex 182.000 110.000 2.350
    endloop
  endfacet
  facet normal -1.000000 0.000000 0.000000
    outer loop
      vertex 182.000 110.741 0.073
      vertex 182.000 110.000 0.000
      vertex 182.000 110.000 2.350
    endloop
  endfacet
  facet normal -1.000000 0.000000 0.000000
    outer loop
      vertex 182.000 110.741 0.073
      vertex 182.000 110.000 2.350
      vertex 182.000 110.283 2.378
    endloop
  endfacet
  facet normal 1.000000 0.000000 0.000000
    outer loop
      vertex 190.000 110.000 0.000
      vertex 190.000 110.741 0.073
      vertex 190.000 110.283 2.378
    endloop
  endfacet
  facet normal 1.000000 0.000000 0.000000
    outer loop
      vertex 190.000 110.000 0.000
      vertex 190.000 110.283 2.378
      vertex 190.000 110.000 2.350
    endloop
  endfacet
  facet normal 0.000000 -0.290285 0.956940
    outer loop
      vertex 182.000 110.741 0.073
      vertex 190.000 110.741 0.073
      vertex 190.000 111.454 0.289
    endloop
  endfacet
  facet normal 0.000000 -0.290285 0.956940
    outer loop
      vertex 182.000 110.741 0.073
      vertex 190.000 111.454 0.289
      vertex 182.000 111.454 0.289
    endloop
  endfacet
  facet normal 0.000000 0.290285 -0.956940
    outer loop
      vertex 182.000 110.555 2.460
      vertex 190.000 110.555 2.460
      vertex 190.000 110.283 2.378
    endloop
  endfacet
  facet normal 0.000000 0.290285 -0.956940
    outer loop
      vertex 182.000 110.555 2.460
      vertex 190.000 110.283 2.378
      vertex 182.000 110.283 2.378
    endloop
  endfacet
  facet normal -1.000000 0.000000 0.000000
    outer loop
      vertex 182.000 111.454 0.289
      vertex 182.000 110.741 0.073
      vertex 182.000 110.283 2.378
    endloop
  endfacet
  facet normal -1.000000 0.000000 0.000000
    outer loop
      vertex 182.000 111.454 0.289
      vertex 182.000 110.283 2.378
      vertex 182.000 110.555 2.460
    endloop
  endfacet
  facet normal 1.000000 0.000000 0.000000
    outer loop
      vertex 190.000 110.741 0.073
      vertex 190.000 111.454 0.289
      vertex 190.000 110.555 2.460
    endloop
  endfacet
  facet normal 1.000000 0.000000 0.000000
    outer loop
      vertex 190.000 110.741 0.073
      vertex 190.000 110.555 2.460
      vertex 190.000 110.283 2.378
    endloop
  endfacet
  facet normal 0.000000 -0.471397 0.881921
    outer loop
      vertex 182.000 111.454 0.289
      vertex 190.000 111.454 0.289
      vertex 190.000 112.111 0.640
    endloop
  endfacet
  facet normal 0.000000 -0.471397 0.881921
    outer loop
      vertex 182.000 111.454 0.289
      vertex 190.000 112.111 0.640
      vertex 182.000 112.111 0.640
    endloop
  endfacet
  facet normal 0.000000 0.471397 -0.881921
    outer loop
      vertex 182.000 110.806 2.594
      vertex 190.000 110.806 2.594
      vertex 190.000 110.555 2.460
    endloop
  endfacet
  facet normal 0.000000 0.471397 -0.881921
    outer loop
      vertex 182.000 110.806 2.594
      vertex 190.000 110.555 2.460
      vertex 182.000 110.555 2.460
    endloop
  endfacet
  facet normal -1.000000 0.000000 0.000000
    outer loop
      vertex 182.000 112.111 0.640
      vertex 182.000 111.454 0.289
      vertex 182.000 110.555 2.460
    endloop
  endfacet
  facet normal -1.000000 0.000000 0.000000
    outer loop
      vertex 182.000 112.111 0.640
      vertex 182.000 110.555 2.460
      vertex 182.000 110.806 2.594
    endloop
  endfacet
  facet normal 1.000000 0.000000 0.000000
    outer loop
      vertex 190.000 111.454 0.289
      vertex 190.000 112.111 0.640
      vertex 190.000 110.806 2.594
    endloop
  endfacet
  facet normal 1.000000 0.000000 0.000000
    outer loop
      vertex 190.000 111.454 0.289
      vertex 190.000 110.806 2.594
      vertex 190.000 110.555 2.460
    endloop
  endfacet
  facet normal 0.000000 -0.634393 0.773010
    outer loop
      vertex 182.000 112.111 0.640
      vertex 190.000 112.111 0.640
      vertex 190.000 112.687 1.113
    endloop
  endfacet
  facet normal 0.000000 -0.634393 0.773010
    outer loop
      vertex 182.000 112.111 0.640
      vertex 190.000 112.687 1.113
      vertex 182.000 112.687 1.113
    endloop
  endfacet
  facet normal 0.000000 0.634393 -0.773010
    outer loop
      vertex 182.000 111.025 2.775
      vertex 190.000 111.025 2.775
      vertex 190.000 110.806 2.594
    endloop
  endfacet
  facet normal 0.000000 0.634393 -0.773010
    outer loop
      vertex 182.000 111.025 2.775
      vertex 190.000 110.806 2.594
      vertex 182.000 110.806 2.594
    endloop
  endfacet
  facet normal -1.000000 0.000000 0.000000
    outer loop
      vertex 182.000 112.687 1.113
      vertex 182.000 112.111 0.640
      vertex 182.000 110.806 2.594
    endloop
  endfacet
  facet normal -1.000000 0.000000 0.000000
    outer loop
      vertex 182.000 112.687 1.113
      vertex 182.000 110.806 2.594
      vertex 182.000 111.025 2.775
    endloop
  endfacet
  facet normal 1.000000 0.000000 0.000000
    outer loop
      vertex 190.000 112.111 0.640
      vertex 190.000 112.687 1.113
      vertex 190.000 111.025 2.775
    endloop
  endfacet
  facet normal 1.000000 0.000000 0.000000
    outer loop
      vertex 190.000 112.111 0.640
      vertex 190.000 111.025 2.775
      vertex 190.000 110.806 2.594
    endloop
  endfacet
  facet normal 0.000000 -0.773010 0.634393
    outer loop
      vertex 182.000 112.687 1.113
      vertex 190.000 112.687 1.113
      vertex 190.000 113.160 1.689
    endloop
  endfacet
  facet normal 0.000000 -0.773010 0.634393
    outer loop
      vertex 182.000 112.687 1.113
      vertex 190.000 113.160 1.689
      vertex 182.000 113.160 1.689
    endloop
  endfacet
  facet normal 0.000000 0.773010 -0.634393
    outer loop
      vertex 182.000 111.206 2.994
      vertex 190.000 111.206 2.994
      vertex 190.000 111.025 2.775
    endloop
  endfacet
  facet normal 0.000000 0.773010 -0.634393
    outer loop
      vertex 182.000 111.206 2.994
      vertex 190.000 111.025 2.775
      vertex 182.000 111.025 2.775
    endloop
  endfacet
  facet normal -1.000000 0.000000 0.000000
    outer loop
      vertex 182.000 113.160 1.689
      vertex 182.000 112.687 1.113
      vertex 182.000 111.025 2.775
    endloop
  endfacet
  facet normal -1.000000 0.000000 0.000000
    outer loop
      vertex 182.000 113.160 1.689
      vertex 182.000 111.025 2.775
      vertex 182.000 111.206 2.994
    endloop
  endfacet
  facet normal 1.000000 0.000000 0.000000
    outer loop
      vertex 190.000 112.687 1.113
      vertex 190.000 113.160 1.689
      vertex 190.000 111.206 2.994
    endloop
  endfacet
  facet normal 1.000000 0.000000 0.000000
    outer loop
      vertex 190.000 112.687 1.113
      vertex 190.000 111.206 2.994
      vertex 190.000 111.025 2.775
    endloop
  endfacet
  facet normal 0.000000 -0.881921 0.471397
    outer loop
      vertex 182.000 113.160 1.689
      vertex 190.000 113.160 1.689
      vertex 190.000 113.511 2.346
    endloop
  endfacet
  facet normal 0.000000 -0.881921 0.471397
    outer loop
      vertex 182.000 113.160 1.689
      vertex 190.000 113.511 2.346
      vertex 182.000 113.511 2.346
    endloop
  endfacet
  facet normal 0.000000 0.881921 -0.471397
    outer loop
      vertex 182.000 111.340 3.245
      vertex 190.000 111.340 3.245
      vertex 190.000 111.206 2.994
    endloop
  endfacet
  facet normal 0.000000 0.881921 -0.471397
    outer loop
      vertex 182.000 111.340 3.245
      vertex 190.000 111.206 2.994
      vertex 182.000 111.206 2.994
    endloop
  endfacet
  facet normal -1.000000 0.000000 0.000000
    outer loop
      vertex 182.000 113.511 2.346
      vertex 182.000 113.160 1.689
      vertex 182.000 111.206 2.994
    endloop
  endfacet
  facet normal -1.000000 0.000000 0.000000
    outer loop
      vertex 182.000 113.511 2.346
      vertex 182.000 111.206 2.994
      vertex 182.000 111.340 3.245
    endloop
  endfacet
  facet normal 1.000000 0.000000 0.000000
    outer loop
      vertex 190.000 113.160 1.689
      vertex 190.000 113.511 2.346
      vertex 190.000 111.340 3.245
    endloop
  endfacet
  facet normal 1.000000 0.000000 0.000000
    outer loop
      vertex 190.000 113.160 1.689
      vertex 190.000 111.340 3.245
      vertex 190.000 111.206 2.994
    endloop
  endfacet
  facet normal 0.000000 -0.956940 0.290285
    outer loop
      vertex 182.000 113.511 2.346
      vertex 190.000 113.511 2.346
      vertex 190.000 113.727 3.059
    endloop
  endfacet
  facet normal 0.000000 -0.956940 0.290285
    outer loop
      vertex 182.000 113.511 2.346
      vertex 190.000 113.727 3.059
      vertex 182.000 113.727 3.059
    endloop
  endfacet
  facet normal 0.000000 0.956940 -0.290285
    outer loop
      vertex 182.000 111.422 3.517
      vertex 190.000 111.422 3.517
      vertex 190.000 111.340 3.245
    endloop
  endfacet
  facet normal 0.000000 0.956940 -0.290285
    outer loop
      vertex 182.000 111.422 3.517
      vertex 190.000 111.340 3.245
      vertex 182.000 111.340 3.245
    endloop
  endfacet
  facet normal -1.000000 0.000000 0.000000
    outer loop
      vertex 182.000 113.727 3.059
      vertex 182.000 113.511 2.346
      vertex 182.000 111.340 3.245
    endloop
  endfacet
  facet normal -1.000000 0.000000 0.000000
    outer loop
      vertex 182.000 113.727 3.059
      vertex 182.000 111.340 3.245
      vertex 182.000 111.422 3.517
    endloop
  endfacet
  facet normal 1.000000 0.000000 0.000000
    outer loop
      vertex 190.000 113.511 2.346
      vertex 190.000 113.727 3.059
      vertex 190.000 111.422 3.517
    endloop
  endfacet
  facet normal 1.000000 0.000000 0.000000
    outer loop
      vertex 190.000 113.511 2.346
      vertex 190.000 111.422 3.517
      vertex 190.000 111.340 3.245
    endloop
  endfacet
  facet normal 0.000000 -0.995185 0.098017
    outer loop
      vertex 182.000 113.727 3.059
      vertex 190.000 113.727 3.059
      vertex 190.000 113.800 3.800
    endloop
  endfacet
  facet normal 0.000000 -0.995185 0.098017
    outer loop
      vertex 182.000 113.727 3.059
      vertex 190.000 113.800 3.800
      vertex 182.000 113.800 3.800
    endloop
  endfacet
  facet normal 0.000000 0.995185 -0.098017
    outer loop
      vertex 182.000 111.450 3.800
      vertex 190.000 111.450 3.800
      vertex 190.000 111.422 3.517
    endloop
  endfacet
  facet normal 0.000000 0.995185 -0.098017
    outer loop
      vertex 182.000 111.450 3.800
      vertex 190.000 111.422 3.517
      vertex 182.000 111.422 3.517
    endloop
  endfacet
  facet normal -1.000000 0.000000 0.000000
    outer loop
      vertex 182.000 113.800 3.800
      vertex 182.000 113.727 3.059
      vertex 182.000 111.422 3.517
    endloop
  endfacet
  facet normal -1.000000 0.000000 0.000000
    outer loop
      vertex 182.000 113.800 3.800
      vertex 182.000 111.422 3.517
      vertex 182.000 111.450 3.800
    endloop
  endfacet
  facet normal 1.000000 0.000000 0.000000
    outer loop
      vertex 190.000 113.727 3.059
      vertex 190.000 113.800 3.800
      vertex 190.000 111.450 3.800
    endloop
  endfacet
  facet normal 1.000000 0.000000 0.000000
    outer loop
      vertex 190.000 113.727 3.059
      vertex 190.000 111.450 3.800
      vertex 190.000 111.422 3.517
    endloop
  endfacet
  facet normal 0.000000 0.000000 1.000000
    outer loop
      vertex 182.000 105.200 2.300
      vertex 190.000 105.200 2.300
      vertex 190.000 106.200 2.300
    endloop
  endfacet
  facet normal 0.000000 0.000000 1.000000
    outer loop
      vertex 182.000 105.200 2.300
      vertex 190.000 106.200 2.300
      vertex 182.000 106.200 2.300
    endloop
  endfacet
  facet normal 0.000000 0.000000 -1.000000
    outer loop
      vertex 182.000 105.200 5.300
      vertex 182.000 106.200 5.300
      vertex 190.000 106.200 5.300
    endloop
  endfacet
  facet normal 0.000000 0.000000 -1.000000
    outer loop
      vertex 182.000 105.200 5.300
      vertex 190.000 106.200 5.300
      vertex 190.000 105.200 5.300
    endloop
  endfacet
  facet normal 0.000000 1.000000 0.000000
    outer loop
      vertex 182.000 105.200 2.300
      vertex 182.000 105.200 5.300
      vertex 190.000 105.200 5.300
    endloop
  endfacet
  facet normal 0.000000 1.000000 0.000000
    outer loop
      vertex 182.000 105.200 2.300
      vertex 190.000 105.200 5.300
      vertex 190.000 105.200 2.300
    endloop
  endfacet
  facet normal -1.000000 0.000000 0.000000
    outer loop
      vertex 190.000 105.200 2.300
      vertex 190.000 105.200 5.300
      vertex 190.000 106.200 5.300
    endloop
  endfacet
  facet normal -1.000000 0.000000 0.000000
    outer loop
      vertex 190.000 105.200 2.300
      vertex 190.000 106.200 5.300
      vertex 190.000 106.200 2.300
    endloop
  endfacet
  facet normal 0.000000 -1.000000 0.000000
    outer loop
      vertex 190.000 106.200 2.300
      vertex 190.000 106.200 5.300
      vertex 182.000 106.200 5.300
    endloop
  endfacet
  facet normal 0.000000 -1.000000 0.000000
    outer loop
      vertex 190.000 106.200 2.300
      vertex 182.000 106.200 5.300
      vertex 182.000 106.200 2.300
    endloop
  endfacet
  facet normal 1.000000 0.000000 0.000000
    outer loop
      vertex 182.000 106.200 2.300
      vertex 182.000 106.200 5.300
      vertex 182.000 105.200 5.300
    endloop
  endfacet
  facet normal 1.000000 0.000000 0.000000
    outer loop
      vertex 182.000 106.200 2.300
      vertex 182.000 105.200 5.300
      vertex 182.000 105.200 2.300
    endloop
  endfacet
endsolid food_caddy_k1se_liner_hanger_plate_bed_centered
