solid food_caddy_k1se_liner_hanger_plate
  facet normal 0.000000 -1.000000 0.000000
    outer loop
      vertex -78.000 -79.000 0.000
      vertex 78.000 -79.000 0.000
      vertex 78.000 -79.000 2.000
    endloop
  endfacet
  facet normal 0.000000 -1.000000 0.000000
    outer loop
      vertex -78.000 -79.000 0.000
      vertex 78.000 -79.000 2.000
      vertex -78.000 -79.000 2.000
    endloop
  endfacet
  facet normal 0.000000 1.000000 0.000000
    outer loop
      vertex 74.000 -72.000 0.000
      vertex -74.000 -72.000 0.000
      vertex -74.000 -72.000 2.000
    endloop
  endfacet
  facet normal 0.000000 1.000000 0.000000
    outer loop
      vertex 74.000 -72.000 0.000
      vertex -74.000 -72.000 2.000
      vertex 74.000 -72.000 2.000
    endloop
  endfacet
  facet normal 0.000000 0.000000 1.000000
    outer loop
      vertex -78.000 -79.000 2.000
      vertex 78.000 -79.000 2.000
      vertex 74.000 -72.000 2.000
    endloop
  endfacet
  facet normal 0.000000 0.000000 1.000000
    outer loop
      vertex -78.000 -79.000 2.000
      vertex 74.000 -72.000 2.000
      vertex -74.000 -72.000 2.000
    endloop
  endfacet
  facet normal 0.000000 0.000000 -1.000000
    outer loop
      vertex 78.000 -79.000 0.000
      vertex -78.000 -79.000 0.000
      vertex -74.000 -72.000 0.000
    endloop
  endfacet
  facet normal 0.000000 0.000000 -1.000000
    outer loop
      vertex 78.000 -79.000 0.000
      vertex -74.000 -72.000 0.000
      vertex 74.000 -72.000 0.000
    endloop
  endfacet
  facet normal 0.707107 -0.707107 0.000000
    outer loop
      vertex 78.000 -79.000 0.000
      vertex 99.000 -58.000 0.000
      vertex 99.000 -58.000 2.000
    endloop
  endfacet
  facet normal 0.707107 -0.707107 0.000000
    outer loop
      vertex 78.000 -79.000 0.000
      vertex 99.000 -58.000 2.000
      vertex 78.000 -79.000 2.000
    endloop
  endfacet
  facet normal -0.707107 0.707107 0.000000
    outer loop
      vertex 92.000 -54.000 0.000
      vertex 74.000 -72.000 0.000
      vertex 74.000 -72.000 2.000
    endloop
  endfacet
  facet normal -0.707107 0.707107 0.000000
    outer loop
      vertex 92.000 -54.000 0.000
      vertex 74.000 -72.000 2.000
      vertex 92.000 -54.000 2.000
    endloop
  endfacet
  facet normal 0.000000 0.000000 1.000000
    outer loop
      vertex 78.000 -79.000 2.000
      vertex 99.000 -58.000 2.000
      vertex 92.000 -54.000 2.000
    endloop
  endfacet
  facet normal 0.000000 0.000000 1.000000
    outer loop
      vertex 78.000 -79.000 2.000
      vertex 92.000 -54.000 2.000
      vertex 74.000 -72.000 2.000
    endloop
  endfacet
  facet normal 0.000000 0.000000 -1.000000
    outer loop
      vertex 99.000 -58.000 0.000
      vertex 78.000 -79.000 0.000
      vertex 74.000 -72.000 0.000
    endloop
  endfacet
  facet normal 0.000000 0.000000 -1.000000
    outer loop
      vertex 99.000 -58.000 0.000
      vertex 74.000 -72.000 0.000
      vertex 92.000 -54.000 0.000
    endloop
  endfacet
  facet normal 1.000000 0.000000 0.000000
    outer loop
      vertex 99.000 -58.000 0.000
      vertex 99.000 58.000 0.000
      vertex 99.000 58.000 2.000
    endloop
  endfacet
  facet normal 1.000000 0.000000 0.000000
    outer loop
      vertex 99.000 -58.000 0.000
      vertex 99.000 58.000 2.000
      vertex 99.000 -58.000 2.000
    endloop
  endfacet
  facet normal -1.000000 0.000000 0.000000
    outer loop
      vertex 92.000 54.000 0.000
      vertex 92.000 -54.000 0.000
      vertex 92.000 -54.000 2.000
    endloop
  endfacet
  facet normal -1.000000 0.000000 0.000000
    outer loop
      vertex 92.000 54.000 0.000
      vertex 92.000 -54.000 2.000
      vertex 92.000 54.000 2.000
    endloop
  endfacet
  facet normal 0.000000 0.000000 1.000000
    outer loop
      vertex 99.000 -58.000 2.000
      vertex 99.000 58.000 2.000
      vertex 92.000 54.000 2.000
    endloop
  endfacet
  facet normal 0.000000 0.000000 1.000000
    outer loop
      vertex 99.000 -58.000 2.000
      vertex 92.000 54.000 2.000
      vertex 92.000 -54.000 2.000
    endloop
  endfacet
  facet normal 0.000000 0.000000 -1.000000
    outer loop
      vertex 99.000 58.000 0.000
      vertex 99.000 -58.000 0.000
      vertex 92.000 -54.000 0.000
    endloop
  endfacet
  facet normal 0.000000 0.000000 -1.000000
    outer loop
      vertex 99.000 58.000 0.000
      vertex 92.000 -54.000 0.000
      vertex 92.000 54.000 0.000
    endloop
  endfacet
  facet normal 0.707107 0.707107 0.000000
    outer loop
      vertex 99.000 58.000 0.000
      vertex 78.000 79.000 0.000
      vertex 78.000 79.000 2.000
    endloop
  endfacet
  facet normal 0.707107 0.707107 0.000000
    outer loop
      vertex 99.000 58.000 0.000
      vertex 78.000 79.000 2.000
      vertex 99.000 58.000 2.000
    endloop
  endfacet
  facet normal -0.707107 -0.707107 0.000000
    outer loop
      vertex 74.000 72.000 0.000
      vertex 92.000 54.000 0.000
      vertex 92.000 54.000 2.000
    endloop
  endfacet
  facet normal -0.707107 -0.707107 0.000000
    outer loop
      vertex 74.000 72.000 0.000
      vertex 92.000 54.000 2.000
      vertex 74.000 72.000 2.000
    endloop
  endfacet
  facet normal 0.000000 0.000000 1.000000
    outer loop
      vertex 99.000 58.000 2.000
      vertex 78.000 79.000 2.000
      vertex 74.000 72.000 2.000
    endloop
  endfacet
  facet normal 0.000000 0.000000 1.000000
    outer loop
      vertex 99.000 58.000 2.000
      vertex 74.000 72.000 2.000
      vertex 92.000 54.000 2.000
    endloop
  endfacet
  facet normal 0.000000 0.000000 -1.000000
    outer loop
      vertex 78.000 79.000 0.000
      vertex 99.000 58.000 0.000
      vertex 92.000 54.000 0.000
    endloop
  endfacet
  facet normal 0.000000 0.000000 -1.000000
    outer loop
      vertex 78.000 79.000 0.000
      vertex 92.000 54.000 0.000
      vertex 74.000 72.000 0.000
    endloop
  endfacet
  facet normal 0.000000 1.000000 0.000000
    outer loop
      vertex 78.000 79.000 0.000
      vertex -78.000 79.000 0.000
      vertex -78.000 79.000 2.000
    endloop
  endfacet
  facet normal 0.000000 1.000000 0.000000
    outer loop
      vertex 78.000 79.000 0.000
      vertex -78.000 79.000 2.000
      vertex 78.000 79.000 2.000
    endloop
  endfacet
  facet normal 0.000000 -1.000000 0.000000
    outer loop
      vertex -74.000 72.000 0.000
      vertex 74.000 72.000 0.000
      vertex 74.000 72.000 2.000
    endloop
  endfacet
  facet normal 0.000000 -1.000000 0.000000
    outer loop
      vertex -74.000 72.000 0.000
      vertex 74.000 72.000 2.000
      vertex -74.000 72.000 2.000
    endloop
  endfacet
  facet normal 0.000000 0.000000 1.000000
    outer loop
      vertex 78.000 79.000 2.000
      vertex -78.000 79.000 2.000
      vertex -74.000 72.000 2.000
    endloop
  endfacet
  facet normal 0.000000 0.000000 1.000000
    outer loop
      vertex 78.000 79.000 2.000
      vertex -74.000 72.000 2.000
      vertex 74.000 72.000 2.000
    endloop
  endfacet
  facet normal 0.000000 0.000000 -1.000000
    outer loop
      vertex -78.000 79.000 0.000
      vertex 78.000 79.000 0.000
      vertex 74.000 72.000 0.000
    endloop
  endfacet
  facet normal 0.000000 0.000000 -1.000000
    outer loop
      vertex -78.000 79.000 0.000
      vertex 74.000 72.000 0.000
      vertex -74.000 72.000 0.000
    endloop
  endfacet
  facet normal -0.707107 0.707107 0.000000
    outer loop
      vertex -78.000 79.000 0.000
      vertex -99.000 58.000 0.000
      vertex -99.000 58.000 2.000
    endloop
  endfacet
  facet normal -0.707107 0.707107 0.000000
    outer loop
      vertex -78.000 79.000 0.000
      vertex -99.000 58.000 2.000
      vertex -78.000 79.000 2.000
    endloop
  endfacet
  facet normal 0.707107 -0.707107 0.000000
    outer loop
      vertex -92.000 54.000 0.000
      vertex -74.000 72.000 0.000
      vertex -74.000 72.000 2.000
    endloop
  endfacet
  facet normal 0.707107 -0.707107 0.000000
    outer loop
      vertex -92.000 54.000 0.000
      vertex -74.000 72.000 2.000
      vertex -92.000 54.000 2.000
    endloop
  endfacet
  facet normal 0.000000 0.000000 1.000000
    outer loop
      vertex -78.000 79.000 2.000
      vertex -99.000 58.000 2.000
      vertex -92.000 54.000 2.000
    endloop
  endfacet
  facet normal 0.000000 0.000000 1.000000
    outer loop
      vertex -78.000 79.000 2.000
      vertex -92.000 54.000 2.000
      vertex -74.000 72.000 2.000
    endloop
  endfacet
  facet normal 0.000000 0.000000 -1.000000
    outer loop
      vertex -99.000 58.000 0.000
      vertex -78.000 79.000 0.000
      vertex -74.000 72.000 0.000
    endloop
  endfacet
  facet normal 0.000000 0.000000 -1.000000
    outer loop
      vertex -99.000 58.000 0.000
      vertex -74.000 72.000 0.000
      vertex -92.000 54.000 0.000
    endloop
  endfacet
  facet normal -1.000000 0.000000 0.000000
    outer loop
      vertex -99.000 58.000 0.000
      vertex -99.000 -58.000 0.000
      vertex -99.000 -58.000 2.000
    endloop
  endfacet
  facet normal -1.000000 0.000000 0.000000
    outer loop
      vertex -99.000 58.000 0.000
      vertex -99.000 -58.000 2.000
      vertex -99.000 58.000 2.000
    endloop
  endfacet
  facet normal 1.000000 0.000000 0.000000
    outer loop
      vertex -92.000 -54.000 0.000
      vertex -92.000 54.000 0.000
      vertex -92.000 54.000 2.000
    endloop
  endfacet
  facet normal 1.000000 0.000000 0.000000
    outer loop
      vertex -92.000 -54.000 0.000
      vertex -92.000 54.000 2.000
      vertex -92.000 -54.000 2.000
    endloop
  endfacet
  facet normal 0.000000 0.000000 1.000000
    outer loop
      vertex -99.000 58.000 2.000
      vertex -99.000 -58.000 2.000
      vertex -92.000 -54.000 2.000
    endloop
  endfacet
  facet normal 0.000000 0.000000 1.000000
    outer loop
      vertex -99.000 58.000 2.000
      vertex -92.000 -54.000 2.000
      vertex -92.000 54.000 2.000
    endloop
  endfacet
  facet normal 0.000000 0.000000 -1.000000
    outer loop
      vertex -99.000 -58.000 0.000
      vertex -99.000 58.000 0.000
      vertex -92.000 54.000 0.000
    endloop
  endfacet
  facet normal 0.000000 0.000000 -1.000000
    outer loop
      vertex -99.000 -58.000 0.000
      vertex -92.000 54.000 0.000
      vertex -92.000 -54.000 0.000
    endloop
  endfacet
  facet normal -0.707107 -0.707107 0.000000
    outer loop
      vertex -99.000 -58.000 0.000
      vertex -78.000 -79.000 0.000
      vertex -78.000 -79.000 2.000
    endloop
  endfacet
  facet normal -0.707107 -0.707107 0.000000
    outer loop
      vertex -99.000 -58.000 0.000
      vertex -78.000 -79.000 2.000
      vertex -99.000 -58.000 2.000
    endloop
  endfacet
  facet normal 0.707107 0.707107 0.000000
    outer loop
      vertex -74.000 -72.000 0.000
      vertex -92.000 -54.000 0.000
      vertex -92.000 -54.000 2.000
    endloop
  endfacet
  facet normal 0.707107 0.707107 0.000000
    outer loop
      vertex -74.000 -72.000 0.000
      vertex -92.000 -54.000 2.000
      vertex -74.000 -72.000 2.000
    endloop
  endfacet
  facet normal 0.000000 0.000000 1.000000
    outer loop
      vertex -99.000 -58.000 2.000
      vertex -78.000 -79.000 2.000
      vertex -74.000 -72.000 2.000
    endloop
  endfacet
  facet normal 0.000000 0.000000 1.000000
    outer loop
      vertex -99.000 -58.000 2.000
      vertex -74.000 -72.000 2.000
      vertex -92.000 -54.000 2.000
    endloop
  endfacet
  facet normal 0.000000 0.000000 -1.000000
    outer loop
      vertex -78.000 -79.000 0.000
      vertex -99.000 -58.000 0.000
      vertex -92.000 -54.000 0.000
    endloop
  endfacet
  facet normal 0.000000 0.000000 -1.000000
    outer loop
      vertex -78.000 -79.000 0.000
      vertex -92.000 -54.000 0.000
      vertex -74.000 -72.000 0.000
    endloop
  endfacet
  facet normal 0.000000 0.000000 1.000000
    outer loop
      vertex -30.000 -82.000 0.000
      vertex 30.000 -82.000 0.000
      vertex 30.000 -75.000 0.000
    endloop
  endfacet
  facet normal 0.000000 0.000000 1.000000
    outer loop
      vertex -30.000 -82.000 0.000
      vertex 30.000 -75.000 0.000
      vertex -30.000 -75.000 0.000
    endloop
  endfacet
  facet normal 0.000000 0.000000 -1.000000
    outer loop
      vertex -30.000 -82.000 4.000
      vertex -30.000 -75.000 4.000
      vertex 30.000 -75.000 4.000
    endloop
  endfacet
  facet normal 0.000000 0.000000 -1.000000
    outer loop
      vertex -30.000 -82.000 4.000
      vertex 30.000 -75.000 4.000
      vertex 30.000 -82.000 4.000
    endloop
  endfacet
  facet normal 0.000000 1.000000 0.000000
    outer loop
      vertex -30.000 -82.000 0.000
      vertex -30.000 -82.000 4.000
      vertex 30.000 -82.000 4.000
    endloop
  endfacet
  facet normal 0.000000 1.000000 0.000000
    outer loop
      vertex -30.000 -82.000 0.000
      vertex 30.000 -82.000 4.000
      vertex 30.000 -82.000 0.000
    endloop
  endfacet
  facet normal -1.000000 0.000000 0.000000
    outer loop
      vertex 30.000 -82.000 0.000
      vertex 30.000 -82.000 4.000
      vertex 30.000 -75.000 4.000
    endloop
  endfacet
  facet normal -1.000000 0.000000 0.000000
    outer loop
      vertex 30.000 -82.000 0.000
      vertex 30.000 -75.000 4.000
      vertex 30.000 -75.000 0.000
    endloop
  endfacet
  facet normal 0.000000 -1.000000 0.000000
    outer loop
      vertex 30.000 -75.000 0.000
      vertex 30.000 -75.000 4.000
      vertex -30.000 -75.000 4.000
    endloop
  endfacet
  facet normal 0.000000 -1.000000 0.000000
    outer loop
      vertex 30.000 -75.000 0.000
      vertex -30.000 -75.000 4.000
      vertex -30.000 -75.000 0.000
    endloop
  endfacet
  facet normal 1.000000 0.000000 0.000000
    outer loop
      vertex -30.000 -75.000 0.000
      vertex -30.000 -75.000 4.000
      vertex -30.000 -82.000 4.000
    endloop
  endfacet
  facet normal 1.000000 0.000000 0.000000
    outer loop
      vertex -30.000 -75.000 0.000
      vertex -30.000 -82.000 4.000
      vertex -30.000 -82.000 0.000
    endloop
  endfacet
  facet normal 0.000000 0.000000 1.000000
    outer loop
      vertex -30.000 75.000 0.000
      vertex 30.000 75.000 0.000
      vertex 30.000 82.000 0.000
    endloop
  endfacet
  facet normal 0.000000 0.000000 1.000000
    outer loop
      vertex -30.000 75.000 0.000
      vertex 30.000 82.000 0.000
      vertex -30.000 82.000 0.000
    endloop
  endfacet
  facet normal 0.000000 0.000000 -1.000000
    outer loop
      vertex -30.000 75.000 4.000
      vertex -30.000 82.000 4.000
      vertex 30.000 82.000 4.000
    endloop
  endfacet
  facet normal 0.000000 0.000000 -1.000000
    outer loop
      vertex -30.000 75.000 4.000
      vertex 30.000 82.000 4.000
      vertex 30.000 75.000 4.000
    endloop
  endfacet
  facet normal 0.000000 1.000000 0.000000
    outer loop
      vertex -30.000 75.000 0.000
      vertex -30.000 75.000 4.000
      vertex 30.000 75.000 4.000
    endloop
  endfacet
  facet normal 0.000000 1.000000 0.000000
    outer loop
      vertex -30.000 75.000 0.000
      vertex 30.000 75.000 4.000
      vertex 30.000 75.000 0.000
    endloop
  endfacet
  facet normal -1.000000 0.000000 0.000000
    outer loop
      vertex 30.000 75.000 0.000
      vertex 30.000 75.000 4.000
      vertex 30.000 82.000 4.000
    endloop
  endfacet
  facet normal -1.000000 0.000000 0.000000
    outer loop
      vertex 30.000 75.000 0.000
      vertex 30.000 82.000 4.000
      vertex 30.000 82.000 0.000
    endloop
  endfacet
  facet normal 0.000000 -1.000000 0.000000
    outer loop
      vertex 30.000 82.000 0.000
      vertex 30.000 82.000 4.000
      vertex -30.000 82.000 4.000
    endloop
  endfacet
  facet normal 0.000000 -1.000000 0.000000
    outer loop
      vertex 30.000 82.000 0.000
      vertex -30.000 82.000 4.000
      vertex -30.000 82.000 0.000
    endloop
  endfacet
  facet normal 1.000000 0.000000 0.000000
    outer loop
      vertex -30.000 82.000 0.000
      vertex -30.000 82.000 4.000
      vertex -30.000 75.000 4.000
    endloop
  endfacet
  facet normal 1.000000 0.000000 0.000000
    outer loop
      vertex -30.000 82.000 0.000
      vertex -30.000 75.000 4.000
      vertex -30.000 75.000 0.000
    endloop
  endfacet
  facet normal 0.000000 0.000000 1.000000
    outer loop
      vertex -102.000 -20.000 0.000
      vertex -95.000 -20.000 0.000
      vertex -95.000 20.000 0.000
    endloop
  endfacet
  facet normal 0.000000 0.000000 1.000000
    outer loop
      vertex -102.000 -20.000 0.000
      vertex -95.000 20.000 0.000
      vertex -102.000 20.000 0.000
    endloop
  endfacet
  facet normal 0.000000 0.000000 -1.000000
    outer loop
      vertex -102.000 -20.000 4.000
      vertex -102.000 20.000 4.000
      vertex -95.000 20.000 4.000
    endloop
  endfacet
  facet normal 0.000000 0.000000 -1.000000
    outer loop
      vertex -102.000 -20.000 4.000
      vertex -95.000 20.000 4.000
      vertex -95.000 -20.000 4.000
    endloop
  endfacet
  facet normal 0.000000 1.000000 0.000000
    outer loop
      vertex -102.000 -20.000 0.000
      vertex -102.000 -20.000 4.000
      vertex -95.000 -20.000 4.000
    endloop
  endfacet
  facet normal 0.000000 1.000000 0.000000
    outer loop
      vertex -102.000 -20.000 0.000
      vertex -95.000 -20.000 4.000
      vertex -95.000 -20.000 0.000
    endloop
  endfacet
  facet normal -1.000000 0.000000 0.000000
    outer loop
      vertex -95.000 -20.000 0.000
      vertex -95.000 -20.000 4.000
      vertex -95.000 20.000 4.000
    endloop
  endfacet
  facet normal -1.000000 0.000000 0.000000
    outer loop
      vertex -95.000 -20.000 0.000
      vertex -95.000 20.000 4.000
      vertex -95.000 20.000 0.000
    endloop
  endfacet
  facet normal 0.000000 -1.000000 0.000000
    outer loop
      vertex -95.000 20.000 0.000
      vertex -95.000 20.000 4.000
      vertex -102.000 20.000 4.000
    endloop
  endfacet
  facet normal 0.000000 -1.000000 0.000000
    outer loop
      vertex -95.000 20.000 0.000
      vertex -102.000 20.000 4.000
      vertex -102.000 20.000 0.000
    endloop
  endfacet
  facet normal 1.000000 0.000000 0.000000
    outer loop
      vertex -102.000 20.000 0.000
      vertex -102.000 20.000 4.000
      vertex -102.000 -20.000 4.000
    endloop
  endfacet
  facet normal 1.000000 0.000000 0.000000
    outer loop
      vertex -102.000 20.000 0.000
      vertex -102.000 -20.000 4.000
      vertex -102.000 -20.000 0.000
    endloop
  endfacet
  facet normal 0.000000 0.000000 1.000000
    outer loop
      vertex 95.000 -20.000 0.000
      vertex 102.000 -20.000 0.000
      vertex 102.000 20.000 0.000
    endloop
  endfacet
  facet normal 0.000000 0.000000 1.000000
    outer loop
      vertex 95.000 -20.000 0.000
      vertex 102.000 20.000 0.000
      vertex 95.000 20.000 0.000
    endloop
  endfacet
  facet normal 0.000000 0.000000 -1.000000
    outer loop
      vertex 95.000 -20.000 4.000
      vertex 95.000 20.000 4.000
      vertex 102.000 20.000 4.000
    endloop
  endfacet
  facet normal 0.000000 0.000000 -1.000000
    outer loop
      vertex 95.000 -20.000 4.000
      vertex 102.000 20.000 4.000
      vertex 102.000 -20.000 4.000
    endloop
  endfacet
  facet normal 0.000000 1.000000 0.000000
    outer loop
      vertex 95.000 -20.000 0.000
      vertex 95.000 -20.000 4.000
      vertex 102.000 -20.000 4.000
    endloop
  endfacet
  facet normal 0.000000 1.000000 0.000000
    outer loop
      vertex 95.000 -20.000 0.000
      vertex 102.000 -20.000 4.000
      vertex 102.000 -20.000 0.000
    endloop
  endfacet
  facet normal -1.000000 0.000000 0.000000
    outer loop
      vertex 102.000 -20.000 0.000
      vertex 102.000 -20.000 4.000
      vertex 102.000 20.000 4.000
    endloop
  endfacet
  facet normal -1.000000 0.000000 0.000000
    outer loop
      vertex 102.000 -20.000 0.000
      vertex 102.000 20.000 4.000
      vertex 102.000 20.000 0.000
    endloop
  endfacet
  facet normal 0.000000 -1.000000 0.000000
    outer loop
      vertex 102.000 20.000 0.000
      vertex 102.000 20.000 4.000
      vertex 95.000 20.000 4.000
    endloop
  endfacet
  facet normal 0.000000 -1.000000 0.000000
    outer loop
      vertex 102.000 20.000 0.000
      vertex 95.000 20.000 4.000
      vertex 95.000 20.000 0.000
    endloop
  endfacet
  facet normal 1.000000 0.000000 0.000000
    outer loop
      vertex 95.000 20.000 0.000
      vertex 95.000 20.000 4.000
      vertex 95.000 -20.000 4.000
    endloop
  endfacet
  facet normal 1.000000 0.000000 0.000000
    outer loop
      vertex 95.000 20.000 0.000
      vertex 95.000 -20.000 4.000
      vertex 95.000 -20.000 0.000
    endloop
  endfacet
  facet normal 0.000000 0.000000 1.000000
    outer loop
      vertex -35.000 -50.000 3.400
      vertex -16.000 -50.000 3.400
      vertex -16.000 50.000 3.400
    endloop
  endfacet
  facet normal 0.000000 0.000000 1.000000
    outer loop
      vertex -35.000 -50.000 3.400
      vertex -16.000 50.000 3.400
      vertex -35.000 50.000 3.400
    endloop
  endfacet
  facet normal 0.000000 0.000000 -1.000000
    outer loop
      vertex -35.000 -50.000 0.000
      vertex -35.000 50.000 0.000
      vertex -16.000 50.000 0.000
    endloop
  endfacet
  facet normal 0.000000 0.000000 -1.000000
    outer loop
      vertex -35.000 -50.000 0.000
      vertex -16.000 50.000 0.000
      vertex -16.000 -50.000 0.000
    endloop
  endfacet
  facet normal 0.000000 -1.000000 0.000000
    outer loop
      vertex -35.000 -50.000 3.400
      vertex -35.000 -50.000 0.000
      vertex -16.000 -50.000 0.000
    endloop
  endfacet
  facet normal 0.000000 -1.000000 0.000000
    outer loop
      vertex -35.000 -50.000 3.400
      vertex -16.000 -50.000 0.000
      vertex -16.000 -50.000 3.400
    endloop
  endfacet
  facet normal 1.000000 0.000000 0.000000
    outer loop
      vertex -16.000 -50.000 3.400
      vertex -16.000 -50.000 0.000
      vertex -16.000 50.000 0.000
    endloop
  endfacet
  facet normal 1.000000 0.000000 0.000000
    outer loop
      vertex -16.000 -50.000 3.400
      vertex -16.000 50.000 0.000
      vertex -16.000 50.000 3.400
    endloop
  endfacet
  facet normal 0.000000 1.000000 0.000000
    outer loop
      vertex -16.000 50.000 3.400
      vertex -16.000 50.000 0.000
      vertex -35.000 50.000 0.000
    endloop
  endfacet
  facet normal 0.000000 1.000000 0.000000
    outer loop
      vertex -16.000 50.000 3.400
      vertex -35.000 50.000 0.000
      vertex -35.000 50.000 3.400
    endloop
  endfacet
  facet normal -1.000000 0.000000 0.000000
    outer loop
      vertex -35.000 50.000 3.400
      vertex -35.000 50.000 0.000
      vertex -35.000 -50.000 0.000
    endloop
  endfacet
  facet normal -1.000000 0.000000 0.000000
    outer loop
      vertex -35.000 50.000 3.400
      vertex -35.000 -50.000 0.000
      vertex -35.000 -50.000 3.400
    endloop
  endfacet
  facet normal 0.000000 0.000000 1.000000
    outer loop
      vertex -35.000 -50.000 12.000
      vertex -32.000 -50.000 12.000
      vertex -32.000 50.000 12.000
    endloop
  endfacet
  facet normal 0.000000 0.000000 1.000000
    outer loop
      vertex -35.000 -50.000 12.000
      vertex -32.000 50.000 12.000
      vertex -35.000 50.000 12.000
    endloop
  endfacet
  facet normal 0.000000 0.000000 -1.000000
    outer loop
      vertex -35.000 -50.000 0.000
      vertex -35.000 50.000 0.000
      vertex -32.000 50.000 0.000
    endloop
  endfacet
  facet normal 0.000000 0.000000 -1.000000
    outer loop
      vertex -35.000 -50.000 0.000
      vertex -32.000 50.000 0.000
      vertex -32.000 -50.000 0.000
    endloop
  endfacet
  facet normal 0.000000 -1.000000 0.000000
    outer loop
      vertex -35.000 -50.000 12.000
      vertex -35.000 -50.000 0.000
      vertex -32.000 -50.000 0.000
    endloop
  endfacet
  facet normal 0.000000 -1.000000 0.000000
    outer loop
      vertex -35.000 -50.000 12.000
      vertex -32.000 -50.000 0.000
      vertex -32.000 -50.000 12.000
    endloop
  endfacet
  facet normal 1.000000 0.000000 0.000000
    outer loop
      vertex -32.000 -50.000 12.000
      vertex -32.000 -50.000 0.000
      vertex -32.000 50.000 0.000
    endloop
  endfacet
  facet normal 1.000000 0.000000 0.000000
    outer loop
      vertex -32.000 -50.000 12.000
      vertex -32.000 50.000 0.000
      vertex -32.000 50.000 12.000
    endloop
  endfacet
  facet normal 0.000000 1.000000 0.000000
    outer loop
      vertex -32.000 50.000 12.000
      vertex -32.000 50.000 0.000
      vertex -35.000 50.000 0.000
    endloop
  endfacet
  facet normal 0.000000 1.000000 0.000000
    outer loop
      vertex -32.000 50.000 12.000
      vertex -35.000 50.000 0.000
      vertex -35.000 50.000 12.000
    endloop
  endfacet
  facet normal -1.000000 0.000000 0.000000
    outer loop
      vertex -35.000 50.000 12.000
      vertex -35.000 50.000 0.000
      vertex -35.000 -50.000 0.000
    endloop
  endfacet
  facet normal -1.000000 0.000000 0.000000
    outer loop
      vertex -35.000 50.000 12.000
      vertex -35.000 -50.000 0.000
      vertex -35.000 -50.000 12.000
    endloop
  endfacet
  facet normal 0.000000 0.000000 1.000000
    outer loop
      vertex -22.000 -50.000 15.000
      vertex -17.000 -50.000 15.000
      vertex -17.000 50.000 15.000
    endloop
  endfacet
  facet normal 0.000000 0.000000 1.000000
    outer loop
      vertex -22.000 -50.000 15.000
      vertex -17.000 50.000 15.000
      vertex -22.000 50.000 15.000
    endloop
  endfacet
  facet normal 0.000000 0.000000 -1.000000
    outer loop
      vertex -22.000 -50.000 11.300
      vertex -22.000 50.000 11.300
      vertex -17.000 50.000 11.300
    endloop
  endfacet
  facet normal 0.000000 0.000000 -1.000000
    outer loop
      vertex -22.000 -50.000 11.300
      vertex -17.000 50.000 11.300
      vertex -17.000 -50.000 11.300
    endloop
  endfacet
  facet normal 0.000000 -1.000000 0.000000
    outer loop
      vertex -22.000 -50.000 15.000
      vertex -22.000 -50.000 11.300
      vertex -17.000 -50.000 11.300
    endloop
  endfacet
  facet normal 0.000000 -1.000000 0.000000
    outer loop
      vertex -22.000 -50.000 15.000
      vertex -17.000 -50.000 11.300
      vertex -17.000 -50.000 15.000
    endloop
  endfacet
  facet normal 1.000000 0.000000 0.000000
    outer loop
      vertex -17.000 -50.000 15.000
      vertex -17.000 -50.000 11.300
      vertex -17.000 50.000 11.300
    endloop
  endfacet
  facet normal 1.000000 0.000000 0.000000
    outer loop
      vertex -17.000 -50.000 15.000
      vertex -17.000 50.000 11.300
      vertex -17.000 50.000 15.000
    endloop
  endfacet
  facet normal 0.000000 1.000000 0.000000
    outer loop
      vertex -17.000 50.000 15.000
      vertex -17.000 50.000 11.300
      vertex -22.000 50.000 11.300
    endloop
  endfacet
  facet normal 0.000000 1.000000 0.000000
    outer loop
      vertex -17.000 50.000 15.000
      vertex -22.000 50.000 11.300
      vertex -22.000 50.000 15.000
    endloop
  endfacet
  facet normal -1.000000 0.000000 0.000000
    outer loop
      vertex -22.000 50.000 15.000
      vertex -22.000 50.000 11.300
      vertex -22.000 -50.000 11.300
    endloop
  endfacet
  facet normal -1.000000 0.000000 0.000000
    outer loop
      vertex -22.000 50.000 15.000
      vertex -22.000 -50.000 11.300
      vertex -22.000 -50.000 15.000
    endloop
  endfacet
  facet normal 0.969416 0.000000 -0.245422
    outer loop
      vertex -17.200 -50.000 11.300
      vertex -19.200 -50.000 3.400
      vertex -19.200 50.000 3.400
    endloop
  endfacet
  facet normal 0.969416 0.000000 -0.245422
    outer loop
      vertex -17.200 -50.000 11.300
      vertex -19.200 50.000 3.400
      vertex -17.200 50.000 11.300
    endloop
  endfacet
  facet normal 0.000000 0.000000 -1.000000
    outer loop
      vertex -19.200 -50.000 3.400
      vertex -21.500 -50.000 3.400
      vertex -21.500 50.000 3.400
    endloop
  endfacet
  facet normal 0.000000 0.000000 -1.000000
    outer loop
      vertex -19.200 -50.000 3.400
      vertex -21.500 50.000 3.400
      vertex -19.200 50.000 3.400
    endloop
  endfacet
  facet normal -0.969416 0.000000 0.245422
    outer loop
      vertex -21.500 -50.000 3.400
      vertex -19.500 -50.000 11.300
      vertex -19.500 50.000 11.300
    endloop
  endfacet
  facet normal -0.969416 0.000000 0.245422
    outer loop
      vertex -21.500 -50.000 3.400
      vertex -19.500 50.000 11.300
      vertex -21.500 50.000 3.400
    endloop
  endfacet
  facet normal 0.000000 0.000000 1.000000
    outer loop
      vertex -19.500 -50.000 11.300
      vertex -17.200 -50.000 11.300
      vertex -17.200 50.000 11.300
    endloop
  endfacet
  facet normal 0.000000 0.000000 1.000000
    outer loop
      vertex -19.500 -50.000 11.300
      vertex -17.200 50.000 11.300
      vertex -19.500 50.000 11.300
    endloop
  endfacet
  facet normal 0.000000 -1.000000 0.000000
    outer loop
      vertex -19.350 -50.000 7.350
      vertex -19.200 -50.000 3.400
      vertex -17.200 -50.000 11.300
    endloop
  endfacet
  facet normal 0.000000 -1.000000 0.000000
    outer loop
      vertex -19.350 -50.000 7.350
      vertex -21.500 -50.000 3.400
      vertex -19.200 -50.000 3.400
    endloop
  endfacet
  facet normal 0.000000 -1.000000 0.000000
    outer loop
      vertex -19.350 -50.000 7.350
      vertex -19.500 -50.000 11.300
      vertex -21.500 -50.000 3.400
    endloop
  endfacet
  facet normal 0.000000 -1.000000 0.000000
    outer loop
      vertex -19.350 -50.000 7.350
      vertex -17.200 -50.000 11.300
      vertex -19.500 -50.000 11.300
    endloop
  endfacet
  facet normal 0.000000 1.000000 0.000000
    outer loop
      vertex -19.350 50.000 7.350
      vertex -17.200 50.000 11.300
      vertex -19.200 50.000 3.400
    endloop
  endfacet
  facet normal 0.000000 1.000000 0.000000
    outer loop
      vertex -19.350 50.000 7.350
      vertex -19.200 50.000 3.400
      vertex -21.500 50.000 3.400
    endloop
  endfacet
  facet normal 0.000000 1.000000 0.000000
    outer loop
      vertex -19.350 50.000 7.350
      vertex -21.500 50.000 3.400
      vertex -19.500 50.000 11.300
    endloop
  endfacet
  facet normal 0.000000 1.000000 0.000000
    outer loop
      vertex -19.350 50.000 7.350
      vertex -19.500 50.000 11.300
      vertex -17.200 50.000 11.300
    endloop
  endfacet
  facet normal 0.000000 0.000000 1.000000
    outer loop
      vertex 16.000 -50.000 3.400
      vertex 35.000 -50.000 3.400
      vertex 35.000 50.000 3.400
    endloop
  endfacet
  facet normal 0.000000 0.000000 1.000000
    outer loop
      vertex 16.000 -50.000 3.400
      vertex 35.000 50.000 3.400
      vertex 16.000 50.000 3.400
    endloop
  endfacet
  facet normal 0.000000 0.000000 -1.000000
    outer loop
      vertex 16.000 -50.000 0.000
      vertex 16.000 50.000 0.000
      vertex 35.000 50.000 0.000
    endloop
  endfacet
  facet normal 0.000000 0.000000 -1.000000
    outer loop
      vertex 16.000 -50.000 0.000
      vertex 35.000 50.000 0.000
      vertex 35.000 -50.000 0.000
    endloop
  endfacet
  facet normal 0.000000 -1.000000 0.000000
    outer loop
      vertex 16.000 -50.000 3.400
      vertex 16.000 -50.000 0.000
      vertex 35.000 -50.000 0.000
    endloop
  endfacet
  facet normal 0.000000 -1.000000 0.000000
    outer loop
      vertex 16.000 -50.000 3.400
      vertex 35.000 -50.000 0.000
      vertex 35.000 -50.000 3.400
    endloop
  endfacet
  facet normal 1.000000 0.000000 0.000000
    outer loop
      vertex 35.000 -50.000 3.400
      vertex 35.000 -50.000 0.000
      vertex 35.000 50.000 0.000
    endloop
  endfacet
  facet normal 1.000000 0.000000 0.000000
    outer loop
      vertex 35.000 -50.000 3.400
      vertex 35.000 50.000 0.000
      vertex 35.000 50.000 3.400
    endloop
  endfacet
  facet normal 0.000000 1.000000 0.000000
    outer loop
      vertex 35.000 50.000 3.400
      vertex 35.000 50.000 0.000
      vertex 16.000 50.000 0.000
    endloop
  endfacet
  facet normal 0.000000 1.000000 0.000000
    outer loop
      vertex 35.000 50.000 3.400
      vertex 16.000 50.000 0.000
      vertex 16.000 50.000 3.400
    endloop
  endfacet
  facet normal -1.000000 0.000000 0.000000
    outer loop
      vertex 16.000 50.000 3.400
      vertex 16.000 50.000 0.000
      vertex 16.000 -50.000 0.000
    endloop
  endfacet
  facet normal -1.000000 0.000000 0.000000
    outer loop
      vertex 16.000 50.000 3.400
      vertex 16.000 -50.000 0.000
      vertex 16.000 -50.000 3.400
    endloop
  endfacet
  facet normal 0.000000 0.000000 1.000000
    outer loop
      vertex 32.000 -50.000 12.000
      vertex 35.000 -50.000 12.000
      vertex 35.000 50.000 12.000
    endloop
  endfacet
  facet normal 0.000000 0.000000 1.000000
    outer loop
      vertex 32.000 -50.000 12.000
      vertex 35.000 50.000 12.000
      vertex 32.000 50.000 12.000
    endloop
  endfacet
  facet normal 0.000000 0.000000 -1.000000
    outer loop
      vertex 32.000 -50.000 0.000
      vertex 32.000 50.000 0.000
      vertex 35.000 50.000 0.000
    endloop
  endfacet
  facet normal 0.000000 0.000000 -1.000000
    outer loop
      vertex 32.000 -50.000 0.000
      vertex 35.000 50.000 0.000
      vertex 35.000 -50.000 0.000
    endloop
  endfacet
  facet normal 0.000000 -1.000000 0.000000
    outer loop
      vertex 32.000 -50.000 12.000
      vertex 32.000 -50.000 0.000
      vertex 35.000 -50.000 0.000
    endloop
  endfacet
  facet normal 0.000000 -1.000000 0.000000
    outer loop
      vertex 32.000 -50.000 12.000
      vertex 35.000 -50.000 0.000
      vertex 35.000 -50.000 12.000
    endloop
  endfacet
  facet normal 1.000000 0.000000 0.000000
    outer loop
      vertex 35.000 -50.000 12.000
      vertex 35.000 -50.000 0.000
      vertex 35.000 50.000 0.000
    endloop
  endfacet
  facet normal 1.000000 0.000000 0.000000
    outer loop
      vertex 35.000 -50.000 12.000
      vertex 35.000 50.000 0.000
      vertex 35.000 50.000 12.000
    endloop
  endfacet
  facet normal 0.000000 1.000000 0.000000
    outer loop
      vertex 35.000 50.000 12.000
      vertex 35.000 50.000 0.000
      vertex 32.000 50.000 0.000
    endloop
  endfacet
  facet normal 0.000000 1.000000 0.000000
    outer loop
      vertex 35.000 50.000 12.000
      vertex 32.000 50.000 0.000
      vertex 32.000 50.000 12.000
    endloop
  endfacet
  facet normal -1.000000 0.000000 0.000000
    outer loop
      vertex 32.000 50.000 12.000
      vertex 32.000 50.000 0.000
      vertex 32.000 -50.000 0.000
    endloop
  endfacet
  facet normal -1.000000 0.000000 0.000000
    outer loop
      vertex 32.000 50.000 12.000
      vertex 32.000 -50.000 0.000
      vertex 32.000 -50.000 12.000
    endloop
  endfacet
  facet normal 0.000000 0.000000 1.000000
    outer loop
      vertex 17.000 -50.000 15.000
      vertex 22.000 -50.000 15.000
      vertex 22.000 50.000 15.000
    endloop
  endfacet
  facet normal 0.000000 0.000000 1.000000
    outer loop
      vertex 17.000 -50.000 15.000
      vertex 22.000 50.000 15.000
      vertex 17.000 50.000 15.000
    endloop
  endfacet
  facet normal 0.000000 0.000000 -1.000000
    outer loop
      vertex 17.000 -50.000 11.300
      vertex 17.000 50.000 11.300
      vertex 22.000 50.000 11.300
    endloop
  endfacet
  facet normal 0.000000 0.000000 -1.000000
    outer loop
      vertex 17.000 -50.000 11.300
      vertex 22.000 50.000 11.300
      vertex 22.000 -50.000 11.300
    endloop
  endfacet
  facet normal 0.000000 -1.000000 0.000000
    outer loop
      vertex 17.000 -50.000 15.000
      vertex 17.000 -50.000 11.300
      vertex 22.000 -50.000 11.300
    endloop
  endfacet
  facet normal 0.000000 -1.000000 0.000000
    outer loop
      vertex 17.000 -50.000 15.000
      vertex 22.000 -50.000 11.300
      vertex 22.000 -50.000 15.000
    endloop
  endfacet
  facet normal 1.000000 0.000000 0.000000
    outer loop
      vertex 22.000 -50.000 15.000
      vertex 22.000 -50.000 11.300
      vertex 22.000 50.000 11.300
    endloop
  endfacet
  facet normal 1.000000 0.000000 0.000000
    outer loop
      vertex 22.000 -50.000 15.000
      vertex 22.000 50.000 11.300
      vertex 22.000 50.000 15.000
    endloop
  endfacet
  facet normal 0.000000 1.000000 0.000000
    outer loop
      vertex 22.000 50.000 15.000
      vertex 22.000 50.000 11.300
      vertex 17.000 50.000 11.300
    endloop
  endfacet
  facet normal 0.000000 1.000000 0.000000
    outer loop
      vertex 22.000 50.000 15.000
      vertex 17.000 50.000 11.300
      vertex 17.000 50.000 15.000
    endloop
  endfacet
  facet normal -1.000000 0.000000 0.000000
    outer loop
      vertex 17.000 50.000 15.000
      vertex 17.000 50.000 11.300
      vertex 17.000 -50.000 11.300
    endloop
  endfacet
  facet normal -1.000000 0.000000 0.000000
    outer loop
      vertex 17.000 50.000 15.000
      vertex 17.000 -50.000 11.300
      vertex 17.000 -50.000 15.000
    endloop
  endfacet
  facet normal 0.969416 0.000000 0.245422
    outer loop
      vertex 17.200 -50.000 11.300
      vertex 19.200 -50.000 3.400
      vertex 19.200 50.000 3.400
    endloop
  endfacet
  facet normal 0.969416 0.000000 0.245422
    outer loop
      vertex 17.200 -50.000 11.300
      vertex 19.200 50.000 3.400
      vertex 17.200 50.000 11.300
    endloop
  endfacet
  facet normal 0.000000 0.000000 1.000000
    outer loop
      vertex 19.200 -50.000 3.400
      vertex 21.500 -50.000 3.400
      vertex 21.500 50.000 3.400
    endloop
  endfacet
  facet normal 0.000000 0.000000 1.000000
    outer loop
      vertex 19.200 -50.000 3.400
      vertex 21.500 50.000 3.400
      vertex 19.200 50.000 3.400
    endloop
  endfacet
  facet normal -0.969416 0.000000 -0.245422
    outer loop
      vertex 21.500 -50.000 3.400
      vertex 19.500 -50.000 11.300
      vertex 19.500 50.000 11.300
    endloop
  endfacet
  facet normal -0.969416 0.000000 -0.245422
    outer loop
      vertex 21.500 -50.000 3.400
      vertex 19.500 50.000 11.300
      vertex 21.500 50.000 3.400
    endloop
  endfacet
  facet normal 0.000000 0.000000 -1.000000
    outer loop
      vertex 19.500 -50.000 11.300
      vertex 17.200 -50.000 11.300
      vertex 17.200 50.000 11.300
    endloop
  endfacet
  facet normal 0.000000 0.000000 -1.000000
    outer loop
      vertex 19.500 -50.000 11.300
      vertex 17.200 50.000 11.300
      vertex 19.500 50.000 11.300
    endloop
  endfacet
  facet normal 0.000000 1.000000 0.000000
    outer loop
      vertex 19.350 -50.000 7.350
      vertex 19.200 -50.000 3.400
      vertex 17.200 -50.000 11.300
    endloop
  endfacet
  facet normal 0.000000 1.000000 0.000000
    outer loop
      vertex 19.350 -50.000 7.350
      vertex 21.500 -50.000 3.400
      vertex 19.200 -50.000 3.400
    endloop
  endfacet
  facet normal 0.000000 1.000000 0.000000
    outer loop
      vertex 19.350 -50.000 7.350
      vertex 19.500 -50.000 11.300
      vertex 21.500 -50.000 3.400
    endloop
  endfacet
  facet normal 0.000000 1.000000 0.000000
    outer loop
      vertex 19.350 -50.000 7.350
      vertex 17.200 -50.000 11.300
      vertex 19.500 -50.000 11.300
    endloop
  endfacet
  facet normal 0.000000 -1.000000 0.000000
    outer loop
      vertex 19.350 50.000 7.350
      vertex 17.200 50.000 11.300
      vertex 19.200 50.000 3.400
    endloop
  endfacet
  facet normal 0.000000 -1.000000 0.000000
    outer loop
      vertex 19.350 50.000 7.350
      vertex 19.200 50.000 3.400
      vertex 21.500 50.000 3.400
    endloop
  endfacet
  facet normal 0.000000 -1.000000 0.000000
    outer loop
      vertex 19.350 50.000 7.350
      vertex 21.500 50.000 3.400
      vertex 19.500 50.000 11.300
    endloop
  endfacet
  facet normal 0.000000 -1.000000 0.000000
    outer loop
      vertex 19.350 50.000 7.350
      vertex 19.500 50.000 11.300
      vertex 17.200 50.000 11.300
    endloop
  endfacet
  facet normal 0.000000 -0.995185 -0.098017
    outer loop
      vertex 72.000 3.800 3.800
      vertex 80.000 3.800 3.800
      vertex 80.000 3.727 4.541
    endloop
  endfacet
  facet normal 0.000000 -0.995185 -0.098017
    outer loop
      vertex 72.000 3.800 3.800
      vertex 80.000 3.727 4.541
      vertex 72.000 3.727 4.541
    endloop
  endfacet
  facet normal 0.000000 0.995185 0.098017
    outer loop
      vertex 72.000 1.422 4.083
      vertex 80.000 1.422 4.083
      vertex 80.000 1.450 3.800
    endloop
  endfacet
  facet normal 0.000000 0.995185 0.098017
    outer loop
      vertex 72.000 1.422 4.083
      vertex 80.000 1.450 3.800
      vertex 72.000 1.450 3.800
    endloop
  endfacet
  facet normal -1.000000 0.000000 0.000000
    outer loop
      vertex 72.000 3.727 4.541
      vertex 72.000 3.800 3.800
      vertex 72.000 1.450 3.800
    endloop
  endfacet
  facet normal -1.000000 0.000000 0.000000
    outer loop
      vertex 72.000 3.727 4.541
      vertex 72.000 1.450 3.800
      vertex 72.000 1.422 4.083
    endloop
  endfacet
  facet normal 1.000000 0.000000 0.000000
    outer loop
      vertex 80.000 3.800 3.800
      vertex 80.000 3.727 4.541
      vertex 80.000 1.422 4.083
    endloop
  endfacet
  facet normal 1.000000 0.000000 0.000000
    outer loop
      vertex 80.000 3.800 3.800
      vertex 80.000 1.422 4.083
      vertex 80.000 1.450 3.800
    endloop
  endfacet
  facet normal 0.000000 -0.956940 -0.290285
    outer loop
      vertex 72.000 3.727 4.541
      vertex 80.000 3.727 4.541
      vertex 80.000 3.511 5.254
    endloop
  endfacet
  facet normal 0.000000 -0.956940 -0.290285
    outer loop
      vertex 72.000 3.727 4.541
      vertex 80.000 3.511 5.254
      vertex 72.000 3.511 5.254
    endloop
  endfacet
  facet normal 0.000000 0.956940 0.290285
    outer loop
      vertex 72.000 1.340 4.355
      vertex 80.000 1.340 4.355
      vertex 80.000 1.422 4.083
    endloop
  endfacet
  facet normal 0.000000 0.956940 0.290285
    outer loop
      vertex 72.000 1.340 4.355
      vertex 80.000 1.422 4.083
      vertex 72.000 1.422 4.083
    endloop
  endfacet
  facet normal -1.000000 0.000000 0.000000
    outer loop
      vertex 72.000 3.511 5.254
      vertex 72.000 3.727 4.541
      vertex 72.000 1.422 4.083
    endloop
  endfacet
  facet normal -1.000000 0.000000 0.000000
    outer loop
      vertex 72.000 3.511 5.254
      vertex 72.000 1.422 4.083
      vertex 72.000 1.340 4.355
    endloop
  endfacet
  facet normal 1.000000 0.000000 0.000000
    outer loop
      vertex 80.000 3.727 4.541
      vertex 80.000 3.511 5.254
      vertex 80.000 1.340 4.355
    endloop
  endfacet
  facet normal 1.000000 0.000000 0.000000
    outer loop
      vertex 80.000 3.727 4.541
      vertex 80.000 1.340 4.355
      vertex 80.000 1.422 4.083
    endloop
  endfacet
  facet normal 0.000000 -0.881921 -0.471397
    outer loop
      vertex 72.000 3.511 5.254
      vertex 80.000 3.511 5.254
      vertex 80.000 3.160 5.911
    endloop
  endfacet
  facet normal 0.000000 -0.881921 -0.471397
    outer loop
      vertex 72.000 3.511 5.254
      vertex 80.000 3.160 5.911
      vertex 72.000 3.160 5.911
    endloop
  endfacet
  facet normal 0.000000 0.881921 0.471397
    outer loop
      vertex 72.000 1.206 4.606
      vertex 80.000 1.206 4.606
      vertex 80.000 1.340 4.355
    endloop
  endfacet
  facet normal 0.000000 0.881921 0.471397
    outer loop
      vertex 72.000 1.206 4.606
      vertex 80.000 1.340 4.355
      vertex 72.000 1.340 4.355
    endloop
  endfacet
  facet normal -1.000000 0.000000 0.000000
    outer loop
      vertex 72.000 3.160 5.911
      vertex 72.000 3.511 5.254
      vertex 72.000 1.340 4.355
    endloop
  endfacet
  facet normal -1.000000 0.000000 0.000000
    outer loop
      vertex 72.000 3.160 5.911
      vertex 72.000 1.340 4.355
      vertex 72.000 1.206 4.606
    endloop
  endfacet
  facet normal 1.000000 0.000000 0.000000
    outer loop
      vertex 80.000 3.511 5.254
      vertex 80.000 3.160 5.911
      vertex 80.000 1.206 4.606
    endloop
  endfacet
  facet normal 1.000000 0.000000 0.000000
    outer loop
      vertex 80.000 3.511 5.254
      vertex 80.000 1.206 4.606
      vertex 80.000 1.340 4.355
    endloop
  endfacet
  facet normal 0.000000 -0.773010 -0.634393
    outer loop
      vertex 72.000 3.160 5.911
      vertex 80.000 3.160 5.911
      vertex 80.000 2.687 6.487
    endloop
  endfacet
  facet normal 0.000000 -0.773010 -0.634393
    outer loop
      vertex 72.000 3.160 5.911
      vertex 80.000 2.687 6.487
      vertex 72.000 2.687 6.487
    endloop
  endfacet
  facet normal 0.000000 0.773010 0.634393
    outer loop
      vertex 72.000 1.025 4.825
      vertex 80.000 1.025 4.825
      vertex 80.000 1.206 4.606
    endloop
  endfacet
  facet normal 0.000000 0.773010 0.634393
    outer loop
      vertex 72.000 1.025 4.825
      vertex 80.000 1.206 4.606
      vertex 72.000 1.206 4.606
    endloop
  endfacet
  facet normal -1.000000 0.000000 0.000000
    outer loop
      vertex 72.000 2.687 6.487
      vertex 72.000 3.160 5.911
      vertex 72.000 1.206 4.606
    endloop
  endfacet
  facet normal -1.000000 0.000000 0.000000
    outer loop
      vertex 72.000 2.687 6.487
      vertex 72.000 1.206 4.606
      vertex 72.000 1.025 4.825
    endloop
  endfacet
  facet normal 1.000000 0.000000 0.000000
    outer loop
      vertex 80.000 3.160 5.911
      vertex 80.000 2.687 6.487
      vertex 80.000 1.025 4.825
    endloop
  endfacet
  facet normal 1.000000 0.000000 0.000000
    outer loop
      vertex 80.000 3.160 5.911
      vertex 80.000 1.025 4.825
      vertex 80.000 1.206 4.606
    endloop
  endfacet
  facet normal 0.000000 -0.634393 -0.773010
    outer loop
      vertex 72.000 2.687 6.487
      vertex 80.000 2.687 6.487
      vertex 80.000 2.111 6.960
    endloop
  endfacet
  facet normal 0.000000 -0.634393 -0.773010
    outer loop
      vertex 72.000 2.687 6.487
      vertex 80.000 2.111 6.960
      vertex 72.000 2.111 6.960
    endloop
  endfacet
  facet normal 0.000000 0.634393 0.773010
    outer loop
      vertex 72.000 0.806 5.006
      vertex 80.000 0.806 5.006
      vertex 80.000 1.025 4.825
    endloop
  endfacet
  facet normal 0.000000 0.634393 0.773010
    outer loop
      vertex 72.000 0.806 5.006
      vertex 80.000 1.025 4.825
      vertex 72.000 1.025 4.825
    endloop
  endfacet
  facet normal -1.000000 0.000000 0.000000
    outer loop
      vertex 72.000 2.111 6.960
      vertex 72.000 2.687 6.487
      vertex 72.000 1.025 4.825
    endloop
  endfacet
  facet normal -1.000000 0.000000 0.000000
    outer loop
      vertex 72.000 2.111 6.960
      vertex 72.000 1.025 4.825
      vertex 72.000 0.806 5.006
    endloop
  endfacet
  facet normal 1.000000 0.000000 0.000000
    outer loop
      vertex 80.000 2.687 6.487
      vertex 80.000 2.111 6.960
      vertex 80.000 0.806 5.006
    endloop
  endfacet
  facet normal 1.000000 0.000000 0.000000
    outer loop
      vertex 80.000 2.687 6.487
      vertex 80.000 0.806 5.006
      vertex 80.000 1.025 4.825
    endloop
  endfacet
  facet normal 0.000000 -0.471397 -0.881921
    outer loop
      vertex 72.000 2.111 6.960
      vertex 80.000 2.111 6.960
      vertex 80.000 1.454 7.311
    endloop
  endfacet
  facet normal 0.000000 -0.471397 -0.881921
    outer loop
      vertex 72.000 2.111 6.960
      vertex 80.000 1.454 7.311
      vertex 72.000 1.454 7.311
    endloop
  endfacet
  facet normal 0.000000 0.471397 0.881921
    outer loop
      vertex 72.000 0.555 5.140
      vertex 80.000 0.555 5.140
      vertex 80.000 0.806 5.006
    endloop
  endfacet
  facet normal 0.000000 0.471397 0.881921
    outer loop
      vertex 72.000 0.555 5.140
      vertex 80.000 0.806 5.006
      vertex 72.000 0.806 5.006
    endloop
  endfacet
  facet normal -1.000000 0.000000 0.000000
    outer loop
      vertex 72.000 1.454 7.311
      vertex 72.000 2.111 6.960
      vertex 72.000 0.806 5.006
    endloop
  endfacet
  facet normal -1.000000 0.000000 0.000000
    outer loop
      vertex 72.000 1.454 7.311
      vertex 72.000 0.806 5.006
      vertex 72.000 0.555 5.140
    endloop
  endfacet
  facet normal 1.000000 0.000000 0.000000
    outer loop
      vertex 80.000 2.111 6.960
      vertex 80.000 1.454 7.311
      vertex 80.000 0.555 5.140
    endloop
  endfacet
  facet normal 1.000000 0.000000 0.000000
    outer loop
      vertex 80.000 2.111 6.960
      vertex 80.000 0.555 5.140
      vertex 80.000 0.806 5.006
    endloop
  endfacet
  facet normal 0.000000 -0.290285 -0.956940
    outer loop
      vertex 72.000 1.454 7.311
      vertex 80.000 1.454 7.311
      vertex 80.000 0.741 7.527
    endloop
  endfacet
  facet normal 0.000000 -0.290285 -0.956940
    outer loop
      vertex 72.000 1.454 7.311
      vertex 80.000 0.741 7.527
      vertex 72.000 0.741 7.527
    endloop
  endfacet
  facet normal 0.000000 0.290285 0.956940
    outer loop
      vertex 72.000 0.283 5.222
      vertex 80.000 0.283 5.222
      vertex 80.000 0.555 5.140
    endloop
  endfacet
  facet normal 0.000000 0.290285 0.956940
    outer loop
      vertex 72.000 0.283 5.222
      vertex 80.000 0.555 5.140
      vertex 72.000 0.555 5.140
    endloop
  endfacet
  facet normal -1.000000 0.000000 0.000000
    outer loop
      vertex 72.000 0.741 7.527
      vertex 72.000 1.454 7.311
      vertex 72.000 0.555 5.140
    endloop
  endfacet
  facet normal -1.000000 0.000000 0.000000
    outer loop
      vertex 72.000 0.741 7.527
      vertex 72.000 0.555 5.140
      vertex 72.000 0.283 5.222
    endloop
  endfacet
  facet normal 1.000000 0.000000 0.000000
    outer loop
      vertex 80.000 1.454 7.311
      vertex 80.000 0.741 7.527
      vertex 80.000 0.283 5.222
    endloop
  endfacet
  facet normal 1.000000 0.000000 0.000000
    outer loop
      vertex 80.000 1.454 7.311
      vertex 80.000 0.283 5.222
      vertex 80.000 0.555 5.140
    endloop
  endfacet
  facet normal 0.000000 -0.098017 -0.995185
    outer loop
      vertex 72.000 0.741 7.527
      vertex 80.000 0.741 7.527
      vertex 80.000 0.000 7.600
    endloop
  endfacet
  facet normal 0.000000 -0.098017 -0.995185
    outer loop
      vertex 72.000 0.741 7.527
      vertex 80.000 0.000 7.600
      vertex 72.000 0.000 7.600
    endloop
  endfacet
  facet normal 0.000000 0.098017 0.995185
    outer loop
      vertex 72.000 0.000 5.250
      vertex 80.000 0.000 5.250
      vertex 80.000 0.283 5.222
    endloop
  endfacet
  facet normal 0.000000 0.098017 0.995185
    outer loop
      vertex 72.000 0.000 5.250
      vertex 80.000 0.283 5.222
      vertex 72.000 0.283 5.222
    endloop
  endfacet
  facet normal -1.000000 0.000000 0.000000
    outer loop
      vertex 72.000 0.000 7.600
      vertex 72.000 0.741 7.527
      vertex 72.000 0.283 5.222
    endloop
  endfacet
  facet normal -1.000000 0.000000 0.000000
    outer loop
      vertex 72.000 0.000 7.600
      vertex 72.000 0.283 5.222
      vertex 72.000 0.000 5.250
    endloop
  endfacet
  facet normal 1.000000 0.000000 0.000000
    outer loop
      vertex 80.000 0.741 7.527
      vertex 80.000 0.000 7.600
      vertex 80.000 0.000 5.250
    endloop
  endfacet
  facet normal 1.000000 0.000000 0.000000
    outer loop
      vertex 80.000 0.741 7.527
      vertex 80.000 0.000 5.250
      vertex 80.000 0.283 5.222
    endloop
  endfacet
  facet normal 0.000000 0.098017 -0.995185
    outer loop
      vertex 72.000 0.000 7.600
      vertex 80.000 0.000 7.600
      vertex 80.000 -0.741 7.527
    endloop
  endfacet
  facet normal 0.000000 0.098017 -0.995185
    outer loop
      vertex 72.000 0.000 7.600
      vertex 80.000 -0.741 7.527
      vertex 72.000 -0.741 7.527
    endloop
  endfacet
  facet normal 0.000000 -0.098017 0.995185
    outer loop
      vertex 72.000 -0.283 5.222
      vertex 80.000 -0.283 5.222
      vertex 80.000 0.000 5.250
    endloop
  endfacet
  facet normal 0.000000 -0.098017 0.995185
    outer loop
      vertex 72.000 -0.283 5.222
      vertex 80.000 0.000 5.250
      vertex 72.000 0.000 5.250
    endloop
  endfacet
  facet normal -1.000000 0.000000 0.000000
    outer loop
      vertex 72.000 -0.741 7.527
      vertex 72.000 0.000 7.600
      vertex 72.000 0.000 5.250
    endloop
  endfacet
  facet normal -1.000000 0.000000 0.000000
    outer loop
      vertex 72.000 -0.741 7.527
      vertex 72.000 0.000 5.250
      vertex 72.000 -0.283 5.222
    endloop
  endfacet
  facet normal 1.000000 0.000000 0.000000
    outer loop
      vertex 80.000 0.000 7.600
      vertex 80.000 -0.741 7.527
      vertex 80.000 -0.283 5.222
    endloop
  endfacet
  facet normal 1.000000 0.000000 0.000000
    outer loop
      vertex 80.000 0.000 7.600
      vertex 80.000 -0.283 5.222
      vertex 80.000 0.000 5.250
    endloop
  endfacet
  facet normal 0.000000 0.290285 -0.956940
    outer loop
      vertex 72.000 -0.741 7.527
      vertex 80.000 -0.741 7.527
      vertex 80.000 -1.454 7.311
    endloop
  endfacet
  facet normal 0.000000 0.290285 -0.956940
    outer loop
      vertex 72.000 -0.741 7.527
      vertex 80.000 -1.454 7.311
      vertex 72.000 -1.454 7.311
    endloop
  endfacet
  facet normal 0.000000 -0.290285 0.956940
    outer loop
      vertex 72.000 -0.555 5.140
      vertex 80.000 -0.555 5.140
      vertex 80.000 -0.283 5.222
    endloop
  endfacet
  facet normal 0.000000 -0.290285 0.956940
    outer loop
      vertex 72.000 -0.555 5.140
      vertex 80.000 -0.283 5.222
      vertex 72.000 -0.283 5.222
    endloop
  endfacet
  facet normal -1.000000 0.000000 0.000000
    outer loop
      vertex 72.000 -1.454 7.311
      vertex 72.000 -0.741 7.527
      vertex 72.000 -0.283 5.222
    endloop
  endfacet
  facet normal -1.000000 0.000000 0.000000
    outer loop
      vertex 72.000 -1.454 7.311
      vertex 72.000 -0.283 5.222
      vertex 72.000 -0.555 5.140
    endloop
  endfacet
  facet normal 1.000000 0.000000 0.000000
    outer loop
      vertex 80.000 -0.741 7.527
      vertex 80.000 -1.454 7.311
      vertex 80.000 -0.555 5.140
    endloop
  endfacet
  facet normal 1.000000 0.000000 0.000000
    outer loop
      vertex 80.000 -0.741 7.527
      vertex 80.000 -0.555 5.140
      vertex 80.000 -0.283 5.222
    endloop
  endfacet
  facet normal 0.000000 0.471397 -0.881921
    outer loop
      vertex 72.000 -1.454 7.311
      vertex 80.000 -1.454 7.311
      vertex 80.000 -2.111 6.960
    endloop
  endfacet
  facet normal 0.000000 0.471397 -0.881921
    outer loop
      vertex 72.000 -1.454 7.311
      vertex 80.000 -2.111 6.960
      vertex 72.000 -2.111 6.960
    endloop
  endfacet
  facet normal 0.000000 -0.471397 0.881921
    outer loop
      vertex 72.000 -0.806 5.006
      vertex 80.000 -0.806 5.006
      vertex 80.000 -0.555 5.140
    endloop
  endfacet
  facet normal 0.000000 -0.471397 0.881921
    outer loop
      vertex 72.000 -0.806 5.006
      vertex 80.000 -0.555 5.140
      vertex 72.000 -0.555 5.140
    endloop
  endfacet
  facet normal -1.000000 0.000000 0.000000
    outer loop
      vertex 72.000 -2.111 6.960
      vertex 72.000 -1.454 7.311
      vertex 72.000 -0.555 5.140
    endloop
  endfacet
  facet normal -1.000000 0.000000 0.000000
    outer loop
      vertex 72.000 -2.111 6.960
      vertex 72.000 -0.555 5.140
      vertex 72.000 -0.806 5.006
    endloop
  endfacet
  facet normal 1.000000 0.000000 0.000000
    outer loop
      vertex 80.000 -1.454 7.311
      vertex 80.000 -2.111 6.960
      vertex 80.000 -0.806 5.006
    endloop
  endfacet
  facet normal 1.000000 0.000000 0.000000
    outer loop
      vertex 80.000 -1.454 7.311
      vertex 80.000 -0.806 5.006
      vertex 80.000 -0.555 5.140
    endloop
  endfacet
  facet normal 0.000000 0.634393 -0.773010
    outer loop
      vertex 72.000 -2.111 6.960
      vertex 80.000 -2.111 6.960
      vertex 80.000 -2.687 6.487
    endloop
  endfacet
  facet normal 0.000000 0.634393 -0.773010
    outer loop
      vertex 72.000 -2.111 6.960
      vertex 80.000 -2.687 6.487
      vertex 72.000 -2.687 6.487
    endloop
  endfacet
  facet normal 0.000000 -0.634393 0.773010
    outer loop
      vertex 72.000 -1.025 4.825
      vertex 80.000 -1.025 4.825
      vertex 80.000 -0.806 5.006
    endloop
  endfacet
  facet normal 0.000000 -0.634393 0.773010
    outer loop
      vertex 72.000 -1.025 4.825
      vertex 80.000 -0.806 5.006
      vertex 72.000 -0.806 5.006
    endloop
  endfacet
  facet normal -1.000000 0.000000 0.000000
    outer loop
      vertex 72.000 -2.687 6.487
      vertex 72.000 -2.111 6.960
      vertex 72.000 -0.806 5.006
    endloop
  endfacet
  facet normal -1.000000 0.000000 0.000000
    outer loop
      vertex 72.000 -2.687 6.487
      vertex 72.000 -0.806 5.006
      vertex 72.000 -1.025 4.825
    endloop
  endfacet
  facet normal 1.000000 0.000000 0.000000
    outer loop
      vertex 80.000 -2.111 6.960
      vertex 80.000 -2.687 6.487
      vertex 80.000 -1.025 4.825
    endloop
  endfacet
  facet normal 1.000000 0.000000 0.000000
    outer loop
      vertex 80.000 -2.111 6.960
      vertex 80.000 -1.025 4.825
      vertex 80.000 -0.806 5.006
    endloop
  endfacet
  facet normal 0.000000 0.773010 -0.634393
    outer loop
      vertex 72.000 -2.687 6.487
      vertex 80.000 -2.687 6.487
      vertex 80.000 -3.160 5.911
    endloop
  endfacet
  facet normal 0.000000 0.773010 -0.634393
    outer loop
      vertex 72.000 -2.687 6.487
      vertex 80.000 -3.160 5.911
      vertex 72.000 -3.160 5.911
    endloop
  endfacet
  facet normal 0.000000 -0.773010 0.634393
    outer loop
      vertex 72.000 -1.206 4.606
      vertex 80.000 -1.206 4.606
      vertex 80.000 -1.025 4.825
    endloop
  endfacet
  facet normal 0.000000 -0.773010 0.634393
    outer loop
      vertex 72.000 -1.206 4.606
      vertex 80.000 -1.025 4.825
      vertex 72.000 -1.025 4.825
    endloop
  endfacet
  facet normal -1.000000 0.000000 0.000000
    outer loop
      vertex 72.000 -3.160 5.911
      vertex 72.000 -2.687 6.487
      vertex 72.000 -1.025 4.825
    endloop
  endfacet
  facet normal -1.000000 0.000000 0.000000
    outer loop
      vertex 72.000 -3.160 5.911
      vertex 72.000 -1.025 4.825
      vertex 72.000 -1.206 4.606
    endloop
  endfacet
  facet normal 1.000000 0.000000 0.000000
    outer loop
      vertex 80.000 -2.687 6.487
      vertex 80.000 -3.160 5.911
      vertex 80.000 -1.206 4.606
    endloop
  endfacet
  facet normal 1.000000 0.000000 0.000000
    outer loop
      vertex 80.000 -2.687 6.487
      vertex 80.000 -1.206 4.606
      vertex 80.000 -1.025 4.825
    endloop
  endfacet
  facet normal 0.000000 0.881921 -0.471397
    outer loop
      vertex 72.000 -3.160 5.911
      vertex 80.000 -3.160 5.911
      vertex 80.000 -3.511 5.254
    endloop
  endfacet
  facet normal 0.000000 0.881921 -0.471397
    outer loop
      vertex 72.000 -3.160 5.911
      vertex 80.000 -3.511 5.254
      vertex 72.000 -3.511 5.254
    endloop
  endfacet
  facet normal 0.000000 -0.881921 0.471397
    outer loop
      vertex 72.000 -1.340 4.355
      vertex 80.000 -1.340 4.355
      vertex 80.000 -1.206 4.606
    endloop
  endfacet
  facet normal 0.000000 -0.881921 0.471397
    outer loop
      vertex 72.000 -1.340 4.355
      vertex 80.000 -1.206 4.606
      vertex 72.000 -1.206 4.606
    endloop
  endfacet
  facet normal -1.000000 0.000000 0.000000
    outer loop
      vertex 72.000 -3.511 5.254
      vertex 72.000 -3.160 5.911
      vertex 72.000 -1.206 4.606
    endloop
  endfacet
  facet normal -1.000000 0.000000 0.000000
    outer loop
      vertex 72.000 -3.511 5.254
      vertex 72.000 -1.206 4.606
      vertex 72.000 -1.340 4.355
    endloop
  endfacet
  facet normal 1.000000 0.000000 0.000000
    outer loop
      vertex 80.000 -3.160 5.911
      vertex 80.000 -3.511 5.254
      vertex 80.000 -1.340 4.355
    endloop
  endfacet
  facet normal 1.000000 0.000000 0.000000
    outer loop
      vertex 80.000 -3.160 5.911
      vertex 80.000 -1.340 4.355
      vertex 80.000 -1.206 4.606
    endloop
  endfacet
  facet normal 0.000000 0.956940 -0.290285
    outer loop
      vertex 72.000 -3.511 5.254
      vertex 80.000 -3.511 5.254
      vertex 80.000 -3.727 4.541
    endloop
  endfacet
  facet normal 0.000000 0.956940 -0.290285
    outer loop
      vertex 72.000 -3.511 5.254
      vertex 80.000 -3.727 4.541
      vertex 72.000 -3.727 4.541
    endloop
  endfacet
  facet normal 0.000000 -0.956940 0.290285
    outer loop
      vertex 72.000 -1.422 4.083
      vertex 80.000 -1.422 4.083
      vertex 80.000 -1.340 4.355
    endloop
  endfacet
  facet normal 0.000000 -0.956940 0.290285
    outer loop
      vertex 72.000 -1.422 4.083
      vertex 80.000 -1.340 4.355
      vertex 72.000 -1.340 4.355
    endloop
  endfacet
  facet normal -1.000000 0.000000 0.000000
    outer loop
      vertex 72.000 -3.727 4.541
      vertex 72.000 -3.511 5.254
      vertex 72.000 -1.340 4.355
    endloop
  endfacet
  facet normal -1.000000 0.000000 0.000000
    outer loop
      vertex 72.000 -3.727 4.541
      vertex 72.000 -1.340 4.355
      vertex 72.000 -1.422 4.083
    endloop
  endfacet
  facet normal 1.000000 0.000000 0.000000
    outer loop
      vertex 80.000 -3.511 5.254
      vertex 80.000 -3.727 4.541
      vertex 80.000 -1.422 4.083
    endloop
  endfacet
  facet normal 1.000000 0.000000 0.000000
    outer loop
      vertex 80.000 -3.511 5.254
      vertex 80.000 -1.422 4.083
      vertex 80.000 -1.340 4.355
    endloop
  endfacet
  facet normal 0.000000 0.995185 -0.098017
    outer loop
      vertex 72.000 -3.727 4.541
      vertex 80.000 -3.727 4.541
      vertex 80.000 -3.800 3.800
    endloop
  endfacet
  facet normal 0.000000 0.995185 -0.098017
    outer loop
      vertex 72.000 -3.727 4.541
      vertex 80.000 -3.800 3.800
      vertex 72.000 -3.800 3.800
    endloop
  endfacet
  facet normal 0.000000 -0.995185 0.098017
    outer loop
      vertex 72.000 -1.450 3.800
      vertex 80.000 -1.450 3.800
      vertex 80.000 -1.422 4.083
    endloop
  endfacet
  facet normal 0.000000 -0.995185 0.098017
    outer loop
      vertex 72.000 -1.450 3.800
      vertex 80.000 -1.422 4.083
      vertex 72.000 -1.422 4.083
    endloop
  endfacet
  facet normal -1.000000 0.000000 0.000000
    outer loop
      vertex 72.000 -3.800 3.800
      vertex 72.000 -3.727 4.541
      vertex 72.000 -1.422 4.083
    endloop
  endfacet
  facet normal -1.000000 0.000000 0.000000
    outer loop
      vertex 72.000 -3.800 3.800
      vertex 72.000 -1.422 4.083
      vertex 72.000 -1.450 3.800
    endloop
  endfacet
  facet normal 1.000000 0.000000 0.000000
    outer loop
      vertex 80.000 -3.727 4.541
      vertex 80.000 -3.800 3.800
      vertex 80.000 -1.450 3.800
    endloop
  endfacet
  facet normal 1.000000 0.000000 0.000000
    outer loop
      vertex 80.000 -3.727 4.541
      vertex 80.000 -1.450 3.800
      vertex 80.000 -1.422 4.083
    endloop
  endfacet
  facet normal 0.000000 0.995185 0.098017
    outer loop
      vertex 72.000 -3.800 3.800
      vertex 80.000 -3.800 3.800
      vertex 80.000 -3.727 3.059
    endloop
  endfacet
  facet normal 0.000000 0.995185 0.098017
    outer loop
      vertex 72.000 -3.800 3.800
      vertex 80.000 -3.727 3.059
      vertex 72.000 -3.727 3.059
    endloop
  endfacet
  facet normal 0.000000 -0.995185 -0.098017
    outer loop
      vertex 72.000 -1.422 3.517
      vertex 80.000 -1.422 3.517
      vertex 80.000 -1.450 3.800
    endloop
  endfacet
  facet normal 0.000000 -0.995185 -0.098017
    outer loop
      vertex 72.000 -1.422 3.517
      vertex 80.000 -1.450 3.800
      vertex 72.000 -1.450 3.800
    endloop
  endfacet
  facet normal -1.000000 0.000000 0.000000
    outer loop
      vertex 72.000 -3.727 3.059
      vertex 72.000 -3.800 3.800
      vertex 72.000 -1.450 3.800
    endloop
  endfacet
  facet normal -1.000000 0.000000 0.000000
    outer loop
      vertex 72.000 -3.727 3.059
      vertex 72.000 -1.450 3.800
      vertex 72.000 -1.422 3.517
    endloop
  endfacet
  facet normal 1.000000 0.000000 0.000000
    outer loop
      vertex 80.000 -3.800 3.800
      vertex 80.000 -3.727 3.059
      vertex 80.000 -1.422 3.517
    endloop
  endfacet
  facet normal 1.000000 0.000000 0.000000
    outer loop
      vertex 80.000 -3.800 3.800
      vertex 80.000 -1.422 3.517
      vertex 80.000 -1.450 3.800
    endloop
  endfacet
  facet normal 0.000000 0.956940 0.290285
    outer loop
      vertex 72.000 -3.727 3.059
      vertex 80.000 -3.727 3.059
      vertex 80.000 -3.511 2.346
    endloop
  endfacet
  facet normal 0.000000 0.956940 0.290285
    outer loop
      vertex 72.000 -3.727 3.059
      vertex 80.000 -3.511 2.346
      vertex 72.000 -3.511 2.346
    endloop
  endfacet
  facet normal 0.000000 -0.956940 -0.290285
    outer loop
      vertex 72.000 -1.340 3.245
      vertex 80.000 -1.340 3.245
      vertex 80.000 -1.422 3.517
    endloop
  endfacet
  facet normal 0.000000 -0.956940 -0.290285
    outer loop
      vertex 72.000 -1.340 3.245
      vertex 80.000 -1.422 3.517
      vertex 72.000 -1.422 3.517
    endloop
  endfacet
  facet normal -1.000000 0.000000 0.000000
    outer loop
      vertex 72.000 -3.511 2.346
      vertex 72.000 -3.727 3.059
      vertex 72.000 -1.422 3.517
    endloop
  endfacet
  facet normal -1.000000 0.000000 0.000000
    outer loop
      vertex 72.000 -3.511 2.346
      vertex 72.000 -1.422 3.517
      vertex 72.000 -1.340 3.245
    endloop
  endfacet
  facet normal 1.000000 0.000000 0.000000
    outer loop
      vertex 80.000 -3.727 3.059
      vertex 80.000 -3.511 2.346
      vertex 80.000 -1.340 3.245
    endloop
  endfacet
  facet normal 1.000000 0.000000 0.000000
    outer loop
      vertex 80.000 -3.727 3.059
      vertex 80.000 -1.340 3.245
      vertex 80.000 -1.422 3.517
    endloop
  endfacet
  facet normal 0.000000 0.881921 0.471397
    outer loop
      vertex 72.000 -3.511 2.346
      vertex 80.000 -3.511 2.346
      vertex 80.000 -3.160 1.689
    endloop
  endfacet
  facet normal 0.000000 0.881921 0.471397
    outer loop
      vertex 72.000 -3.511 2.346
      vertex 80.000 -3.160 1.689
      vertex 72.000 -3.160 1.689
    endloop
  endfacet
  facet normal 0.000000 -0.881921 -0.471397
    outer loop
      vertex 72.000 -1.206 2.994
      vertex 80.000 -1.206 2.994
      vertex 80.000 -1.340 3.245
    endloop
  endfacet
  facet normal 0.000000 -0.881921 -0.471397
    outer loop
      vertex 72.000 -1.206 2.994
      vertex 80.000 -1.340 3.245
      vertex 72.000 -1.340 3.245
    endloop
  endfacet
  facet normal -1.000000 0.000000 0.000000
    outer loop
      vertex 72.000 -3.160 1.689
      vertex 72.000 -3.511 2.346
      vertex 72.000 -1.340 3.245
    endloop
  endfacet
  facet normal -1.000000 0.000000 0.000000
    outer loop
      vertex 72.000 -3.160 1.689
      vertex 72.000 -1.340 3.245
      vertex 72.000 -1.206 2.994
    endloop
  endfacet
  facet normal 1.000000 0.000000 0.000000
    outer loop
      vertex 80.000 -3.511 2.346
      vertex 80.000 -3.160 1.689
      vertex 80.000 -1.206 2.994
    endloop
  endfacet
  facet normal 1.000000 0.000000 0.000000
    outer loop
      vertex 80.000 -3.511 2.346
      vertex 80.000 -1.206 2.994
      vertex 80.000 -1.340 3.245
    endloop
  endfacet
  facet normal 0.000000 0.773010 0.634393
    outer loop
      vertex 72.000 -3.160 1.689
      vertex 80.000 -3.160 1.689
      vertex 80.000 -2.687 1.113
    endloop
  endfacet
  facet normal 0.000000 0.773010 0.634393
    outer loop
      vertex 72.000 -3.160 1.689
      vertex 80.000 -2.687 1.113
      vertex 72.000 -2.687 1.113
    endloop
  endfacet
  facet normal 0.000000 -0.773010 -0.634393
    outer loop
      vertex 72.000 -1.025 2.775
      vertex 80.000 -1.025 2.775
      vertex 80.000 -1.206 2.994
    endloop
  endfacet
  facet normal 0.000000 -0.773010 -0.634393
    outer loop
      vertex 72.000 -1.025 2.775
      vertex 80.000 -1.206 2.994
      vertex 72.000 -1.206 2.994
    endloop
  endfacet
  facet normal -1.000000 0.000000 0.000000
    outer loop
      vertex 72.000 -2.687 1.113
      vertex 72.000 -3.160 1.689
      vertex 72.000 -1.206 2.994
    endloop
  endfacet
  facet normal -1.000000 0.000000 0.000000
    outer loop
      vertex 72.000 -2.687 1.113
      vertex 72.000 -1.206 2.994
      vertex 72.000 -1.025 2.775
    endloop
  endfacet
  facet normal 1.000000 0.000000 0.000000
    outer loop
      vertex 80.000 -3.160 1.689
      vertex 80.000 -2.687 1.113
      vertex 80.000 -1.025 2.775
    endloop
  endfacet
  facet normal 1.000000 0.000000 0.000000
    outer loop
      vertex 80.000 -3.160 1.689
      vertex 80.000 -1.025 2.775
      vertex 80.000 -1.206 2.994
    endloop
  endfacet
  facet normal 0.000000 0.634393 0.773010
    outer loop
      vertex 72.000 -2.687 1.113
      vertex 80.000 -2.687 1.113
      vertex 80.000 -2.111 0.640
    endloop
  endfacet
  facet normal 0.000000 0.634393 0.773010
    outer loop
      vertex 72.000 -2.687 1.113
      vertex 80.000 -2.111 0.640
      vertex 72.000 -2.111 0.640
    endloop
  endfacet
  facet normal 0.000000 -0.634393 -0.773010
    outer loop
      vertex 72.000 -0.806 2.594
      vertex 80.000 -0.806 2.594
      vertex 80.000 -1.025 2.775
    endloop
  endfacet
  facet normal 0.000000 -0.634393 -0.773010
    outer loop
      vertex 72.000 -0.806 2.594
      vertex 80.000 -1.025 2.775
      vertex 72.000 -1.025 2.775
    endloop
  endfacet
  facet normal -1.000000 0.000000 0.000000
    outer loop
      vertex 72.000 -2.111 0.640
      vertex 72.000 -2.687 1.113
      vertex 72.000 -1.025 2.775
    endloop
  endfacet
  facet normal -1.000000 0.000000 0.000000
    outer loop
      vertex 72.000 -2.111 0.640
      vertex 72.000 -1.025 2.775
      vertex 72.000 -0.806 2.594
    endloop
  endfacet
  facet normal 1.000000 0.000000 0.000000
    outer loop
      vertex 80.000 -2.687 1.113
      vertex 80.000 -2.111 0.640
      vertex 80.000 -0.806 2.594
    endloop
  endfacet
  facet normal 1.000000 0.000000 0.000000
    outer loop
      vertex 80.000 -2.687 1.113
      vertex 80.000 -0.806 2.594
      vertex 80.000 -1.025 2.775
    endloop
  endfacet
  facet normal 0.000000 0.471397 0.881921
    outer loop
      vertex 72.000 -2.111 0.640
      vertex 80.000 -2.111 0.640
      vertex 80.000 -1.454 0.289
    endloop
  endfacet
  facet normal 0.000000 0.471397 0.881921
    outer loop
      vertex 72.000 -2.111 0.640
      vertex 80.000 -1.454 0.289
      vertex 72.000 -1.454 0.289
    endloop
  endfacet
  facet normal 0.000000 -0.471397 -0.881921
    outer loop
      vertex 72.000 -0.555 2.460
      vertex 80.000 -0.555 2.460
      vertex 80.000 -0.806 2.594
    endloop
  endfacet
  facet normal 0.000000 -0.471397 -0.881921
    outer loop
      vertex 72.000 -0.555 2.460
      vertex 80.000 -0.806 2.594
      vertex 72.000 -0.806 2.594
    endloop
  endfacet
  facet normal -1.000000 0.000000 0.000000
    outer loop
      vertex 72.000 -1.454 0.289
      vertex 72.000 -2.111 0.640
      vertex 72.000 -0.806 2.594
    endloop
  endfacet
  facet normal -1.000000 0.000000 0.000000
    outer loop
      vertex 72.000 -1.454 0.289
      vertex 72.000 -0.806 2.594
      vertex 72.000 -0.555 2.460
    endloop
  endfacet
  facet normal 1.000000 0.000000 0.000000
    outer loop
      vertex 80.000 -2.111 0.640
      vertex 80.000 -1.454 0.289
      vertex 80.000 -0.555 2.460
    endloop
  endfacet
  facet normal 1.000000 0.000000 0.000000
    outer loop
      vertex 80.000 -2.111 0.640
      vertex 80.000 -0.555 2.460
      vertex 80.000 -0.806 2.594
    endloop
  endfacet
  facet normal 0.000000 0.290285 0.956940
    outer loop
      vertex 72.000 -1.454 0.289
      vertex 80.000 -1.454 0.289
      vertex 80.000 -0.741 0.073
    endloop
  endfacet
  facet normal 0.000000 0.290285 0.956940
    outer loop
      vertex 72.000 -1.454 0.289
      vertex 80.000 -0.741 0.073
      vertex 72.000 -0.741 0.073
    endloop
  endfacet
  facet normal 0.000000 -0.290285 -0.956940
    outer loop
      vertex 72.000 -0.283 2.378
      vertex 80.000 -0.283 2.378
      vertex 80.000 -0.555 2.460
    endloop
  endfacet
  facet normal 0.000000 -0.290285 -0.956940
    outer loop
      vertex 72.000 -0.283 2.378
      vertex 80.000 -0.555 2.460
      vertex 72.000 -0.555 2.460
    endloop
  endfacet
  facet normal -1.000000 0.000000 0.000000
    outer loop
      vertex 72.000 -0.741 0.073
      vertex 72.000 -1.454 0.289
      vertex 72.000 -0.555 2.460
    endloop
  endfacet
  facet normal -1.000000 0.000000 0.000000
    outer loop
      vertex 72.000 -0.741 0.073
      vertex 72.000 -0.555 2.460
      vertex 72.000 -0.283 2.378
    endloop
  endfacet
  facet normal 1.000000 0.000000 0.000000
    outer loop
      vertex 80.000 -1.454 0.289
      vertex 80.000 -0.741 0.073
      vertex 80.000 -0.283 2.378
    endloop
  endfacet
  facet normal 1.000000 0.000000 0.000000
    outer loop
      vertex 80.000 -1.454 0.289
      vertex 80.000 -0.283 2.378
      vertex 80.000 -0.555 2.460
    endloop
  endfacet
  facet normal 0.000000 0.098017 0.995185
    outer loop
      vertex 72.000 -0.741 0.073
      vertex 80.000 -0.741 0.073
      vertex 80.000 -0.000 0.000
    endloop
  endfacet
  facet normal 0.000000 0.098017 0.995185
    outer loop
      vertex 72.000 -0.741 0.073
      vertex 80.000 -0.000 0.000
      vertex 72.000 -0.000 0.000
    endloop
  endfacet
  facet normal 0.000000 -0.098017 -0.995185
    outer loop
      vertex 72.000 -0.000 2.350
      vertex 80.000 -0.000 2.350
      vertex 80.000 -0.283 2.378
    endloop
  endfacet
  facet normal 0.000000 -0.098017 -0.995185
    outer loop
      vertex 72.000 -0.000 2.350
      vertex 80.000 -0.283 2.378
      vertex 72.000 -0.283 2.378
    endloop
  endfacet
  facet normal -1.000000 0.000000 0.000000
    outer loop
      vertex 72.000 -0.000 0.000
      vertex 72.000 -0.741 0.073
      vertex 72.000 -0.283 2.378
    endloop
  endfacet
  facet normal -1.000000 0.000000 0.000000
    outer loop
      vertex 72.000 -0.000 0.000
      vertex 72.000 -0.283 2.378
      vertex 72.000 -0.000 2.350
    endloop
  endfacet
  facet normal 1.000000 0.000000 0.000000
    outer loop
      vertex 80.000 -0.741 0.073
      vertex 80.000 -0.000 0.000
      vertex 80.000 -0.000 2.350
    endloop
  endfacet
  facet normal 1.000000 0.000000 0.000000
    outer loop
      vertex 80.000 -0.741 0.073
      vertex 80.000 -0.000 2.350
      vertex 80.000 -0.283 2.378
    endloop
  endfacet
  facet normal 0.000000 -0.098017 0.995185
    outer loop
      vertex 72.000 -0.000 0.000
      vertex 80.000 -0.000 0.000
      vertex 80.000 0.741 0.073
    endloop
  endfacet
  facet normal 0.000000 -0.098017 0.995185
    outer loop
      vertex 72.000 -0.000 0.000
      vertex 80.000 0.741 0.073
      vertex 72.000 0.741 0.073
    endloop
  endfacet
  facet normal 0.000000 0.098017 -0.995185
    outer loop
      vertex 72.000 0.283 2.378
      vertex 80.000 0.283 2.378
      vertex 80.000 -0.000 2.350
    endloop
  endfacet
  facet normal 0.000000 0.098017 -0.995185
    outer loop
      vertex 72.000 0.283 2.378
      vertex 80.000 -0.000 2.350
      vertex 72.000 -0.000 2.350
    endloop
  endfacet
  facet normal -1.000000 0.000000 0.000000
    outer loop
      vertex 72.000 0.741 0.073
      vertex 72.000 -0.000 0.000
      vertex 72.000 -0.000 2.350
    endloop
  endfacet
  facet normal -1.000000 0.000000 0.000000
    outer loop
      vertex 72.000 0.741 0.073
      vertex 72.000 -0.000 2.350
      vertex 72.000 0.283 2.378
    endloop
  endfacet
  facet normal 1.000000 0.000000 0.000000
    outer loop
      vertex 80.000 -0.000 0.000
      vertex 80.000 0.741 0.073
      vertex 80.000 0.283 2.378
    endloop
  endfacet
  facet normal 1.000000 0.000000 0.000000
    outer loop
      vertex 80.000 -0.000 0.000
      vertex 80.000 0.283 2.378
      vertex 80.000 -0.000 2.350
    endloop
  endfacet
  facet normal 0.000000 -0.290285 0.956940
    outer loop
      vertex 72.000 0.741 0.073
      vertex 80.000 0.741 0.073
      vertex 80.000 1.454 0.289
    endloop
  endfacet
  facet normal 0.000000 -0.290285 0.956940
    outer loop
      vertex 72.000 0.741 0.073
      vertex 80.000 1.454 0.289
      vertex 72.000 1.454 0.289
    endloop
  endfacet
  facet normal 0.000000 0.290285 -0.956940
    outer loop
      vertex 72.000 0.555 2.460
      vertex 80.000 0.555 2.460
      vertex 80.000 0.283 2.378
    endloop
  endfacet
  facet normal 0.000000 0.290285 -0.956940
    outer loop
      vertex 72.000 0.555 2.460
      vertex 80.000 0.283 2.378
      vertex 72.000 0.283 2.378
    endloop
  endfacet
  facet normal -1.000000 0.000000 0.000000
    outer loop
      vertex 72.000 1.454 0.289
      vertex 72.000 0.741 0.073
      vertex 72.000 0.283 2.378
    endloop
  endfacet
  facet normal -1.000000 0.000000 0.000000
    outer loop
      vertex 72.000 1.454 0.289
      vertex 72.000 0.283 2.378
      vertex 72.000 0.555 2.460
    endloop
  endfacet
  facet normal 1.000000 0.000000 0.000000
    outer loop
      vertex 80.000 0.741 0.073
      vertex 80.000 1.454 0.289
      vertex 80.000 0.555 2.460
    endloop
  endfacet
  facet normal 1.000000 0.000000 0.000000
    outer loop
      vertex 80.000 0.741 0.073
      vertex 80.000 0.555 2.460
      vertex 80.000 0.283 2.378
    endloop
  endfacet
  facet normal 0.000000 -0.471397 0.881921
    outer loop
      vertex 72.000 1.454 0.289
      vertex 80.000 1.454 0.289
      vertex 80.000 2.111 0.640
    endloop
  endfacet
  facet normal 0.000000 -0.471397 0.881921
    outer loop
      vertex 72.000 1.454 0.289
      vertex 80.000 2.111 0.640
      vertex 72.000 2.111 0.640
    endloop
  endfacet
  facet normal 0.000000 0.471397 -0.881921
    outer loop
      vertex 72.000 0.806 2.594
      vertex 80.000 0.806 2.594
      vertex 80.000 0.555 2.460
    endloop
  endfacet
  facet normal 0.000000 0.471397 -0.881921
    outer loop
      vertex 72.000 0.806 2.594
      vertex 80.000 0.555 2.460
      vertex 72.000 0.555 2.460
    endloop
  endfacet
  facet normal -1.000000 0.000000 0.000000
    outer loop
      vertex 72.000 2.111 0.640
      vertex 72.000 1.454 0.289
      vertex 72.000 0.555 2.460
    endloop
  endfacet
  facet normal -1.000000 0.000000 0.000000
    outer loop
      vertex 72.000 2.111 0.640
      vertex 72.000 0.555 2.460
      vertex 72.000 0.806 2.594
    endloop
  endfacet
  facet normal 1.000000 0.000000 0.000000
    outer loop
      vertex 80.000 1.454 0.289
      vertex 80.000 2.111 0.640
      vertex 80.000 0.806 2.594
    endloop
  endfacet
  facet normal 1.000000 0.000000 0.000000
    outer loop
      vertex 80.000 1.454 0.289
      vertex 80.000 0.806 2.594
      vertex 80.000 0.555 2.460
    endloop
  endfacet
  facet normal 0.000000 -0.634393 0.773010
    outer loop
      vertex 72.000 2.111 0.640
      vertex 80.000 2.111 0.640
      vertex 80.000 2.687 1.113
    endloop
  endfacet
  facet normal 0.000000 -0.634393 0.773010
    outer loop
      vertex 72.000 2.111 0.640
      vertex 80.000 2.687 1.113
      vertex 72.000 2.687 1.113
    endloop
  endfacet
  facet normal 0.000000 0.634393 -0.773010
    outer loop
      vertex 72.000 1.025 2.775
      vertex 80.000 1.025 2.775
      vertex 80.000 0.806 2.594
    endloop
  endfacet
  facet normal 0.000000 0.634393 -0.773010
    outer loop
      vertex 72.000 1.025 2.775
      vertex 80.000 0.806 2.594
      vertex 72.000 0.806 2.594
    endloop
  endfacet
  facet normal -1.000000 0.000000 0.000000
    outer loop
      vertex 72.000 2.687 1.113
      vertex 72.000 2.111 0.640
      vertex 72.000 0.806 2.594
    endloop
  endfacet
  facet normal -1.000000 0.000000 0.000000
    outer loop
      vertex 72.000 2.687 1.113
      vertex 72.000 0.806 2.594
      vertex 72.000 1.025 2.775
    endloop
  endfacet
  facet normal 1.000000 0.000000 0.000000
    outer loop
      vertex 80.000 2.111 0.640
      vertex 80.000 2.687 1.113
      vertex 80.000 1.025 2.775
    endloop
  endfacet
  facet normal 1.000000 0.000000 0.000000
    outer loop
      vertex 80.000 2.111 0.640
      vertex 80.000 1.025 2.775
      vertex 80.000 0.806 2.594
    endloop
  endfacet
  facet normal 0.000000 -0.773010 0.634393
    outer loop
      vertex 72.000 2.687 1.113
      vertex 80.000 2.687 1.113
      vertex 80.000 3.160 1.689
    endloop
  endfacet
  facet normal 0.000000 -0.773010 0.634393
    outer loop
      vertex 72.000 2.687 1.113
      vertex 80.000 3.160 1.689
      vertex 72.000 3.160 1.689
    endloop
  endfacet
  facet normal 0.000000 0.773010 -0.634393
    outer loop
      vertex 72.000 1.206 2.994
      vertex 80.000 1.206 2.994
      vertex 80.000 1.025 2.775
    endloop
  endfacet
  facet normal 0.000000 0.773010 -0.634393
    outer loop
      vertex 72.000 1.206 2.994
      vertex 80.000 1.025 2.775
      vertex 72.000 1.025 2.775
    endloop
  endfacet
  facet normal -1.000000 0.000000 0.000000
    outer loop
      vertex 72.000 3.160 1.689
      vertex 72.000 2.687 1.113
      vertex 72.000 1.025 2.775
    endloop
  endfacet
  facet normal -1.000000 0.000000 0.000000
    outer loop
      vertex 72.000 3.160 1.689
      vertex 72.000 1.025 2.775
      vertex 72.000 1.206 2.994
    endloop
  endfacet
  facet normal 1.000000 0.000000 0.000000
    outer loop
      vertex 80.000 2.687 1.113
      vertex 80.000 3.160 1.689
      vertex 80.000 1.206 2.994
    endloop
  endfacet
  facet normal 1.000000 0.000000 0.000000
    outer loop
      vertex 80.000 2.687 1.113
      vertex 80.000 1.206 2.994
      vertex 80.000 1.025 2.775
    endloop
  endfacet
  facet normal 0.000000 -0.881921 0.471397
    outer loop
      vertex 72.000 3.160 1.689
      vertex 80.000 3.160 1.689
      vertex 80.000 3.511 2.346
    endloop
  endfacet
  facet normal 0.000000 -0.881921 0.471397
    outer loop
      vertex 72.000 3.160 1.689
      vertex 80.000 3.511 2.346
      vertex 72.000 3.511 2.346
    endloop
  endfacet
  facet normal 0.000000 0.881921 -0.471397
    outer loop
      vertex 72.000 1.340 3.245
      vertex 80.000 1.340 3.245
      vertex 80.000 1.206 2.994
    endloop
  endfacet
  facet normal 0.000000 0.881921 -0.471397
    outer loop
      vertex 72.000 1.340 3.245
      vertex 80.000 1.206 2.994
      vertex 72.000 1.206 2.994
    endloop
  endfacet
  facet normal -1.000000 0.000000 0.000000
    outer loop
      vertex 72.000 3.511 2.346
      vertex 72.000 3.160 1.689
      vertex 72.000 1.206 2.994
    endloop
  endfacet
  facet normal -1.000000 0.000000 0.000000
    outer loop
      vertex 72.000 3.511 2.346
      vertex 72.000 1.206 2.994
      vertex 72.000 1.340 3.245
    endloop
  endfacet
  facet normal 1.000000 0.000000 0.000000
    outer loop
      vertex 80.000 3.160 1.689
      vertex 80.000 3.511 2.346
      vertex 80.000 1.340 3.245
    endloop
  endfacet
  facet normal 1.000000 0.000000 0.000000
    outer loop
      vertex 80.000 3.160 1.689
      vertex 80.000 1.340 3.245
      vertex 80.000 1.206 2.994
    endloop
  endfacet
  facet normal 0.000000 -0.956940 0.290285
    outer loop
      vertex 72.000 3.511 2.346
      vertex 80.000 3.511 2.346
      vertex 80.000 3.727 3.059
    endloop
  endfacet
  facet normal 0.000000 -0.956940 0.290285
    outer loop
      vertex 72.000 3.511 2.346
      vertex 80.000 3.727 3.059
      vertex 72.000 3.727 3.059
    endloop
  endfacet
  facet normal 0.000000 0.956940 -0.290285
    outer loop
      vertex 72.000 1.422 3.517
      vertex 80.000 1.422 3.517
      vertex 80.000 1.340 3.245
    endloop
  endfacet
  facet normal 0.000000 0.956940 -0.290285
    outer loop
      vertex 72.000 1.422 3.517
      vertex 80.000 1.340 3.245
      vertex 72.000 1.340 3.245
    endloop
  endfacet
  facet normal -1.000000 0.000000 0.000000
    outer loop
      vertex 72.000 3.727 3.059
      vertex 72.000 3.511 2.346
      vertex 72.000 1.340 3.245
    endloop
  endfacet
  facet normal -1.000000 0.000000 0.000000
    outer loop
      vertex 72.000 3.727 3.059
      vertex 72.000 1.340 3.245
      vertex 72.000 1.422 3.517
    endloop
  endfacet
  facet normal 1.000000 0.000000 0.000000
    outer loop
      vertex 80.000 3.511 2.346
      vertex 80.000 3.727 3.059
      vertex 80.000 1.422 3.517
    endloop
  endfacet
  facet normal 1.000000 0.000000 0.000000
    outer loop
      vertex 80.000 3.511 2.346
      vertex 80.000 1.422 3.517
      vertex 80.000 1.340 3.245
    endloop
  endfacet
  facet normal 0.000000 -0.995185 0.098017
    outer loop
      vertex 72.000 3.727 3.059
      vertex 80.000 3.727 3.059
      vertex 80.000 3.800 3.800
    endloop
  endfacet
  facet normal 0.000000 -0.995185 0.098017
    outer loop
      vertex 72.000 3.727 3.059
      vertex 80.000 3.800 3.800
      vertex 72.000 3.800 3.800
    endloop
  endfacet
  facet normal 0.000000 0.995185 -0.098017
    outer loop
      vertex 72.000 1.450 3.800
      vertex 80.000 1.450 3.800
      vertex 80.000 1.422 3.517
    endloop
  endfacet
  facet normal 0.000000 0.995185 -0.098017
    outer loop
      vertex 72.000 1.450 3.800
      vertex 80.000 1.422 3.517
      vertex 72.000 1.422 3.517
    endloop
  endfacet
  facet normal -1.000000 0.000000 0.000000
    outer loop
      vertex 72.000 3.800 3.800
      vertex 72.000 3.727 3.059
      vertex 72.000 1.422 3.517
    endloop
  endfacet
  facet normal -1.000000 0.000000 0.000000
    outer loop
      vertex 72.000 3.800 3.800
      vertex 72.000 1.422 3.517
      vertex 72.000 1.450 3.800
    endloop
  endfacet
  facet normal 1.000000 0.000000 0.000000
    outer loop
      vertex 80.000 3.727 3.059
      vertex 80.000 3.800 3.800
      vertex 80.000 1.450 3.800
    endloop
  endfacet
  facet normal 1.000000 0.000000 0.000000
    outer loop
      vertex 80.000 3.727 3.059
      vertex 80.000 1.450 3.800
      vertex 80.000 1.422 3.517
    endloop
  endfacet
  facet normal 0.000000 0.000000 1.000000
    outer loop
      vertex 72.000 -4.800 2.300
      vertex 80.000 -4.800 2.300
      vertex 80.000 -3.800 2.300
    endloop
  endfacet
  facet normal 0.000000 0.000000 1.000000
    outer loop
      vertex 72.000 -4.800 2.300
      vertex 80.000 -3.800 2.300
      vertex 72.000 -3.800 2.300
    endloop
  endfacet
  facet normal 0.000000 0.000000 -1.000000
    outer loop
      vertex 72.000 -4.800 5.300
      vertex 72.000 -3.800 5.300
      vertex 80.000 -3.800 5.300
    endloop
  endfacet
  facet normal 0.000000 0.000000 -1.000000
    outer loop
      vertex 72.000 -4.800 5.300
      vertex 80.000 -3.800 5.300
      vertex 80.000 -4.800 5.300
    endloop
  endfacet
  facet normal 0.000000 1.000000 0.000000
    outer loop
      vertex 72.000 -4.800 2.300
      vertex 72.000 -4.800 5.300
      vertex 80.000 -4.800 5.300
    endloop
  endfacet
  facet normal 0.000000 1.000000 0.000000
    outer loop
      vertex 72.000 -4.800 2.300
      vertex 80.000 -4.800 5.300
      vertex 80.000 -4.800 2.300
    endloop
  endfacet
  facet normal -1.000000 0.000000 0.000000
    outer loop
      vertex 80.000 -4.800 2.300
      vertex 80.000 -4.800 5.300
      vertex 80.000 -3.800 5.300
    endloop
  endfacet
  facet normal -1.000000 0.000000 0.000000
    outer loop
      vertex 80.000 -4.800 2.300
      vertex 80.000 -3.800 5.300
      vertex 80.000 -3.800 2.300
    endloop
  endfacet
  facet normal 0.000000 -1.000000 0.000000
    outer loop
      vertex 80.000 -3.800 2.300
      vertex 80.000 -3.800 5.300
      vertex 72.000 -3.800 5.300
    endloop
  endfacet
  facet normal 0.000000 -1.000000 0.000000
    outer loop
      vertex 80.000 -3.800 2.300
      vertex 72.000 -3.800 5.300
      vertex 72.000 -3.800 2.300
    endloop
  endfacet
  facet normal 1.000000 0.000000 0.000000
    outer loop
      vertex 72.000 -3.800 2.300
      vertex 72.000 -3.800 5.300
      vertex 72.000 -4.800 5.300
    endloop
  endfacet
  facet normal 1.000000 0.000000 0.000000
    outer loop
      vertex 72.000 -3.800 2.300
      vertex 72.000 -4.800 5.300
      vertex 72.000 -4.800 2.300
    endloop
  endfacet
endsolid food_caddy_k1se_liner_hanger_plate
