solid food_caddy_k1se_flip_lid_216mm_bed_centered
  facet normal 0.000000 -1.000000 0.000000
    outer loop
      vertex 32.000 25.000 0.300
      vertex 188.000 25.000 0.300
      vertex 188.000 25.000 1.100
    endloop
  endfacet
  facet normal 0.000000 -1.000000 0.000000
    outer loop
      vertex 32.000 25.000 0.300
      vertex 188.000 25.000 1.100
      vertex 32.000 25.000 1.100
    endloop
  endfacet
  facet normal 0.707107 -0.707107 0.000000
    outer loop
      vertex 188.000 25.000 0.300
      vertex 214.000 51.000 0.300
      vertex 214.000 51.000 1.100
    endloop
  endfacet
  facet normal 0.707107 -0.707107 0.000000
    outer loop
      vertex 188.000 25.000 0.300
      vertex 214.000 51.000 1.100
      vertex 188.000 25.000 1.100
    endloop
  endfacet
  facet normal 1.000000 0.000000 0.000000
    outer loop
      vertex 214.000 51.000 0.300
      vertex 214.000 171.000 0.300
      vertex 214.000 171.000 1.100
    endloop
  endfacet
  facet normal 1.000000 0.000000 0.000000
    outer loop
      vertex 214.000 51.000 0.300
      vertex 214.000 171.000 1.100
      vertex 214.000 51.000 1.100
    endloop
  endfacet
  facet normal 0.707107 0.707107 0.000000
    outer loop
      vertex 214.000 171.000 0.300
      vertex 188.000 197.000 0.300
      vertex 188.000 197.000 1.100
    endloop
  endfacet
  facet normal 0.707107 0.707107 0.000000
    outer loop
      vertex 214.000 171.000 0.300
      vertex 188.000 197.000 1.100
      vertex 214.000 171.000 1.100
    endloop
  endfacet
  facet normal 0.000000 1.000000 0.000000
    outer loop
      vertex 188.000 197.000 0.300
      vertex 32.000 197.000 0.300
      vertex 32.000 197.000 1.100
    endloop
  endfacet
  facet normal 0.000000 1.000000 0.000000
    outer loop
      vertex 188.000 197.000 0.300
      vertex 32.000 197.000 1.100
      vertex 188.000 197.000 1.100
    endloop
  endfacet
  facet normal -0.707107 0.707107 0.000000
    outer loop
      vertex 32.000 197.000 0.300
      vertex 6.000 171.000 0.300
      vertex 6.000 171.000 1.100
    endloop
  endfacet
  facet normal -0.707107 0.707107 0.000000
    outer loop
      vertex 32.000 197.000 0.300
      vertex 6.000 171.000 1.100
      vertex 32.000 197.000 1.100
    endloop
  endfacet
  facet normal -1.000000 0.000000 0.000000
    outer loop
      vertex 6.000 171.000 0.300
      vertex 6.000 51.000 0.300
      vertex 6.000 51.000 1.100
    endloop
  endfacet
  facet normal -1.000000 0.000000 0.000000
    outer loop
      vertex 6.000 171.000 0.300
      vertex 6.000 51.000 1.100
      vertex 6.000 171.000 1.100
    endloop
  endfacet
  facet normal -0.707107 -0.707107 0.000000
    outer loop
      vertex 6.000 51.000 0.300
      vertex 32.000 25.000 0.300
      vertex 32.000 25.000 1.100
    endloop
  endfacet
  facet normal -0.707107 -0.707107 0.000000
    outer loop
      vertex 6.000 51.000 0.300
      vertex 32.000 25.000 1.100
      vertex 6.000 51.000 1.100
    endloop
  endfacet
  facet normal 0.000000 0.000000 -1.000000
    outer loop
      vertex 110.000 111.000 0.300
      vertex 188.000 25.000 0.300
      vertex 32.000 25.000 0.300
    endloop
  endfacet
  facet normal 0.000000 0.000000 -1.000000
    outer loop
      vertex 110.000 111.000 0.300
      vertex 214.000 51.000 0.300
      vertex 188.000 25.000 0.300
    endloop
  endfacet
  facet normal 0.000000 0.000000 -1.000000
    outer loop
      vertex 110.000 111.000 0.300
      vertex 214.000 171.000 0.300
      vertex 214.000 51.000 0.300
    endloop
  endfacet
  facet normal 0.000000 0.000000 -1.000000
    outer loop
      vertex 110.000 111.000 0.300
      vertex 188.000 197.000 0.300
      vertex 214.000 171.000 0.300
    endloop
  endfacet
  facet normal 0.000000 0.000000 -1.000000
    outer loop
      vertex 110.000 111.000 0.300
      vertex 32.000 197.000 0.300
      vertex 188.000 197.000 0.300
    endloop
  endfacet
  facet normal 0.000000 0.000000 -1.000000
    outer loop
      vertex 110.000 111.000 0.300
      vertex 6.000 171.000 0.300
      vertex 32.000 197.000 0.300
    endloop
  endfacet
  facet normal 0.000000 0.000000 -1.000000
    outer loop
      vertex 110.000 111.000 0.300
      vertex 6.000 51.000 0.300
      vertex 6.000 171.000 0.300
    endloop
  endfacet
  facet normal 0.000000 0.000000 -1.000000
    outer loop
      vertex 110.000 111.000 0.300
      vertex 32.000 25.000 0.300
      vertex 6.000 51.000 0.300
    endloop
  endfacet
  facet normal 0.000000 0.000000 1.000000
    outer loop
      vertex 110.000 111.000 1.100
      vertex 32.000 25.000 1.100
      vertex 188.000 25.000 1.100
    endloop
  endfacet
  facet normal -0.000000 0.000000 1.000000
    outer loop
      vertex 110.000 111.000 1.100
      vertex 188.000 25.000 1.100
      vertex 214.000 51.000 1.100
    endloop
  endfacet
  facet normal -0.000000 0.000000 1.000000
    outer loop
      vertex 110.000 111.000 1.100
      vertex 214.000 51.000 1.100
      vertex 214.000 171.000 1.100
    endloop
  endfacet
  facet normal -0.000000 -0.000000 1.000000
    outer loop
      vertex 110.000 111.000 1.100
      vertex 214.000 171.000 1.100
      vertex 188.000 197.000 1.100
    endloop
  endfacet
  facet normal 0.000000 -0.000000 1.000000
    outer loop
      vertex 110.000 111.000 1.100
      vertex 188.000 197.000 1.100
      vertex 32.000 197.000 1.100
    endloop
  endfacet
  facet normal 0.000000 -0.000000 1.000000
    outer loop
      vertex 110.000 111.000 1.100
      vertex 32.000 197.000 1.100
      vertex 6.000 171.000 1.100
    endloop
  endfacet
  facet normal 0.000000 0.000000 1.000000
    outer loop
      vertex 110.000 111.000 1.100
      vertex 6.000 171.000 1.100
      vertex 6.000 51.000 1.100
    endloop
  endfacet
  facet normal 0.000000 0.000000 1.000000
    outer loop
      vertex 110.000 111.000 1.100
      vertex 6.000 51.000 1.100
      vertex 32.000 25.000 1.100
    endloop
  endfacet
  facet normal 0.000000 -1.000000 0.000000
    outer loop
      vertex 32.000 25.000 1.100
      vertex 188.000 25.000 1.100
      vertex 188.000 25.000 2.100
    endloop
  endfacet
  facet normal 0.000000 -1.000000 0.000000
    outer loop
      vertex 32.000 25.000 1.100
      vertex 188.000 25.000 2.100
      vertex 32.000 25.000 2.100
    endloop
  endfacet
  facet normal 0.000000 1.000000 0.000000
    outer loop
      vertex 188.000 31.000 1.100
      vertex 32.000 31.000 1.100
      vertex 32.000 31.000 2.100
    endloop
  endfacet
  facet normal 0.000000 1.000000 0.000000
    outer loop
      vertex 188.000 31.000 1.100
      vertex 32.000 31.000 2.100
      vertex 188.000 31.000 2.100
    endloop
  endfacet
  facet normal 0.000000 0.000000 1.000000
    outer loop
      vertex 32.000 25.000 2.100
      vertex 188.000 25.000 2.100
      vertex 188.000 31.000 2.100
    endloop
  endfacet
  facet normal 0.000000 0.000000 1.000000
    outer loop
      vertex 32.000 25.000 2.100
      vertex 188.000 31.000 2.100
      vertex 32.000 31.000 2.100
    endloop
  endfacet
  facet normal 0.000000 0.000000 -1.000000
    outer loop
      vertex 188.000 25.000 1.100
      vertex 32.000 25.000 1.100
      vertex 32.000 31.000 1.100
    endloop
  endfacet
  facet normal 0.000000 0.000000 -1.000000
    outer loop
      vertex 188.000 25.000 1.100
      vertex 32.000 31.000 1.100
      vertex 188.000 31.000 1.100
    endloop
  endfacet
  facet normal 0.707107 -0.707107 0.000000
    outer loop
      vertex 188.000 25.000 1.100
      vertex 214.000 51.000 1.100
      vertex 214.000 51.000 2.100
    endloop
  endfacet
  facet normal 0.707107 -0.707107 0.000000
    outer loop
      vertex 188.000 25.000 1.100
      vertex 214.000 51.000 2.100
      vertex 188.000 25.000 2.100
    endloop
  endfacet
  facet normal -0.707107 0.707107 0.000000
    outer loop
      vertex 208.000 51.000 1.100
      vertex 188.000 31.000 1.100
      vertex 188.000 31.000 2.100
    endloop
  endfacet
  facet normal -0.707107 0.707107 0.000000
    outer loop
      vertex 208.000 51.000 1.100
      vertex 188.000 31.000 2.100
      vertex 208.000 51.000 2.100
    endloop
  endfacet
  facet normal 0.000000 0.000000 1.000000
    outer loop
      vertex 188.000 25.000 2.100
      vertex 214.000 51.000 2.100
      vertex 208.000 51.000 2.100
    endloop
  endfacet
  facet normal 0.000000 0.000000 1.000000
    outer loop
      vertex 188.000 25.000 2.100
      vertex 208.000 51.000 2.100
      vertex 188.000 31.000 2.100
    endloop
  endfacet
  facet normal 0.000000 0.000000 -1.000000
    outer loop
      vertex 214.000 51.000 1.100
      vertex 188.000 25.000 1.100
      vertex 188.000 31.000 1.100
    endloop
  endfacet
  facet normal 0.000000 0.000000 -1.000000
    outer loop
      vertex 214.000 51.000 1.100
      vertex 188.000 31.000 1.100
      vertex 208.000 51.000 1.100
    endloop
  endfacet
  facet normal 1.000000 0.000000 0.000000
    outer loop
      vertex 214.000 51.000 1.100
      vertex 214.000 171.000 1.100
      vertex 214.000 171.000 2.100
    endloop
  endfacet
  facet normal 1.000000 0.000000 0.000000
    outer loop
      vertex 214.000 51.000 1.100
      vertex 214.000 171.000 2.100
      vertex 214.000 51.000 2.100
    endloop
  endfacet
  facet normal -1.000000 0.000000 0.000000
    outer loop
      vertex 208.000 171.000 1.100
      vertex 208.000 51.000 1.100
      vertex 208.000 51.000 2.100
    endloop
  endfacet
  facet normal -1.000000 0.000000 0.000000
    outer loop
      vertex 208.000 171.000 1.100
      vertex 208.000 51.000 2.100
      vertex 208.000 171.000 2.100
    endloop
  endfacet
  facet normal 0.000000 0.000000 1.000000
    outer loop
      vertex 214.000 51.000 2.100
      vertex 214.000 171.000 2.100
      vertex 208.000 171.000 2.100
    endloop
  endfacet
  facet normal 0.000000 0.000000 1.000000
    outer loop
      vertex 214.000 51.000 2.100
      vertex 208.000 171.000 2.100
      vertex 208.000 51.000 2.100
    endloop
  endfacet
  facet normal 0.000000 0.000000 -1.000000
    outer loop
      vertex 214.000 171.000 1.100
      vertex 214.000 51.000 1.100
      vertex 208.000 51.000 1.100
    endloop
  endfacet
  facet normal 0.000000 0.000000 -1.000000
    outer loop
      vertex 214.000 171.000 1.100
      vertex 208.000 51.000 1.100
      vertex 208.000 171.000 1.100
    endloop
  endfacet
  facet normal 0.707107 0.707107 0.000000
    outer loop
      vertex 214.000 171.000 1.100
      vertex 188.000 197.000 1.100
      vertex 188.000 197.000 2.100
    endloop
  endfacet
  facet normal 0.707107 0.707107 0.000000
    outer loop
      vertex 214.000 171.000 1.100
      vertex 188.000 197.000 2.100
      vertex 214.000 171.000 2.100
    endloop
  endfacet
  facet normal -0.707107 -0.707107 0.000000
    outer loop
      vertex 188.000 191.000 1.100
      vertex 208.000 171.000 1.100
      vertex 208.000 171.000 2.100
    endloop
  endfacet
  facet normal -0.707107 -0.707107 0.000000
    outer loop
      vertex 188.000 191.000 1.100
      vertex 208.000 171.000 2.100
      vertex 188.000 191.000 2.100
    endloop
  endfacet
  facet normal 0.000000 0.000000 1.000000
    outer loop
      vertex 214.000 171.000 2.100
      vertex 188.000 197.000 2.100
      vertex 188.000 191.000 2.100
    endloop
  endfacet
  facet normal 0.000000 0.000000 1.000000
    outer loop
      vertex 214.000 171.000 2.100
      vertex 188.000 191.000 2.100
      vertex 208.000 171.000 2.100
    endloop
  endfacet
  facet normal 0.000000 0.000000 -1.000000
    outer loop
      vertex 188.000 197.000 1.100
      vertex 214.000 171.000 1.100
      vertex 208.000 171.000 1.100
    endloop
  endfacet
  facet normal 0.000000 0.000000 -1.000000
    outer loop
      vertex 188.000 197.000 1.100
      vertex 208.000 171.000 1.100
      vertex 188.000 191.000 1.100
    endloop
  endfacet
  facet normal 0.000000 1.000000 0.000000
    outer loop
      vertex 188.000 197.000 1.100
      vertex 32.000 197.000 1.100
      vertex 32.000 197.000 2.100
    endloop
  endfacet
  facet normal 0.000000 1.000000 0.000000
    outer loop
      vertex 188.000 197.000 1.100
      vertex 32.000 197.000 2.100
      vertex 188.000 197.000 2.100
    endloop
  endfacet
  facet normal 0.000000 -1.000000 0.000000
    outer loop
      vertex 32.000 191.000 1.100
      vertex 188.000 191.000 1.100
      vertex 188.000 191.000 2.100
    endloop
  endfacet
  facet normal 0.000000 -1.000000 0.000000
    outer loop
      vertex 32.000 191.000 1.100
      vertex 188.000 191.000 2.100
      vertex 32.000 191.000 2.100
    endloop
  endfacet
  facet normal 0.000000 0.000000 1.000000
    outer loop
      vertex 188.000 197.000 2.100
      vertex 32.000 197.000 2.100
      vertex 32.000 191.000 2.100
    endloop
  endfacet
  facet normal 0.000000 0.000000 1.000000
    outer loop
      vertex 188.000 197.000 2.100
      vertex 32.000 191.000 2.100
      vertex 188.000 191.000 2.100
    endloop
  endfacet
  facet normal 0.000000 0.000000 -1.000000
    outer loop
      vertex 32.000 197.000 1.100
      vertex 188.000 197.000 1.100
      vertex 188.000 191.000 1.100
    endloop
  endfacet
  facet normal 0.000000 0.000000 -1.000000
    outer loop
      vertex 32.000 197.000 1.100
      vertex 188.000 191.000 1.100
      vertex 32.000 191.000 1.100
    endloop
  endfacet
  facet normal -0.707107 0.707107 0.000000
    outer loop
      vertex 32.000 197.000 1.100
      vertex 6.000 171.000 1.100
      vertex 6.000 171.000 2.100
    endloop
  endfacet
  facet normal -0.707107 0.707107 0.000000
    outer loop
      vertex 32.000 197.000 1.100
      vertex 6.000 171.000 2.100
      vertex 32.000 197.000 2.100
    endloop
  endfacet
  facet normal 0.707107 -0.707107 0.000000
    outer loop
      vertex 12.000 171.000 1.100
      vertex 32.000 191.000 1.100
      vertex 32.000 191.000 2.100
    endloop
  endfacet
  facet normal 0.707107 -0.707107 0.000000
    outer loop
      vertex 12.000 171.000 1.100
      vertex 32.000 191.000 2.100
      vertex 12.000 171.000 2.100
    endloop
  endfacet
  facet normal 0.000000 0.000000 1.000000
    outer loop
      vertex 32.000 197.000 2.100
      vertex 6.000 171.000 2.100
      vertex 12.000 171.000 2.100
    endloop
  endfacet
  facet normal 0.000000 0.000000 1.000000
    outer loop
      vertex 32.000 197.000 2.100
      vertex 12.000 171.000 2.100
      vertex 32.000 191.000 2.100
    endloop
  endfacet
  facet normal 0.000000 0.000000 -1.000000
    outer loop
      vertex 6.000 171.000 1.100
      vertex 32.000 197.000 1.100
      vertex 32.000 191.000 1.100
    endloop
  endfacet
  facet normal 0.000000 0.000000 -1.000000
    outer loop
      vertex 6.000 171.000 1.100
      vertex 32.000 191.000 1.100
      vertex 12.000 171.000 1.100
    endloop
  endfacet
  facet normal -1.000000 0.000000 0.000000
    outer loop
      vertex 6.000 171.000 1.100
      vertex 6.000 51.000 1.100
      vertex 6.000 51.000 2.100
    endloop
  endfacet
  facet normal -1.000000 0.000000 0.000000
    outer loop
      vertex 6.000 171.000 1.100
      vertex 6.000 51.000 2.100
      vertex 6.000 171.000 2.100
    endloop
  endfacet
  facet normal 1.000000 0.000000 0.000000
    outer loop
      vertex 12.000 51.000 1.100
      vertex 12.000 171.000 1.100
      vertex 12.000 171.000 2.100
    endloop
  endfacet
  facet normal 1.000000 0.000000 0.000000
    outer loop
      vertex 12.000 51.000 1.100
      vertex 12.000 171.000 2.100
      vertex 12.000 51.000 2.100
    endloop
  endfacet
  facet normal 0.000000 0.000000 1.000000
    outer loop
      vertex 6.000 171.000 2.100
      vertex 6.000 51.000 2.100
      vertex 12.000 51.000 2.100
    endloop
  endfacet
  facet normal 0.000000 0.000000 1.000000
    outer loop
      vertex 6.000 171.000 2.100
      vertex 12.000 51.000 2.100
      vertex 12.000 171.000 2.100
    endloop
  endfacet
  facet normal 0.000000 0.000000 -1.000000
    outer loop
      vertex 6.000 51.000 1.100
      vertex 6.000 171.000 1.100
      vertex 12.000 171.000 1.100
    endloop
  endfacet
  facet normal 0.000000 0.000000 -1.000000
    outer loop
      vertex 6.000 51.000 1.100
      vertex 12.000 171.000 1.100
      vertex 12.000 51.000 1.100
    endloop
  endfacet
  facet normal -0.707107 -0.707107 0.000000
    outer loop
      vertex 6.000 51.000 1.100
      vertex 32.000 25.000 1.100
      vertex 32.000 25.000 2.100
    endloop
  endfacet
  facet normal -0.707107 -0.707107 0.000000
    outer loop
      vertex 6.000 51.000 1.100
      vertex 32.000 25.000 2.100
      vertex 6.000 51.000 2.100
    endloop
  endfacet
  facet normal 0.707107 0.707107 0.000000
    outer loop
      vertex 32.000 31.000 1.100
      vertex 12.000 51.000 1.100
      vertex 12.000 51.000 2.100
    endloop
  endfacet
  facet normal 0.707107 0.707107 0.000000
    outer loop
      vertex 32.000 31.000 1.100
      vertex 12.000 51.000 2.100
      vertex 32.000 31.000 2.100
    endloop
  endfacet
  facet normal 0.000000 0.000000 1.000000
    outer loop
      vertex 6.000 51.000 2.100
      vertex 32.000 25.000 2.100
      vertex 32.000 31.000 2.100
    endloop
  endfacet
  facet normal 0.000000 0.000000 1.000000
    outer loop
      vertex 6.000 51.000 2.100
      vertex 32.000 31.000 2.100
      vertex 12.000 51.000 2.100
    endloop
  endfacet
  facet normal 0.000000 0.000000 -1.000000
    outer loop
      vertex 32.000 25.000 1.100
      vertex 6.000 51.000 1.100
      vertex 12.000 51.000 1.100
    endloop
  endfacet
  facet normal 0.000000 0.000000 -1.000000
    outer loop
      vertex 32.000 25.000 1.100
      vertex 12.000 51.000 1.100
      vertex 32.000 31.000 1.100
    endloop
  endfacet
  facet normal 0.000000 0.000000 1.000000
    outer loop
      vertex 44.000 188.000 0.300
      vertex 176.000 188.000 0.300
      vertex 176.000 204.000 0.300
    endloop
  endfacet
  facet normal 0.000000 0.000000 1.000000
    outer loop
      vertex 44.000 188.000 0.300
      vertex 176.000 204.000 0.300
      vertex 44.000 204.000 0.300
    endloop
  endfacet
  facet normal 0.000000 0.000000 -1.000000
    outer loop
      vertex 44.000 188.000 1.500
      vertex 44.000 204.000 1.500
      vertex 176.000 204.000 1.500
    endloop
  endfacet
  facet normal 0.000000 0.000000 -1.000000
    outer loop
      vertex 44.000 188.000 1.500
      vertex 176.000 204.000 1.500
      vertex 176.000 188.000 1.500
    endloop
  endfacet
  facet normal 0.000000 1.000000 0.000000
    outer loop
      vertex 44.000 188.000 0.300
      vertex 44.000 188.000 1.500
      vertex 176.000 188.000 1.500
    endloop
  endfacet
  facet normal 0.000000 1.000000 0.000000
    outer loop
      vertex 44.000 188.000 0.300
      vertex 176.000 188.000 1.500
      vertex 176.000 188.000 0.300
    endloop
  endfacet
  facet normal -1.000000 0.000000 0.000000
    outer loop
      vertex 176.000 188.000 0.300
      vertex 176.000 188.000 1.500
      vertex 176.000 204.000 1.500
    endloop
  endfacet
  facet normal -1.000000 0.000000 0.000000
    outer loop
      vertex 176.000 188.000 0.300
      vertex 176.000 204.000 1.500
      vertex 176.000 204.000 0.300
    endloop
  endfacet
  facet normal 0.000000 -1.000000 0.000000
    outer loop
      vertex 176.000 204.000 0.300
      vertex 176.000 204.000 1.500
      vertex 44.000 204.000 1.500
    endloop
  endfacet
  facet normal 0.000000 -1.000000 0.000000
    outer loop
      vertex 176.000 204.000 0.300
      vertex 44.000 204.000 1.500
      vertex 44.000 204.000 0.300
    endloop
  endfacet
  facet normal 1.000000 0.000000 0.000000
    outer loop
      vertex 44.000 204.000 0.300
      vertex 44.000 204.000 1.500
      vertex 44.000 188.000 1.500
    endloop
  endfacet
  facet normal 1.000000 0.000000 0.000000
    outer loop
      vertex 44.000 204.000 0.300
      vertex 44.000 188.000 1.500
      vertex 44.000 188.000 0.300
    endloop
  endfacet
  facet normal 0.000000 0.000000 1.000000
    outer loop
      vertex 52.000 191.000 0.300
      vertex 168.000 191.000 0.300
      vertex 168.000 202.000 0.300
    endloop
  endfacet
  facet normal 0.000000 0.000000 1.000000
    outer loop
      vertex 52.000 191.000 0.300
      vertex 168.000 202.000 0.300
      vertex 52.000 202.000 0.300
    endloop
  endfacet
  facet normal 0.000000 0.000000 -1.000000
    outer loop
      vertex 52.000 191.000 3.300
      vertex 52.000 202.000 3.300
      vertex 168.000 202.000 3.300
    endloop
  endfacet
  facet normal 0.000000 0.000000 -1.000000
    outer loop
      vertex 52.000 191.000 3.300
      vertex 168.000 202.000 3.300
      vertex 168.000 191.000 3.300
    endloop
  endfacet
  facet normal 0.000000 1.000000 0.000000
    outer loop
      vertex 52.000 191.000 0.300
      vertex 52.000 191.000 3.300
      vertex 168.000 191.000 3.300
    endloop
  endfacet
  facet normal 0.000000 1.000000 0.000000
    outer loop
      vertex 52.000 191.000 0.300
      vertex 168.000 191.000 3.300
      vertex 168.000 191.000 0.300
    endloop
  endfacet
  facet normal -1.000000 0.000000 0.000000
    outer loop
      vertex 168.000 191.000 0.300
      vertex 168.000 191.000 3.300
      vertex 168.000 202.000 3.300
    endloop
  endfacet
  facet normal -1.000000 0.000000 0.000000
    outer loop
      vertex 168.000 191.000 0.300
      vertex 168.000 202.000 3.300
      vertex 168.000 202.000 0.300
    endloop
  endfacet
  facet normal 0.000000 -1.000000 0.000000
    outer loop
      vertex 168.000 202.000 0.300
      vertex 168.000 202.000 3.300
      vertex 52.000 202.000 3.300
    endloop
  endfacet
  facet normal 0.000000 -1.000000 0.000000
    outer loop
      vertex 168.000 202.000 0.300
      vertex 52.000 202.000 3.300
      vertex 52.000 202.000 0.300
    endloop
  endfacet
  facet normal 1.000000 0.000000 0.000000
    outer loop
      vertex 52.000 202.000 0.300
      vertex 52.000 202.000 3.300
      vertex 52.000 191.000 3.300
    endloop
  endfacet
  facet normal 1.000000 0.000000 0.000000
    outer loop
      vertex 52.000 202.000 0.300
      vertex 52.000 191.000 3.300
      vertex 52.000 191.000 0.300
    endloop
  endfacet
  facet normal 0.000000 -0.995185 -0.098017
    outer loop
      vertex 60.000 202.300 4.800
      vertex 160.000 202.300 4.800
      vertex 160.000 202.208 5.736
    endloop
  endfacet
  facet normal 0.000000 -0.995185 -0.098017
    outer loop
      vertex 60.000 202.300 4.800
      vertex 160.000 202.208 5.736
      vertex 60.000 202.208 5.736
    endloop
  endfacet
  facet normal 0.000000 0.995185 0.098017
    outer loop
      vertex 60.000 199.363 5.171
      vertex 160.000 199.363 5.171
      vertex 160.000 199.400 4.800
    endloop
  endfacet
  facet normal 0.000000 0.995185 0.098017
    outer loop
      vertex 60.000 199.363 5.171
      vertex 160.000 199.400 4.800
      vertex 60.000 199.400 4.800
    endloop
  endfacet
  facet normal -1.000000 0.000000 0.000000
    outer loop
      vertex 60.000 202.208 5.736
      vertex 60.000 202.300 4.800
      vertex 60.000 199.400 4.800
    endloop
  endfacet
  facet normal -1.000000 0.000000 0.000000
    outer loop
      vertex 60.000 202.208 5.736
      vertex 60.000 199.400 4.800
      vertex 60.000 199.363 5.171
    endloop
  endfacet
  facet normal 1.000000 0.000000 0.000000
    outer loop
      vertex 160.000 202.300 4.800
      vertex 160.000 202.208 5.736
      vertex 160.000 199.363 5.171
    endloop
  endfacet
  facet normal 1.000000 0.000000 0.000000
    outer loop
      vertex 160.000 202.300 4.800
      vertex 160.000 199.363 5.171
      vertex 160.000 199.400 4.800
    endloop
  endfacet
  facet normal 0.000000 -0.956940 -0.290285
    outer loop
      vertex 60.000 202.208 5.736
      vertex 160.000 202.208 5.736
      vertex 160.000 201.935 6.637
    endloop
  endfacet
  facet normal 0.000000 -0.956940 -0.290285
    outer loop
      vertex 60.000 202.208 5.736
      vertex 160.000 201.935 6.637
      vertex 60.000 201.935 6.637
    endloop
  endfacet
  facet normal 0.000000 0.956940 0.290285
    outer loop
      vertex 60.000 199.255 5.527
      vertex 160.000 199.255 5.527
      vertex 160.000 199.363 5.171
    endloop
  endfacet
  facet normal 0.000000 0.956940 0.290285
    outer loop
      vertex 60.000 199.255 5.527
      vertex 160.000 199.363 5.171
      vertex 60.000 199.363 5.171
    endloop
  endfacet
  facet normal -1.000000 0.000000 0.000000
    outer loop
      vertex 60.000 201.935 6.637
      vertex 60.000 202.208 5.736
      vertex 60.000 199.363 5.171
    endloop
  endfacet
  facet normal -1.000000 0.000000 0.000000
    outer loop
      vertex 60.000 201.935 6.637
      vertex 60.000 199.363 5.171
      vertex 60.000 199.255 5.527
    endloop
  endfacet
  facet normal 1.000000 0.000000 0.000000
    outer loop
      vertex 160.000 202.208 5.736
      vertex 160.000 201.935 6.637
      vertex 160.000 199.255 5.527
    endloop
  endfacet
  facet normal 1.000000 0.000000 0.000000
    outer loop
      vertex 160.000 202.208 5.736
      vertex 160.000 199.255 5.527
      vertex 160.000 199.363 5.171
    endloop
  endfacet
  facet normal 0.000000 -0.881921 -0.471397
    outer loop
      vertex 60.000 201.935 6.637
      vertex 160.000 201.935 6.637
      vertex 160.000 201.491 7.467
    endloop
  endfacet
  facet normal 0.000000 -0.881921 -0.471397
    outer loop
      vertex 60.000 201.935 6.637
      vertex 160.000 201.491 7.467
      vertex 60.000 201.491 7.467
    endloop
  endfacet
  facet normal 0.000000 0.881921 0.471397
    outer loop
      vertex 60.000 199.080 5.856
      vertex 160.000 199.080 5.856
      vertex 160.000 199.255 5.527
    endloop
  endfacet
  facet normal 0.000000 0.881921 0.471397
    outer loop
      vertex 60.000 199.080 5.856
      vertex 160.000 199.255 5.527
      vertex 60.000 199.255 5.527
    endloop
  endfacet
  facet normal -1.000000 0.000000 0.000000
    outer loop
      vertex 60.000 201.491 7.467
      vertex 60.000 201.935 6.637
      vertex 60.000 199.255 5.527
    endloop
  endfacet
  facet normal -1.000000 0.000000 0.000000
    outer loop
      vertex 60.000 201.491 7.467
      vertex 60.000 199.255 5.527
      vertex 60.000 199.080 5.856
    endloop
  endfacet
  facet normal 1.000000 0.000000 0.000000
    outer loop
      vertex 160.000 201.935 6.637
      vertex 160.000 201.491 7.467
      vertex 160.000 199.080 5.856
    endloop
  endfacet
  facet normal 1.000000 0.000000 0.000000
    outer loop
      vertex 160.000 201.935 6.637
      vertex 160.000 199.080 5.856
      vertex 160.000 199.255 5.527
    endloop
  endfacet
  facet normal 0.000000 -0.773010 -0.634393
    outer loop
      vertex 60.000 201.491 7.467
      vertex 160.000 201.491 7.467
      vertex 160.000 200.894 8.194
    endloop
  endfacet
  facet normal 0.000000 -0.773010 -0.634393
    outer loop
      vertex 60.000 201.491 7.467
      vertex 160.000 200.894 8.194
      vertex 60.000 200.894 8.194
    endloop
  endfacet
  facet normal 0.000000 0.773010 0.634393
    outer loop
      vertex 60.000 198.844 6.144
      vertex 160.000 198.844 6.144
      vertex 160.000 199.080 5.856
    endloop
  endfacet
  facet normal 0.000000 0.773010 0.634393
    outer loop
      vertex 60.000 198.844 6.144
      vertex 160.000 199.080 5.856
      vertex 60.000 199.080 5.856
    endloop
  endfacet
  facet normal -1.000000 0.000000 0.000000
    outer loop
      vertex 60.000 200.894 8.194
      vertex 60.000 201.491 7.467
      vertex 60.000 199.080 5.856
    endloop
  endfacet
  facet normal -1.000000 0.000000 0.000000
    outer loop
      vertex 60.000 200.894 8.194
      vertex 60.000 199.080 5.856
      vertex 60.000 198.844 6.144
    endloop
  endfacet
  facet normal 1.000000 0.000000 0.000000
    outer loop
      vertex 160.000 201.491 7.467
      vertex 160.000 200.894 8.194
      vertex 160.000 198.844 6.144
    endloop
  endfacet
  facet normal 1.000000 0.000000 0.000000
    outer loop
      vertex 160.000 201.491 7.467
      vertex 160.000 198.844 6.144
      vertex 160.000 199.080 5.856
    endloop
  endfacet
  facet normal 0.000000 -0.634393 -0.773010
    outer loop
      vertex 60.000 200.894 8.194
      vertex 160.000 200.894 8.194
      vertex 160.000 200.167 8.791
    endloop
  endfacet
  facet normal 0.000000 -0.634393 -0.773010
    outer loop
      vertex 60.000 200.894 8.194
      vertex 160.000 200.167 8.791
      vertex 60.000 200.167 8.791
    endloop
  endfacet
  facet normal 0.000000 0.634393 0.773010
    outer loop
      vertex 60.000 198.556 6.380
      vertex 160.000 198.556 6.380
      vertex 160.000 198.844 6.144
    endloop
  endfacet
  facet normal 0.000000 0.634393 0.773010
    outer loop
      vertex 60.000 198.556 6.380
      vertex 160.000 198.844 6.144
      vertex 60.000 198.844 6.144
    endloop
  endfacet
  facet normal -1.000000 0.000000 0.000000
    outer loop
      vertex 60.000 200.167 8.791
      vertex 60.000 200.894 8.194
      vertex 60.000 198.844 6.144
    endloop
  endfacet
  facet normal -1.000000 0.000000 0.000000
    outer loop
      vertex 60.000 200.167 8.791
      vertex 60.000 198.844 6.144
      vertex 60.000 198.556 6.380
    endloop
  endfacet
  facet normal 1.000000 0.000000 0.000000
    outer loop
      vertex 160.000 200.894 8.194
      vertex 160.000 200.167 8.791
      vertex 160.000 198.556 6.380
    endloop
  endfacet
  facet normal 1.000000 0.000000 0.000000
    outer loop
      vertex 160.000 200.894 8.194
      vertex 160.000 198.556 6.380
      vertex 160.000 198.844 6.144
    endloop
  endfacet
  facet normal 0.000000 -0.471397 -0.881921
    outer loop
      vertex 60.000 200.167 8.791
      vertex 160.000 200.167 8.791
      vertex 160.000 199.337 9.235
    endloop
  endfacet
  facet normal 0.000000 -0.471397 -0.881921
    outer loop
      vertex 60.000 200.167 8.791
      vertex 160.000 199.337 9.235
      vertex 60.000 199.337 9.235
    endloop
  endfacet
  facet normal 0.000000 0.471397 0.881921
    outer loop
      vertex 60.000 198.227 6.555
      vertex 160.000 198.227 6.555
      vertex 160.000 198.556 6.380
    endloop
  endfacet
  facet normal 0.000000 0.471397 0.881921
    outer loop
      vertex 60.000 198.227 6.555
      vertex 160.000 198.556 6.380
      vertex 60.000 198.556 6.380
    endloop
  endfacet
  facet normal -1.000000 0.000000 0.000000
    outer loop
      vertex 60.000 199.337 9.235
      vertex 60.000 200.167 8.791
      vertex 60.000 198.556 6.380
    endloop
  endfacet
  facet normal -1.000000 0.000000 0.000000
    outer loop
      vertex 60.000 199.337 9.235
      vertex 60.000 198.556 6.380
      vertex 60.000 198.227 6.555
    endloop
  endfacet
  facet normal 1.000000 0.000000 0.000000
    outer loop
      vertex 160.000 200.167 8.791
      vertex 160.000 199.337 9.235
      vertex 160.000 198.227 6.555
    endloop
  endfacet
  facet normal 1.000000 0.000000 0.000000
    outer loop
      vertex 160.000 200.167 8.791
      vertex 160.000 198.227 6.555
      vertex 160.000 198.556 6.380
    endloop
  endfacet
  facet normal 0.000000 -0.290285 -0.956940
    outer loop
      vertex 60.000 199.337 9.235
      vertex 160.000 199.337 9.235
      vertex 160.000 198.436 9.508
    endloop
  endfacet
  facet normal 0.000000 -0.290285 -0.956940
    outer loop
      vertex 60.000 199.337 9.235
      vertex 160.000 198.436 9.508
      vertex 60.000 198.436 9.508
    endloop
  endfacet
  facet normal 0.000000 0.290285 0.956940
    outer loop
      vertex 60.000 197.871 6.663
      vertex 160.000 197.871 6.663
      vertex 160.000 198.227 6.555
    endloop
  endfacet
  facet normal 0.000000 0.290285 0.956940
    outer loop
      vertex 60.000 197.871 6.663
      vertex 160.000 198.227 6.555
      vertex 60.000 198.227 6.555
    endloop
  endfacet
  facet normal -1.000000 0.000000 0.000000
    outer loop
      vertex 60.000 198.436 9.508
      vertex 60.000 199.337 9.235
      vertex 60.000 198.227 6.555
    endloop
  endfacet
  facet normal -1.000000 0.000000 0.000000
    outer loop
      vertex 60.000 198.436 9.508
      vertex 60.000 198.227 6.555
      vertex 60.000 197.871 6.663
    endloop
  endfacet
  facet normal 1.000000 0.000000 0.000000
    outer loop
      vertex 160.000 199.337 9.235
      vertex 160.000 198.436 9.508
      vertex 160.000 197.871 6.663
    endloop
  endfacet
  facet normal 1.000000 0.000000 0.000000
    outer loop
      vertex 160.000 199.337 9.235
      vertex 160.000 197.871 6.663
      vertex 160.000 198.227 6.555
    endloop
  endfacet
  facet normal 0.000000 -0.098017 -0.995185
    outer loop
      vertex 60.000 198.436 9.508
      vertex 160.000 198.436 9.508
      vertex 160.000 197.500 9.600
    endloop
  endfacet
  facet normal 0.000000 -0.098017 -0.995185
    outer loop
      vertex 60.000 198.436 9.508
      vertex 160.000 197.500 9.600
      vertex 60.000 197.500 9.600
    endloop
  endfacet
  facet normal 0.000000 0.098017 0.995185
    outer loop
      vertex 60.000 197.500 6.700
      vertex 160.000 197.500 6.700
      vertex 160.000 197.871 6.663
    endloop
  endfacet
  facet normal 0.000000 0.098017 0.995185
    outer loop
      vertex 60.000 197.500 6.700
      vertex 160.000 197.871 6.663
      vertex 60.000 197.871 6.663
    endloop
  endfacet
  facet normal -1.000000 0.000000 0.000000
    outer loop
      vertex 60.000 197.500 9.600
      vertex 60.000 198.436 9.508
      vertex 60.000 197.871 6.663
    endloop
  endfacet
  facet normal -1.000000 0.000000 0.000000
    outer loop
      vertex 60.000 197.500 9.600
      vertex 60.000 197.871 6.663
      vertex 60.000 197.500 6.700
    endloop
  endfacet
  facet normal 1.000000 0.000000 0.000000
    outer loop
      vertex 160.000 198.436 9.508
      vertex 160.000 197.500 9.600
      vertex 160.000 197.500 6.700
    endloop
  endfacet
  facet normal 1.000000 0.000000 0.000000
    outer loop
      vertex 160.000 198.436 9.508
      vertex 160.000 197.500 6.700
      vertex 160.000 197.871 6.663
    endloop
  endfacet
  facet normal 0.000000 0.098017 -0.995185
    outer loop
      vertex 60.000 197.500 9.600
      vertex 160.000 197.500 9.600
      vertex 160.000 196.564 9.508
    endloop
  endfacet
  facet normal 0.000000 0.098017 -0.995185
    outer loop
      vertex 60.000 197.500 9.600
      vertex 160.000 196.564 9.508
      vertex 60.000 196.564 9.508
    endloop
  endfacet
  facet normal 0.000000 -0.098017 0.995185
    outer loop
      vertex 60.000 197.129 6.663
      vertex 160.000 197.129 6.663
      vertex 160.000 197.500 6.700
    endloop
  endfacet
  facet normal 0.000000 -0.098017 0.995185
    outer loop
      vertex 60.000 197.129 6.663
      vertex 160.000 197.500 6.700
      vertex 60.000 197.500 6.700
    endloop
  endfacet
  facet normal -1.000000 0.000000 0.000000
    outer loop
      vertex 60.000 196.564 9.508
      vertex 60.000 197.500 9.600
      vertex 60.000 197.500 6.700
    endloop
  endfacet
  facet normal -1.000000 0.000000 0.000000
    outer loop
      vertex 60.000 196.564 9.508
      vertex 60.000 197.500 6.700
      vertex 60.000 197.129 6.663
    endloop
  endfacet
  facet normal 1.000000 0.000000 0.000000
    outer loop
      vertex 160.000 197.500 9.600
      vertex 160.000 196.564 9.508
      vertex 160.000 197.129 6.663
    endloop
  endfacet
  facet normal 1.000000 0.000000 0.000000
    outer loop
      vertex 160.000 197.500 9.600
      vertex 160.000 197.129 6.663
      vertex 160.000 197.500 6.700
    endloop
  endfacet
  facet normal 0.000000 0.290285 -0.956940
    outer loop
      vertex 60.000 196.564 9.508
      vertex 160.000 196.564 9.508
      vertex 160.000 195.663 9.235
    endloop
  endfacet
  facet normal 0.000000 0.290285 -0.956940
    outer loop
      vertex 60.000 196.564 9.508
      vertex 160.000 195.663 9.235
      vertex 60.000 195.663 9.235
    endloop
  endfacet
  facet normal 0.000000 -0.290285 0.956940
    outer loop
      vertex 60.000 196.773 6.555
      vertex 160.000 196.773 6.555
      vertex 160.000 197.129 6.663
    endloop
  endfacet
  facet normal 0.000000 -0.290285 0.956940
    outer loop
      vertex 60.000 196.773 6.555
      vertex 160.000 197.129 6.663
      vertex 60.000 197.129 6.663
    endloop
  endfacet
  facet normal -1.000000 0.000000 0.000000
    outer loop
      vertex 60.000 195.663 9.235
      vertex 60.000 196.564 9.508
      vertex 60.000 197.129 6.663
    endloop
  endfacet
  facet normal -1.000000 0.000000 0.000000
    outer loop
      vertex 60.000 195.663 9.235
      vertex 60.000 197.129 6.663
      vertex 60.000 196.773 6.555
    endloop
  endfacet
  facet normal 1.000000 0.000000 0.000000
    outer loop
      vertex 160.000 196.564 9.508
      vertex 160.000 195.663 9.235
      vertex 160.000 196.773 6.555
    endloop
  endfacet
  facet normal 1.000000 0.000000 0.000000
    outer loop
      vertex 160.000 196.564 9.508
      vertex 160.000 196.773 6.555
      vertex 160.000 197.129 6.663
    endloop
  endfacet
  facet normal 0.000000 0.471397 -0.881921
    outer loop
      vertex 60.000 195.663 9.235
      vertex 160.000 195.663 9.235
      vertex 160.000 194.833 8.791
    endloop
  endfacet
  facet normal 0.000000 0.471397 -0.881921
    outer loop
      vertex 60.000 195.663 9.235
      vertex 160.000 194.833 8.791
      vertex 60.000 194.833 8.791
    endloop
  endfacet
  facet normal 0.000000 -0.471397 0.881921
    outer loop
      vertex 60.000 196.444 6.380
      vertex 160.000 196.444 6.380
      vertex 160.000 196.773 6.555
    endloop
  endfacet
  facet normal 0.000000 -0.471397 0.881921
    outer loop
      vertex 60.000 196.444 6.380
      vertex 160.000 196.773 6.555
      vertex 60.000 196.773 6.555
    endloop
  endfacet
  facet normal -1.000000 0.000000 0.000000
    outer loop
      vertex 60.000 194.833 8.791
      vertex 60.000 195.663 9.235
      vertex 60.000 196.773 6.555
    endloop
  endfacet
  facet normal -1.000000 0.000000 0.000000
    outer loop
      vertex 60.000 194.833 8.791
      vertex 60.000 196.773 6.555
      vertex 60.000 196.444 6.380
    endloop
  endfacet
  facet normal 1.000000 0.000000 0.000000
    outer loop
      vertex 160.000 195.663 9.235
      vertex 160.000 194.833 8.791
      vertex 160.000 196.444 6.380
    endloop
  endfacet
  facet normal 1.000000 0.000000 0.000000
    outer loop
      vertex 160.000 195.663 9.235
      vertex 160.000 196.444 6.380
      vertex 160.000 196.773 6.555
    endloop
  endfacet
  facet normal 0.000000 0.634393 -0.773010
    outer loop
      vertex 60.000 194.833 8.791
      vertex 160.000 194.833 8.791
      vertex 160.000 194.106 8.194
    endloop
  endfacet
  facet normal 0.000000 0.634393 -0.773010
    outer loop
      vertex 60.000 194.833 8.791
      vertex 160.000 194.106 8.194
      vertex 60.000 194.106 8.194
    endloop
  endfacet
  facet normal 0.000000 -0.634393 0.773010
    outer loop
      vertex 60.000 196.156 6.144
      vertex 160.000 196.156 6.144
      vertex 160.000 196.444 6.380
    endloop
  endfacet
  facet normal 0.000000 -0.634393 0.773010
    outer loop
      vertex 60.000 196.156 6.144
      vertex 160.000 196.444 6.380
      vertex 60.000 196.444 6.380
    endloop
  endfacet
  facet normal -1.000000 0.000000 0.000000
    outer loop
      vertex 60.000 194.106 8.194
      vertex 60.000 194.833 8.791
      vertex 60.000 196.444 6.380
    endloop
  endfacet
  facet normal -1.000000 0.000000 0.000000
    outer loop
      vertex 60.000 194.106 8.194
      vertex 60.000 196.444 6.380
      vertex 60.000 196.156 6.144
    endloop
  endfacet
  facet normal 1.000000 0.000000 0.000000
    outer loop
      vertex 160.000 194.833 8.791
      vertex 160.000 194.106 8.194
      vertex 160.000 196.156 6.144
    endloop
  endfacet
  facet normal 1.000000 0.000000 0.000000
    outer loop
      vertex 160.000 194.833 8.791
      vertex 160.000 196.156 6.144
      vertex 160.000 196.444 6.380
    endloop
  endfacet
  facet normal 0.000000 0.773010 -0.634393
    outer loop
      vertex 60.000 194.106 8.194
      vertex 160.000 194.106 8.194
      vertex 160.000 193.509 7.467
    endloop
  endfacet
  facet normal 0.000000 0.773010 -0.634393
    outer loop
      vertex 60.000 194.106 8.194
      vertex 160.000 193.509 7.467
      vertex 60.000 193.509 7.467
    endloop
  endfacet
  facet normal 0.000000 -0.773010 0.634393
    outer loop
      vertex 60.000 195.920 5.856
      vertex 160.000 195.920 5.856
      vertex 160.000 196.156 6.144
    endloop
  endfacet
  facet normal 0.000000 -0.773010 0.634393
    outer loop
      vertex 60.000 195.920 5.856
      vertex 160.000 196.156 6.144
      vertex 60.000 196.156 6.144
    endloop
  endfacet
  facet normal -1.000000 0.000000 0.000000
    outer loop
      vertex 60.000 193.509 7.467
      vertex 60.000 194.106 8.194
      vertex 60.000 196.156 6.144
    endloop
  endfacet
  facet normal -1.000000 0.000000 0.000000
    outer loop
      vertex 60.000 193.509 7.467
      vertex 60.000 196.156 6.144
      vertex 60.000 195.920 5.856
    endloop
  endfacet
  facet normal 1.000000 0.000000 0.000000
    outer loop
      vertex 160.000 194.106 8.194
      vertex 160.000 193.509 7.467
      vertex 160.000 195.920 5.856
    endloop
  endfacet
  facet normal 1.000000 0.000000 0.000000
    outer loop
      vertex 160.000 194.106 8.194
      vertex 160.000 195.920 5.856
      vertex 160.000 196.156 6.144
    endloop
  endfacet
  facet normal 0.000000 0.881921 -0.471397
    outer loop
      vertex 60.000 193.509 7.467
      vertex 160.000 193.509 7.467
      vertex 160.000 193.065 6.637
    endloop
  endfacet
  facet normal 0.000000 0.881921 -0.471397
    outer loop
      vertex 60.000 193.509 7.467
      vertex 160.000 193.065 6.637
      vertex 60.000 193.065 6.637
    endloop
  endfacet
  facet normal 0.000000 -0.881921 0.471397
    outer loop
      vertex 60.000 195.745 5.527
      vertex 160.000 195.745 5.527
      vertex 160.000 195.920 5.856
    endloop
  endfacet
  facet normal 0.000000 -0.881921 0.471397
    outer loop
      vertex 60.000 195.745 5.527
      vertex 160.000 195.920 5.856
      vertex 60.000 195.920 5.856
    endloop
  endfacet
  facet normal -1.000000 0.000000 0.000000
    outer loop
      vertex 60.000 193.065 6.637
      vertex 60.000 193.509 7.467
      vertex 60.000 195.920 5.856
    endloop
  endfacet
  facet normal -1.000000 0.000000 0.000000
    outer loop
      vertex 60.000 193.065 6.637
      vertex 60.000 195.920 5.856
      vertex 60.000 195.745 5.527
    endloop
  endfacet
  facet normal 1.000000 0.000000 0.000000
    outer loop
      vertex 160.000 193.509 7.467
      vertex 160.000 193.065 6.637
      vertex 160.000 195.745 5.527
    endloop
  endfacet
  facet normal 1.000000 0.000000 0.000000
    outer loop
      vertex 160.000 193.509 7.467
      vertex 160.000 195.745 5.527
      vertex 160.000 195.920 5.856
    endloop
  endfacet
  facet normal 0.000000 0.956940 -0.290285
    outer loop
      vertex 60.000 193.065 6.637
      vertex 160.000 193.065 6.637
      vertex 160.000 192.792 5.736
    endloop
  endfacet
  facet normal 0.000000 0.956940 -0.290285
    outer loop
      vertex 60.000 193.065 6.637
      vertex 160.000 192.792 5.736
      vertex 60.000 192.792 5.736
    endloop
  endfacet
  facet normal 0.000000 -0.956940 0.290285
    outer loop
      vertex 60.000 195.637 5.171
      vertex 160.000 195.637 5.171
      vertex 160.000 195.745 5.527
    endloop
  endfacet
  facet normal 0.000000 -0.956940 0.290285
    outer loop
      vertex 60.000 195.637 5.171
      vertex 160.000 195.745 5.527
      vertex 60.000 195.745 5.527
    endloop
  endfacet
  facet normal -1.000000 0.000000 0.000000
    outer loop
      vertex 60.000 192.792 5.736
      vertex 60.000 193.065 6.637
      vertex 60.000 195.745 5.527
    endloop
  endfacet
  facet normal -1.000000 0.000000 0.000000
    outer loop
      vertex 60.000 192.792 5.736
      vertex 60.000 195.745 5.527
      vertex 60.000 195.637 5.171
    endloop
  endfacet
  facet normal 1.000000 0.000000 0.000000
    outer loop
      vertex 160.000 193.065 6.637
      vertex 160.000 192.792 5.736
      vertex 160.000 195.637 5.171
    endloop
  endfacet
  facet normal 1.000000 0.000000 0.000000
    outer loop
      vertex 160.000 193.065 6.637
      vertex 160.000 195.637 5.171
      vertex 160.000 195.745 5.527
    endloop
  endfacet
  facet normal 0.000000 0.995185 -0.098017
    outer loop
      vertex 60.000 192.792 5.736
      vertex 160.000 192.792 5.736
      vertex 160.000 192.700 4.800
    endloop
  endfacet
  facet normal 0.000000 0.995185 -0.098017
    outer loop
      vertex 60.000 192.792 5.736
      vertex 160.000 192.700 4.800
      vertex 60.000 192.700 4.800
    endloop
  endfacet
  facet normal 0.000000 -0.995185 0.098017
    outer loop
      vertex 60.000 195.600 4.800
      vertex 160.000 195.600 4.800
      vertex 160.000 195.637 5.171
    endloop
  endfacet
  facet normal 0.000000 -0.995185 0.098017
    outer loop
      vertex 60.000 195.600 4.800
      vertex 160.000 195.637 5.171
      vertex 60.000 195.637 5.171
    endloop
  endfacet
  facet normal -1.000000 0.000000 0.000000
    outer loop
      vertex 60.000 192.700 4.800
      vertex 60.000 192.792 5.736
      vertex 60.000 195.637 5.171
    endloop
  endfacet
  facet normal -1.000000 0.000000 0.000000
    outer loop
      vertex 60.000 192.700 4.800
      vertex 60.000 195.637 5.171
      vertex 60.000 195.600 4.800
    endloop
  endfacet
  facet normal 1.000000 0.000000 0.000000
    outer loop
      vertex 160.000 192.792 5.736
      vertex 160.000 192.700 4.800
      vertex 160.000 195.600 4.800
    endloop
  endfacet
  facet normal 1.000000 0.000000 0.000000
    outer loop
      vertex 160.000 192.792 5.736
      vertex 160.000 195.600 4.800
      vertex 160.000 195.637 5.171
    endloop
  endfacet
  facet normal 0.000000 0.995185 0.098017
    outer loop
      vertex 60.000 192.700 4.800
      vertex 160.000 192.700 4.800
      vertex 160.000 192.792 3.864
    endloop
  endfacet
  facet normal 0.000000 0.995185 0.098017
    outer loop
      vertex 60.000 192.700 4.800
      vertex 160.000 192.792 3.864
      vertex 60.000 192.792 3.864
    endloop
  endfacet
  facet normal 0.000000 -0.995185 -0.098017
    outer loop
      vertex 60.000 195.637 4.429
      vertex 160.000 195.637 4.429
      vertex 160.000 195.600 4.800
    endloop
  endfacet
  facet normal 0.000000 -0.995185 -0.098017
    outer loop
      vertex 60.000 195.637 4.429
      vertex 160.000 195.600 4.800
      vertex 60.000 195.600 4.800
    endloop
  endfacet
  facet normal -1.000000 0.000000 0.000000
    outer loop
      vertex 60.000 192.792 3.864
      vertex 60.000 192.700 4.800
      vertex 60.000 195.600 4.800
    endloop
  endfacet
  facet normal -1.000000 0.000000 0.000000
    outer loop
      vertex 60.000 192.792 3.864
      vertex 60.000 195.600 4.800
      vertex 60.000 195.637 4.429
    endloop
  endfacet
  facet normal 1.000000 0.000000 0.000000
    outer loop
      vertex 160.000 192.700 4.800
      vertex 160.000 192.792 3.864
      vertex 160.000 195.637 4.429
    endloop
  endfacet
  facet normal 1.000000 0.000000 0.000000
    outer loop
      vertex 160.000 192.700 4.800
      vertex 160.000 195.637 4.429
      vertex 160.000 195.600 4.800
    endloop
  endfacet
  facet normal 0.000000 0.956940 0.290285
    outer loop
      vertex 60.000 192.792 3.864
      vertex 160.000 192.792 3.864
      vertex 160.000 193.065 2.963
    endloop
  endfacet
  facet normal 0.000000 0.956940 0.290285
    outer loop
      vertex 60.000 192.792 3.864
      vertex 160.000 193.065 2.963
      vertex 60.000 193.065 2.963
    endloop
  endfacet
  facet normal 0.000000 -0.956940 -0.290285
    outer loop
      vertex 60.000 195.745 4.073
      vertex 160.000 195.745 4.073
      vertex 160.000 195.637 4.429
    endloop
  endfacet
  facet normal 0.000000 -0.956940 -0.290285
    outer loop
      vertex 60.000 195.745 4.073
      vertex 160.000 195.637 4.429
      vertex 60.000 195.637 4.429
    endloop
  endfacet
  facet normal -1.000000 0.000000 0.000000
    outer loop
      vertex 60.000 193.065 2.963
      vertex 60.000 192.792 3.864
      vertex 60.000 195.637 4.429
    endloop
  endfacet
  facet normal -1.000000 0.000000 0.000000
    outer loop
      vertex 60.000 193.065 2.963
      vertex 60.000 195.637 4.429
      vertex 60.000 195.745 4.073
    endloop
  endfacet
  facet normal 1.000000 0.000000 0.000000
    outer loop
      vertex 160.000 192.792 3.864
      vertex 160.000 193.065 2.963
      vertex 160.000 195.745 4.073
    endloop
  endfacet
  facet normal 1.000000 0.000000 0.000000
    outer loop
      vertex 160.000 192.792 3.864
      vertex 160.000 195.745 4.073
      vertex 160.000 195.637 4.429
    endloop
  endfacet
  facet normal 0.000000 0.881921 0.471397
    outer loop
      vertex 60.000 193.065 2.963
      vertex 160.000 193.065 2.963
      vertex 160.000 193.509 2.133
    endloop
  endfacet
  facet normal 0.000000 0.881921 0.471397
    outer loop
      vertex 60.000 193.065 2.963
      vertex 160.000 193.509 2.133
      vertex 60.000 193.509 2.133
    endloop
  endfacet
  facet normal 0.000000 -0.881921 -0.471397
    outer loop
      vertex 60.000 195.920 3.744
      vertex 160.000 195.920 3.744
      vertex 160.000 195.745 4.073
    endloop
  endfacet
  facet normal 0.000000 -0.881921 -0.471397
    outer loop
      vertex 60.000 195.920 3.744
      vertex 160.000 195.745 4.073
      vertex 60.000 195.745 4.073
    endloop
  endfacet
  facet normal -1.000000 0.000000 0.000000
    outer loop
      vertex 60.000 193.509 2.133
      vertex 60.000 193.065 2.963
      vertex 60.000 195.745 4.073
    endloop
  endfacet
  facet normal -1.000000 0.000000 0.000000
    outer loop
      vertex 60.000 193.509 2.133
      vertex 60.000 195.745 4.073
      vertex 60.000 195.920 3.744
    endloop
  endfacet
  facet normal 1.000000 0.000000 0.000000
    outer loop
      vertex 160.000 193.065 2.963
      vertex 160.000 193.509 2.133
      vertex 160.000 195.920 3.744
    endloop
  endfacet
  facet normal 1.000000 0.000000 0.000000
    outer loop
      vertex 160.000 193.065 2.963
      vertex 160.000 195.920 3.744
      vertex 160.000 195.745 4.073
    endloop
  endfacet
  facet normal 0.000000 0.773010 0.634393
    outer loop
      vertex 60.000 193.509 2.133
      vertex 160.000 193.509 2.133
      vertex 160.000 194.106 1.406
    endloop
  endfacet
  facet normal 0.000000 0.773010 0.634393
    outer loop
      vertex 60.000 193.509 2.133
      vertex 160.000 194.106 1.406
      vertex 60.000 194.106 1.406
    endloop
  endfacet
  facet normal 0.000000 -0.773010 -0.634393
    outer loop
      vertex 60.000 196.156 3.456
      vertex 160.000 196.156 3.456
      vertex 160.000 195.920 3.744
    endloop
  endfacet
  facet normal 0.000000 -0.773010 -0.634393
    outer loop
      vertex 60.000 196.156 3.456
      vertex 160.000 195.920 3.744
      vertex 60.000 195.920 3.744
    endloop
  endfacet
  facet normal -1.000000 0.000000 0.000000
    outer loop
      vertex 60.000 194.106 1.406
      vertex 60.000 193.509 2.133
      vertex 60.000 195.920 3.744
    endloop
  endfacet
  facet normal -1.000000 0.000000 0.000000
    outer loop
      vertex 60.000 194.106 1.406
      vertex 60.000 195.920 3.744
      vertex 60.000 196.156 3.456
    endloop
  endfacet
  facet normal 1.000000 0.000000 0.000000
    outer loop
      vertex 160.000 193.509 2.133
      vertex 160.000 194.106 1.406
      vertex 160.000 196.156 3.456
    endloop
  endfacet
  facet normal 1.000000 0.000000 0.000000
    outer loop
      vertex 160.000 193.509 2.133
      vertex 160.000 196.156 3.456
      vertex 160.000 195.920 3.744
    endloop
  endfacet
  facet normal 0.000000 0.634393 0.773010
    outer loop
      vertex 60.000 194.106 1.406
      vertex 160.000 194.106 1.406
      vertex 160.000 194.833 0.809
    endloop
  endfacet
  facet normal 0.000000 0.634393 0.773010
    outer loop
      vertex 60.000 194.106 1.406
      vertex 160.000 194.833 0.809
      vertex 60.000 194.833 0.809
    endloop
  endfacet
  facet normal 0.000000 -0.634393 -0.773010
    outer loop
      vertex 60.000 196.444 3.220
      vertex 160.000 196.444 3.220
      vertex 160.000 196.156 3.456
    endloop
  endfacet
  facet normal 0.000000 -0.634393 -0.773010
    outer loop
      vertex 60.000 196.444 3.220
      vertex 160.000 196.156 3.456
      vertex 60.000 196.156 3.456
    endloop
  endfacet
  facet normal -1.000000 0.000000 0.000000
    outer loop
      vertex 60.000 194.833 0.809
      vertex 60.000 194.106 1.406
      vertex 60.000 196.156 3.456
    endloop
  endfacet
  facet normal -1.000000 0.000000 0.000000
    outer loop
      vertex 60.000 194.833 0.809
      vertex 60.000 196.156 3.456
      vertex 60.000 196.444 3.220
    endloop
  endfacet
  facet normal 1.000000 0.000000 0.000000
    outer loop
      vertex 160.000 194.106 1.406
      vertex 160.000 194.833 0.809
      vertex 160.000 196.444 3.220
    endloop
  endfacet
  facet normal 1.000000 0.000000 0.000000
    outer loop
      vertex 160.000 194.106 1.406
      vertex 160.000 196.444 3.220
      vertex 160.000 196.156 3.456
    endloop
  endfacet
  facet normal 0.000000 0.471397 0.881921
    outer loop
      vertex 60.000 194.833 0.809
      vertex 160.000 194.833 0.809
      vertex 160.000 195.663 0.365
    endloop
  endfacet
  facet normal 0.000000 0.471397 0.881921
    outer loop
      vertex 60.000 194.833 0.809
      vertex 160.000 195.663 0.365
      vertex 60.000 195.663 0.365
    endloop
  endfacet
  facet normal 0.000000 -0.471397 -0.881921
    outer loop
      vertex 60.000 196.773 3.045
      vertex 160.000 196.773 3.045
      vertex 160.000 196.444 3.220
    endloop
  endfacet
  facet normal 0.000000 -0.471397 -0.881921
    outer loop
      vertex 60.000 196.773 3.045
      vertex 160.000 196.444 3.220
      vertex 60.000 196.444 3.220
    endloop
  endfacet
  facet normal -1.000000 0.000000 0.000000
    outer loop
      vertex 60.000 195.663 0.365
      vertex 60.000 194.833 0.809
      vertex 60.000 196.444 3.220
    endloop
  endfacet
  facet normal -1.000000 0.000000 0.000000
    outer loop
      vertex 60.000 195.663 0.365
      vertex 60.000 196.444 3.220
      vertex 60.000 196.773 3.045
    endloop
  endfacet
  facet normal 1.000000 0.000000 0.000000
    outer loop
      vertex 160.000 194.833 0.809
      vertex 160.000 195.663 0.365
      vertex 160.000 196.773 3.045
    endloop
  endfacet
  facet normal 1.000000 0.000000 0.000000
    outer loop
      vertex 160.000 194.833 0.809
      vertex 160.000 196.773 3.045
      vertex 160.000 196.444 3.220
    endloop
  endfacet
  facet normal 0.000000 0.290285 0.956940
    outer loop
      vertex 60.000 195.663 0.365
      vertex 160.000 195.663 0.365
      vertex 160.000 196.564 0.092
    endloop
  endfacet
  facet normal 0.000000 0.290285 0.956940
    outer loop
      vertex 60.000 195.663 0.365
      vertex 160.000 196.564 0.092
      vertex 60.000 196.564 0.092
    endloop
  endfacet
  facet normal 0.000000 -0.290285 -0.956940
    outer loop
      vertex 60.000 197.129 2.937
      vertex 160.000 197.129 2.937
      vertex 160.000 196.773 3.045
    endloop
  endfacet
  facet normal 0.000000 -0.290285 -0.956940
    outer loop
      vertex 60.000 197.129 2.937
      vertex 160.000 196.773 3.045
      vertex 60.000 196.773 3.045
    endloop
  endfacet
  facet normal -1.000000 0.000000 0.000000
    outer loop
      vertex 60.000 196.564 0.092
      vertex 60.000 195.663 0.365
      vertex 60.000 196.773 3.045
    endloop
  endfacet
  facet normal -1.000000 0.000000 0.000000
    outer loop
      vertex 60.000 196.564 0.092
      vertex 60.000 196.773 3.045
      vertex 60.000 197.129 2.937
    endloop
  endfacet
  facet normal 1.000000 0.000000 0.000000
    outer loop
      vertex 160.000 195.663 0.365
      vertex 160.000 196.564 0.092
      vertex 160.000 197.129 2.937
    endloop
  endfacet
  facet normal 1.000000 0.000000 0.000000
    outer loop
      vertex 160.000 195.663 0.365
      vertex 160.000 197.129 2.937
      vertex 160.000 196.773 3.045
    endloop
  endfacet
  facet normal 0.000000 0.098017 0.995185
    outer loop
      vertex 60.000 196.564 0.092
      vertex 160.000 196.564 0.092
      vertex 160.000 197.500 0.000
    endloop
  endfacet
  facet normal 0.000000 0.098017 0.995185
    outer loop
      vertex 60.000 196.564 0.092
      vertex 160.000 197.500 0.000
      vertex 60.000 197.500 0.000
    endloop
  endfacet
  facet normal 0.000000 -0.098017 -0.995185
    outer loop
      vertex 60.000 197.500 2.900
      vertex 160.000 197.500 2.900
      vertex 160.000 197.129 2.937
    endloop
  endfacet
  facet normal 0.000000 -0.098017 -0.995185
    outer loop
      vertex 60.000 197.500 2.900
      vertex 160.000 197.129 2.937
      vertex 60.000 197.129 2.937
    endloop
  endfacet
  facet normal -1.000000 0.000000 0.000000
    outer loop
      vertex 60.000 197.500 0.000
      vertex 60.000 196.564 0.092
      vertex 60.000 197.129 2.937
    endloop
  endfacet
  facet normal -1.000000 0.000000 0.000000
    outer loop
      vertex 60.000 197.500 0.000
      vertex 60.000 197.129 2.937
      vertex 60.000 197.500 2.900
    endloop
  endfacet
  facet normal 1.000000 0.000000 0.000000
    outer loop
      vertex 160.000 196.564 0.092
      vertex 160.000 197.500 0.000
      vertex 160.000 197.500 2.900
    endloop
  endfacet
  facet normal 1.000000 0.000000 0.000000
    outer loop
      vertex 160.000 196.564 0.092
      vertex 160.000 197.500 2.900
      vertex 160.000 197.129 2.937
    endloop
  endfacet
  facet normal 0.000000 -0.098017 0.995185
    outer loop
      vertex 60.000 197.500 0.000
      vertex 160.000 197.500 0.000
      vertex 160.000 198.436 0.092
    endloop
  endfacet
  facet normal 0.000000 -0.098017 0.995185
    outer loop
      vertex 60.000 197.500 0.000
      vertex 160.000 198.436 0.092
      vertex 60.000 198.436 0.092
    endloop
  endfacet
  facet normal 0.000000 0.098017 -0.995185
    outer loop
      vertex 60.000 197.871 2.937
      vertex 160.000 197.871 2.937
      vertex 160.000 197.500 2.900
    endloop
  endfacet
  facet normal 0.000000 0.098017 -0.995185
    outer loop
      vertex 60.000 197.871 2.937
      vertex 160.000 197.500 2.900
      vertex 60.000 197.500 2.900
    endloop
  endfacet
  facet normal -1.000000 0.000000 0.000000
    outer loop
      vertex 60.000 198.436 0.092
      vertex 60.000 197.500 0.000
      vertex 60.000 197.500 2.900
    endloop
  endfacet
  facet normal -1.000000 0.000000 0.000000
    outer loop
      vertex 60.000 198.436 0.092
      vertex 60.000 197.500 2.900
      vertex 60.000 197.871 2.937
    endloop
  endfacet
  facet normal 1.000000 0.000000 0.000000
    outer loop
      vertex 160.000 197.500 0.000
      vertex 160.000 198.436 0.092
      vertex 160.000 197.871 2.937
    endloop
  endfacet
  facet normal 1.000000 0.000000 0.000000
    outer loop
      vertex 160.000 197.500 0.000
      vertex 160.000 197.871 2.937
      vertex 160.000 197.500 2.900
    endloop
  endfacet
  facet normal 0.000000 -0.290285 0.956940
    outer loop
      vertex 60.000 198.436 0.092
      vertex 160.000 198.436 0.092
      vertex 160.000 199.337 0.365
    endloop
  endfacet
  facet normal 0.000000 -0.290285 0.956940
    outer loop
      vertex 60.000 198.436 0.092
      vertex 160.000 199.337 0.365
      vertex 60.000 199.337 0.365
    endloop
  endfacet
  facet normal 0.000000 0.290285 -0.956940
    outer loop
      vertex 60.000 198.227 3.045
      vertex 160.000 198.227 3.045
      vertex 160.000 197.871 2.937
    endloop
  endfacet
  facet normal 0.000000 0.290285 -0.956940
    outer loop
      vertex 60.000 198.227 3.045
      vertex 160.000 197.871 2.937
      vertex 60.000 197.871 2.937
    endloop
  endfacet
  facet normal -1.000000 0.000000 0.000000
    outer loop
      vertex 60.000 199.337 0.365
      vertex 60.000 198.436 0.092
      vertex 60.000 197.871 2.937
    endloop
  endfacet
  facet normal -1.000000 0.000000 0.000000
    outer loop
      vertex 60.000 199.337 0.365
      vertex 60.000 197.871 2.937
      vertex 60.000 198.227 3.045
    endloop
  endfacet
  facet normal 1.000000 0.000000 0.000000
    outer loop
      vertex 160.000 198.436 0.092
      vertex 160.000 199.337 0.365
      vertex 160.000 198.227 3.045
    endloop
  endfacet
  facet normal 1.000000 0.000000 0.000000
    outer loop
      vertex 160.000 198.436 0.092
      vertex 160.000 198.227 3.045
      vertex 160.000 197.871 2.937
    endloop
  endfacet
  facet normal 0.000000 -0.471397 0.881921
    outer loop
      vertex 60.000 199.337 0.365
      vertex 160.000 199.337 0.365
      vertex 160.000 200.167 0.809
    endloop
  endfacet
  facet normal 0.000000 -0.471397 0.881921
    outer loop
      vertex 60.000 199.337 0.365
      vertex 160.000 200.167 0.809
      vertex 60.000 200.167 0.809
    endloop
  endfacet
  facet normal 0.000000 0.471397 -0.881921
    outer loop
      vertex 60.000 198.556 3.220
      vertex 160.000 198.556 3.220
      vertex 160.000 198.227 3.045
    endloop
  endfacet
  facet normal 0.000000 0.471397 -0.881921
    outer loop
      vertex 60.000 198.556 3.220
      vertex 160.000 198.227 3.045
      vertex 60.000 198.227 3.045
    endloop
  endfacet
  facet normal -1.000000 0.000000 0.000000
    outer loop
      vertex 60.000 200.167 0.809
      vertex 60.000 199.337 0.365
      vertex 60.000 198.227 3.045
    endloop
  endfacet
  facet normal -1.000000 0.000000 0.000000
    outer loop
      vertex 60.000 200.167 0.809
      vertex 60.000 198.227 3.045
      vertex 60.000 198.556 3.220
    endloop
  endfacet
  facet normal 1.000000 0.000000 0.000000
    outer loop
      vertex 160.000 199.337 0.365
      vertex 160.000 200.167 0.809
      vertex 160.000 198.556 3.220
    endloop
  endfacet
  facet normal 1.000000 0.000000 0.000000
    outer loop
      vertex 160.000 199.337 0.365
      vertex 160.000 198.556 3.220
      vertex 160.000 198.227 3.045
    endloop
  endfacet
  facet normal 0.000000 -0.634393 0.773010
    outer loop
      vertex 60.000 200.167 0.809
      vertex 160.000 200.167 0.809
      vertex 160.000 200.894 1.406
    endloop
  endfacet
  facet normal 0.000000 -0.634393 0.773010
    outer loop
      vertex 60.000 200.167 0.809
      vertex 160.000 200.894 1.406
      vertex 60.000 200.894 1.406
    endloop
  endfacet
  facet normal 0.000000 0.634393 -0.773010
    outer loop
      vertex 60.000 198.844 3.456
      vertex 160.000 198.844 3.456
      vertex 160.000 198.556 3.220
    endloop
  endfacet
  facet normal 0.000000 0.634393 -0.773010
    outer loop
      vertex 60.000 198.844 3.456
      vertex 160.000 198.556 3.220
      vertex 60.000 198.556 3.220
    endloop
  endfacet
  facet normal -1.000000 0.000000 0.000000
    outer loop
      vertex 60.000 200.894 1.406
      vertex 60.000 200.167 0.809
      vertex 60.000 198.556 3.220
    endloop
  endfacet
  facet normal -1.000000 0.000000 0.000000
    outer loop
      vertex 60.000 200.894 1.406
      vertex 60.000 198.556 3.220
      vertex 60.000 198.844 3.456
    endloop
  endfacet
  facet normal 1.000000 0.000000 0.000000
    outer loop
      vertex 160.000 200.167 0.809
      vertex 160.000 200.894 1.406
      vertex 160.000 198.844 3.456
    endloop
  endfacet
  facet normal 1.000000 0.000000 0.000000
    outer loop
      vertex 160.000 200.167 0.809
      vertex 160.000 198.844 3.456
      vertex 160.000 198.556 3.220
    endloop
  endfacet
  facet normal 0.000000 -0.773010 0.634393
    outer loop
      vertex 60.000 200.894 1.406
      vertex 160.000 200.894 1.406
      vertex 160.000 201.491 2.133
    endloop
  endfacet
  facet normal 0.000000 -0.773010 0.634393
    outer loop
      vertex 60.000 200.894 1.406
      vertex 160.000 201.491 2.133
      vertex 60.000 201.491 2.133
    endloop
  endfacet
  facet normal 0.000000 0.773010 -0.634393
    outer loop
      vertex 60.000 199.080 3.744
      vertex 160.000 199.080 3.744
      vertex 160.000 198.844 3.456
    endloop
  endfacet
  facet normal 0.000000 0.773010 -0.634393
    outer loop
      vertex 60.000 199.080 3.744
      vertex 160.000 198.844 3.456
      vertex 60.000 198.844 3.456
    endloop
  endfacet
  facet normal -1.000000 0.000000 0.000000
    outer loop
      vertex 60.000 201.491 2.133
      vertex 60.000 200.894 1.406
      vertex 60.000 198.844 3.456
    endloop
  endfacet
  facet normal -1.000000 0.000000 0.000000
    outer loop
      vertex 60.000 201.491 2.133
      vertex 60.000 198.844 3.456
      vertex 60.000 199.080 3.744
    endloop
  endfacet
  facet normal 1.000000 0.000000 0.000000
    outer loop
      vertex 160.000 200.894 1.406
      vertex 160.000 201.491 2.133
      vertex 160.000 199.080 3.744
    endloop
  endfacet
  facet normal 1.000000 0.000000 0.000000
    outer loop
      vertex 160.000 200.894 1.406
      vertex 160.000 199.080 3.744
      vertex 160.000 198.844 3.456
    endloop
  endfacet
  facet normal 0.000000 -0.881921 0.471397
    outer loop
      vertex 60.000 201.491 2.133
      vertex 160.000 201.491 2.133
      vertex 160.000 201.935 2.963
    endloop
  endfacet
  facet normal 0.000000 -0.881921 0.471397
    outer loop
      vertex 60.000 201.491 2.133
      vertex 160.000 201.935 2.963
      vertex 60.000 201.935 2.963
    endloop
  endfacet
  facet normal 0.000000 0.881921 -0.471397
    outer loop
      vertex 60.000 199.255 4.073
      vertex 160.000 199.255 4.073
      vertex 160.000 199.080 3.744
    endloop
  endfacet
  facet normal 0.000000 0.881921 -0.471397
    outer loop
      vertex 60.000 199.255 4.073
      vertex 160.000 199.080 3.744
      vertex 60.000 199.080 3.744
    endloop
  endfacet
  facet normal -1.000000 0.000000 0.000000
    outer loop
      vertex 60.000 201.935 2.963
      vertex 60.000 201.491 2.133
      vertex 60.000 199.080 3.744
    endloop
  endfacet
  facet normal -1.000000 0.000000 0.000000
    outer loop
      vertex 60.000 201.935 2.963
      vertex 60.000 199.080 3.744
      vertex 60.000 199.255 4.073
    endloop
  endfacet
  facet normal 1.000000 0.000000 0.000000
    outer loop
      vertex 160.000 201.491 2.133
      vertex 160.000 201.935 2.963
      vertex 160.000 199.255 4.073
    endloop
  endfacet
  facet normal 1.000000 0.000000 0.000000
    outer loop
      vertex 160.000 201.491 2.133
      vertex 160.000 199.255 4.073
      vertex 160.000 199.080 3.744
    endloop
  endfacet
  facet normal 0.000000 -0.956940 0.290285
    outer loop
      vertex 60.000 201.935 2.963
      vertex 160.000 201.935 2.963
      vertex 160.000 202.208 3.864
    endloop
  endfacet
  facet normal 0.000000 -0.956940 0.290285
    outer loop
      vertex 60.000 201.935 2.963
      vertex 160.000 202.208 3.864
      vertex 60.000 202.208 3.864
    endloop
  endfacet
  facet normal 0.000000 0.956940 -0.290285
    outer loop
      vertex 60.000 199.363 4.429
      vertex 160.000 199.363 4.429
      vertex 160.000 199.255 4.073
    endloop
  endfacet
  facet normal 0.000000 0.956940 -0.290285
    outer loop
      vertex 60.000 199.363 4.429
      vertex 160.000 199.255 4.073
      vertex 60.000 199.255 4.073
    endloop
  endfacet
  facet normal -1.000000 0.000000 0.000000
    outer loop
      vertex 60.000 202.208 3.864
      vertex 60.000 201.935 2.963
      vertex 60.000 199.255 4.073
    endloop
  endfacet
  facet normal -1.000000 0.000000 0.000000
    outer loop
      vertex 60.000 202.208 3.864
      vertex 60.000 199.255 4.073
      vertex 60.000 199.363 4.429
    endloop
  endfacet
  facet normal 1.000000 0.000000 0.000000
    outer loop
      vertex 160.000 201.935 2.963
      vertex 160.000 202.208 3.864
      vertex 160.000 199.363 4.429
    endloop
  endfacet
  facet normal 1.000000 0.000000 0.000000
    outer loop
      vertex 160.000 201.935 2.963
      vertex 160.000 199.363 4.429
      vertex 160.000 199.255 4.073
    endloop
  endfacet
  facet normal 0.000000 -0.995185 0.098017
    outer loop
      vertex 60.000 202.208 3.864
      vertex 160.000 202.208 3.864
      vertex 160.000 202.300 4.800
    endloop
  endfacet
  facet normal 0.000000 -0.995185 0.098017
    outer loop
      vertex 60.000 202.208 3.864
      vertex 160.000 202.300 4.800
      vertex 60.000 202.300 4.800
    endloop
  endfacet
  facet normal 0.000000 0.995185 -0.098017
    outer loop
      vertex 60.000 199.400 4.800
      vertex 160.000 199.400 4.800
      vertex 160.000 199.363 4.429
    endloop
  endfacet
  facet normal 0.000000 0.995185 -0.098017
    outer loop
      vertex 60.000 199.400 4.800
      vertex 160.000 199.363 4.429
      vertex 60.000 199.363 4.429
    endloop
  endfacet
  facet normal -1.000000 0.000000 0.000000
    outer loop
      vertex 60.000 202.300 4.800
      vertex 60.000 202.208 3.864
      vertex 60.000 199.363 4.429
    endloop
  endfacet
  facet normal -1.000000 0.000000 0.000000
    outer loop
      vertex 60.000 202.300 4.800
      vertex 60.000 199.363 4.429
      vertex 60.000 199.400 4.800
    endloop
  endfacet
  facet normal 1.000000 0.000000 0.000000
    outer loop
      vertex 160.000 202.208 3.864
      vertex 160.000 202.300 4.800
      vertex 160.000 199.400 4.800
    endloop
  endfacet
  facet normal 1.000000 0.000000 0.000000
    outer loop
      vertex 160.000 202.208 3.864
      vertex 160.000 199.400 4.800
      vertex 160.000 199.363 4.429
    endloop
  endfacet
  facet normal 0.000000 0.000000 1.000000
    outer loop
      vertex 56.000 193.500 0.300
      vertex 164.000 193.500 0.300
      vertex 164.000 199.500 0.300
    endloop
  endfacet
  facet normal 0.000000 0.000000 1.000000
    outer loop
      vertex 56.000 193.500 0.300
      vertex 164.000 199.500 0.300
      vertex 56.000 199.500 0.300
    endloop
  endfacet
  facet normal 0.000000 0.000000 -1.000000
    outer loop
      vertex 56.000 193.500 3.100
      vertex 56.000 199.500 3.100
      vertex 164.000 199.500 3.100
    endloop
  endfacet
  facet normal 0.000000 0.000000 -1.000000
    outer loop
      vertex 56.000 193.500 3.100
      vertex 164.000 199.500 3.100
      vertex 164.000 193.500 3.100
    endloop
  endfacet
  facet normal 0.000000 1.000000 0.000000
    outer loop
      vertex 56.000 193.500 0.300
      vertex 56.000 193.500 3.100
      vertex 164.000 193.500 3.100
    endloop
  endfacet
  facet normal 0.000000 1.000000 0.000000
    outer loop
      vertex 56.000 193.500 0.300
      vertex 164.000 193.500 3.100
      vertex 164.000 193.500 0.300
    endloop
  endfacet
  facet normal -1.000000 0.000000 0.000000
    outer loop
      vertex 164.000 193.500 0.300
      vertex 164.000 193.500 3.100
      vertex 164.000 199.500 3.100
    endloop
  endfacet
  facet normal -1.000000 0.000000 0.000000
    outer loop
      vertex 164.000 193.500 0.300
      vertex 164.000 199.500 3.100
      vertex 164.000 199.500 0.300
    endloop
  endfacet
  facet normal 0.000000 -1.000000 0.000000
    outer loop
      vertex 164.000 199.500 0.300
      vertex 164.000 199.500 3.100
      vertex 56.000 199.500 3.100
    endloop
  endfacet
  facet normal 0.000000 -1.000000 0.000000
    outer loop
      vertex 164.000 199.500 0.300
      vertex 56.000 199.500 3.100
      vertex 56.000 199.500 0.300
    endloop
  endfacet
  facet normal 1.000000 0.000000 0.000000
    outer loop
      vertex 56.000 199.500 0.300
      vertex 56.000 199.500 3.100
      vertex 56.000 193.500 3.100
    endloop
  endfacet
  facet normal 1.000000 0.000000 0.000000
    outer loop
      vertex 56.000 199.500 0.300
      vertex 56.000 193.500 3.100
      vertex 56.000 193.500 0.300
    endloop
  endfacet
  facet normal 0.000000 0.000000 1.000000
    outer loop
      vertex 76.000 16.000 0.300
      vertex 144.000 16.000 0.300
      vertex 144.000 26.000 0.300
    endloop
  endfacet
  facet normal 0.000000 0.000000 1.000000
    outer loop
      vertex 76.000 16.000 0.300
      vertex 144.000 26.000 0.300
      vertex 76.000 26.000 0.300
    endloop
  endfacet
  facet normal 0.000000 0.000000 -1.000000
    outer loop
      vertex 76.000 16.000 1.500
      vertex 76.000 26.000 1.500
      vertex 144.000 26.000 1.500
    endloop
  endfacet
  facet normal 0.000000 0.000000 -1.000000
    outer loop
      vertex 76.000 16.000 1.500
      vertex 144.000 26.000 1.500
      vertex 144.000 16.000 1.500
    endloop
  endfacet
  facet normal 0.000000 1.000000 0.000000
    outer loop
      vertex 76.000 16.000 0.300
      vertex 76.000 16.000 1.500
      vertex 144.000 16.000 1.500
    endloop
  endfacet
  facet normal 0.000000 1.000000 0.000000
    outer loop
      vertex 76.000 16.000 0.300
      vertex 144.000 16.000 1.500
      vertex 144.000 16.000 0.300
    endloop
  endfacet
  facet normal -1.000000 0.000000 0.000000
    outer loop
      vertex 144.000 16.000 0.300
      vertex 144.000 16.000 1.500
      vertex 144.000 26.000 1.500
    endloop
  endfacet
  facet normal -1.000000 0.000000 0.000000
    outer loop
      vertex 144.000 16.000 0.300
      vertex 144.000 26.000 1.500
      vertex 144.000 26.000 0.300
    endloop
  endfacet
  facet normal 0.000000 -1.000000 0.000000
    outer loop
      vertex 144.000 26.000 0.300
      vertex 144.000 26.000 1.500
      vertex 76.000 26.000 1.500
    endloop
  endfacet
  facet normal 0.000000 -1.000000 0.000000
    outer loop
      vertex 144.000 26.000 0.300
      vertex 76.000 26.000 1.500
      vertex 76.000 26.000 0.300
    endloop
  endfacet
  facet normal 1.000000 0.000000 0.000000
    outer loop
      vertex 76.000 26.000 0.300
      vertex 76.000 26.000 1.500
      vertex 76.000 16.000 1.500
    endloop
  endfacet
  facet normal 1.000000 0.000000 0.000000
    outer loop
      vertex 76.000 26.000 0.300
      vertex 76.000 16.000 1.500
      vertex 76.000 16.000 0.300
    endloop
  endfacet
  facet normal 0.000000 0.000000 1.000000
    outer loop
      vertex 84.000 17.000 0.300
      vertex 136.000 17.000 0.300
      vertex 136.000 25.000 0.300
    endloop
  endfacet
  facet normal 0.000000 0.000000 1.000000
    outer loop
      vertex 84.000 17.000 0.300
      vertex 136.000 25.000 0.300
      vertex 84.000 25.000 0.300
    endloop
  endfacet
  facet normal 0.000000 0.000000 -1.000000
    outer loop
      vertex 84.000 17.000 4.300
      vertex 84.000 25.000 4.300
      vertex 136.000 25.000 4.300
    endloop
  endfacet
  facet normal 0.000000 0.000000 -1.000000
    outer loop
      vertex 84.000 17.000 4.300
      vertex 136.000 25.000 4.300
      vertex 136.000 17.000 4.300
    endloop
  endfacet
  facet normal 0.000000 1.000000 0.000000
    outer loop
      vertex 84.000 17.000 0.300
      vertex 84.000 17.000 4.300
      vertex 136.000 17.000 4.300
    endloop
  endfacet
  facet normal 0.000000 1.000000 0.000000
    outer loop
      vertex 84.000 17.000 0.300
      vertex 136.000 17.000 4.300
      vertex 136.000 17.000 0.300
    endloop
  endfacet
  facet normal -1.000000 0.000000 0.000000
    outer loop
      vertex 136.000 17.000 0.300
      vertex 136.000 17.000 4.300
      vertex 136.000 25.000 4.300
    endloop
  endfacet
  facet normal -1.000000 0.000000 0.000000
    outer loop
      vertex 136.000 17.000 0.300
      vertex 136.000 25.000 4.300
      vertex 136.000 25.000 0.300
    endloop
  endfacet
  facet normal 0.000000 -1.000000 0.000000
    outer loop
      vertex 136.000 25.000 0.300
      vertex 136.000 25.000 4.300
      vertex 84.000 25.000 4.300
    endloop
  endfacet
  facet normal 0.000000 -1.000000 0.000000
    outer loop
      vertex 136.000 25.000 0.300
      vertex 84.000 25.000 4.300
      vertex 84.000 25.000 0.300
    endloop
  endfacet
  facet normal 1.000000 0.000000 0.000000
    outer loop
      vertex 84.000 25.000 0.300
      vertex 84.000 25.000 4.300
      vertex 84.000 17.000 4.300
    endloop
  endfacet
  facet normal 1.000000 0.000000 0.000000
    outer loop
      vertex 84.000 25.000 0.300
      vertex 84.000 17.000 4.300
      vertex 84.000 17.000 0.300
    endloop
  endfacet
endsolid food_caddy_k1se_flip_lid_216mm_bed_centered
