solid food_caddy_k1se_hinge_retainer_collar_spare_v2
  facet normal -0.098017 -0.995185 -0.000000
    outer loop
      vertex 3.800 3.800 8.000
      vertex 3.800 3.800 0.000
      vertex 4.541 3.727 0.000
    endloop
  endfacet
  facet normal -0.098017 -0.995185 0.000000
    outer loop
      vertex 3.800 3.800 8.000
      vertex 4.541 3.727 0.000
      vertex 4.541 3.727 8.000
    endloop
  endfacet
  facet normal 0.098017 0.995185 0.000000
    outer loop
      vertex 4.083 1.422 8.000
      vertex 4.083 1.422 0.000
      vertex 3.800 1.450 0.000
    endloop
  endfacet
  facet normal 0.098017 0.995185 0.000000
    outer loop
      vertex 4.083 1.422 8.000
      vertex 3.800 1.450 0.000
      vertex 3.800 1.450 8.000
    endloop
  endfacet
  facet normal 0.000000 0.000000 1.000000
    outer loop
      vertex 4.541 3.727 8.000
      vertex 3.800 3.800 8.000
      vertex 3.800 1.450 8.000
    endloop
  endfacet
  facet normal 0.000000 0.000000 1.000000
    outer loop
      vertex 4.541 3.727 8.000
      vertex 3.800 1.450 8.000
      vertex 4.083 1.422 8.000
    endloop
  endfacet
  facet normal 0.000000 0.000000 -1.000000
    outer loop
      vertex 3.800 3.800 0.000
      vertex 4.541 3.727 0.000
      vertex 4.083 1.422 0.000
    endloop
  endfacet
  facet normal 0.000000 0.000000 -1.000000
    outer loop
      vertex 3.800 3.800 0.000
      vertex 4.083 1.422 0.000
      vertex 3.800 1.450 0.000
    endloop
  endfacet
  facet normal -0.290285 -0.956940 0.000000
    outer loop
      vertex 4.541 3.727 8.000
      vertex 4.541 3.727 0.000
      vertex 5.254 3.511 0.000
    endloop
  endfacet
  facet normal -0.290285 -0.956940 0.000000
    outer loop
      vertex 4.541 3.727 8.000
      vertex 5.254 3.511 0.000
      vertex 5.254 3.511 8.000
    endloop
  endfacet
  facet normal 0.290285 0.956940 0.000000
    outer loop
      vertex 4.355 1.340 8.000
      vertex 4.355 1.340 0.000
      vertex 4.083 1.422 0.000
    endloop
  endfacet
  facet normal 0.290285 0.956940 0.000000
    outer loop
      vertex 4.355 1.340 8.000
      vertex 4.083 1.422 0.000
      vertex 4.083 1.422 8.000
    endloop
  endfacet
  facet normal 0.000000 0.000000 1.000000
    outer loop
      vertex 5.254 3.511 8.000
      vertex 4.541 3.727 8.000
      vertex 4.083 1.422 8.000
    endloop
  endfacet
  facet normal 0.000000 0.000000 1.000000
    outer loop
      vertex 5.254 3.511 8.000
      vertex 4.083 1.422 8.000
      vertex 4.355 1.340 8.000
    endloop
  endfacet
  facet normal 0.000000 0.000000 -1.000000
    outer loop
      vertex 4.541 3.727 0.000
      vertex 5.254 3.511 0.000
      vertex 4.355 1.340 0.000
    endloop
  endfacet
  facet normal 0.000000 0.000000 -1.000000
    outer loop
      vertex 4.541 3.727 0.000
      vertex 4.355 1.340 0.000
      vertex 4.083 1.422 0.000
    endloop
  endfacet
  facet normal -0.471397 -0.881921 0.000000
    outer loop
      vertex 5.254 3.511 8.000
      vertex 5.254 3.511 0.000
      vertex 5.911 3.160 0.000
    endloop
  endfacet
  facet normal -0.471397 -0.881921 0.000000
    outer loop
      vertex 5.254 3.511 8.000
      vertex 5.911 3.160 0.000
      vertex 5.911 3.160 8.000
    endloop
  endfacet
  facet normal 0.471397 0.881921 0.000000
    outer loop
      vertex 4.606 1.206 8.000
      vertex 4.606 1.206 0.000
      vertex 4.355 1.340 0.000
    endloop
  endfacet
  facet normal 0.471397 0.881921 0.000000
    outer loop
      vertex 4.606 1.206 8.000
      vertex 4.355 1.340 0.000
      vertex 4.355 1.340 8.000
    endloop
  endfacet
  facet normal 0.000000 0.000000 1.000000
    outer loop
      vertex 5.911 3.160 8.000
      vertex 5.254 3.511 8.000
      vertex 4.355 1.340 8.000
    endloop
  endfacet
  facet normal 0.000000 0.000000 1.000000
    outer loop
      vertex 5.911 3.160 8.000
      vertex 4.355 1.340 8.000
      vertex 4.606 1.206 8.000
    endloop
  endfacet
  facet normal 0.000000 0.000000 -1.000000
    outer loop
      vertex 5.254 3.511 0.000
      vertex 5.911 3.160 0.000
      vertex 4.606 1.206 0.000
    endloop
  endfacet
  facet normal 0.000000 0.000000 -1.000000
    outer loop
      vertex 5.254 3.511 0.000
      vertex 4.606 1.206 0.000
      vertex 4.355 1.340 0.000
    endloop
  endfacet
  facet normal -0.634393 -0.773010 0.000000
    outer loop
      vertex 5.911 3.160 8.000
      vertex 5.911 3.160 0.000
      vertex 6.487 2.687 0.000
    endloop
  endfacet
  facet normal -0.634393 -0.773010 0.000000
    outer loop
      vertex 5.911 3.160 8.000
      vertex 6.487 2.687 0.000
      vertex 6.487 2.687 8.000
    endloop
  endfacet
  facet normal 0.634393 0.773010 0.000000
    outer loop
      vertex 4.825 1.025 8.000
      vertex 4.825 1.025 0.000
      vertex 4.606 1.206 0.000
    endloop
  endfacet
  facet normal 0.634393 0.773010 0.000000
    outer loop
      vertex 4.825 1.025 8.000
      vertex 4.606 1.206 0.000
      vertex 4.606 1.206 8.000
    endloop
  endfacet
  facet normal 0.000000 0.000000 1.000000
    outer loop
      vertex 6.487 2.687 8.000
      vertex 5.911 3.160 8.000
      vertex 4.606 1.206 8.000
    endloop
  endfacet
  facet normal 0.000000 0.000000 1.000000
    outer loop
      vertex 6.487 2.687 8.000
      vertex 4.606 1.206 8.000
      vertex 4.825 1.025 8.000
    endloop
  endfacet
  facet normal 0.000000 0.000000 -1.000000
    outer loop
      vertex 5.911 3.160 0.000
      vertex 6.487 2.687 0.000
      vertex 4.825 1.025 0.000
    endloop
  endfacet
  facet normal 0.000000 0.000000 -1.000000
    outer loop
      vertex 5.911 3.160 0.000
      vertex 4.825 1.025 0.000
      vertex 4.606 1.206 0.000
    endloop
  endfacet
  facet normal -0.773010 -0.634393 0.000000
    outer loop
      vertex 6.487 2.687 8.000
      vertex 6.487 2.687 0.000
      vertex 6.960 2.111 0.000
    endloop
  endfacet
  facet normal -0.773010 -0.634393 0.000000
    outer loop
      vertex 6.487 2.687 8.000
      vertex 6.960 2.111 0.000
      vertex 6.960 2.111 8.000
    endloop
  endfacet
  facet normal 0.773010 0.634393 0.000000
    outer loop
      vertex 5.006 0.806 8.000
      vertex 5.006 0.806 0.000
      vertex 4.825 1.025 0.000
    endloop
  endfacet
  facet normal 0.773010 0.634393 0.000000
    outer loop
      vertex 5.006 0.806 8.000
      vertex 4.825 1.025 0.000
      vertex 4.825 1.025 8.000
    endloop
  endfacet
  facet normal 0.000000 0.000000 1.000000
    outer loop
      vertex 6.960 2.111 8.000
      vertex 6.487 2.687 8.000
      vertex 4.825 1.025 8.000
    endloop
  endfacet
  facet normal 0.000000 0.000000 1.000000
    outer loop
      vertex 6.960 2.111 8.000
      vertex 4.825 1.025 8.000
      vertex 5.006 0.806 8.000
    endloop
  endfacet
  facet normal 0.000000 0.000000 -1.000000
    outer loop
      vertex 6.487 2.687 0.000
      vertex 6.960 2.111 0.000
      vertex 5.006 0.806 0.000
    endloop
  endfacet
  facet normal 0.000000 0.000000 -1.000000
    outer loop
      vertex 6.487 2.687 0.000
      vertex 5.006 0.806 0.000
      vertex 4.825 1.025 0.000
    endloop
  endfacet
  facet normal -0.881921 -0.471397 0.000000
    outer loop
      vertex 6.960 2.111 8.000
      vertex 6.960 2.111 0.000
      vertex 7.311 1.454 0.000
    endloop
  endfacet
  facet normal -0.881921 -0.471397 0.000000
    outer loop
      vertex 6.960 2.111 8.000
      vertex 7.311 1.454 0.000
      vertex 7.311 1.454 8.000
    endloop
  endfacet
  facet normal 0.881921 0.471397 0.000000
    outer loop
      vertex 5.140 0.555 8.000
      vertex 5.140 0.555 0.000
      vertex 5.006 0.806 0.000
    endloop
  endfacet
  facet normal 0.881921 0.471397 0.000000
    outer loop
      vertex 5.140 0.555 8.000
      vertex 5.006 0.806 0.000
      vertex 5.006 0.806 8.000
    endloop
  endfacet
  facet normal 0.000000 0.000000 1.000000
    outer loop
      vertex 7.311 1.454 8.000
      vertex 6.960 2.111 8.000
      vertex 5.006 0.806 8.000
    endloop
  endfacet
  facet normal 0.000000 0.000000 1.000000
    outer loop
      vertex 7.311 1.454 8.000
      vertex 5.006 0.806 8.000
      vertex 5.140 0.555 8.000
    endloop
  endfacet
  facet normal 0.000000 0.000000 -1.000000
    outer loop
      vertex 6.960 2.111 0.000
      vertex 7.311 1.454 0.000
      vertex 5.140 0.555 0.000
    endloop
  endfacet
  facet normal 0.000000 0.000000 -1.000000
    outer loop
      vertex 6.960 2.111 0.000
      vertex 5.140 0.555 0.000
      vertex 5.006 0.806 0.000
    endloop
  endfacet
  facet normal -0.956940 -0.290285 0.000000
    outer loop
      vertex 7.311 1.454 8.000
      vertex 7.311 1.454 0.000
      vertex 7.527 0.741 0.000
    endloop
  endfacet
  facet normal -0.956940 -0.290285 0.000000
    outer loop
      vertex 7.311 1.454 8.000
      vertex 7.527 0.741 0.000
      vertex 7.527 0.741 8.000
    endloop
  endfacet
  facet normal 0.956940 0.290285 0.000000
    outer loop
      vertex 5.222 0.283 8.000
      vertex 5.222 0.283 0.000
      vertex 5.140 0.555 0.000
    endloop
  endfacet
  facet normal 0.956940 0.290285 0.000000
    outer loop
      vertex 5.222 0.283 8.000
      vertex 5.140 0.555 0.000
      vertex 5.140 0.555 8.000
    endloop
  endfacet
  facet normal 0.000000 0.000000 1.000000
    outer loop
      vertex 7.527 0.741 8.000
      vertex 7.311 1.454 8.000
      vertex 5.140 0.555 8.000
    endloop
  endfacet
  facet normal 0.000000 0.000000 1.000000
    outer loop
      vertex 7.527 0.741 8.000
      vertex 5.140 0.555 8.000
      vertex 5.222 0.283 8.000
    endloop
  endfacet
  facet normal 0.000000 0.000000 -1.000000
    outer loop
      vertex 7.311 1.454 0.000
      vertex 7.527 0.741 0.000
      vertex 5.222 0.283 0.000
    endloop
  endfacet
  facet normal 0.000000 0.000000 -1.000000
    outer loop
      vertex 7.311 1.454 0.000
      vertex 5.222 0.283 0.000
      vertex 5.140 0.555 0.000
    endloop
  endfacet
  facet normal -0.995185 -0.098017 0.000000
    outer loop
      vertex 7.527 0.741 8.000
      vertex 7.527 0.741 0.000
      vertex 7.600 0.000 0.000
    endloop
  endfacet
  facet normal -0.995185 -0.098017 0.000000
    outer loop
      vertex 7.527 0.741 8.000
      vertex 7.600 0.000 0.000
      vertex 7.600 0.000 8.000
    endloop
  endfacet
  facet normal 0.995185 0.098017 0.000000
    outer loop
      vertex 5.250 0.000 8.000
      vertex 5.250 0.000 0.000
      vertex 5.222 0.283 0.000
    endloop
  endfacet
  facet normal 0.995185 0.098017 0.000000
    outer loop
      vertex 5.250 0.000 8.000
      vertex 5.222 0.283 0.000
      vertex 5.222 0.283 8.000
    endloop
  endfacet
  facet normal 0.000000 0.000000 1.000000
    outer loop
      vertex 7.600 0.000 8.000
      vertex 7.527 0.741 8.000
      vertex 5.222 0.283 8.000
    endloop
  endfacet
  facet normal 0.000000 0.000000 1.000000
    outer loop
      vertex 7.600 0.000 8.000
      vertex 5.222 0.283 8.000
      vertex 5.250 0.000 8.000
    endloop
  endfacet
  facet normal 0.000000 0.000000 -1.000000
    outer loop
      vertex 7.527 0.741 0.000
      vertex 7.600 0.000 0.000
      vertex 5.250 0.000 0.000
    endloop
  endfacet
  facet normal 0.000000 0.000000 -1.000000
    outer loop
      vertex 7.527 0.741 0.000
      vertex 5.250 0.000 0.000
      vertex 5.222 0.283 0.000
    endloop
  endfacet
  facet normal -0.995185 0.098017 0.000000
    outer loop
      vertex 7.600 0.000 8.000
      vertex 7.600 0.000 0.000
      vertex 7.527 -0.741 0.000
    endloop
  endfacet
  facet normal -0.995185 0.098017 0.000000
    outer loop
      vertex 7.600 0.000 8.000
      vertex 7.527 -0.741 0.000
      vertex 7.527 -0.741 8.000
    endloop
  endfacet
  facet normal 0.995185 -0.098017 0.000000
    outer loop
      vertex 5.222 -0.283 8.000
      vertex 5.222 -0.283 0.000
      vertex 5.250 0.000 0.000
    endloop
  endfacet
  facet normal 0.995185 -0.098017 0.000000
    outer loop
      vertex 5.222 -0.283 8.000
      vertex 5.250 0.000 0.000
      vertex 5.250 0.000 8.000
    endloop
  endfacet
  facet normal 0.000000 0.000000 1.000000
    outer loop
      vertex 7.527 -0.741 8.000
      vertex 7.600 0.000 8.000
      vertex 5.250 0.000 8.000
    endloop
  endfacet
  facet normal 0.000000 0.000000 1.000000
    outer loop
      vertex 7.527 -0.741 8.000
      vertex 5.250 0.000 8.000
      vertex 5.222 -0.283 8.000
    endloop
  endfacet
  facet normal 0.000000 0.000000 -1.000000
    outer loop
      vertex 7.600 0.000 0.000
      vertex 7.527 -0.741 0.000
      vertex 5.222 -0.283 0.000
    endloop
  endfacet
  facet normal 0.000000 0.000000 -1.000000
    outer loop
      vertex 7.600 0.000 0.000
      vertex 5.222 -0.283 0.000
      vertex 5.250 0.000 0.000
    endloop
  endfacet
  facet normal -0.956940 0.290285 0.000000
    outer loop
      vertex 7.527 -0.741 8.000
      vertex 7.527 -0.741 0.000
      vertex 7.311 -1.454 0.000
    endloop
  endfacet
  facet normal -0.956940 0.290285 0.000000
    outer loop
      vertex 7.527 -0.741 8.000
      vertex 7.311 -1.454 0.000
      vertex 7.311 -1.454 8.000
    endloop
  endfacet
  facet normal 0.956940 -0.290285 0.000000
    outer loop
      vertex 5.140 -0.555 8.000
      vertex 5.140 -0.555 0.000
      vertex 5.222 -0.283 0.000
    endloop
  endfacet
  facet normal 0.956940 -0.290285 0.000000
    outer loop
      vertex 5.140 -0.555 8.000
      vertex 5.222 -0.283 0.000
      vertex 5.222 -0.283 8.000
    endloop
  endfacet
  facet normal 0.000000 0.000000 1.000000
    outer loop
      vertex 7.311 -1.454 8.000
      vertex 7.527 -0.741 8.000
      vertex 5.222 -0.283 8.000
    endloop
  endfacet
  facet normal 0.000000 0.000000 1.000000
    outer loop
      vertex 7.311 -1.454 8.000
      vertex 5.222 -0.283 8.000
      vertex 5.140 -0.555 8.000
    endloop
  endfacet
  facet normal 0.000000 0.000000 -1.000000
    outer loop
      vertex 7.527 -0.741 0.000
      vertex 7.311 -1.454 0.000
      vertex 5.140 -0.555 0.000
    endloop
  endfacet
  facet normal 0.000000 0.000000 -1.000000
    outer loop
      vertex 7.527 -0.741 0.000
      vertex 5.140 -0.555 0.000
      vertex 5.222 -0.283 0.000
    endloop
  endfacet
  facet normal -0.881921 0.471397 0.000000
    outer loop
      vertex 7.311 -1.454 8.000
      vertex 7.311 -1.454 0.000
      vertex 6.960 -2.111 0.000
    endloop
  endfacet
  facet normal -0.881921 0.471397 0.000000
    outer loop
      vertex 7.311 -1.454 8.000
      vertex 6.960 -2.111 0.000
      vertex 6.960 -2.111 8.000
    endloop
  endfacet
  facet normal 0.881921 -0.471397 0.000000
    outer loop
      vertex 5.006 -0.806 8.000
      vertex 5.006 -0.806 0.000
      vertex 5.140 -0.555 0.000
    endloop
  endfacet
  facet normal 0.881921 -0.471397 0.000000
    outer loop
      vertex 5.006 -0.806 8.000
      vertex 5.140 -0.555 0.000
      vertex 5.140 -0.555 8.000
    endloop
  endfacet
  facet normal 0.000000 0.000000 1.000000
    outer loop
      vertex 6.960 -2.111 8.000
      vertex 7.311 -1.454 8.000
      vertex 5.140 -0.555 8.000
    endloop
  endfacet
  facet normal 0.000000 0.000000 1.000000
    outer loop
      vertex 6.960 -2.111 8.000
      vertex 5.140 -0.555 8.000
      vertex 5.006 -0.806 8.000
    endloop
  endfacet
  facet normal 0.000000 0.000000 -1.000000
    outer loop
      vertex 7.311 -1.454 0.000
      vertex 6.960 -2.111 0.000
      vertex 5.006 -0.806 0.000
    endloop
  endfacet
  facet normal 0.000000 0.000000 -1.000000
    outer loop
      vertex 7.311 -1.454 0.000
      vertex 5.006 -0.806 0.000
      vertex 5.140 -0.555 0.000
    endloop
  endfacet
  facet normal -0.773010 0.634393 0.000000
    outer loop
      vertex 6.960 -2.111 8.000
      vertex 6.960 -2.111 0.000
      vertex 6.487 -2.687 0.000
    endloop
  endfacet
  facet normal -0.773010 0.634393 0.000000
    outer loop
      vertex 6.960 -2.111 8.000
      vertex 6.487 -2.687 0.000
      vertex 6.487 -2.687 8.000
    endloop
  endfacet
  facet normal 0.773010 -0.634393 0.000000
    outer loop
      vertex 4.825 -1.025 8.000
      vertex 4.825 -1.025 0.000
      vertex 5.006 -0.806 0.000
    endloop
  endfacet
  facet normal 0.773010 -0.634393 0.000000
    outer loop
      vertex 4.825 -1.025 8.000
      vertex 5.006 -0.806 0.000
      vertex 5.006 -0.806 8.000
    endloop
  endfacet
  facet normal 0.000000 0.000000 1.000000
    outer loop
      vertex 6.487 -2.687 8.000
      vertex 6.960 -2.111 8.000
      vertex 5.006 -0.806 8.000
    endloop
  endfacet
  facet normal 0.000000 0.000000 1.000000
    outer loop
      vertex 6.487 -2.687 8.000
      vertex 5.006 -0.806 8.000
      vertex 4.825 -1.025 8.000
    endloop
  endfacet
  facet normal 0.000000 0.000000 -1.000000
    outer loop
      vertex 6.960 -2.111 0.000
      vertex 6.487 -2.687 0.000
      vertex 4.825 -1.025 0.000
    endloop
  endfacet
  facet normal 0.000000 0.000000 -1.000000
    outer loop
      vertex 6.960 -2.111 0.000
      vertex 4.825 -1.025 0.000
      vertex 5.006 -0.806 0.000
    endloop
  endfacet
  facet normal -0.634393 0.773010 0.000000
    outer loop
      vertex 6.487 -2.687 8.000
      vertex 6.487 -2.687 0.000
      vertex 5.911 -3.160 0.000
    endloop
  endfacet
  facet normal -0.634393 0.773010 0.000000
    outer loop
      vertex 6.487 -2.687 8.000
      vertex 5.911 -3.160 0.000
      vertex 5.911 -3.160 8.000
    endloop
  endfacet
  facet normal 0.634393 -0.773010 0.000000
    outer loop
      vertex 4.606 -1.206 8.000
      vertex 4.606 -1.206 0.000
      vertex 4.825 -1.025 0.000
    endloop
  endfacet
  facet normal 0.634393 -0.773010 0.000000
    outer loop
      vertex 4.606 -1.206 8.000
      vertex 4.825 -1.025 0.000
      vertex 4.825 -1.025 8.000
    endloop
  endfacet
  facet normal 0.000000 0.000000 1.000000
    outer loop
      vertex 5.911 -3.160 8.000
      vertex 6.487 -2.687 8.000
      vertex 4.825 -1.025 8.000
    endloop
  endfacet
  facet normal 0.000000 0.000000 1.000000
    outer loop
      vertex 5.911 -3.160 8.000
      vertex 4.825 -1.025 8.000
      vertex 4.606 -1.206 8.000
    endloop
  endfacet
  facet normal 0.000000 0.000000 -1.000000
    outer loop
      vertex 6.487 -2.687 0.000
      vertex 5.911 -3.160 0.000
      vertex 4.606 -1.206 0.000
    endloop
  endfacet
  facet normal 0.000000 0.000000 -1.000000
    outer loop
      vertex 6.487 -2.687 0.000
      vertex 4.606 -1.206 0.000
      vertex 4.825 -1.025 0.000
    endloop
  endfacet
  facet normal -0.471397 0.881921 0.000000
    outer loop
      vertex 5.911 -3.160 8.000
      vertex 5.911 -3.160 0.000
      vertex 5.254 -3.511 0.000
    endloop
  endfacet
  facet normal -0.471397 0.881921 0.000000
    outer loop
      vertex 5.911 -3.160 8.000
      vertex 5.254 -3.511 0.000
      vertex 5.254 -3.511 8.000
    endloop
  endfacet
  facet normal 0.471397 -0.881921 0.000000
    outer loop
      vertex 4.355 -1.340 8.000
      vertex 4.355 -1.340 0.000
      vertex 4.606 -1.206 0.000
    endloop
  endfacet
  facet normal 0.471397 -0.881921 0.000000
    outer loop
      vertex 4.355 -1.340 8.000
      vertex 4.606 -1.206 0.000
      vertex 4.606 -1.206 8.000
    endloop
  endfacet
  facet normal 0.000000 0.000000 1.000000
    outer loop
      vertex 5.254 -3.511 8.000
      vertex 5.911 -3.160 8.000
      vertex 4.606 -1.206 8.000
    endloop
  endfacet
  facet normal 0.000000 0.000000 1.000000
    outer loop
      vertex 5.254 -3.511 8.000
      vertex 4.606 -1.206 8.000
      vertex 4.355 -1.340 8.000
    endloop
  endfacet
  facet normal 0.000000 0.000000 -1.000000
    outer loop
      vertex 5.911 -3.160 0.000
      vertex 5.254 -3.511 0.000
      vertex 4.355 -1.340 0.000
    endloop
  endfacet
  facet normal 0.000000 0.000000 -1.000000
    outer loop
      vertex 5.911 -3.160 0.000
      vertex 4.355 -1.340 0.000
      vertex 4.606 -1.206 0.000
    endloop
  endfacet
  facet normal -0.290285 0.956940 0.000000
    outer loop
      vertex 5.254 -3.511 8.000
      vertex 5.254 -3.511 0.000
      vertex 4.541 -3.727 0.000
    endloop
  endfacet
  facet normal -0.290285 0.956940 0.000000
    outer loop
      vertex 5.254 -3.511 8.000
      vertex 4.541 -3.727 0.000
      vertex 4.541 -3.727 8.000
    endloop
  endfacet
  facet normal 0.290285 -0.956940 0.000000
    outer loop
      vertex 4.083 -1.422 8.000
      vertex 4.083 -1.422 0.000
      vertex 4.355 -1.340 0.000
    endloop
  endfacet
  facet normal 0.290285 -0.956940 0.000000
    outer loop
      vertex 4.083 -1.422 8.000
      vertex 4.355 -1.340 0.000
      vertex 4.355 -1.340 8.000
    endloop
  endfacet
  facet normal 0.000000 0.000000 1.000000
    outer loop
      vertex 4.541 -3.727 8.000
      vertex 5.254 -3.511 8.000
      vertex 4.355 -1.340 8.000
    endloop
  endfacet
  facet normal 0.000000 0.000000 1.000000
    outer loop
      vertex 4.541 -3.727 8.000
      vertex 4.355 -1.340 8.000
      vertex 4.083 -1.422 8.000
    endloop
  endfacet
  facet normal 0.000000 0.000000 -1.000000
    outer loop
      vertex 5.254 -3.511 0.000
      vertex 4.541 -3.727 0.000
      vertex 4.083 -1.422 0.000
    endloop
  endfacet
  facet normal 0.000000 0.000000 -1.000000
    outer loop
      vertex 5.254 -3.511 0.000
      vertex 4.083 -1.422 0.000
      vertex 4.355 -1.340 0.000
    endloop
  endfacet
  facet normal -0.098017 0.995185 0.000000
    outer loop
      vertex 4.541 -3.727 8.000
      vertex 4.541 -3.727 0.000
      vertex 3.800 -3.800 0.000
    endloop
  endfacet
  facet normal -0.098017 0.995185 -0.000000
    outer loop
      vertex 4.541 -3.727 8.000
      vertex 3.800 -3.800 0.000
      vertex 3.800 -3.800 8.000
    endloop
  endfacet
  facet normal 0.098017 -0.995185 0.000000
    outer loop
      vertex 3.800 -1.450 8.000
      vertex 3.800 -1.450 0.000
      vertex 4.083 -1.422 0.000
    endloop
  endfacet
  facet normal 0.098017 -0.995185 0.000000
    outer loop
      vertex 3.800 -1.450 8.000
      vertex 4.083 -1.422 0.000
      vertex 4.083 -1.422 8.000
    endloop
  endfacet
  facet normal 0.000000 0.000000 1.000000
    outer loop
      vertex 3.800 -3.800 8.000
      vertex 4.541 -3.727 8.000
      vertex 4.083 -1.422 8.000
    endloop
  endfacet
  facet normal 0.000000 0.000000 1.000000
    outer loop
      vertex 3.800 -3.800 8.000
      vertex 4.083 -1.422 8.000
      vertex 3.800 -1.450 8.000
    endloop
  endfacet
  facet normal 0.000000 0.000000 -1.000000
    outer loop
      vertex 4.541 -3.727 0.000
      vertex 3.800 -3.800 0.000
      vertex 3.800 -1.450 0.000
    endloop
  endfacet
  facet normal 0.000000 0.000000 -1.000000
    outer loop
      vertex 4.541 -3.727 0.000
      vertex 3.800 -1.450 0.000
      vertex 4.083 -1.422 0.000
    endloop
  endfacet
  facet normal 0.098017 0.995185 0.000000
    outer loop
      vertex 3.800 -3.800 8.000
      vertex 3.800 -3.800 0.000
      vertex 3.059 -3.727 0.000
    endloop
  endfacet
  facet normal 0.098017 0.995185 0.000000
    outer loop
      vertex 3.800 -3.800 8.000
      vertex 3.059 -3.727 0.000
      vertex 3.059 -3.727 8.000
    endloop
  endfacet
  facet normal -0.098017 -0.995185 -0.000000
    outer loop
      vertex 3.517 -1.422 8.000
      vertex 3.517 -1.422 0.000
      vertex 3.800 -1.450 0.000
    endloop
  endfacet
  facet normal -0.098017 -0.995185 -0.000000
    outer loop
      vertex 3.517 -1.422 8.000
      vertex 3.800 -1.450 0.000
      vertex 3.800 -1.450 8.000
    endloop
  endfacet
  facet normal 0.000000 0.000000 1.000000
    outer loop
      vertex 3.059 -3.727 8.000
      vertex 3.800 -3.800 8.000
      vertex 3.800 -1.450 8.000
    endloop
  endfacet
  facet normal 0.000000 0.000000 1.000000
    outer loop
      vertex 3.059 -3.727 8.000
      vertex 3.800 -1.450 8.000
      vertex 3.517 -1.422 8.000
    endloop
  endfacet
  facet normal 0.000000 -0.000000 -1.000000
    outer loop
      vertex 3.800 -3.800 0.000
      vertex 3.059 -3.727 0.000
      vertex 3.517 -1.422 0.000
    endloop
  endfacet
  facet normal 0.000000 0.000000 -1.000000
    outer loop
      vertex 3.800 -3.800 0.000
      vertex 3.517 -1.422 0.000
      vertex 3.800 -1.450 0.000
    endloop
  endfacet
  facet normal 0.290285 0.956940 0.000000
    outer loop
      vertex 3.059 -3.727 8.000
      vertex 3.059 -3.727 0.000
      vertex 2.346 -3.511 0.000
    endloop
  endfacet
  facet normal 0.290285 0.956940 0.000000
    outer loop
      vertex 3.059 -3.727 8.000
      vertex 2.346 -3.511 0.000
      vertex 2.346 -3.511 8.000
    endloop
  endfacet
  facet normal -0.290285 -0.956940 -0.000000
    outer loop
      vertex 3.245 -1.340 8.000
      vertex 3.245 -1.340 0.000
      vertex 3.517 -1.422 0.000
    endloop
  endfacet
  facet normal -0.290285 -0.956940 -0.000000
    outer loop
      vertex 3.245 -1.340 8.000
      vertex 3.517 -1.422 0.000
      vertex 3.517 -1.422 8.000
    endloop
  endfacet
  facet normal 0.000000 0.000000 1.000000
    outer loop
      vertex 2.346 -3.511 8.000
      vertex 3.059 -3.727 8.000
      vertex 3.517 -1.422 8.000
    endloop
  endfacet
  facet normal 0.000000 0.000000 1.000000
    outer loop
      vertex 2.346 -3.511 8.000
      vertex 3.517 -1.422 8.000
      vertex 3.245 -1.340 8.000
    endloop
  endfacet
  facet normal 0.000000 0.000000 -1.000000
    outer loop
      vertex 3.059 -3.727 0.000
      vertex 2.346 -3.511 0.000
      vertex 3.245 -1.340 0.000
    endloop
  endfacet
  facet normal 0.000000 0.000000 -1.000000
    outer loop
      vertex 3.059 -3.727 0.000
      vertex 3.245 -1.340 0.000
      vertex 3.517 -1.422 0.000
    endloop
  endfacet
  facet normal 0.471397 0.881921 0.000000
    outer loop
      vertex 2.346 -3.511 8.000
      vertex 2.346 -3.511 0.000
      vertex 1.689 -3.160 0.000
    endloop
  endfacet
  facet normal 0.471397 0.881921 0.000000
    outer loop
      vertex 2.346 -3.511 8.000
      vertex 1.689 -3.160 0.000
      vertex 1.689 -3.160 8.000
    endloop
  endfacet
  facet normal -0.471397 -0.881921 -0.000000
    outer loop
      vertex 2.994 -1.206 8.000
      vertex 2.994 -1.206 0.000
      vertex 3.245 -1.340 0.000
    endloop
  endfacet
  facet normal -0.471397 -0.881921 -0.000000
    outer loop
      vertex 2.994 -1.206 8.000
      vertex 3.245 -1.340 0.000
      vertex 3.245 -1.340 8.000
    endloop
  endfacet
  facet normal 0.000000 0.000000 1.000000
    outer loop
      vertex 1.689 -3.160 8.000
      vertex 2.346 -3.511 8.000
      vertex 3.245 -1.340 8.000
    endloop
  endfacet
  facet normal 0.000000 0.000000 1.000000
    outer loop
      vertex 1.689 -3.160 8.000
      vertex 3.245 -1.340 8.000
      vertex 2.994 -1.206 8.000
    endloop
  endfacet
  facet normal 0.000000 0.000000 -1.000000
    outer loop
      vertex 2.346 -3.511 0.000
      vertex 1.689 -3.160 0.000
      vertex 2.994 -1.206 0.000
    endloop
  endfacet
  facet normal 0.000000 0.000000 -1.000000
    outer loop
      vertex 2.346 -3.511 0.000
      vertex 2.994 -1.206 0.000
      vertex 3.245 -1.340 0.000
    endloop
  endfacet
  facet normal 0.634393 0.773010 0.000000
    outer loop
      vertex 1.689 -3.160 8.000
      vertex 1.689 -3.160 0.000
      vertex 1.113 -2.687 0.000
    endloop
  endfacet
  facet normal 0.634393 0.773010 0.000000
    outer loop
      vertex 1.689 -3.160 8.000
      vertex 1.113 -2.687 0.000
      vertex 1.113 -2.687 8.000
    endloop
  endfacet
  facet normal -0.634393 -0.773010 -0.000000
    outer loop
      vertex 2.775 -1.025 8.000
      vertex 2.775 -1.025 0.000
      vertex 2.994 -1.206 0.000
    endloop
  endfacet
  facet normal -0.634393 -0.773010 -0.000000
    outer loop
      vertex 2.775 -1.025 8.000
      vertex 2.994 -1.206 0.000
      vertex 2.994 -1.206 8.000
    endloop
  endfacet
  facet normal 0.000000 0.000000 1.000000
    outer loop
      vertex 1.113 -2.687 8.000
      vertex 1.689 -3.160 8.000
      vertex 2.994 -1.206 8.000
    endloop
  endfacet
  facet normal 0.000000 0.000000 1.000000
    outer loop
      vertex 1.113 -2.687 8.000
      vertex 2.994 -1.206 8.000
      vertex 2.775 -1.025 8.000
    endloop
  endfacet
  facet normal 0.000000 0.000000 -1.000000
    outer loop
      vertex 1.689 -3.160 0.000
      vertex 1.113 -2.687 0.000
      vertex 2.775 -1.025 0.000
    endloop
  endfacet
  facet normal 0.000000 0.000000 -1.000000
    outer loop
      vertex 1.689 -3.160 0.000
      vertex 2.775 -1.025 0.000
      vertex 2.994 -1.206 0.000
    endloop
  endfacet
  facet normal 0.773010 0.634393 0.000000
    outer loop
      vertex 1.113 -2.687 8.000
      vertex 1.113 -2.687 0.000
      vertex 0.640 -2.111 0.000
    endloop
  endfacet
  facet normal 0.773010 0.634393 0.000000
    outer loop
      vertex 1.113 -2.687 8.000
      vertex 0.640 -2.111 0.000
      vertex 0.640 -2.111 8.000
    endloop
  endfacet
  facet normal -0.773010 -0.634393 -0.000000
    outer loop
      vertex 2.594 -0.806 8.000
      vertex 2.594 -0.806 0.000
      vertex 2.775 -1.025 0.000
    endloop
  endfacet
  facet normal -0.773010 -0.634393 -0.000000
    outer loop
      vertex 2.594 -0.806 8.000
      vertex 2.775 -1.025 0.000
      vertex 2.775 -1.025 8.000
    endloop
  endfacet
  facet normal 0.000000 0.000000 1.000000
    outer loop
      vertex 0.640 -2.111 8.000
      vertex 1.113 -2.687 8.000
      vertex 2.775 -1.025 8.000
    endloop
  endfacet
  facet normal 0.000000 0.000000 1.000000
    outer loop
      vertex 0.640 -2.111 8.000
      vertex 2.775 -1.025 8.000
      vertex 2.594 -0.806 8.000
    endloop
  endfacet
  facet normal 0.000000 0.000000 -1.000000
    outer loop
      vertex 1.113 -2.687 0.000
      vertex 0.640 -2.111 0.000
      vertex 2.594 -0.806 0.000
    endloop
  endfacet
  facet normal 0.000000 0.000000 -1.000000
    outer loop
      vertex 1.113 -2.687 0.000
      vertex 2.594 -0.806 0.000
      vertex 2.775 -1.025 0.000
    endloop
  endfacet
  facet normal 0.881921 0.471397 0.000000
    outer loop
      vertex 0.640 -2.111 8.000
      vertex 0.640 -2.111 0.000
      vertex 0.289 -1.454 0.000
    endloop
  endfacet
  facet normal 0.881921 0.471397 0.000000
    outer loop
      vertex 0.640 -2.111 8.000
      vertex 0.289 -1.454 0.000
      vertex 0.289 -1.454 8.000
    endloop
  endfacet
  facet normal -0.881921 -0.471397 -0.000000
    outer loop
      vertex 2.460 -0.555 8.000
      vertex 2.460 -0.555 0.000
      vertex 2.594 -0.806 0.000
    endloop
  endfacet
  facet normal -0.881921 -0.471397 -0.000000
    outer loop
      vertex 2.460 -0.555 8.000
      vertex 2.594 -0.806 0.000
      vertex 2.594 -0.806 8.000
    endloop
  endfacet
  facet normal 0.000000 0.000000 1.000000
    outer loop
      vertex 0.289 -1.454 8.000
      vertex 0.640 -2.111 8.000
      vertex 2.594 -0.806 8.000
    endloop
  endfacet
  facet normal 0.000000 0.000000 1.000000
    outer loop
      vertex 0.289 -1.454 8.000
      vertex 2.594 -0.806 8.000
      vertex 2.460 -0.555 8.000
    endloop
  endfacet
  facet normal 0.000000 0.000000 -1.000000
    outer loop
      vertex 0.640 -2.111 0.000
      vertex 0.289 -1.454 0.000
      vertex 2.460 -0.555 0.000
    endloop
  endfacet
  facet normal 0.000000 0.000000 -1.000000
    outer loop
      vertex 0.640 -2.111 0.000
      vertex 2.460 -0.555 0.000
      vertex 2.594 -0.806 0.000
    endloop
  endfacet
  facet normal 0.956940 0.290285 0.000000
    outer loop
      vertex 0.289 -1.454 8.000
      vertex 0.289 -1.454 0.000
      vertex 0.073 -0.741 0.000
    endloop
  endfacet
  facet normal 0.956940 0.290285 0.000000
    outer loop
      vertex 0.289 -1.454 8.000
      vertex 0.073 -0.741 0.000
      vertex 0.073 -0.741 8.000
    endloop
  endfacet
  facet normal -0.956940 -0.290285 -0.000000
    outer loop
      vertex 2.378 -0.283 8.000
      vertex 2.378 -0.283 0.000
      vertex 2.460 -0.555 0.000
    endloop
  endfacet
  facet normal -0.956940 -0.290285 -0.000000
    outer loop
      vertex 2.378 -0.283 8.000
      vertex 2.460 -0.555 0.000
      vertex 2.460 -0.555 8.000
    endloop
  endfacet
  facet normal 0.000000 0.000000 1.000000
    outer loop
      vertex 0.073 -0.741 8.000
      vertex 0.289 -1.454 8.000
      vertex 2.460 -0.555 8.000
    endloop
  endfacet
  facet normal 0.000000 0.000000 1.000000
    outer loop
      vertex 0.073 -0.741 8.000
      vertex 2.460 -0.555 8.000
      vertex 2.378 -0.283 8.000
    endloop
  endfacet
  facet normal 0.000000 0.000000 -1.000000
    outer loop
      vertex 0.289 -1.454 0.000
      vertex 0.073 -0.741 0.000
      vertex 2.378 -0.283 0.000
    endloop
  endfacet
  facet normal 0.000000 0.000000 -1.000000
    outer loop
      vertex 0.289 -1.454 0.000
      vertex 2.378 -0.283 0.000
      vertex 2.460 -0.555 0.000
    endloop
  endfacet
  facet normal 0.995185 0.098017 0.000000
    outer loop
      vertex 0.073 -0.741 8.000
      vertex 0.073 -0.741 0.000
      vertex 0.000 -0.000 0.000
    endloop
  endfacet
  facet normal 0.995185 0.098017 0.000000
    outer loop
      vertex 0.073 -0.741 8.000
      vertex 0.000 -0.000 0.000
      vertex -0.000 -0.000 8.000
    endloop
  endfacet
  facet normal -0.995185 -0.098017 -0.000000
    outer loop
      vertex 2.350 -0.000 8.000
      vertex 2.350 -0.000 0.000
      vertex 2.378 -0.283 0.000
    endloop
  endfacet
  facet normal -0.995185 -0.098017 -0.000000
    outer loop
      vertex 2.350 -0.000 8.000
      vertex 2.378 -0.283 0.000
      vertex 2.378 -0.283 8.000
    endloop
  endfacet
  facet normal 0.000000 0.000000 1.000000
    outer loop
      vertex -0.000 -0.000 8.000
      vertex 0.073 -0.741 8.000
      vertex 2.378 -0.283 8.000
    endloop
  endfacet
  facet normal 0.000000 0.000000 1.000000
    outer loop
      vertex -0.000 -0.000 8.000
      vertex 2.378 -0.283 8.000
      vertex 2.350 -0.000 8.000
    endloop
  endfacet
  facet normal 0.000000 0.000000 -1.000000
    outer loop
      vertex 0.073 -0.741 0.000
      vertex 0.000 -0.000 0.000
      vertex 2.350 -0.000 0.000
    endloop
  endfacet
  facet normal 0.000000 0.000000 -1.000000
    outer loop
      vertex 0.073 -0.741 0.000
      vertex 2.350 -0.000 0.000
      vertex 2.378 -0.283 0.000
    endloop
  endfacet
  facet normal 0.995185 -0.098017 0.000000
    outer loop
      vertex -0.000 -0.000 8.000
      vertex 0.000 -0.000 0.000
      vertex 0.073 0.741 0.000
    endloop
  endfacet
  facet normal 0.995185 -0.098017 0.000000
    outer loop
      vertex -0.000 -0.000 8.000
      vertex 0.073 0.741 0.000
      vertex 0.073 0.741 8.000
    endloop
  endfacet
  facet normal -0.995185 0.098017 -0.000000
    outer loop
      vertex 2.378 0.283 8.000
      vertex 2.378 0.283 0.000
      vertex 2.350 -0.000 0.000
    endloop
  endfacet
  facet normal -0.995185 0.098017 -0.000000
    outer loop
      vertex 2.378 0.283 8.000
      vertex 2.350 -0.000 0.000
      vertex 2.350 -0.000 8.000
    endloop
  endfacet
  facet normal 0.000000 0.000000 1.000000
    outer loop
      vertex 0.073 0.741 8.000
      vertex -0.000 -0.000 8.000
      vertex 2.350 -0.000 8.000
    endloop
  endfacet
  facet normal 0.000000 0.000000 1.000000
    outer loop
      vertex 0.073 0.741 8.000
      vertex 2.350 -0.000 8.000
      vertex 2.378 0.283 8.000
    endloop
  endfacet
  facet normal 0.000000 0.000000 -1.000000
    outer loop
      vertex 0.000 -0.000 0.000
      vertex 0.073 0.741 0.000
      vertex 2.378 0.283 0.000
    endloop
  endfacet
  facet normal 0.000000 0.000000 -1.000000
    outer loop
      vertex 0.000 -0.000 0.000
      vertex 2.378 0.283 0.000
      vertex 2.350 -0.000 0.000
    endloop
  endfacet
  facet normal 0.956940 -0.290285 0.000000
    outer loop
      vertex 0.073 0.741 8.000
      vertex 0.073 0.741 0.000
      vertex 0.289 1.454 0.000
    endloop
  endfacet
  facet normal 0.956940 -0.290285 0.000000
    outer loop
      vertex 0.073 0.741 8.000
      vertex 0.289 1.454 0.000
      vertex 0.289 1.454 8.000
    endloop
  endfacet
  facet normal -0.956940 0.290285 -0.000000
    outer loop
      vertex 2.460 0.555 8.000
      vertex 2.460 0.555 0.000
      vertex 2.378 0.283 0.000
    endloop
  endfacet
  facet normal -0.956940 0.290285 -0.000000
    outer loop
      vertex 2.460 0.555 8.000
      vertex 2.378 0.283 0.000
      vertex 2.378 0.283 8.000
    endloop
  endfacet
  facet normal 0.000000 0.000000 1.000000
    outer loop
      vertex 0.289 1.454 8.000
      vertex 0.073 0.741 8.000
      vertex 2.378 0.283 8.000
    endloop
  endfacet
  facet normal 0.000000 0.000000 1.000000
    outer loop
      vertex 0.289 1.454 8.000
      vertex 2.378 0.283 8.000
      vertex 2.460 0.555 8.000
    endloop
  endfacet
  facet normal 0.000000 0.000000 -1.000000
    outer loop
      vertex 0.073 0.741 0.000
      vertex 0.289 1.454 0.000
      vertex 2.460 0.555 0.000
    endloop
  endfacet
  facet normal 0.000000 0.000000 -1.000000
    outer loop
      vertex 0.073 0.741 0.000
      vertex 2.460 0.555 0.000
      vertex 2.378 0.283 0.000
    endloop
  endfacet
  facet normal 0.881921 -0.471397 0.000000
    outer loop
      vertex 0.289 1.454 8.000
      vertex 0.289 1.454 0.000
      vertex 0.640 2.111 0.000
    endloop
  endfacet
  facet normal 0.881921 -0.471397 0.000000
    outer loop
      vertex 0.289 1.454 8.000
      vertex 0.640 2.111 0.000
      vertex 0.640 2.111 8.000
    endloop
  endfacet
  facet normal -0.881921 0.471397 -0.000000
    outer loop
      vertex 2.594 0.806 8.000
      vertex 2.594 0.806 0.000
      vertex 2.460 0.555 0.000
    endloop
  endfacet
  facet normal -0.881921 0.471397 -0.000000
    outer loop
      vertex 2.594 0.806 8.000
      vertex 2.460 0.555 0.000
      vertex 2.460 0.555 8.000
    endloop
  endfacet
  facet normal 0.000000 0.000000 1.000000
    outer loop
      vertex 0.640 2.111 8.000
      vertex 0.289 1.454 8.000
      vertex 2.460 0.555 8.000
    endloop
  endfacet
  facet normal 0.000000 0.000000 1.000000
    outer loop
      vertex 0.640 2.111 8.000
      vertex 2.460 0.555 8.000
      vertex 2.594 0.806 8.000
    endloop
  endfacet
  facet normal 0.000000 0.000000 -1.000000
    outer loop
      vertex 0.289 1.454 0.000
      vertex 0.640 2.111 0.000
      vertex 2.594 0.806 0.000
    endloop
  endfacet
  facet normal 0.000000 0.000000 -1.000000
    outer loop
      vertex 0.289 1.454 0.000
      vertex 2.594 0.806 0.000
      vertex 2.460 0.555 0.000
    endloop
  endfacet
  facet normal 0.773010 -0.634393 0.000000
    outer loop
      vertex 0.640 2.111 8.000
      vertex 0.640 2.111 0.000
      vertex 1.113 2.687 0.000
    endloop
  endfacet
  facet normal 0.773010 -0.634393 0.000000
    outer loop
      vertex 0.640 2.111 8.000
      vertex 1.113 2.687 0.000
      vertex 1.113 2.687 8.000
    endloop
  endfacet
  facet normal -0.773010 0.634393 -0.000000
    outer loop
      vertex 2.775 1.025 8.000
      vertex 2.775 1.025 0.000
      vertex 2.594 0.806 0.000
    endloop
  endfacet
  facet normal -0.773010 0.634393 -0.000000
    outer loop
      vertex 2.775 1.025 8.000
      vertex 2.594 0.806 0.000
      vertex 2.594 0.806 8.000
    endloop
  endfacet
  facet normal 0.000000 0.000000 1.000000
    outer loop
      vertex 1.113 2.687 8.000
      vertex 0.640 2.111 8.000
      vertex 2.594 0.806 8.000
    endloop
  endfacet
  facet normal 0.000000 0.000000 1.000000
    outer loop
      vertex 1.113 2.687 8.000
      vertex 2.594 0.806 8.000
      vertex 2.775 1.025 8.000
    endloop
  endfacet
  facet normal 0.000000 0.000000 -1.000000
    outer loop
      vertex 0.640 2.111 0.000
      vertex 1.113 2.687 0.000
      vertex 2.775 1.025 0.000
    endloop
  endfacet
  facet normal 0.000000 0.000000 -1.000000
    outer loop
      vertex 0.640 2.111 0.000
      vertex 2.775 1.025 0.000
      vertex 2.594 0.806 0.000
    endloop
  endfacet
  facet normal 0.634393 -0.773010 0.000000
    outer loop
      vertex 1.113 2.687 8.000
      vertex 1.113 2.687 0.000
      vertex 1.689 3.160 0.000
    endloop
  endfacet
  facet normal 0.634393 -0.773010 0.000000
    outer loop
      vertex 1.113 2.687 8.000
      vertex 1.689 3.160 0.000
      vertex 1.689 3.160 8.000
    endloop
  endfacet
  facet normal -0.634393 0.773010 -0.000000
    outer loop
      vertex 2.994 1.206 8.000
      vertex 2.994 1.206 0.000
      vertex 2.775 1.025 0.000
    endloop
  endfacet
  facet normal -0.634393 0.773010 -0.000000
    outer loop
      vertex 2.994 1.206 8.000
      vertex 2.775 1.025 0.000
      vertex 2.775 1.025 8.000
    endloop
  endfacet
  facet normal 0.000000 0.000000 1.000000
    outer loop
      vertex 1.689 3.160 8.000
      vertex 1.113 2.687 8.000
      vertex 2.775 1.025 8.000
    endloop
  endfacet
  facet normal 0.000000 0.000000 1.000000
    outer loop
      vertex 1.689 3.160 8.000
      vertex 2.775 1.025 8.000
      vertex 2.994 1.206 8.000
    endloop
  endfacet
  facet normal 0.000000 0.000000 -1.000000
    outer loop
      vertex 1.113 2.687 0.000
      vertex 1.689 3.160 0.000
      vertex 2.994 1.206 0.000
    endloop
  endfacet
  facet normal 0.000000 0.000000 -1.000000
    outer loop
      vertex 1.113 2.687 0.000
      vertex 2.994 1.206 0.000
      vertex 2.775 1.025 0.000
    endloop
  endfacet
  facet normal 0.471397 -0.881921 0.000000
    outer loop
      vertex 1.689 3.160 8.000
      vertex 1.689 3.160 0.000
      vertex 2.346 3.511 0.000
    endloop
  endfacet
  facet normal 0.471397 -0.881921 0.000000
    outer loop
      vertex 1.689 3.160 8.000
      vertex 2.346 3.511 0.000
      vertex 2.346 3.511 8.000
    endloop
  endfacet
  facet normal -0.471397 0.881921 -0.000000
    outer loop
      vertex 3.245 1.340 8.000
      vertex 3.245 1.340 0.000
      vertex 2.994 1.206 0.000
    endloop
  endfacet
  facet normal -0.471397 0.881921 -0.000000
    outer loop
      vertex 3.245 1.340 8.000
      vertex 2.994 1.206 0.000
      vertex 2.994 1.206 8.000
    endloop
  endfacet
  facet normal 0.000000 0.000000 1.000000
    outer loop
      vertex 2.346 3.511 8.000
      vertex 1.689 3.160 8.000
      vertex 2.994 1.206 8.000
    endloop
  endfacet
  facet normal 0.000000 0.000000 1.000000
    outer loop
      vertex 2.346 3.511 8.000
      vertex 2.994 1.206 8.000
      vertex 3.245 1.340 8.000
    endloop
  endfacet
  facet normal 0.000000 0.000000 -1.000000
    outer loop
      vertex 1.689 3.160 0.000
      vertex 2.346 3.511 0.000
      vertex 3.245 1.340 0.000
    endloop
  endfacet
  facet normal 0.000000 0.000000 -1.000000
    outer loop
      vertex 1.689 3.160 0.000
      vertex 3.245 1.340 0.000
      vertex 2.994 1.206 0.000
    endloop
  endfacet
  facet normal 0.290285 -0.956940 0.000000
    outer loop
      vertex 2.346 3.511 8.000
      vertex 2.346 3.511 0.000
      vertex 3.059 3.727 0.000
    endloop
  endfacet
  facet normal 0.290285 -0.956940 0.000000
    outer loop
      vertex 2.346 3.511 8.000
      vertex 3.059 3.727 0.000
      vertex 3.059 3.727 8.000
    endloop
  endfacet
  facet normal -0.290285 0.956940 -0.000000
    outer loop
      vertex 3.517 1.422 8.000
      vertex 3.517 1.422 0.000
      vertex 3.245 1.340 0.000
    endloop
  endfacet
  facet normal -0.290285 0.956940 -0.000000
    outer loop
      vertex 3.517 1.422 8.000
      vertex 3.245 1.340 0.000
      vertex 3.245 1.340 8.000
    endloop
  endfacet
  facet normal 0.000000 0.000000 1.000000
    outer loop
      vertex 3.059 3.727 8.000
      vertex 2.346 3.511 8.000
      vertex 3.245 1.340 8.000
    endloop
  endfacet
  facet normal 0.000000 0.000000 1.000000
    outer loop
      vertex 3.059 3.727 8.000
      vertex 3.245 1.340 8.000
      vertex 3.517 1.422 8.000
    endloop
  endfacet
  facet normal 0.000000 0.000000 -1.000000
    outer loop
      vertex 2.346 3.511 0.000
      vertex 3.059 3.727 0.000
      vertex 3.517 1.422 0.000
    endloop
  endfacet
  facet normal 0.000000 0.000000 -1.000000
    outer loop
      vertex 2.346 3.511 0.000
      vertex 3.517 1.422 0.000
      vertex 3.245 1.340 0.000
    endloop
  endfacet
  facet normal 0.098017 -0.995185 0.000000
    outer loop
      vertex 3.059 3.727 8.000
      vertex 3.059 3.727 0.000
      vertex 3.800 3.800 0.000
    endloop
  endfacet
  facet normal 0.098017 -0.995185 0.000000
    outer loop
      vertex 3.059 3.727 8.000
      vertex 3.800 3.800 0.000
      vertex 3.800 3.800 8.000
    endloop
  endfacet
  facet normal -0.098017 0.995185 -0.000000
    outer loop
      vertex 3.800 1.450 8.000
      vertex 3.800 1.450 0.000
      vertex 3.517 1.422 0.000
    endloop
  endfacet
  facet normal -0.098017 0.995185 -0.000000
    outer loop
      vertex 3.800 1.450 8.000
      vertex 3.517 1.422 0.000
      vertex 3.517 1.422 8.000
    endloop
  endfacet
  facet normal 0.000000 0.000000 1.000000
    outer loop
      vertex 3.800 3.800 8.000
      vertex 3.059 3.727 8.000
      vertex 3.517 1.422 8.000
    endloop
  endfacet
  facet normal 0.000000 0.000000 1.000000
    outer loop
      vertex 3.800 3.800 8.000
      vertex 3.517 1.422 8.000
      vertex 3.800 1.450 8.000
    endloop
  endfacet
  facet normal 0.000000 0.000000 -1.000000
    outer loop
      vertex 3.059 3.727 0.000
      vertex 3.800 3.800 0.000
      vertex 3.800 1.450 0.000
    endloop
  endfacet
  facet normal 0.000000 0.000000 -1.000000
    outer loop
      vertex 3.059 3.727 0.000
      vertex 3.800 1.450 0.000
      vertex 3.517 1.422 0.000
    endloop
  endfacet
endsolid food_caddy_k1se_hinge_retainer_collar_spare_v2
