solid food_caddy_k1se_hinge_retainer_collar_spare
  facet normal 0.000000 -0.995185 -0.098017
    outer loop
      vertex -4.000 3.800 3.800
      vertex 4.000 3.800 3.800
      vertex 4.000 3.727 4.541
    endloop
  endfacet
  facet normal 0.000000 -0.995185 -0.098017
    outer loop
      vertex -4.000 3.800 3.800
      vertex 4.000 3.727 4.541
      vertex -4.000 3.727 4.541
    endloop
  endfacet
  facet normal 0.000000 0.995185 0.098017
    outer loop
      vertex -4.000 1.422 4.083
      vertex 4.000 1.422 4.083
      vertex 4.000 1.450 3.800
    endloop
  endfacet
  facet normal 0.000000 0.995185 0.098017
    outer loop
      vertex -4.000 1.422 4.083
      vertex 4.000 1.450 3.800
      vertex -4.000 1.450 3.800
    endloop
  endfacet
  facet normal -1.000000 0.000000 0.000000
    outer loop
      vertex -4.000 3.727 4.541
      vertex -4.000 3.800 3.800
      vertex -4.000 1.450 3.800
    endloop
  endfacet
  facet normal -1.000000 0.000000 0.000000
    outer loop
      vertex -4.000 3.727 4.541
      vertex -4.000 1.450 3.800
      vertex -4.000 1.422 4.083
    endloop
  endfacet
  facet normal 1.000000 0.000000 0.000000
    outer loop
      vertex 4.000 3.800 3.800
      vertex 4.000 3.727 4.541
      vertex 4.000 1.422 4.083
    endloop
  endfacet
  facet normal 1.000000 0.000000 0.000000
    outer loop
      vertex 4.000 3.800 3.800
      vertex 4.000 1.422 4.083
      vertex 4.000 1.450 3.800
    endloop
  endfacet
  facet normal 0.000000 -0.956940 -0.290285
    outer loop
      vertex -4.000 3.727 4.541
      vertex 4.000 3.727 4.541
      vertex 4.000 3.511 5.254
    endloop
  endfacet
  facet normal 0.000000 -0.956940 -0.290285
    outer loop
      vertex -4.000 3.727 4.541
      vertex 4.000 3.511 5.254
      vertex -4.000 3.511 5.254
    endloop
  endfacet
  facet normal 0.000000 0.956940 0.290285
    outer loop
      vertex -4.000 1.340 4.355
      vertex 4.000 1.340 4.355
      vertex 4.000 1.422 4.083
    endloop
  endfacet
  facet normal 0.000000 0.956940 0.290285
    outer loop
      vertex -4.000 1.340 4.355
      vertex 4.000 1.422 4.083
      vertex -4.000 1.422 4.083
    endloop
  endfacet
  facet normal -1.000000 0.000000 0.000000
    outer loop
      vertex -4.000 3.511 5.254
      vertex -4.000 3.727 4.541
      vertex -4.000 1.422 4.083
    endloop
  endfacet
  facet normal -1.000000 0.000000 0.000000
    outer loop
      vertex -4.000 3.511 5.254
      vertex -4.000 1.422 4.083
      vertex -4.000 1.340 4.355
    endloop
  endfacet
  facet normal 1.000000 0.000000 0.000000
    outer loop
      vertex 4.000 3.727 4.541
      vertex 4.000 3.511 5.254
      vertex 4.000 1.340 4.355
    endloop
  endfacet
  facet normal 1.000000 0.000000 0.000000
    outer loop
      vertex 4.000 3.727 4.541
      vertex 4.000 1.340 4.355
      vertex 4.000 1.422 4.083
    endloop
  endfacet
  facet normal 0.000000 -0.881921 -0.471397
    outer loop
      vertex -4.000 3.511 5.254
      vertex 4.000 3.511 5.254
      vertex 4.000 3.160 5.911
    endloop
  endfacet
  facet normal 0.000000 -0.881921 -0.471397
    outer loop
      vertex -4.000 3.511 5.254
      vertex 4.000 3.160 5.911
      vertex -4.000 3.160 5.911
    endloop
  endfacet
  facet normal 0.000000 0.881921 0.471397
    outer loop
      vertex -4.000 1.206 4.606
      vertex 4.000 1.206 4.606
      vertex 4.000 1.340 4.355
    endloop
  endfacet
  facet normal 0.000000 0.881921 0.471397
    outer loop
      vertex -4.000 1.206 4.606
      vertex 4.000 1.340 4.355
      vertex -4.000 1.340 4.355
    endloop
  endfacet
  facet normal -1.000000 0.000000 0.000000
    outer loop
      vertex -4.000 3.160 5.911
      vertex -4.000 3.511 5.254
      vertex -4.000 1.340 4.355
    endloop
  endfacet
  facet normal -1.000000 0.000000 0.000000
    outer loop
      vertex -4.000 3.160 5.911
      vertex -4.000 1.340 4.355
      vertex -4.000 1.206 4.606
    endloop
  endfacet
  facet normal 1.000000 0.000000 0.000000
    outer loop
      vertex 4.000 3.511 5.254
      vertex 4.000 3.160 5.911
      vertex 4.000 1.206 4.606
    endloop
  endfacet
  facet normal 1.000000 0.000000 0.000000
    outer loop
      vertex 4.000 3.511 5.254
      vertex 4.000 1.206 4.606
      vertex 4.000 1.340 4.355
    endloop
  endfacet
  facet normal 0.000000 -0.773010 -0.634393
    outer loop
      vertex -4.000 3.160 5.911
      vertex 4.000 3.160 5.911
      vertex 4.000 2.687 6.487
    endloop
  endfacet
  facet normal 0.000000 -0.773010 -0.634393
    outer loop
      vertex -4.000 3.160 5.911
      vertex 4.000 2.687 6.487
      vertex -4.000 2.687 6.487
    endloop
  endfacet
  facet normal 0.000000 0.773010 0.634393
    outer loop
      vertex -4.000 1.025 4.825
      vertex 4.000 1.025 4.825
      vertex 4.000 1.206 4.606
    endloop
  endfacet
  facet normal 0.000000 0.773010 0.634393
    outer loop
      vertex -4.000 1.025 4.825
      vertex 4.000 1.206 4.606
      vertex -4.000 1.206 4.606
    endloop
  endfacet
  facet normal -1.000000 0.000000 0.000000
    outer loop
      vertex -4.000 2.687 6.487
      vertex -4.000 3.160 5.911
      vertex -4.000 1.206 4.606
    endloop
  endfacet
  facet normal -1.000000 0.000000 0.000000
    outer loop
      vertex -4.000 2.687 6.487
      vertex -4.000 1.206 4.606
      vertex -4.000 1.025 4.825
    endloop
  endfacet
  facet normal 1.000000 0.000000 0.000000
    outer loop
      vertex 4.000 3.160 5.911
      vertex 4.000 2.687 6.487
      vertex 4.000 1.025 4.825
    endloop
  endfacet
  facet normal 1.000000 0.000000 0.000000
    outer loop
      vertex 4.000 3.160 5.911
      vertex 4.000 1.025 4.825
      vertex 4.000 1.206 4.606
    endloop
  endfacet
  facet normal 0.000000 -0.634393 -0.773010
    outer loop
      vertex -4.000 2.687 6.487
      vertex 4.000 2.687 6.487
      vertex 4.000 2.111 6.960
    endloop
  endfacet
  facet normal 0.000000 -0.634393 -0.773010
    outer loop
      vertex -4.000 2.687 6.487
      vertex 4.000 2.111 6.960
      vertex -4.000 2.111 6.960
    endloop
  endfacet
  facet normal 0.000000 0.634393 0.773010
    outer loop
      vertex -4.000 0.806 5.006
      vertex 4.000 0.806 5.006
      vertex 4.000 1.025 4.825
    endloop
  endfacet
  facet normal 0.000000 0.634393 0.773010
    outer loop
      vertex -4.000 0.806 5.006
      vertex 4.000 1.025 4.825
      vertex -4.000 1.025 4.825
    endloop
  endfacet
  facet normal -1.000000 0.000000 0.000000
    outer loop
      vertex -4.000 2.111 6.960
      vertex -4.000 2.687 6.487
      vertex -4.000 1.025 4.825
    endloop
  endfacet
  facet normal -1.000000 0.000000 0.000000
    outer loop
      vertex -4.000 2.111 6.960
      vertex -4.000 1.025 4.825
      vertex -4.000 0.806 5.006
    endloop
  endfacet
  facet normal 1.000000 0.000000 0.000000
    outer loop
      vertex 4.000 2.687 6.487
      vertex 4.000 2.111 6.960
      vertex 4.000 0.806 5.006
    endloop
  endfacet
  facet normal 1.000000 0.000000 0.000000
    outer loop
      vertex 4.000 2.687 6.487
      vertex 4.000 0.806 5.006
      vertex 4.000 1.025 4.825
    endloop
  endfacet
  facet normal 0.000000 -0.471397 -0.881921
    outer loop
      vertex -4.000 2.111 6.960
      vertex 4.000 2.111 6.960
      vertex 4.000 1.454 7.311
    endloop
  endfacet
  facet normal 0.000000 -0.471397 -0.881921
    outer loop
      vertex -4.000 2.111 6.960
      vertex 4.000 1.454 7.311
      vertex -4.000 1.454 7.311
    endloop
  endfacet
  facet normal 0.000000 0.471397 0.881921
    outer loop
      vertex -4.000 0.555 5.140
      vertex 4.000 0.555 5.140
      vertex 4.000 0.806 5.006
    endloop
  endfacet
  facet normal 0.000000 0.471397 0.881921
    outer loop
      vertex -4.000 0.555 5.140
      vertex 4.000 0.806 5.006
      vertex -4.000 0.806 5.006
    endloop
  endfacet
  facet normal -1.000000 0.000000 0.000000
    outer loop
      vertex -4.000 1.454 7.311
      vertex -4.000 2.111 6.960
      vertex -4.000 0.806 5.006
    endloop
  endfacet
  facet normal -1.000000 0.000000 0.000000
    outer loop
      vertex -4.000 1.454 7.311
      vertex -4.000 0.806 5.006
      vertex -4.000 0.555 5.140
    endloop
  endfacet
  facet normal 1.000000 0.000000 0.000000
    outer loop
      vertex 4.000 2.111 6.960
      vertex 4.000 1.454 7.311
      vertex 4.000 0.555 5.140
    endloop
  endfacet
  facet normal 1.000000 0.000000 0.000000
    outer loop
      vertex 4.000 2.111 6.960
      vertex 4.000 0.555 5.140
      vertex 4.000 0.806 5.006
    endloop
  endfacet
  facet normal 0.000000 -0.290285 -0.956940
    outer loop
      vertex -4.000 1.454 7.311
      vertex 4.000 1.454 7.311
      vertex 4.000 0.741 7.527
    endloop
  endfacet
  facet normal 0.000000 -0.290285 -0.956940
    outer loop
      vertex -4.000 1.454 7.311
      vertex 4.000 0.741 7.527
      vertex -4.000 0.741 7.527
    endloop
  endfacet
  facet normal 0.000000 0.290285 0.956940
    outer loop
      vertex -4.000 0.283 5.222
      vertex 4.000 0.283 5.222
      vertex 4.000 0.555 5.140
    endloop
  endfacet
  facet normal 0.000000 0.290285 0.956940
    outer loop
      vertex -4.000 0.283 5.222
      vertex 4.000 0.555 5.140
      vertex -4.000 0.555 5.140
    endloop
  endfacet
  facet normal -1.000000 0.000000 0.000000
    outer loop
      vertex -4.000 0.741 7.527
      vertex -4.000 1.454 7.311
      vertex -4.000 0.555 5.140
    endloop
  endfacet
  facet normal -1.000000 0.000000 0.000000
    outer loop
      vertex -4.000 0.741 7.527
      vertex -4.000 0.555 5.140
      vertex -4.000 0.283 5.222
    endloop
  endfacet
  facet normal 1.000000 0.000000 0.000000
    outer loop
      vertex 4.000 1.454 7.311
      vertex 4.000 0.741 7.527
      vertex 4.000 0.283 5.222
    endloop
  endfacet
  facet normal 1.000000 0.000000 0.000000
    outer loop
      vertex 4.000 1.454 7.311
      vertex 4.000 0.283 5.222
      vertex 4.000 0.555 5.140
    endloop
  endfacet
  facet normal 0.000000 -0.098017 -0.995185
    outer loop
      vertex -4.000 0.741 7.527
      vertex 4.000 0.741 7.527
      vertex 4.000 0.000 7.600
    endloop
  endfacet
  facet normal 0.000000 -0.098017 -0.995185
    outer loop
      vertex -4.000 0.741 7.527
      vertex 4.000 0.000 7.600
      vertex -4.000 0.000 7.600
    endloop
  endfacet
  facet normal 0.000000 0.098017 0.995185
    outer loop
      vertex -4.000 0.000 5.250
      vertex 4.000 0.000 5.250
      vertex 4.000 0.283 5.222
    endloop
  endfacet
  facet normal 0.000000 0.098017 0.995185
    outer loop
      vertex -4.000 0.000 5.250
      vertex 4.000 0.283 5.222
      vertex -4.000 0.283 5.222
    endloop
  endfacet
  facet normal -1.000000 0.000000 0.000000
    outer loop
      vertex -4.000 0.000 7.600
      vertex -4.000 0.741 7.527
      vertex -4.000 0.283 5.222
    endloop
  endfacet
  facet normal -1.000000 0.000000 0.000000
    outer loop
      vertex -4.000 0.000 7.600
      vertex -4.000 0.283 5.222
      vertex -4.000 0.000 5.250
    endloop
  endfacet
  facet normal 1.000000 0.000000 0.000000
    outer loop
      vertex 4.000 0.741 7.527
      vertex 4.000 0.000 7.600
      vertex 4.000 0.000 5.250
    endloop
  endfacet
  facet normal 1.000000 0.000000 0.000000
    outer loop
      vertex 4.000 0.741 7.527
      vertex 4.000 0.000 5.250
      vertex 4.000 0.283 5.222
    endloop
  endfacet
  facet normal 0.000000 0.098017 -0.995185
    outer loop
      vertex -4.000 0.000 7.600
      vertex 4.000 0.000 7.600
      vertex 4.000 -0.741 7.527
    endloop
  endfacet
  facet normal 0.000000 0.098017 -0.995185
    outer loop
      vertex -4.000 0.000 7.600
      vertex 4.000 -0.741 7.527
      vertex -4.000 -0.741 7.527
    endloop
  endfacet
  facet normal 0.000000 -0.098017 0.995185
    outer loop
      vertex -4.000 -0.283 5.222
      vertex 4.000 -0.283 5.222
      vertex 4.000 0.000 5.250
    endloop
  endfacet
  facet normal 0.000000 -0.098017 0.995185
    outer loop
      vertex -4.000 -0.283 5.222
      vertex 4.000 0.000 5.250
      vertex -4.000 0.000 5.250
    endloop
  endfacet
  facet normal -1.000000 0.000000 0.000000
    outer loop
      vertex -4.000 -0.741 7.527
      vertex -4.000 0.000 7.600
      vertex -4.000 0.000 5.250
    endloop
  endfacet
  facet normal -1.000000 0.000000 0.000000
    outer loop
      vertex -4.000 -0.741 7.527
      vertex -4.000 0.000 5.250
      vertex -4.000 -0.283 5.222
    endloop
  endfacet
  facet normal 1.000000 0.000000 0.000000
    outer loop
      vertex 4.000 0.000 7.600
      vertex 4.000 -0.741 7.527
      vertex 4.000 -0.283 5.222
    endloop
  endfacet
  facet normal 1.000000 0.000000 0.000000
    outer loop
      vertex 4.000 0.000 7.600
      vertex 4.000 -0.283 5.222
      vertex 4.000 0.000 5.250
    endloop
  endfacet
  facet normal 0.000000 0.290285 -0.956940
    outer loop
      vertex -4.000 -0.741 7.527
      vertex 4.000 -0.741 7.527
      vertex 4.000 -1.454 7.311
    endloop
  endfacet
  facet normal 0.000000 0.290285 -0.956940
    outer loop
      vertex -4.000 -0.741 7.527
      vertex 4.000 -1.454 7.311
      vertex -4.000 -1.454 7.311
    endloop
  endfacet
  facet normal 0.000000 -0.290285 0.956940
    outer loop
      vertex -4.000 -0.555 5.140
      vertex 4.000 -0.555 5.140
      vertex 4.000 -0.283 5.222
    endloop
  endfacet
  facet normal 0.000000 -0.290285 0.956940
    outer loop
      vertex -4.000 -0.555 5.140
      vertex 4.000 -0.283 5.222
      vertex -4.000 -0.283 5.222
    endloop
  endfacet
  facet normal -1.000000 0.000000 0.000000
    outer loop
      vertex -4.000 -1.454 7.311
      vertex -4.000 -0.741 7.527
      vertex -4.000 -0.283 5.222
    endloop
  endfacet
  facet normal -1.000000 0.000000 0.000000
    outer loop
      vertex -4.000 -1.454 7.311
      vertex -4.000 -0.283 5.222
      vertex -4.000 -0.555 5.140
    endloop
  endfacet
  facet normal 1.000000 0.000000 0.000000
    outer loop
      vertex 4.000 -0.741 7.527
      vertex 4.000 -1.454 7.311
      vertex 4.000 -0.555 5.140
    endloop
  endfacet
  facet normal 1.000000 0.000000 0.000000
    outer loop
      vertex 4.000 -0.741 7.527
      vertex 4.000 -0.555 5.140
      vertex 4.000 -0.283 5.222
    endloop
  endfacet
  facet normal 0.000000 0.471397 -0.881921
    outer loop
      vertex -4.000 -1.454 7.311
      vertex 4.000 -1.454 7.311
      vertex 4.000 -2.111 6.960
    endloop
  endfacet
  facet normal 0.000000 0.471397 -0.881921
    outer loop
      vertex -4.000 -1.454 7.311
      vertex 4.000 -2.111 6.960
      vertex -4.000 -2.111 6.960
    endloop
  endfacet
  facet normal 0.000000 -0.471397 0.881921
    outer loop
      vertex -4.000 -0.806 5.006
      vertex 4.000 -0.806 5.006
      vertex 4.000 -0.555 5.140
    endloop
  endfacet
  facet normal 0.000000 -0.471397 0.881921
    outer loop
      vertex -4.000 -0.806 5.006
      vertex 4.000 -0.555 5.140
      vertex -4.000 -0.555 5.140
    endloop
  endfacet
  facet normal -1.000000 0.000000 0.000000
    outer loop
      vertex -4.000 -2.111 6.960
      vertex -4.000 -1.454 7.311
      vertex -4.000 -0.555 5.140
    endloop
  endfacet
  facet normal -1.000000 0.000000 0.000000
    outer loop
      vertex -4.000 -2.111 6.960
      vertex -4.000 -0.555 5.140
      vertex -4.000 -0.806 5.006
    endloop
  endfacet
  facet normal 1.000000 0.000000 0.000000
    outer loop
      vertex 4.000 -1.454 7.311
      vertex 4.000 -2.111 6.960
      vertex 4.000 -0.806 5.006
    endloop
  endfacet
  facet normal 1.000000 0.000000 0.000000
    outer loop
      vertex 4.000 -1.454 7.311
      vertex 4.000 -0.806 5.006
      vertex 4.000 -0.555 5.140
    endloop
  endfacet
  facet normal 0.000000 0.634393 -0.773010
    outer loop
      vertex -4.000 -2.111 6.960
      vertex 4.000 -2.111 6.960
      vertex 4.000 -2.687 6.487
    endloop
  endfacet
  facet normal 0.000000 0.634393 -0.773010
    outer loop
      vertex -4.000 -2.111 6.960
      vertex 4.000 -2.687 6.487
      vertex -4.000 -2.687 6.487
    endloop
  endfacet
  facet normal 0.000000 -0.634393 0.773010
    outer loop
      vertex -4.000 -1.025 4.825
      vertex 4.000 -1.025 4.825
      vertex 4.000 -0.806 5.006
    endloop
  endfacet
  facet normal 0.000000 -0.634393 0.773010
    outer loop
      vertex -4.000 -1.025 4.825
      vertex 4.000 -0.806 5.006
      vertex -4.000 -0.806 5.006
    endloop
  endfacet
  facet normal -1.000000 0.000000 0.000000
    outer loop
      vertex -4.000 -2.687 6.487
      vertex -4.000 -2.111 6.960
      vertex -4.000 -0.806 5.006
    endloop
  endfacet
  facet normal -1.000000 0.000000 0.000000
    outer loop
      vertex -4.000 -2.687 6.487
      vertex -4.000 -0.806 5.006
      vertex -4.000 -1.025 4.825
    endloop
  endfacet
  facet normal 1.000000 0.000000 0.000000
    outer loop
      vertex 4.000 -2.111 6.960
      vertex 4.000 -2.687 6.487
      vertex 4.000 -1.025 4.825
    endloop
  endfacet
  facet normal 1.000000 0.000000 0.000000
    outer loop
      vertex 4.000 -2.111 6.960
      vertex 4.000 -1.025 4.825
      vertex 4.000 -0.806 5.006
    endloop
  endfacet
  facet normal 0.000000 0.773010 -0.634393
    outer loop
      vertex -4.000 -2.687 6.487
      vertex 4.000 -2.687 6.487
      vertex 4.000 -3.160 5.911
    endloop
  endfacet
  facet normal 0.000000 0.773010 -0.634393
    outer loop
      vertex -4.000 -2.687 6.487
      vertex 4.000 -3.160 5.911
      vertex -4.000 -3.160 5.911
    endloop
  endfacet
  facet normal 0.000000 -0.773010 0.634393
    outer loop
      vertex -4.000 -1.206 4.606
      vertex 4.000 -1.206 4.606
      vertex 4.000 -1.025 4.825
    endloop
  endfacet
  facet normal 0.000000 -0.773010 0.634393
    outer loop
      vertex -4.000 -1.206 4.606
      vertex 4.000 -1.025 4.825
      vertex -4.000 -1.025 4.825
    endloop
  endfacet
  facet normal -1.000000 0.000000 0.000000
    outer loop
      vertex -4.000 -3.160 5.911
      vertex -4.000 -2.687 6.487
      vertex -4.000 -1.025 4.825
    endloop
  endfacet
  facet normal -1.000000 0.000000 0.000000
    outer loop
      vertex -4.000 -3.160 5.911
      vertex -4.000 -1.025 4.825
      vertex -4.000 -1.206 4.606
    endloop
  endfacet
  facet normal 1.000000 0.000000 0.000000
    outer loop
      vertex 4.000 -2.687 6.487
      vertex 4.000 -3.160 5.911
      vertex 4.000 -1.206 4.606
    endloop
  endfacet
  facet normal 1.000000 0.000000 0.000000
    outer loop
      vertex 4.000 -2.687 6.487
      vertex 4.000 -1.206 4.606
      vertex 4.000 -1.025 4.825
    endloop
  endfacet
  facet normal 0.000000 0.881921 -0.471397
    outer loop
      vertex -4.000 -3.160 5.911
      vertex 4.000 -3.160 5.911
      vertex 4.000 -3.511 5.254
    endloop
  endfacet
  facet normal 0.000000 0.881921 -0.471397
    outer loop
      vertex -4.000 -3.160 5.911
      vertex 4.000 -3.511 5.254
      vertex -4.000 -3.511 5.254
    endloop
  endfacet
  facet normal 0.000000 -0.881921 0.471397
    outer loop
      vertex -4.000 -1.340 4.355
      vertex 4.000 -1.340 4.355
      vertex 4.000 -1.206 4.606
    endloop
  endfacet
  facet normal 0.000000 -0.881921 0.471397
    outer loop
      vertex -4.000 -1.340 4.355
      vertex 4.000 -1.206 4.606
      vertex -4.000 -1.206 4.606
    endloop
  endfacet
  facet normal -1.000000 0.000000 0.000000
    outer loop
      vertex -4.000 -3.511 5.254
      vertex -4.000 -3.160 5.911
      vertex -4.000 -1.206 4.606
    endloop
  endfacet
  facet normal -1.000000 0.000000 0.000000
    outer loop
      vertex -4.000 -3.511 5.254
      vertex -4.000 -1.206 4.606
      vertex -4.000 -1.340 4.355
    endloop
  endfacet
  facet normal 1.000000 0.000000 0.000000
    outer loop
      vertex 4.000 -3.160 5.911
      vertex 4.000 -3.511 5.254
      vertex 4.000 -1.340 4.355
    endloop
  endfacet
  facet normal 1.000000 0.000000 0.000000
    outer loop
      vertex 4.000 -3.160 5.911
      vertex 4.000 -1.340 4.355
      vertex 4.000 -1.206 4.606
    endloop
  endfacet
  facet normal 0.000000 0.956940 -0.290285
    outer loop
      vertex -4.000 -3.511 5.254
      vertex 4.000 -3.511 5.254
      vertex 4.000 -3.727 4.541
    endloop
  endfacet
  facet normal 0.000000 0.956940 -0.290285
    outer loop
      vertex -4.000 -3.511 5.254
      vertex 4.000 -3.727 4.541
      vertex -4.000 -3.727 4.541
    endloop
  endfacet
  facet normal 0.000000 -0.956940 0.290285
    outer loop
      vertex -4.000 -1.422 4.083
      vertex 4.000 -1.422 4.083
      vertex 4.000 -1.340 4.355
    endloop
  endfacet
  facet normal 0.000000 -0.956940 0.290285
    outer loop
      vertex -4.000 -1.422 4.083
      vertex 4.000 -1.340 4.355
      vertex -4.000 -1.340 4.355
    endloop
  endfacet
  facet normal -1.000000 0.000000 0.000000
    outer loop
      vertex -4.000 -3.727 4.541
      vertex -4.000 -3.511 5.254
      vertex -4.000 -1.340 4.355
    endloop
  endfacet
  facet normal -1.000000 0.000000 0.000000
    outer loop
      vertex -4.000 -3.727 4.541
      vertex -4.000 -1.340 4.355
      vertex -4.000 -1.422 4.083
    endloop
  endfacet
  facet normal 1.000000 0.000000 0.000000
    outer loop
      vertex 4.000 -3.511 5.254
      vertex 4.000 -3.727 4.541
      vertex 4.000 -1.422 4.083
    endloop
  endfacet
  facet normal 1.000000 0.000000 0.000000
    outer loop
      vertex 4.000 -3.511 5.254
      vertex 4.000 -1.422 4.083
      vertex 4.000 -1.340 4.355
    endloop
  endfacet
  facet normal 0.000000 0.995185 -0.098017
    outer loop
      vertex -4.000 -3.727 4.541
      vertex 4.000 -3.727 4.541
      vertex 4.000 -3.800 3.800
    endloop
  endfacet
  facet normal 0.000000 0.995185 -0.098017
    outer loop
      vertex -4.000 -3.727 4.541
      vertex 4.000 -3.800 3.800
      vertex -4.000 -3.800 3.800
    endloop
  endfacet
  facet normal 0.000000 -0.995185 0.098017
    outer loop
      vertex -4.000 -1.450 3.800
      vertex 4.000 -1.450 3.800
      vertex 4.000 -1.422 4.083
    endloop
  endfacet
  facet normal 0.000000 -0.995185 0.098017
    outer loop
      vertex -4.000 -1.450 3.800
      vertex 4.000 -1.422 4.083
      vertex -4.000 -1.422 4.083
    endloop
  endfacet
  facet normal -1.000000 0.000000 0.000000
    outer loop
      vertex -4.000 -3.800 3.800
      vertex -4.000 -3.727 4.541
      vertex -4.000 -1.422 4.083
    endloop
  endfacet
  facet normal -1.000000 0.000000 0.000000
    outer loop
      vertex -4.000 -3.800 3.800
      vertex -4.000 -1.422 4.083
      vertex -4.000 -1.450 3.800
    endloop
  endfacet
  facet normal 1.000000 0.000000 0.000000
    outer loop
      vertex 4.000 -3.727 4.541
      vertex 4.000 -3.800 3.800
      vertex 4.000 -1.450 3.800
    endloop
  endfacet
  facet normal 1.000000 0.000000 0.000000
    outer loop
      vertex 4.000 -3.727 4.541
      vertex 4.000 -1.450 3.800
      vertex 4.000 -1.422 4.083
    endloop
  endfacet
  facet normal 0.000000 0.995185 0.098017
    outer loop
      vertex -4.000 -3.800 3.800
      vertex 4.000 -3.800 3.800
      vertex 4.000 -3.727 3.059
    endloop
  endfacet
  facet normal 0.000000 0.995185 0.098017
    outer loop
      vertex -4.000 -3.800 3.800
      vertex 4.000 -3.727 3.059
      vertex -4.000 -3.727 3.059
    endloop
  endfacet
  facet normal 0.000000 -0.995185 -0.098017
    outer loop
      vertex -4.000 -1.422 3.517
      vertex 4.000 -1.422 3.517
      vertex 4.000 -1.450 3.800
    endloop
  endfacet
  facet normal 0.000000 -0.995185 -0.098017
    outer loop
      vertex -4.000 -1.422 3.517
      vertex 4.000 -1.450 3.800
      vertex -4.000 -1.450 3.800
    endloop
  endfacet
  facet normal -1.000000 0.000000 0.000000
    outer loop
      vertex -4.000 -3.727 3.059
      vertex -4.000 -3.800 3.800
      vertex -4.000 -1.450 3.800
    endloop
  endfacet
  facet normal -1.000000 0.000000 0.000000
    outer loop
      vertex -4.000 -3.727 3.059
      vertex -4.000 -1.450 3.800
      vertex -4.000 -1.422 3.517
    endloop
  endfacet
  facet normal 1.000000 0.000000 0.000000
    outer loop
      vertex 4.000 -3.800 3.800
      vertex 4.000 -3.727 3.059
      vertex 4.000 -1.422 3.517
    endloop
  endfacet
  facet normal 1.000000 0.000000 0.000000
    outer loop
      vertex 4.000 -3.800 3.800
      vertex 4.000 -1.422 3.517
      vertex 4.000 -1.450 3.800
    endloop
  endfacet
  facet normal 0.000000 0.956940 0.290285
    outer loop
      vertex -4.000 -3.727 3.059
      vertex 4.000 -3.727 3.059
      vertex 4.000 -3.511 2.346
    endloop
  endfacet
  facet normal 0.000000 0.956940 0.290285
    outer loop
      vertex -4.000 -3.727 3.059
      vertex 4.000 -3.511 2.346
      vertex -4.000 -3.511 2.346
    endloop
  endfacet
  facet normal 0.000000 -0.956940 -0.290285
    outer loop
      vertex -4.000 -1.340 3.245
      vertex 4.000 -1.340 3.245
      vertex 4.000 -1.422 3.517
    endloop
  endfacet
  facet normal 0.000000 -0.956940 -0.290285
    outer loop
      vertex -4.000 -1.340 3.245
      vertex 4.000 -1.422 3.517
      vertex -4.000 -1.422 3.517
    endloop
  endfacet
  facet normal -1.000000 0.000000 0.000000
    outer loop
      vertex -4.000 -3.511 2.346
      vertex -4.000 -3.727 3.059
      vertex -4.000 -1.422 3.517
    endloop
  endfacet
  facet normal -1.000000 0.000000 0.000000
    outer loop
      vertex -4.000 -3.511 2.346
      vertex -4.000 -1.422 3.517
      vertex -4.000 -1.340 3.245
    endloop
  endfacet
  facet normal 1.000000 0.000000 0.000000
    outer loop
      vertex 4.000 -3.727 3.059
      vertex 4.000 -3.511 2.346
      vertex 4.000 -1.340 3.245
    endloop
  endfacet
  facet normal 1.000000 0.000000 0.000000
    outer loop
      vertex 4.000 -3.727 3.059
      vertex 4.000 -1.340 3.245
      vertex 4.000 -1.422 3.517
    endloop
  endfacet
  facet normal 0.000000 0.881921 0.471397
    outer loop
      vertex -4.000 -3.511 2.346
      vertex 4.000 -3.511 2.346
      vertex 4.000 -3.160 1.689
    endloop
  endfacet
  facet normal 0.000000 0.881921 0.471397
    outer loop
      vertex -4.000 -3.511 2.346
      vertex 4.000 -3.160 1.689
      vertex -4.000 -3.160 1.689
    endloop
  endfacet
  facet normal 0.000000 -0.881921 -0.471397
    outer loop
      vertex -4.000 -1.206 2.994
      vertex 4.000 -1.206 2.994
      vertex 4.000 -1.340 3.245
    endloop
  endfacet
  facet normal 0.000000 -0.881921 -0.471397
    outer loop
      vertex -4.000 -1.206 2.994
      vertex 4.000 -1.340 3.245
      vertex -4.000 -1.340 3.245
    endloop
  endfacet
  facet normal -1.000000 0.000000 0.000000
    outer loop
      vertex -4.000 -3.160 1.689
      vertex -4.000 -3.511 2.346
      vertex -4.000 -1.340 3.245
    endloop
  endfacet
  facet normal -1.000000 0.000000 0.000000
    outer loop
      vertex -4.000 -3.160 1.689
      vertex -4.000 -1.340 3.245
      vertex -4.000 -1.206 2.994
    endloop
  endfacet
  facet normal 1.000000 0.000000 0.000000
    outer loop
      vertex 4.000 -3.511 2.346
      vertex 4.000 -3.160 1.689
      vertex 4.000 -1.206 2.994
    endloop
  endfacet
  facet normal 1.000000 0.000000 0.000000
    outer loop
      vertex 4.000 -3.511 2.346
      vertex 4.000 -1.206 2.994
      vertex 4.000 -1.340 3.245
    endloop
  endfacet
  facet normal 0.000000 0.773010 0.634393
    outer loop
      vertex -4.000 -3.160 1.689
      vertex 4.000 -3.160 1.689
      vertex 4.000 -2.687 1.113
    endloop
  endfacet
  facet normal 0.000000 0.773010 0.634393
    outer loop
      vertex -4.000 -3.160 1.689
      vertex 4.000 -2.687 1.113
      vertex -4.000 -2.687 1.113
    endloop
  endfacet
  facet normal 0.000000 -0.773010 -0.634393
    outer loop
      vertex -4.000 -1.025 2.775
      vertex 4.000 -1.025 2.775
      vertex 4.000 -1.206 2.994
    endloop
  endfacet
  facet normal 0.000000 -0.773010 -0.634393
    outer loop
      vertex -4.000 -1.025 2.775
      vertex 4.000 -1.206 2.994
      vertex -4.000 -1.206 2.994
    endloop
  endfacet
  facet normal -1.000000 0.000000 0.000000
    outer loop
      vertex -4.000 -2.687 1.113
      vertex -4.000 -3.160 1.689
      vertex -4.000 -1.206 2.994
    endloop
  endfacet
  facet normal -1.000000 0.000000 0.000000
    outer loop
      vertex -4.000 -2.687 1.113
      vertex -4.000 -1.206 2.994
      vertex -4.000 -1.025 2.775
    endloop
  endfacet
  facet normal 1.000000 0.000000 0.000000
    outer loop
      vertex 4.000 -3.160 1.689
      vertex 4.000 -2.687 1.113
      vertex 4.000 -1.025 2.775
    endloop
  endfacet
  facet normal 1.000000 0.000000 0.000000
    outer loop
      vertex 4.000 -3.160 1.689
      vertex 4.000 -1.025 2.775
      vertex 4.000 -1.206 2.994
    endloop
  endfacet
  facet normal 0.000000 0.634393 0.773010
    outer loop
      vertex -4.000 -2.687 1.113
      vertex 4.000 -2.687 1.113
      vertex 4.000 -2.111 0.640
    endloop
  endfacet
  facet normal 0.000000 0.634393 0.773010
    outer loop
      vertex -4.000 -2.687 1.113
      vertex 4.000 -2.111 0.640
      vertex -4.000 -2.111 0.640
    endloop
  endfacet
  facet normal 0.000000 -0.634393 -0.773010
    outer loop
      vertex -4.000 -0.806 2.594
      vertex 4.000 -0.806 2.594
      vertex 4.000 -1.025 2.775
    endloop
  endfacet
  facet normal 0.000000 -0.634393 -0.773010
    outer loop
      vertex -4.000 -0.806 2.594
      vertex 4.000 -1.025 2.775
      vertex -4.000 -1.025 2.775
    endloop
  endfacet
  facet normal -1.000000 0.000000 0.000000
    outer loop
      vertex -4.000 -2.111 0.640
      vertex -4.000 -2.687 1.113
      vertex -4.000 -1.025 2.775
    endloop
  endfacet
  facet normal -1.000000 0.000000 0.000000
    outer loop
      vertex -4.000 -2.111 0.640
      vertex -4.000 -1.025 2.775
      vertex -4.000 -0.806 2.594
    endloop
  endfacet
  facet normal 1.000000 0.000000 0.000000
    outer loop
      vertex 4.000 -2.687 1.113
      vertex 4.000 -2.111 0.640
      vertex 4.000 -0.806 2.594
    endloop
  endfacet
  facet normal 1.000000 0.000000 0.000000
    outer loop
      vertex 4.000 -2.687 1.113
      vertex 4.000 -0.806 2.594
      vertex 4.000 -1.025 2.775
    endloop
  endfacet
  facet normal 0.000000 0.471397 0.881921
    outer loop
      vertex -4.000 -2.111 0.640
      vertex 4.000 -2.111 0.640
      vertex 4.000 -1.454 0.289
    endloop
  endfacet
  facet normal 0.000000 0.471397 0.881921
    outer loop
      vertex -4.000 -2.111 0.640
      vertex 4.000 -1.454 0.289
      vertex -4.000 -1.454 0.289
    endloop
  endfacet
  facet normal 0.000000 -0.471397 -0.881921
    outer loop
      vertex -4.000 -0.555 2.460
      vertex 4.000 -0.555 2.460
      vertex 4.000 -0.806 2.594
    endloop
  endfacet
  facet normal 0.000000 -0.471397 -0.881921
    outer loop
      vertex -4.000 -0.555 2.460
      vertex 4.000 -0.806 2.594
      vertex -4.000 -0.806 2.594
    endloop
  endfacet
  facet normal -1.000000 0.000000 0.000000
    outer loop
      vertex -4.000 -1.454 0.289
      vertex -4.000 -2.111 0.640
      vertex -4.000 -0.806 2.594
    endloop
  endfacet
  facet normal -1.000000 0.000000 0.000000
    outer loop
      vertex -4.000 -1.454 0.289
      vertex -4.000 -0.806 2.594
      vertex -4.000 -0.555 2.460
    endloop
  endfacet
  facet normal 1.000000 0.000000 0.000000
    outer loop
      vertex 4.000 -2.111 0.640
      vertex 4.000 -1.454 0.289
      vertex 4.000 -0.555 2.460
    endloop
  endfacet
  facet normal 1.000000 0.000000 0.000000
    outer loop
      vertex 4.000 -2.111 0.640
      vertex 4.000 -0.555 2.460
      vertex 4.000 -0.806 2.594
    endloop
  endfacet
  facet normal 0.000000 0.290285 0.956940
    outer loop
      vertex -4.000 -1.454 0.289
      vertex 4.000 -1.454 0.289
      vertex 4.000 -0.741 0.073
    endloop
  endfacet
  facet normal 0.000000 0.290285 0.956940
    outer loop
      vertex -4.000 -1.454 0.289
      vertex 4.000 -0.741 0.073
      vertex -4.000 -0.741 0.073
    endloop
  endfacet
  facet normal 0.000000 -0.290285 -0.956940
    outer loop
      vertex -4.000 -0.283 2.378
      vertex 4.000 -0.283 2.378
      vertex 4.000 -0.555 2.460
    endloop
  endfacet
  facet normal 0.000000 -0.290285 -0.956940
    outer loop
      vertex -4.000 -0.283 2.378
      vertex 4.000 -0.555 2.460
      vertex -4.000 -0.555 2.460
    endloop
  endfacet
  facet normal -1.000000 0.000000 0.000000
    outer loop
      vertex -4.000 -0.741 0.073
      vertex -4.000 -1.454 0.289
      vertex -4.000 -0.555 2.460
    endloop
  endfacet
  facet normal -1.000000 0.000000 0.000000
    outer loop
      vertex -4.000 -0.741 0.073
      vertex -4.000 -0.555 2.460
      vertex -4.000 -0.283 2.378
    endloop
  endfacet
  facet normal 1.000000 0.000000 0.000000
    outer loop
      vertex 4.000 -1.454 0.289
      vertex 4.000 -0.741 0.073
      vertex 4.000 -0.283 2.378
    endloop
  endfacet
  facet normal 1.000000 0.000000 0.000000
    outer loop
      vertex 4.000 -1.454 0.289
      vertex 4.000 -0.283 2.378
      vertex 4.000 -0.555 2.460
    endloop
  endfacet
  facet normal 0.000000 0.098017 0.995185
    outer loop
      vertex -4.000 -0.741 0.073
      vertex 4.000 -0.741 0.073
      vertex 4.000 -0.000 0.000
    endloop
  endfacet
  facet normal 0.000000 0.098017 0.995185
    outer loop
      vertex -4.000 -0.741 0.073
      vertex 4.000 -0.000 0.000
      vertex -4.000 -0.000 0.000
    endloop
  endfacet
  facet normal 0.000000 -0.098017 -0.995185
    outer loop
      vertex -4.000 -0.000 2.350
      vertex 4.000 -0.000 2.350
      vertex 4.000 -0.283 2.378
    endloop
  endfacet
  facet normal 0.000000 -0.098017 -0.995185
    outer loop
      vertex -4.000 -0.000 2.350
      vertex 4.000 -0.283 2.378
      vertex -4.000 -0.283 2.378
    endloop
  endfacet
  facet normal -1.000000 0.000000 0.000000
    outer loop
      vertex -4.000 -0.000 0.000
      vertex -4.000 -0.741 0.073
      vertex -4.000 -0.283 2.378
    endloop
  endfacet
  facet normal -1.000000 0.000000 0.000000
    outer loop
      vertex -4.000 -0.000 0.000
      vertex -4.000 -0.283 2.378
      vertex -4.000 -0.000 2.350
    endloop
  endfacet
  facet normal 1.000000 0.000000 0.000000
    outer loop
      vertex 4.000 -0.741 0.073
      vertex 4.000 -0.000 0.000
      vertex 4.000 -0.000 2.350
    endloop
  endfacet
  facet normal 1.000000 0.000000 0.000000
    outer loop
      vertex 4.000 -0.741 0.073
      vertex 4.000 -0.000 2.350
      vertex 4.000 -0.283 2.378
    endloop
  endfacet
  facet normal 0.000000 -0.098017 0.995185
    outer loop
      vertex -4.000 -0.000 0.000
      vertex 4.000 -0.000 0.000
      vertex 4.000 0.741 0.073
    endloop
  endfacet
  facet normal 0.000000 -0.098017 0.995185
    outer loop
      vertex -4.000 -0.000 0.000
      vertex 4.000 0.741 0.073
      vertex -4.000 0.741 0.073
    endloop
  endfacet
  facet normal 0.000000 0.098017 -0.995185
    outer loop
      vertex -4.000 0.283 2.378
      vertex 4.000 0.283 2.378
      vertex 4.000 -0.000 2.350
    endloop
  endfacet
  facet normal 0.000000 0.098017 -0.995185
    outer loop
      vertex -4.000 0.283 2.378
      vertex 4.000 -0.000 2.350
      vertex -4.000 -0.000 2.350
    endloop
  endfacet
  facet normal -1.000000 0.000000 0.000000
    outer loop
      vertex -4.000 0.741 0.073
      vertex -4.000 -0.000 0.000
      vertex -4.000 -0.000 2.350
    endloop
  endfacet
  facet normal -1.000000 0.000000 0.000000
    outer loop
      vertex -4.000 0.741 0.073
      vertex -4.000 -0.000 2.350
      vertex -4.000 0.283 2.378
    endloop
  endfacet
  facet normal 1.000000 0.000000 0.000000
    outer loop
      vertex 4.000 -0.000 0.000
      vertex 4.000 0.741 0.073
      vertex 4.000 0.283 2.378
    endloop
  endfacet
  facet normal 1.000000 0.000000 0.000000
    outer loop
      vertex 4.000 -0.000 0.000
      vertex 4.000 0.283 2.378
      vertex 4.000 -0.000 2.350
    endloop
  endfacet
  facet normal 0.000000 -0.290285 0.956940
    outer loop
      vertex -4.000 0.741 0.073
      vertex 4.000 0.741 0.073
      vertex 4.000 1.454 0.289
    endloop
  endfacet
  facet normal 0.000000 -0.290285 0.956940
    outer loop
      vertex -4.000 0.741 0.073
      vertex 4.000 1.454 0.289
      vertex -4.000 1.454 0.289
    endloop
  endfacet
  facet normal 0.000000 0.290285 -0.956940
    outer loop
      vertex -4.000 0.555 2.460
      vertex 4.000 0.555 2.460
      vertex 4.000 0.283 2.378
    endloop
  endfacet
  facet normal 0.000000 0.290285 -0.956940
    outer loop
      vertex -4.000 0.555 2.460
      vertex 4.000 0.283 2.378
      vertex -4.000 0.283 2.378
    endloop
  endfacet
  facet normal -1.000000 0.000000 0.000000
    outer loop
      vertex -4.000 1.454 0.289
      vertex -4.000 0.741 0.073
      vertex -4.000 0.283 2.378
    endloop
  endfacet
  facet normal -1.000000 0.000000 0.000000
    outer loop
      vertex -4.000 1.454 0.289
      vertex -4.000 0.283 2.378
      vertex -4.000 0.555 2.460
    endloop
  endfacet
  facet normal 1.000000 0.000000 0.000000
    outer loop
      vertex 4.000 0.741 0.073
      vertex 4.000 1.454 0.289
      vertex 4.000 0.555 2.460
    endloop
  endfacet
  facet normal 1.000000 0.000000 0.000000
    outer loop
      vertex 4.000 0.741 0.073
      vertex 4.000 0.555 2.460
      vertex 4.000 0.283 2.378
    endloop
  endfacet
  facet normal 0.000000 -0.471397 0.881921
    outer loop
      vertex -4.000 1.454 0.289
      vertex 4.000 1.454 0.289
      vertex 4.000 2.111 0.640
    endloop
  endfacet
  facet normal 0.000000 -0.471397 0.881921
    outer loop
      vertex -4.000 1.454 0.289
      vertex 4.000 2.111 0.640
      vertex -4.000 2.111 0.640
    endloop
  endfacet
  facet normal 0.000000 0.471397 -0.881921
    outer loop
      vertex -4.000 0.806 2.594
      vertex 4.000 0.806 2.594
      vertex 4.000 0.555 2.460
    endloop
  endfacet
  facet normal 0.000000 0.471397 -0.881921
    outer loop
      vertex -4.000 0.806 2.594
      vertex 4.000 0.555 2.460
      vertex -4.000 0.555 2.460
    endloop
  endfacet
  facet normal -1.000000 0.000000 0.000000
    outer loop
      vertex -4.000 2.111 0.640
      vertex -4.000 1.454 0.289
      vertex -4.000 0.555 2.460
    endloop
  endfacet
  facet normal -1.000000 0.000000 0.000000
    outer loop
      vertex -4.000 2.111 0.640
      vertex -4.000 0.555 2.460
      vertex -4.000 0.806 2.594
    endloop
  endfacet
  facet normal 1.000000 0.000000 0.000000
    outer loop
      vertex 4.000 1.454 0.289
      vertex 4.000 2.111 0.640
      vertex 4.000 0.806 2.594
    endloop
  endfacet
  facet normal 1.000000 0.000000 0.000000
    outer loop
      vertex 4.000 1.454 0.289
      vertex 4.000 0.806 2.594
      vertex 4.000 0.555 2.460
    endloop
  endfacet
  facet normal 0.000000 -0.634393 0.773010
    outer loop
      vertex -4.000 2.111 0.640
      vertex 4.000 2.111 0.640
      vertex 4.000 2.687 1.113
    endloop
  endfacet
  facet normal 0.000000 -0.634393 0.773010
    outer loop
      vertex -4.000 2.111 0.640
      vertex 4.000 2.687 1.113
      vertex -4.000 2.687 1.113
    endloop
  endfacet
  facet normal 0.000000 0.634393 -0.773010
    outer loop
      vertex -4.000 1.025 2.775
      vertex 4.000 1.025 2.775
      vertex 4.000 0.806 2.594
    endloop
  endfacet
  facet normal 0.000000 0.634393 -0.773010
    outer loop
      vertex -4.000 1.025 2.775
      vertex 4.000 0.806 2.594
      vertex -4.000 0.806 2.594
    endloop
  endfacet
  facet normal -1.000000 0.000000 0.000000
    outer loop
      vertex -4.000 2.687 1.113
      vertex -4.000 2.111 0.640
      vertex -4.000 0.806 2.594
    endloop
  endfacet
  facet normal -1.000000 0.000000 0.000000
    outer loop
      vertex -4.000 2.687 1.113
      vertex -4.000 0.806 2.594
      vertex -4.000 1.025 2.775
    endloop
  endfacet
  facet normal 1.000000 0.000000 0.000000
    outer loop
      vertex 4.000 2.111 0.640
      vertex 4.000 2.687 1.113
      vertex 4.000 1.025 2.775
    endloop
  endfacet
  facet normal 1.000000 0.000000 0.000000
    outer loop
      vertex 4.000 2.111 0.640
      vertex 4.000 1.025 2.775
      vertex 4.000 0.806 2.594
    endloop
  endfacet
  facet normal 0.000000 -0.773010 0.634393
    outer loop
      vertex -4.000 2.687 1.113
      vertex 4.000 2.687 1.113
      vertex 4.000 3.160 1.689
    endloop
  endfacet
  facet normal 0.000000 -0.773010 0.634393
    outer loop
      vertex -4.000 2.687 1.113
      vertex 4.000 3.160 1.689
      vertex -4.000 3.160 1.689
    endloop
  endfacet
  facet normal 0.000000 0.773010 -0.634393
    outer loop
      vertex -4.000 1.206 2.994
      vertex 4.000 1.206 2.994
      vertex 4.000 1.025 2.775
    endloop
  endfacet
  facet normal 0.000000 0.773010 -0.634393
    outer loop
      vertex -4.000 1.206 2.994
      vertex 4.000 1.025 2.775
      vertex -4.000 1.025 2.775
    endloop
  endfacet
  facet normal -1.000000 0.000000 0.000000
    outer loop
      vertex -4.000 3.160 1.689
      vertex -4.000 2.687 1.113
      vertex -4.000 1.025 2.775
    endloop
  endfacet
  facet normal -1.000000 0.000000 0.000000
    outer loop
      vertex -4.000 3.160 1.689
      vertex -4.000 1.025 2.775
      vertex -4.000 1.206 2.994
    endloop
  endfacet
  facet normal 1.000000 0.000000 0.000000
    outer loop
      vertex 4.000 2.687 1.113
      vertex 4.000 3.160 1.689
      vertex 4.000 1.206 2.994
    endloop
  endfacet
  facet normal 1.000000 0.000000 0.000000
    outer loop
      vertex 4.000 2.687 1.113
      vertex 4.000 1.206 2.994
      vertex 4.000 1.025 2.775
    endloop
  endfacet
  facet normal 0.000000 -0.881921 0.471397
    outer loop
      vertex -4.000 3.160 1.689
      vertex 4.000 3.160 1.689
      vertex 4.000 3.511 2.346
    endloop
  endfacet
  facet normal 0.000000 -0.881921 0.471397
    outer loop
      vertex -4.000 3.160 1.689
      vertex 4.000 3.511 2.346
      vertex -4.000 3.511 2.346
    endloop
  endfacet
  facet normal 0.000000 0.881921 -0.471397
    outer loop
      vertex -4.000 1.340 3.245
      vertex 4.000 1.340 3.245
      vertex 4.000 1.206 2.994
    endloop
  endfacet
  facet normal 0.000000 0.881921 -0.471397
    outer loop
      vertex -4.000 1.340 3.245
      vertex 4.000 1.206 2.994
      vertex -4.000 1.206 2.994
    endloop
  endfacet
  facet normal -1.000000 0.000000 0.000000
    outer loop
      vertex -4.000 3.511 2.346
      vertex -4.000 3.160 1.689
      vertex -4.000 1.206 2.994
    endloop
  endfacet
  facet normal -1.000000 0.000000 0.000000
    outer loop
      vertex -4.000 3.511 2.346
      vertex -4.000 1.206 2.994
      vertex -4.000 1.340 3.245
    endloop
  endfacet
  facet normal 1.000000 0.000000 0.000000
    outer loop
      vertex 4.000 3.160 1.689
      vertex 4.000 3.511 2.346
      vertex 4.000 1.340 3.245
    endloop
  endfacet
  facet normal 1.000000 0.000000 0.000000
    outer loop
      vertex 4.000 3.160 1.689
      vertex 4.000 1.340 3.245
      vertex 4.000 1.206 2.994
    endloop
  endfacet
  facet normal 0.000000 -0.956940 0.290285
    outer loop
      vertex -4.000 3.511 2.346
      vertex 4.000 3.511 2.346
      vertex 4.000 3.727 3.059
    endloop
  endfacet
  facet normal 0.000000 -0.956940 0.290285
    outer loop
      vertex -4.000 3.511 2.346
      vertex 4.000 3.727 3.059
      vertex -4.000 3.727 3.059
    endloop
  endfacet
  facet normal 0.000000 0.956940 -0.290285
    outer loop
      vertex -4.000 1.422 3.517
      vertex 4.000 1.422 3.517
      vertex 4.000 1.340 3.245
    endloop
  endfacet
  facet normal 0.000000 0.956940 -0.290285
    outer loop
      vertex -4.000 1.422 3.517
      vertex 4.000 1.340 3.245
      vertex -4.000 1.340 3.245
    endloop
  endfacet
  facet normal -1.000000 0.000000 0.000000
    outer loop
      vertex -4.000 3.727 3.059
      vertex -4.000 3.511 2.346
      vertex -4.000 1.340 3.245
    endloop
  endfacet
  facet normal -1.000000 0.000000 0.000000
    outer loop
      vertex -4.000 3.727 3.059
      vertex -4.000 1.340 3.245
      vertex -4.000 1.422 3.517
    endloop
  endfacet
  facet normal 1.000000 0.000000 0.000000
    outer loop
      vertex 4.000 3.511 2.346
      vertex 4.000 3.727 3.059
      vertex 4.000 1.422 3.517
    endloop
  endfacet
  facet normal 1.000000 0.000000 0.000000
    outer loop
      vertex 4.000 3.511 2.346
      vertex 4.000 1.422 3.517
      vertex 4.000 1.340 3.245
    endloop
  endfacet
  facet normal 0.000000 -0.995185 0.098017
    outer loop
      vertex -4.000 3.727 3.059
      vertex 4.000 3.727 3.059
      vertex 4.000 3.800 3.800
    endloop
  endfacet
  facet normal 0.000000 -0.995185 0.098017
    outer loop
      vertex -4.000 3.727 3.059
      vertex 4.000 3.800 3.800
      vertex -4.000 3.800 3.800
    endloop
  endfacet
  facet normal 0.000000 0.995185 -0.098017
    outer loop
      vertex -4.000 1.450 3.800
      vertex 4.000 1.450 3.800
      vertex 4.000 1.422 3.517
    endloop
  endfacet
  facet normal 0.000000 0.995185 -0.098017
    outer loop
      vertex -4.000 1.450 3.800
      vertex 4.000 1.422 3.517
      vertex -4.000 1.422 3.517
    endloop
  endfacet
  facet normal -1.000000 0.000000 0.000000
    outer loop
      vertex -4.000 3.800 3.800
      vertex -4.000 3.727 3.059
      vertex -4.000 1.422 3.517
    endloop
  endfacet
  facet normal -1.000000 0.000000 0.000000
    outer loop
      vertex -4.000 3.800 3.800
      vertex -4.000 1.422 3.517
      vertex -4.000 1.450 3.800
    endloop
  endfacet
  facet normal 1.000000 0.000000 0.000000
    outer loop
      vertex 4.000 3.727 3.059
      vertex 4.000 3.800 3.800
      vertex 4.000 1.450 3.800
    endloop
  endfacet
  facet normal 1.000000 0.000000 0.000000
    outer loop
      vertex 4.000 3.727 3.059
      vertex 4.000 1.450 3.800
      vertex 4.000 1.422 3.517
    endloop
  endfacet
  facet normal 0.000000 0.000000 1.000000
    outer loop
      vertex -4.000 -4.800 2.300
      vertex 4.000 -4.800 2.300
      vertex 4.000 -3.800 2.300
    endloop
  endfacet
  facet normal 0.000000 0.000000 1.000000
    outer loop
      vertex -4.000 -4.800 2.300
      vertex 4.000 -3.800 2.300
      vertex -4.000 -3.800 2.300
    endloop
  endfacet
  facet normal 0.000000 0.000000 -1.000000
    outer loop
      vertex -4.000 -4.800 5.300
      vertex -4.000 -3.800 5.300
      vertex 4.000 -3.800 5.300
    endloop
  endfacet
  facet normal 0.000000 0.000000 -1.000000
    outer loop
      vertex -4.000 -4.800 5.300
      vertex 4.000 -3.800 5.300
      vertex 4.000 -4.800 5.300
    endloop
  endfacet
  facet normal 0.000000 1.000000 0.000000
    outer loop
      vertex -4.000 -4.800 2.300
      vertex -4.000 -4.800 5.300
      vertex 4.000 -4.800 5.300
    endloop
  endfacet
  facet normal 0.000000 1.000000 0.000000
    outer loop
      vertex -4.000 -4.800 2.300
      vertex 4.000 -4.800 5.300
      vertex 4.000 -4.800 2.300
    endloop
  endfacet
  facet normal -1.000000 0.000000 0.000000
    outer loop
      vertex 4.000 -4.800 2.300
      vertex 4.000 -4.800 5.300
      vertex 4.000 -3.800 5.300
    endloop
  endfacet
  facet normal -1.000000 0.000000 0.000000
    outer loop
      vertex 4.000 -4.800 2.300
      vertex 4.000 -3.800 5.300
      vertex 4.000 -3.800 2.300
    endloop
  endfacet
  facet normal 0.000000 -1.000000 0.000000
    outer loop
      vertex 4.000 -3.800 2.300
      vertex 4.000 -3.800 5.300
      vertex -4.000 -3.800 5.300
    endloop
  endfacet
  facet normal 0.000000 -1.000000 0.000000
    outer loop
      vertex 4.000 -3.800 2.300
      vertex -4.000 -3.800 5.300
      vertex -4.000 -3.800 2.300
    endloop
  endfacet
  facet normal 1.000000 0.000000 0.000000
    outer loop
      vertex -4.000 -3.800 2.300
      vertex -4.000 -3.800 5.300
      vertex -4.000 -4.800 5.300
    endloop
  endfacet
  facet normal 1.000000 0.000000 0.000000
    outer loop
      vertex -4.000 -3.800 2.300
      vertex -4.000 -4.800 5.300
      vertex -4.000 -4.800 2.300
    endloop
  endfacet
endsolid food_caddy_k1se_hinge_retainer_collar_spare
