solid food_caddy_k1se_flip_lid_216mm
  facet normal 0.000000 -1.000000 0.000000
    outer loop
      vertex -78.000 -86.000 0.000
      vertex 78.000 -86.000 0.000
      vertex 78.000 -86.000 0.800
    endloop
  endfacet
  facet normal 0.000000 -1.000000 0.000000
    outer loop
      vertex -78.000 -86.000 0.000
      vertex 78.000 -86.000 0.800
      vertex -78.000 -86.000 0.800
    endloop
  endfacet
  facet normal 0.707107 -0.707107 0.000000
    outer loop
      vertex 78.000 -86.000 0.000
      vertex 104.000 -60.000 0.000
      vertex 104.000 -60.000 0.800
    endloop
  endfacet
  facet normal 0.707107 -0.707107 0.000000
    outer loop
      vertex 78.000 -86.000 0.000
      vertex 104.000 -60.000 0.800
      vertex 78.000 -86.000 0.800
    endloop
  endfacet
  facet normal 1.000000 0.000000 0.000000
    outer loop
      vertex 104.000 -60.000 0.000
      vertex 104.000 60.000 0.000
      vertex 104.000 60.000 0.800
    endloop
  endfacet
  facet normal 1.000000 0.000000 0.000000
    outer loop
      vertex 104.000 -60.000 0.000
      vertex 104.000 60.000 0.800
      vertex 104.000 -60.000 0.800
    endloop
  endfacet
  facet normal 0.707107 0.707107 0.000000
    outer loop
      vertex 104.000 60.000 0.000
      vertex 78.000 86.000 0.000
      vertex 78.000 86.000 0.800
    endloop
  endfacet
  facet normal 0.707107 0.707107 0.000000
    outer loop
      vertex 104.000 60.000 0.000
      vertex 78.000 86.000 0.800
      vertex 104.000 60.000 0.800
    endloop
  endfacet
  facet normal 0.000000 1.000000 0.000000
    outer loop
      vertex 78.000 86.000 0.000
      vertex -78.000 86.000 0.000
      vertex -78.000 86.000 0.800
    endloop
  endfacet
  facet normal 0.000000 1.000000 0.000000
    outer loop
      vertex 78.000 86.000 0.000
      vertex -78.000 86.000 0.800
      vertex 78.000 86.000 0.800
    endloop
  endfacet
  facet normal -0.707107 0.707107 0.000000
    outer loop
      vertex -78.000 86.000 0.000
      vertex -104.000 60.000 0.000
      vertex -104.000 60.000 0.800
    endloop
  endfacet
  facet normal -0.707107 0.707107 0.000000
    outer loop
      vertex -78.000 86.000 0.000
      vertex -104.000 60.000 0.800
      vertex -78.000 86.000 0.800
    endloop
  endfacet
  facet normal -1.000000 0.000000 0.000000
    outer loop
      vertex -104.000 60.000 0.000
      vertex -104.000 -60.000 0.000
      vertex -104.000 -60.000 0.800
    endloop
  endfacet
  facet normal -1.000000 0.000000 0.000000
    outer loop
      vertex -104.000 60.000 0.000
      vertex -104.000 -60.000 0.800
      vertex -104.000 60.000 0.800
    endloop
  endfacet
  facet normal -0.707107 -0.707107 0.000000
    outer loop
      vertex -104.000 -60.000 0.000
      vertex -78.000 -86.000 0.000
      vertex -78.000 -86.000 0.800
    endloop
  endfacet
  facet normal -0.707107 -0.707107 0.000000
    outer loop
      vertex -104.000 -60.000 0.000
      vertex -78.000 -86.000 0.800
      vertex -104.000 -60.000 0.800
    endloop
  endfacet
  facet normal 0.000000 0.000000 -1.000000
    outer loop
      vertex 0.000 0.000 0.000
      vertex 78.000 -86.000 0.000
      vertex -78.000 -86.000 0.000
    endloop
  endfacet
  facet normal 0.000000 0.000000 -1.000000
    outer loop
      vertex 0.000 0.000 0.000
      vertex 104.000 -60.000 0.000
      vertex 78.000 -86.000 0.000
    endloop
  endfacet
  facet normal 0.000000 0.000000 -1.000000
    outer loop
      vertex 0.000 0.000 0.000
      vertex 104.000 60.000 0.000
      vertex 104.000 -60.000 0.000
    endloop
  endfacet
  facet normal 0.000000 0.000000 -1.000000
    outer loop
      vertex 0.000 0.000 0.000
      vertex 78.000 86.000 0.000
      vertex 104.000 60.000 0.000
    endloop
  endfacet
  facet normal 0.000000 0.000000 -1.000000
    outer loop
      vertex 0.000 0.000 0.000
      vertex -78.000 86.000 0.000
      vertex 78.000 86.000 0.000
    endloop
  endfacet
  facet normal 0.000000 0.000000 -1.000000
    outer loop
      vertex 0.000 0.000 0.000
      vertex -104.000 60.000 0.000
      vertex -78.000 86.000 0.000
    endloop
  endfacet
  facet normal 0.000000 0.000000 -1.000000
    outer loop
      vertex 0.000 0.000 0.000
      vertex -104.000 -60.000 0.000
      vertex -104.000 60.000 0.000
    endloop
  endfacet
  facet normal 0.000000 0.000000 -1.000000
    outer loop
      vertex 0.000 0.000 0.000
      vertex -78.000 -86.000 0.000
      vertex -104.000 -60.000 0.000
    endloop
  endfacet
  facet normal 0.000000 0.000000 1.000000
    outer loop
      vertex 0.000 0.000 0.800
      vertex -78.000 -86.000 0.800
      vertex 78.000 -86.000 0.800
    endloop
  endfacet
  facet normal -0.000000 0.000000 1.000000
    outer loop
      vertex 0.000 0.000 0.800
      vertex 78.000 -86.000 0.800
      vertex 104.000 -60.000 0.800
    endloop
  endfacet
  facet normal -0.000000 0.000000 1.000000
    outer loop
      vertex 0.000 0.000 0.800
      vertex 104.000 -60.000 0.800
      vertex 104.000 60.000 0.800
    endloop
  endfacet
  facet normal -0.000000 -0.000000 1.000000
    outer loop
      vertex 0.000 0.000 0.800
      vertex 104.000 60.000 0.800
      vertex 78.000 86.000 0.800
    endloop
  endfacet
  facet normal 0.000000 -0.000000 1.000000
    outer loop
      vertex 0.000 0.000 0.800
      vertex 78.000 86.000 0.800
      vertex -78.000 86.000 0.800
    endloop
  endfacet
  facet normal 0.000000 -0.000000 1.000000
    outer loop
      vertex 0.000 0.000 0.800
      vertex -78.000 86.000 0.800
      vertex -104.000 60.000 0.800
    endloop
  endfacet
  facet normal 0.000000 0.000000 1.000000
    outer loop
      vertex 0.000 0.000 0.800
      vertex -104.000 60.000 0.800
      vertex -104.000 -60.000 0.800
    endloop
  endfacet
  facet normal 0.000000 0.000000 1.000000
    outer loop
      vertex 0.000 0.000 0.800
      vertex -104.000 -60.000 0.800
      vertex -78.000 -86.000 0.800
    endloop
  endfacet
  facet normal 0.000000 -1.000000 0.000000
    outer loop
      vertex -78.000 -86.000 0.800
      vertex 78.000 -86.000 0.800
      vertex 78.000 -86.000 1.800
    endloop
  endfacet
  facet normal 0.000000 -1.000000 0.000000
    outer loop
      vertex -78.000 -86.000 0.800
      vertex 78.000 -86.000 1.800
      vertex -78.000 -86.000 1.800
    endloop
  endfacet
  facet normal 0.000000 1.000000 0.000000
    outer loop
      vertex 78.000 -80.000 0.800
      vertex -78.000 -80.000 0.800
      vertex -78.000 -80.000 1.800
    endloop
  endfacet
  facet normal 0.000000 1.000000 0.000000
    outer loop
      vertex 78.000 -80.000 0.800
      vertex -78.000 -80.000 1.800
      vertex 78.000 -80.000 1.800
    endloop
  endfacet
  facet normal 0.000000 0.000000 1.000000
    outer loop
      vertex -78.000 -86.000 1.800
      vertex 78.000 -86.000 1.800
      vertex 78.000 -80.000 1.800
    endloop
  endfacet
  facet normal 0.000000 0.000000 1.000000
    outer loop
      vertex -78.000 -86.000 1.800
      vertex 78.000 -80.000 1.800
      vertex -78.000 -80.000 1.800
    endloop
  endfacet
  facet normal 0.000000 0.000000 -1.000000
    outer loop
      vertex 78.000 -86.000 0.800
      vertex -78.000 -86.000 0.800
      vertex -78.000 -80.000 0.800
    endloop
  endfacet
  facet normal 0.000000 0.000000 -1.000000
    outer loop
      vertex 78.000 -86.000 0.800
      vertex -78.000 -80.000 0.800
      vertex 78.000 -80.000 0.800
    endloop
  endfacet
  facet normal 0.707107 -0.707107 0.000000
    outer loop
      vertex 78.000 -86.000 0.800
      vertex 104.000 -60.000 0.800
      vertex 104.000 -60.000 1.800
    endloop
  endfacet
  facet normal 0.707107 -0.707107 0.000000
    outer loop
      vertex 78.000 -86.000 0.800
      vertex 104.000 -60.000 1.800
      vertex 78.000 -86.000 1.800
    endloop
  endfacet
  facet normal -0.707107 0.707107 0.000000
    outer loop
      vertex 98.000 -60.000 0.800
      vertex 78.000 -80.000 0.800
      vertex 78.000 -80.000 1.800
    endloop
  endfacet
  facet normal -0.707107 0.707107 0.000000
    outer loop
      vertex 98.000 -60.000 0.800
      vertex 78.000 -80.000 1.800
      vertex 98.000 -60.000 1.800
    endloop
  endfacet
  facet normal 0.000000 0.000000 1.000000
    outer loop
      vertex 78.000 -86.000 1.800
      vertex 104.000 -60.000 1.800
      vertex 98.000 -60.000 1.800
    endloop
  endfacet
  facet normal 0.000000 0.000000 1.000000
    outer loop
      vertex 78.000 -86.000 1.800
      vertex 98.000 -60.000 1.800
      vertex 78.000 -80.000 1.800
    endloop
  endfacet
  facet normal 0.000000 0.000000 -1.000000
    outer loop
      vertex 104.000 -60.000 0.800
      vertex 78.000 -86.000 0.800
      vertex 78.000 -80.000 0.800
    endloop
  endfacet
  facet normal 0.000000 0.000000 -1.000000
    outer loop
      vertex 104.000 -60.000 0.800
      vertex 78.000 -80.000 0.800
      vertex 98.000 -60.000 0.800
    endloop
  endfacet
  facet normal 1.000000 0.000000 0.000000
    outer loop
      vertex 104.000 -60.000 0.800
      vertex 104.000 60.000 0.800
      vertex 104.000 60.000 1.800
    endloop
  endfacet
  facet normal 1.000000 0.000000 0.000000
    outer loop
      vertex 104.000 -60.000 0.800
      vertex 104.000 60.000 1.800
      vertex 104.000 -60.000 1.800
    endloop
  endfacet
  facet normal -1.000000 0.000000 0.000000
    outer loop
      vertex 98.000 60.000 0.800
      vertex 98.000 -60.000 0.800
      vertex 98.000 -60.000 1.800
    endloop
  endfacet
  facet normal -1.000000 0.000000 0.000000
    outer loop
      vertex 98.000 60.000 0.800
      vertex 98.000 -60.000 1.800
      vertex 98.000 60.000 1.800
    endloop
  endfacet
  facet normal 0.000000 0.000000 1.000000
    outer loop
      vertex 104.000 -60.000 1.800
      vertex 104.000 60.000 1.800
      vertex 98.000 60.000 1.800
    endloop
  endfacet
  facet normal 0.000000 0.000000 1.000000
    outer loop
      vertex 104.000 -60.000 1.800
      vertex 98.000 60.000 1.800
      vertex 98.000 -60.000 1.800
    endloop
  endfacet
  facet normal 0.000000 0.000000 -1.000000
    outer loop
      vertex 104.000 60.000 0.800
      vertex 104.000 -60.000 0.800
      vertex 98.000 -60.000 0.800
    endloop
  endfacet
  facet normal 0.000000 0.000000 -1.000000
    outer loop
      vertex 104.000 60.000 0.800
      vertex 98.000 -60.000 0.800
      vertex 98.000 60.000 0.800
    endloop
  endfacet
  facet normal 0.707107 0.707107 0.000000
    outer loop
      vertex 104.000 60.000 0.800
      vertex 78.000 86.000 0.800
      vertex 78.000 86.000 1.800
    endloop
  endfacet
  facet normal 0.707107 0.707107 0.000000
    outer loop
      vertex 104.000 60.000 0.800
      vertex 78.000 86.000 1.800
      vertex 104.000 60.000 1.800
    endloop
  endfacet
  facet normal -0.707107 -0.707107 0.000000
    outer loop
      vertex 78.000 80.000 0.800
      vertex 98.000 60.000 0.800
      vertex 98.000 60.000 1.800
    endloop
  endfacet
  facet normal -0.707107 -0.707107 0.000000
    outer loop
      vertex 78.000 80.000 0.800
      vertex 98.000 60.000 1.800
      vertex 78.000 80.000 1.800
    endloop
  endfacet
  facet normal 0.000000 0.000000 1.000000
    outer loop
      vertex 104.000 60.000 1.800
      vertex 78.000 86.000 1.800
      vertex 78.000 80.000 1.800
    endloop
  endfacet
  facet normal 0.000000 0.000000 1.000000
    outer loop
      vertex 104.000 60.000 1.800
      vertex 78.000 80.000 1.800
      vertex 98.000 60.000 1.800
    endloop
  endfacet
  facet normal 0.000000 0.000000 -1.000000
    outer loop
      vertex 78.000 86.000 0.800
      vertex 104.000 60.000 0.800
      vertex 98.000 60.000 0.800
    endloop
  endfacet
  facet normal 0.000000 0.000000 -1.000000
    outer loop
      vertex 78.000 86.000 0.800
      vertex 98.000 60.000 0.800
      vertex 78.000 80.000 0.800
    endloop
  endfacet
  facet normal 0.000000 1.000000 0.000000
    outer loop
      vertex 78.000 86.000 0.800
      vertex -78.000 86.000 0.800
      vertex -78.000 86.000 1.800
    endloop
  endfacet
  facet normal 0.000000 1.000000 0.000000
    outer loop
      vertex 78.000 86.000 0.800
      vertex -78.000 86.000 1.800
      vertex 78.000 86.000 1.800
    endloop
  endfacet
  facet normal 0.000000 -1.000000 0.000000
    outer loop
      vertex -78.000 80.000 0.800
      vertex 78.000 80.000 0.800
      vertex 78.000 80.000 1.800
    endloop
  endfacet
  facet normal 0.000000 -1.000000 0.000000
    outer loop
      vertex -78.000 80.000 0.800
      vertex 78.000 80.000 1.800
      vertex -78.000 80.000 1.800
    endloop
  endfacet
  facet normal 0.000000 0.000000 1.000000
    outer loop
      vertex 78.000 86.000 1.800
      vertex -78.000 86.000 1.800
      vertex -78.000 80.000 1.800
    endloop
  endfacet
  facet normal 0.000000 0.000000 1.000000
    outer loop
      vertex 78.000 86.000 1.800
      vertex -78.000 80.000 1.800
      vertex 78.000 80.000 1.800
    endloop
  endfacet
  facet normal 0.000000 0.000000 -1.000000
    outer loop
      vertex -78.000 86.000 0.800
      vertex 78.000 86.000 0.800
      vertex 78.000 80.000 0.800
    endloop
  endfacet
  facet normal 0.000000 0.000000 -1.000000
    outer loop
      vertex -78.000 86.000 0.800
      vertex 78.000 80.000 0.800
      vertex -78.000 80.000 0.800
    endloop
  endfacet
  facet normal -0.707107 0.707107 0.000000
    outer loop
      vertex -78.000 86.000 0.800
      vertex -104.000 60.000 0.800
      vertex -104.000 60.000 1.800
    endloop
  endfacet
  facet normal -0.707107 0.707107 0.000000
    outer loop
      vertex -78.000 86.000 0.800
      vertex -104.000 60.000 1.800
      vertex -78.000 86.000 1.800
    endloop
  endfacet
  facet normal 0.707107 -0.707107 0.000000
    outer loop
      vertex -98.000 60.000 0.800
      vertex -78.000 80.000 0.800
      vertex -78.000 80.000 1.800
    endloop
  endfacet
  facet normal 0.707107 -0.707107 0.000000
    outer loop
      vertex -98.000 60.000 0.800
      vertex -78.000 80.000 1.800
      vertex -98.000 60.000 1.800
    endloop
  endfacet
  facet normal 0.000000 0.000000 1.000000
    outer loop
      vertex -78.000 86.000 1.800
      vertex -104.000 60.000 1.800
      vertex -98.000 60.000 1.800
    endloop
  endfacet
  facet normal 0.000000 0.000000 1.000000
    outer loop
      vertex -78.000 86.000 1.800
      vertex -98.000 60.000 1.800
      vertex -78.000 80.000 1.800
    endloop
  endfacet
  facet normal 0.000000 0.000000 -1.000000
    outer loop
      vertex -104.000 60.000 0.800
      vertex -78.000 86.000 0.800
      vertex -78.000 80.000 0.800
    endloop
  endfacet
  facet normal 0.000000 0.000000 -1.000000
    outer loop
      vertex -104.000 60.000 0.800
      vertex -78.000 80.000 0.800
      vertex -98.000 60.000 0.800
    endloop
  endfacet
  facet normal -1.000000 0.000000 0.000000
    outer loop
      vertex -104.000 60.000 0.800
      vertex -104.000 -60.000 0.800
      vertex -104.000 -60.000 1.800
    endloop
  endfacet
  facet normal -1.000000 0.000000 0.000000
    outer loop
      vertex -104.000 60.000 0.800
      vertex -104.000 -60.000 1.800
      vertex -104.000 60.000 1.800
    endloop
  endfacet
  facet normal 1.000000 0.000000 0.000000
    outer loop
      vertex -98.000 -60.000 0.800
      vertex -98.000 60.000 0.800
      vertex -98.000 60.000 1.800
    endloop
  endfacet
  facet normal 1.000000 0.000000 0.000000
    outer loop
      vertex -98.000 -60.000 0.800
      vertex -98.000 60.000 1.800
      vertex -98.000 -60.000 1.800
    endloop
  endfacet
  facet normal 0.000000 0.000000 1.000000
    outer loop
      vertex -104.000 60.000 1.800
      vertex -104.000 -60.000 1.800
      vertex -98.000 -60.000 1.800
    endloop
  endfacet
  facet normal 0.000000 0.000000 1.000000
    outer loop
      vertex -104.000 60.000 1.800
      vertex -98.000 -60.000 1.800
      vertex -98.000 60.000 1.800
    endloop
  endfacet
  facet normal 0.000000 0.000000 -1.000000
    outer loop
      vertex -104.000 -60.000 0.800
      vertex -104.000 60.000 0.800
      vertex -98.000 60.000 0.800
    endloop
  endfacet
  facet normal 0.000000 0.000000 -1.000000
    outer loop
      vertex -104.000 -60.000 0.800
      vertex -98.000 60.000 0.800
      vertex -98.000 -60.000 0.800
    endloop
  endfacet
  facet normal -0.707107 -0.707107 0.000000
    outer loop
      vertex -104.000 -60.000 0.800
      vertex -78.000 -86.000 0.800
      vertex -78.000 -86.000 1.800
    endloop
  endfacet
  facet normal -0.707107 -0.707107 0.000000
    outer loop
      vertex -104.000 -60.000 0.800
      vertex -78.000 -86.000 1.800
      vertex -104.000 -60.000 1.800
    endloop
  endfacet
  facet normal 0.707107 0.707107 0.000000
    outer loop
      vertex -78.000 -80.000 0.800
      vertex -98.000 -60.000 0.800
      vertex -98.000 -60.000 1.800
    endloop
  endfacet
  facet normal 0.707107 0.707107 0.000000
    outer loop
      vertex -78.000 -80.000 0.800
      vertex -98.000 -60.000 1.800
      vertex -78.000 -80.000 1.800
    endloop
  endfacet
  facet normal 0.000000 0.000000 1.000000
    outer loop
      vertex -104.000 -60.000 1.800
      vertex -78.000 -86.000 1.800
      vertex -78.000 -80.000 1.800
    endloop
  endfacet
  facet normal 0.000000 0.000000 1.000000
    outer loop
      vertex -104.000 -60.000 1.800
      vertex -78.000 -80.000 1.800
      vertex -98.000 -60.000 1.800
    endloop
  endfacet
  facet normal 0.000000 0.000000 -1.000000
    outer loop
      vertex -78.000 -86.000 0.800
      vertex -104.000 -60.000 0.800
      vertex -98.000 -60.000 0.800
    endloop
  endfacet
  facet normal 0.000000 0.000000 -1.000000
    outer loop
      vertex -78.000 -86.000 0.800
      vertex -98.000 -60.000 0.800
      vertex -78.000 -80.000 0.800
    endloop
  endfacet
  facet normal 0.000000 0.000000 1.000000
    outer loop
      vertex -66.000 77.000 0.000
      vertex 66.000 77.000 0.000
      vertex 66.000 93.000 0.000
    endloop
  endfacet
  facet normal 0.000000 0.000000 1.000000
    outer loop
      vertex -66.000 77.000 0.000
      vertex 66.000 93.000 0.000
      vertex -66.000 93.000 0.000
    endloop
  endfacet
  facet normal 0.000000 0.000000 -1.000000
    outer loop
      vertex -66.000 77.000 1.200
      vertex -66.000 93.000 1.200
      vertex 66.000 93.000 1.200
    endloop
  endfacet
  facet normal 0.000000 0.000000 -1.000000
    outer loop
      vertex -66.000 77.000 1.200
      vertex 66.000 93.000 1.200
      vertex 66.000 77.000 1.200
    endloop
  endfacet
  facet normal 0.000000 1.000000 0.000000
    outer loop
      vertex -66.000 77.000 0.000
      vertex -66.000 77.000 1.200
      vertex 66.000 77.000 1.200
    endloop
  endfacet
  facet normal 0.000000 1.000000 0.000000
    outer loop
      vertex -66.000 77.000 0.000
      vertex 66.000 77.000 1.200
      vertex 66.000 77.000 0.000
    endloop
  endfacet
  facet normal -1.000000 0.000000 0.000000
    outer loop
      vertex 66.000 77.000 0.000
      vertex 66.000 77.000 1.200
      vertex 66.000 93.000 1.200
    endloop
  endfacet
  facet normal -1.000000 0.000000 0.000000
    outer loop
      vertex 66.000 77.000 0.000
      vertex 66.000 93.000 1.200
      vertex 66.000 93.000 0.000
    endloop
  endfacet
  facet normal 0.000000 -1.000000 0.000000
    outer loop
      vertex 66.000 93.000 0.000
      vertex 66.000 93.000 1.200
      vertex -66.000 93.000 1.200
    endloop
  endfacet
  facet normal 0.000000 -1.000000 0.000000
    outer loop
      vertex 66.000 93.000 0.000
      vertex -66.000 93.000 1.200
      vertex -66.000 93.000 0.000
    endloop
  endfacet
  facet normal 1.000000 0.000000 0.000000
    outer loop
      vertex -66.000 93.000 0.000
      vertex -66.000 93.000 1.200
      vertex -66.000 77.000 1.200
    endloop
  endfacet
  facet normal 1.000000 0.000000 0.000000
    outer loop
      vertex -66.000 93.000 0.000
      vertex -66.000 77.000 1.200
      vertex -66.000 77.000 0.000
    endloop
  endfacet
  facet normal 0.000000 0.000000 1.000000
    outer loop
      vertex -58.000 80.000 0.000
      vertex 58.000 80.000 0.000
      vertex 58.000 91.000 0.000
    endloop
  endfacet
  facet normal 0.000000 0.000000 1.000000
    outer loop
      vertex -58.000 80.000 0.000
      vertex 58.000 91.000 0.000
      vertex -58.000 91.000 0.000
    endloop
  endfacet
  facet normal 0.000000 0.000000 -1.000000
    outer loop
      vertex -58.000 80.000 3.000
      vertex -58.000 91.000 3.000
      vertex 58.000 91.000 3.000
    endloop
  endfacet
  facet normal 0.000000 0.000000 -1.000000
    outer loop
      vertex -58.000 80.000 3.000
      vertex 58.000 91.000 3.000
      vertex 58.000 80.000 3.000
    endloop
  endfacet
  facet normal 0.000000 1.000000 0.000000
    outer loop
      vertex -58.000 80.000 0.000
      vertex -58.000 80.000 3.000
      vertex 58.000 80.000 3.000
    endloop
  endfacet
  facet normal 0.000000 1.000000 0.000000
    outer loop
      vertex -58.000 80.000 0.000
      vertex 58.000 80.000 3.000
      vertex 58.000 80.000 0.000
    endloop
  endfacet
  facet normal -1.000000 0.000000 0.000000
    outer loop
      vertex 58.000 80.000 0.000
      vertex 58.000 80.000 3.000
      vertex 58.000 91.000 3.000
    endloop
  endfacet
  facet normal -1.000000 0.000000 0.000000
    outer loop
      vertex 58.000 80.000 0.000
      vertex 58.000 91.000 3.000
      vertex 58.000 91.000 0.000
    endloop
  endfacet
  facet normal 0.000000 -1.000000 0.000000
    outer loop
      vertex 58.000 91.000 0.000
      vertex 58.000 91.000 3.000
      vertex -58.000 91.000 3.000
    endloop
  endfacet
  facet normal 0.000000 -1.000000 0.000000
    outer loop
      vertex 58.000 91.000 0.000
      vertex -58.000 91.000 3.000
      vertex -58.000 91.000 0.000
    endloop
  endfacet
  facet normal 1.000000 0.000000 0.000000
    outer loop
      vertex -58.000 91.000 0.000
      vertex -58.000 91.000 3.000
      vertex -58.000 80.000 3.000
    endloop
  endfacet
  facet normal 1.000000 0.000000 0.000000
    outer loop
      vertex -58.000 91.000 0.000
      vertex -58.000 80.000 3.000
      vertex -58.000 80.000 0.000
    endloop
  endfacet
  facet normal 0.000000 -0.995185 -0.098017
    outer loop
      vertex -50.000 91.300 5.300
      vertex 50.000 91.300 5.300
      vertex 50.000 91.208 6.236
    endloop
  endfacet
  facet normal 0.000000 -0.995185 -0.098017
    outer loop
      vertex -50.000 91.300 5.300
      vertex 50.000 91.208 6.236
      vertex -50.000 91.208 6.236
    endloop
  endfacet
  facet normal 0.000000 0.995185 0.098017
    outer loop
      vertex -50.000 88.363 5.671
      vertex 50.000 88.363 5.671
      vertex 50.000 88.400 5.300
    endloop
  endfacet
  facet normal 0.000000 0.995185 0.098017
    outer loop
      vertex -50.000 88.363 5.671
      vertex 50.000 88.400 5.300
      vertex -50.000 88.400 5.300
    endloop
  endfacet
  facet normal -1.000000 0.000000 0.000000
    outer loop
      vertex -50.000 91.208 6.236
      vertex -50.000 91.300 5.300
      vertex -50.000 88.400 5.300
    endloop
  endfacet
  facet normal -1.000000 0.000000 0.000000
    outer loop
      vertex -50.000 91.208 6.236
      vertex -50.000 88.400 5.300
      vertex -50.000 88.363 5.671
    endloop
  endfacet
  facet normal 1.000000 0.000000 0.000000
    outer loop
      vertex 50.000 91.300 5.300
      vertex 50.000 91.208 6.236
      vertex 50.000 88.363 5.671
    endloop
  endfacet
  facet normal 1.000000 0.000000 0.000000
    outer loop
      vertex 50.000 91.300 5.300
      vertex 50.000 88.363 5.671
      vertex 50.000 88.400 5.300
    endloop
  endfacet
  facet normal 0.000000 -0.956940 -0.290285
    outer loop
      vertex -50.000 91.208 6.236
      vertex 50.000 91.208 6.236
      vertex 50.000 90.935 7.137
    endloop
  endfacet
  facet normal 0.000000 -0.956940 -0.290285
    outer loop
      vertex -50.000 91.208 6.236
      vertex 50.000 90.935 7.137
      vertex -50.000 90.935 7.137
    endloop
  endfacet
  facet normal 0.000000 0.956940 0.290285
    outer loop
      vertex -50.000 88.255 6.027
      vertex 50.000 88.255 6.027
      vertex 50.000 88.363 5.671
    endloop
  endfacet
  facet normal 0.000000 0.956940 0.290285
    outer loop
      vertex -50.000 88.255 6.027
      vertex 50.000 88.363 5.671
      vertex -50.000 88.363 5.671
    endloop
  endfacet
  facet normal -1.000000 0.000000 0.000000
    outer loop
      vertex -50.000 90.935 7.137
      vertex -50.000 91.208 6.236
      vertex -50.000 88.363 5.671
    endloop
  endfacet
  facet normal -1.000000 0.000000 0.000000
    outer loop
      vertex -50.000 90.935 7.137
      vertex -50.000 88.363 5.671
      vertex -50.000 88.255 6.027
    endloop
  endfacet
  facet normal 1.000000 0.000000 0.000000
    outer loop
      vertex 50.000 91.208 6.236
      vertex 50.000 90.935 7.137
      vertex 50.000 88.255 6.027
    endloop
  endfacet
  facet normal 1.000000 0.000000 0.000000
    outer loop
      vertex 50.000 91.208 6.236
      vertex 50.000 88.255 6.027
      vertex 50.000 88.363 5.671
    endloop
  endfacet
  facet normal 0.000000 -0.881921 -0.471397
    outer loop
      vertex -50.000 90.935 7.137
      vertex 50.000 90.935 7.137
      vertex 50.000 90.491 7.967
    endloop
  endfacet
  facet normal 0.000000 -0.881921 -0.471397
    outer loop
      vertex -50.000 90.935 7.137
      vertex 50.000 90.491 7.967
      vertex -50.000 90.491 7.967
    endloop
  endfacet
  facet normal 0.000000 0.881921 0.471397
    outer loop
      vertex -50.000 88.080 6.356
      vertex 50.000 88.080 6.356
      vertex 50.000 88.255 6.027
    endloop
  endfacet
  facet normal 0.000000 0.881921 0.471397
    outer loop
      vertex -50.000 88.080 6.356
      vertex 50.000 88.255 6.027
      vertex -50.000 88.255 6.027
    endloop
  endfacet
  facet normal -1.000000 0.000000 0.000000
    outer loop
      vertex -50.000 90.491 7.967
      vertex -50.000 90.935 7.137
      vertex -50.000 88.255 6.027
    endloop
  endfacet
  facet normal -1.000000 0.000000 0.000000
    outer loop
      vertex -50.000 90.491 7.967
      vertex -50.000 88.255 6.027
      vertex -50.000 88.080 6.356
    endloop
  endfacet
  facet normal 1.000000 0.000000 0.000000
    outer loop
      vertex 50.000 90.935 7.137
      vertex 50.000 90.491 7.967
      vertex 50.000 88.080 6.356
    endloop
  endfacet
  facet normal 1.000000 0.000000 0.000000
    outer loop
      vertex 50.000 90.935 7.137
      vertex 50.000 88.080 6.356
      vertex 50.000 88.255 6.027
    endloop
  endfacet
  facet normal 0.000000 -0.773010 -0.634393
    outer loop
      vertex -50.000 90.491 7.967
      vertex 50.000 90.491 7.967
      vertex 50.000 89.894 8.694
    endloop
  endfacet
  facet normal 0.000000 -0.773010 -0.634393
    outer loop
      vertex -50.000 90.491 7.967
      vertex 50.000 89.894 8.694
      vertex -50.000 89.894 8.694
    endloop
  endfacet
  facet normal 0.000000 0.773010 0.634393
    outer loop
      vertex -50.000 87.844 6.644
      vertex 50.000 87.844 6.644
      vertex 50.000 88.080 6.356
    endloop
  endfacet
  facet normal 0.000000 0.773010 0.634393
    outer loop
      vertex -50.000 87.844 6.644
      vertex 50.000 88.080 6.356
      vertex -50.000 88.080 6.356
    endloop
  endfacet
  facet normal -1.000000 0.000000 0.000000
    outer loop
      vertex -50.000 89.894 8.694
      vertex -50.000 90.491 7.967
      vertex -50.000 88.080 6.356
    endloop
  endfacet
  facet normal -1.000000 0.000000 0.000000
    outer loop
      vertex -50.000 89.894 8.694
      vertex -50.000 88.080 6.356
      vertex -50.000 87.844 6.644
    endloop
  endfacet
  facet normal 1.000000 0.000000 0.000000
    outer loop
      vertex 50.000 90.491 7.967
      vertex 50.000 89.894 8.694
      vertex 50.000 87.844 6.644
    endloop
  endfacet
  facet normal 1.000000 0.000000 0.000000
    outer loop
      vertex 50.000 90.491 7.967
      vertex 50.000 87.844 6.644
      vertex 50.000 88.080 6.356
    endloop
  endfacet
  facet normal 0.000000 -0.634393 -0.773010
    outer loop
      vertex -50.000 89.894 8.694
      vertex 50.000 89.894 8.694
      vertex 50.000 89.167 9.291
    endloop
  endfacet
  facet normal 0.000000 -0.634393 -0.773010
    outer loop
      vertex -50.000 89.894 8.694
      vertex 50.000 89.167 9.291
      vertex -50.000 89.167 9.291
    endloop
  endfacet
  facet normal 0.000000 0.634393 0.773010
    outer loop
      vertex -50.000 87.556 6.880
      vertex 50.000 87.556 6.880
      vertex 50.000 87.844 6.644
    endloop
  endfacet
  facet normal 0.000000 0.634393 0.773010
    outer loop
      vertex -50.000 87.556 6.880
      vertex 50.000 87.844 6.644
      vertex -50.000 87.844 6.644
    endloop
  endfacet
  facet normal -1.000000 0.000000 0.000000
    outer loop
      vertex -50.000 89.167 9.291
      vertex -50.000 89.894 8.694
      vertex -50.000 87.844 6.644
    endloop
  endfacet
  facet normal -1.000000 0.000000 0.000000
    outer loop
      vertex -50.000 89.167 9.291
      vertex -50.000 87.844 6.644
      vertex -50.000 87.556 6.880
    endloop
  endfacet
  facet normal 1.000000 0.000000 0.000000
    outer loop
      vertex 50.000 89.894 8.694
      vertex 50.000 89.167 9.291
      vertex 50.000 87.556 6.880
    endloop
  endfacet
  facet normal 1.000000 0.000000 0.000000
    outer loop
      vertex 50.000 89.894 8.694
      vertex 50.000 87.556 6.880
      vertex 50.000 87.844 6.644
    endloop
  endfacet
  facet normal 0.000000 -0.471397 -0.881921
    outer loop
      vertex -50.000 89.167 9.291
      vertex 50.000 89.167 9.291
      vertex 50.000 88.337 9.735
    endloop
  endfacet
  facet normal 0.000000 -0.471397 -0.881921
    outer loop
      vertex -50.000 89.167 9.291
      vertex 50.000 88.337 9.735
      vertex -50.000 88.337 9.735
    endloop
  endfacet
  facet normal 0.000000 0.471397 0.881921
    outer loop
      vertex -50.000 87.227 7.055
      vertex 50.000 87.227 7.055
      vertex 50.000 87.556 6.880
    endloop
  endfacet
  facet normal 0.000000 0.471397 0.881921
    outer loop
      vertex -50.000 87.227 7.055
      vertex 50.000 87.556 6.880
      vertex -50.000 87.556 6.880
    endloop
  endfacet
  facet normal -1.000000 0.000000 0.000000
    outer loop
      vertex -50.000 88.337 9.735
      vertex -50.000 89.167 9.291
      vertex -50.000 87.556 6.880
    endloop
  endfacet
  facet normal -1.000000 0.000000 0.000000
    outer loop
      vertex -50.000 88.337 9.735
      vertex -50.000 87.556 6.880
      vertex -50.000 87.227 7.055
    endloop
  endfacet
  facet normal 1.000000 0.000000 0.000000
    outer loop
      vertex 50.000 89.167 9.291
      vertex 50.000 88.337 9.735
      vertex 50.000 87.227 7.055
    endloop
  endfacet
  facet normal 1.000000 0.000000 0.000000
    outer loop
      vertex 50.000 89.167 9.291
      vertex 50.000 87.227 7.055
      vertex 50.000 87.556 6.880
    endloop
  endfacet
  facet normal 0.000000 -0.290285 -0.956940
    outer loop
      vertex -50.000 88.337 9.735
      vertex 50.000 88.337 9.735
      vertex 50.000 87.436 10.008
    endloop
  endfacet
  facet normal 0.000000 -0.290285 -0.956940
    outer loop
      vertex -50.000 88.337 9.735
      vertex 50.000 87.436 10.008
      vertex -50.000 87.436 10.008
    endloop
  endfacet
  facet normal 0.000000 0.290285 0.956940
    outer loop
      vertex -50.000 86.871 7.163
      vertex 50.000 86.871 7.163
      vertex 50.000 87.227 7.055
    endloop
  endfacet
  facet normal 0.000000 0.290285 0.956940
    outer loop
      vertex -50.000 86.871 7.163
      vertex 50.000 87.227 7.055
      vertex -50.000 87.227 7.055
    endloop
  endfacet
  facet normal -1.000000 0.000000 0.000000
    outer loop
      vertex -50.000 87.436 10.008
      vertex -50.000 88.337 9.735
      vertex -50.000 87.227 7.055
    endloop
  endfacet
  facet normal -1.000000 0.000000 0.000000
    outer loop
      vertex -50.000 87.436 10.008
      vertex -50.000 87.227 7.055
      vertex -50.000 86.871 7.163
    endloop
  endfacet
  facet normal 1.000000 0.000000 0.000000
    outer loop
      vertex 50.000 88.337 9.735
      vertex 50.000 87.436 10.008
      vertex 50.000 86.871 7.163
    endloop
  endfacet
  facet normal 1.000000 0.000000 0.000000
    outer loop
      vertex 50.000 88.337 9.735
      vertex 50.000 86.871 7.163
      vertex 50.000 87.227 7.055
    endloop
  endfacet
  facet normal 0.000000 -0.098017 -0.995185
    outer loop
      vertex -50.000 87.436 10.008
      vertex 50.000 87.436 10.008
      vertex 50.000 86.500 10.100
    endloop
  endfacet
  facet normal 0.000000 -0.098017 -0.995185
    outer loop
      vertex -50.000 87.436 10.008
      vertex 50.000 86.500 10.100
      vertex -50.000 86.500 10.100
    endloop
  endfacet
  facet normal 0.000000 0.098017 0.995185
    outer loop
      vertex -50.000 86.500 7.200
      vertex 50.000 86.500 7.200
      vertex 50.000 86.871 7.163
    endloop
  endfacet
  facet normal 0.000000 0.098017 0.995185
    outer loop
      vertex -50.000 86.500 7.200
      vertex 50.000 86.871 7.163
      vertex -50.000 86.871 7.163
    endloop
  endfacet
  facet normal -1.000000 0.000000 0.000000
    outer loop
      vertex -50.000 86.500 10.100
      vertex -50.000 87.436 10.008
      vertex -50.000 86.871 7.163
    endloop
  endfacet
  facet normal -1.000000 0.000000 0.000000
    outer loop
      vertex -50.000 86.500 10.100
      vertex -50.000 86.871 7.163
      vertex -50.000 86.500 7.200
    endloop
  endfacet
  facet normal 1.000000 0.000000 0.000000
    outer loop
      vertex 50.000 87.436 10.008
      vertex 50.000 86.500 10.100
      vertex 50.000 86.500 7.200
    endloop
  endfacet
  facet normal 1.000000 0.000000 0.000000
    outer loop
      vertex 50.000 87.436 10.008
      vertex 50.000 86.500 7.200
      vertex 50.000 86.871 7.163
    endloop
  endfacet
  facet normal 0.000000 0.098017 -0.995185
    outer loop
      vertex -50.000 86.500 10.100
      vertex 50.000 86.500 10.100
      vertex 50.000 85.564 10.008
    endloop
  endfacet
  facet normal 0.000000 0.098017 -0.995185
    outer loop
      vertex -50.000 86.500 10.100
      vertex 50.000 85.564 10.008
      vertex -50.000 85.564 10.008
    endloop
  endfacet
  facet normal 0.000000 -0.098017 0.995185
    outer loop
      vertex -50.000 86.129 7.163
      vertex 50.000 86.129 7.163
      vertex 50.000 86.500 7.200
    endloop
  endfacet
  facet normal 0.000000 -0.098017 0.995185
    outer loop
      vertex -50.000 86.129 7.163
      vertex 50.000 86.500 7.200
      vertex -50.000 86.500 7.200
    endloop
  endfacet
  facet normal -1.000000 0.000000 0.000000
    outer loop
      vertex -50.000 85.564 10.008
      vertex -50.000 86.500 10.100
      vertex -50.000 86.500 7.200
    endloop
  endfacet
  facet normal -1.000000 0.000000 0.000000
    outer loop
      vertex -50.000 85.564 10.008
      vertex -50.000 86.500 7.200
      vertex -50.000 86.129 7.163
    endloop
  endfacet
  facet normal 1.000000 0.000000 0.000000
    outer loop
      vertex 50.000 86.500 10.100
      vertex 50.000 85.564 10.008
      vertex 50.000 86.129 7.163
    endloop
  endfacet
  facet normal 1.000000 0.000000 0.000000
    outer loop
      vertex 50.000 86.500 10.100
      vertex 50.000 86.129 7.163
      vertex 50.000 86.500 7.200
    endloop
  endfacet
  facet normal 0.000000 0.290285 -0.956940
    outer loop
      vertex -50.000 85.564 10.008
      vertex 50.000 85.564 10.008
      vertex 50.000 84.663 9.735
    endloop
  endfacet
  facet normal 0.000000 0.290285 -0.956940
    outer loop
      vertex -50.000 85.564 10.008
      vertex 50.000 84.663 9.735
      vertex -50.000 84.663 9.735
    endloop
  endfacet
  facet normal 0.000000 -0.290285 0.956940
    outer loop
      vertex -50.000 85.773 7.055
      vertex 50.000 85.773 7.055
      vertex 50.000 86.129 7.163
    endloop
  endfacet
  facet normal 0.000000 -0.290285 0.956940
    outer loop
      vertex -50.000 85.773 7.055
      vertex 50.000 86.129 7.163
      vertex -50.000 86.129 7.163
    endloop
  endfacet
  facet normal -1.000000 0.000000 0.000000
    outer loop
      vertex -50.000 84.663 9.735
      vertex -50.000 85.564 10.008
      vertex -50.000 86.129 7.163
    endloop
  endfacet
  facet normal -1.000000 0.000000 0.000000
    outer loop
      vertex -50.000 84.663 9.735
      vertex -50.000 86.129 7.163
      vertex -50.000 85.773 7.055
    endloop
  endfacet
  facet normal 1.000000 0.000000 0.000000
    outer loop
      vertex 50.000 85.564 10.008
      vertex 50.000 84.663 9.735
      vertex 50.000 85.773 7.055
    endloop
  endfacet
  facet normal 1.000000 0.000000 0.000000
    outer loop
      vertex 50.000 85.564 10.008
      vertex 50.000 85.773 7.055
      vertex 50.000 86.129 7.163
    endloop
  endfacet
  facet normal 0.000000 0.471397 -0.881921
    outer loop
      vertex -50.000 84.663 9.735
      vertex 50.000 84.663 9.735
      vertex 50.000 83.833 9.291
    endloop
  endfacet
  facet normal 0.000000 0.471397 -0.881921
    outer loop
      vertex -50.000 84.663 9.735
      vertex 50.000 83.833 9.291
      vertex -50.000 83.833 9.291
    endloop
  endfacet
  facet normal 0.000000 -0.471397 0.881921
    outer loop
      vertex -50.000 85.444 6.880
      vertex 50.000 85.444 6.880
      vertex 50.000 85.773 7.055
    endloop
  endfacet
  facet normal 0.000000 -0.471397 0.881921
    outer loop
      vertex -50.000 85.444 6.880
      vertex 50.000 85.773 7.055
      vertex -50.000 85.773 7.055
    endloop
  endfacet
  facet normal -1.000000 0.000000 0.000000
    outer loop
      vertex -50.000 83.833 9.291
      vertex -50.000 84.663 9.735
      vertex -50.000 85.773 7.055
    endloop
  endfacet
  facet normal -1.000000 0.000000 0.000000
    outer loop
      vertex -50.000 83.833 9.291
      vertex -50.000 85.773 7.055
      vertex -50.000 85.444 6.880
    endloop
  endfacet
  facet normal 1.000000 0.000000 0.000000
    outer loop
      vertex 50.000 84.663 9.735
      vertex 50.000 83.833 9.291
      vertex 50.000 85.444 6.880
    endloop
  endfacet
  facet normal 1.000000 0.000000 0.000000
    outer loop
      vertex 50.000 84.663 9.735
      vertex 50.000 85.444 6.880
      vertex 50.000 85.773 7.055
    endloop
  endfacet
  facet normal 0.000000 0.634393 -0.773010
    outer loop
      vertex -50.000 83.833 9.291
      vertex 50.000 83.833 9.291
      vertex 50.000 83.106 8.694
    endloop
  endfacet
  facet normal 0.000000 0.634393 -0.773010
    outer loop
      vertex -50.000 83.833 9.291
      vertex 50.000 83.106 8.694
      vertex -50.000 83.106 8.694
    endloop
  endfacet
  facet normal 0.000000 -0.634393 0.773010
    outer loop
      vertex -50.000 85.156 6.644
      vertex 50.000 85.156 6.644
      vertex 50.000 85.444 6.880
    endloop
  endfacet
  facet normal 0.000000 -0.634393 0.773010
    outer loop
      vertex -50.000 85.156 6.644
      vertex 50.000 85.444 6.880
      vertex -50.000 85.444 6.880
    endloop
  endfacet
  facet normal -1.000000 0.000000 0.000000
    outer loop
      vertex -50.000 83.106 8.694
      vertex -50.000 83.833 9.291
      vertex -50.000 85.444 6.880
    endloop
  endfacet
  facet normal -1.000000 0.000000 0.000000
    outer loop
      vertex -50.000 83.106 8.694
      vertex -50.000 85.444 6.880
      vertex -50.000 85.156 6.644
    endloop
  endfacet
  facet normal 1.000000 0.000000 0.000000
    outer loop
      vertex 50.000 83.833 9.291
      vertex 50.000 83.106 8.694
      vertex 50.000 85.156 6.644
    endloop
  endfacet
  facet normal 1.000000 0.000000 0.000000
    outer loop
      vertex 50.000 83.833 9.291
      vertex 50.000 85.156 6.644
      vertex 50.000 85.444 6.880
    endloop
  endfacet
  facet normal 0.000000 0.773010 -0.634393
    outer loop
      vertex -50.000 83.106 8.694
      vertex 50.000 83.106 8.694
      vertex 50.000 82.509 7.967
    endloop
  endfacet
  facet normal 0.000000 0.773010 -0.634393
    outer loop
      vertex -50.000 83.106 8.694
      vertex 50.000 82.509 7.967
      vertex -50.000 82.509 7.967
    endloop
  endfacet
  facet normal 0.000000 -0.773010 0.634393
    outer loop
      vertex -50.000 84.920 6.356
      vertex 50.000 84.920 6.356
      vertex 50.000 85.156 6.644
    endloop
  endfacet
  facet normal 0.000000 -0.773010 0.634393
    outer loop
      vertex -50.000 84.920 6.356
      vertex 50.000 85.156 6.644
      vertex -50.000 85.156 6.644
    endloop
  endfacet
  facet normal -1.000000 0.000000 0.000000
    outer loop
      vertex -50.000 82.509 7.967
      vertex -50.000 83.106 8.694
      vertex -50.000 85.156 6.644
    endloop
  endfacet
  facet normal -1.000000 0.000000 0.000000
    outer loop
      vertex -50.000 82.509 7.967
      vertex -50.000 85.156 6.644
      vertex -50.000 84.920 6.356
    endloop
  endfacet
  facet normal 1.000000 0.000000 0.000000
    outer loop
      vertex 50.000 83.106 8.694
      vertex 50.000 82.509 7.967
      vertex 50.000 84.920 6.356
    endloop
  endfacet
  facet normal 1.000000 0.000000 0.000000
    outer loop
      vertex 50.000 83.106 8.694
      vertex 50.000 84.920 6.356
      vertex 50.000 85.156 6.644
    endloop
  endfacet
  facet normal 0.000000 0.881921 -0.471397
    outer loop
      vertex -50.000 82.509 7.967
      vertex 50.000 82.509 7.967
      vertex 50.000 82.065 7.137
    endloop
  endfacet
  facet normal 0.000000 0.881921 -0.471397
    outer loop
      vertex -50.000 82.509 7.967
      vertex 50.000 82.065 7.137
      vertex -50.000 82.065 7.137
    endloop
  endfacet
  facet normal 0.000000 -0.881921 0.471397
    outer loop
      vertex -50.000 84.745 6.027
      vertex 50.000 84.745 6.027
      vertex 50.000 84.920 6.356
    endloop
  endfacet
  facet normal 0.000000 -0.881921 0.471397
    outer loop
      vertex -50.000 84.745 6.027
      vertex 50.000 84.920 6.356
      vertex -50.000 84.920 6.356
    endloop
  endfacet
  facet normal -1.000000 0.000000 0.000000
    outer loop
      vertex -50.000 82.065 7.137
      vertex -50.000 82.509 7.967
      vertex -50.000 84.920 6.356
    endloop
  endfacet
  facet normal -1.000000 0.000000 0.000000
    outer loop
      vertex -50.000 82.065 7.137
      vertex -50.000 84.920 6.356
      vertex -50.000 84.745 6.027
    endloop
  endfacet
  facet normal 1.000000 0.000000 0.000000
    outer loop
      vertex 50.000 82.509 7.967
      vertex 50.000 82.065 7.137
      vertex 50.000 84.745 6.027
    endloop
  endfacet
  facet normal 1.000000 0.000000 0.000000
    outer loop
      vertex 50.000 82.509 7.967
      vertex 50.000 84.745 6.027
      vertex 50.000 84.920 6.356
    endloop
  endfacet
  facet normal 0.000000 0.956940 -0.290285
    outer loop
      vertex -50.000 82.065 7.137
      vertex 50.000 82.065 7.137
      vertex 50.000 81.792 6.236
    endloop
  endfacet
  facet normal 0.000000 0.956940 -0.290285
    outer loop
      vertex -50.000 82.065 7.137
      vertex 50.000 81.792 6.236
      vertex -50.000 81.792 6.236
    endloop
  endfacet
  facet normal 0.000000 -0.956940 0.290285
    outer loop
      vertex -50.000 84.637 5.671
      vertex 50.000 84.637 5.671
      vertex 50.000 84.745 6.027
    endloop
  endfacet
  facet normal 0.000000 -0.956940 0.290285
    outer loop
      vertex -50.000 84.637 5.671
      vertex 50.000 84.745 6.027
      vertex -50.000 84.745 6.027
    endloop
  endfacet
  facet normal -1.000000 0.000000 0.000000
    outer loop
      vertex -50.000 81.792 6.236
      vertex -50.000 82.065 7.137
      vertex -50.000 84.745 6.027
    endloop
  endfacet
  facet normal -1.000000 0.000000 0.000000
    outer loop
      vertex -50.000 81.792 6.236
      vertex -50.000 84.745 6.027
      vertex -50.000 84.637 5.671
    endloop
  endfacet
  facet normal 1.000000 0.000000 0.000000
    outer loop
      vertex 50.000 82.065 7.137
      vertex 50.000 81.792 6.236
      vertex 50.000 84.637 5.671
    endloop
  endfacet
  facet normal 1.000000 0.000000 0.000000
    outer loop
      vertex 50.000 82.065 7.137
      vertex 50.000 84.637 5.671
      vertex 50.000 84.745 6.027
    endloop
  endfacet
  facet normal 0.000000 0.995185 -0.098017
    outer loop
      vertex -50.000 81.792 6.236
      vertex 50.000 81.792 6.236
      vertex 50.000 81.700 5.300
    endloop
  endfacet
  facet normal 0.000000 0.995185 -0.098017
    outer loop
      vertex -50.000 81.792 6.236
      vertex 50.000 81.700 5.300
      vertex -50.000 81.700 5.300
    endloop
  endfacet
  facet normal 0.000000 -0.995185 0.098017
    outer loop
      vertex -50.000 84.600 5.300
      vertex 50.000 84.600 5.300
      vertex 50.000 84.637 5.671
    endloop
  endfacet
  facet normal 0.000000 -0.995185 0.098017
    outer loop
      vertex -50.000 84.600 5.300
      vertex 50.000 84.637 5.671
      vertex -50.000 84.637 5.671
    endloop
  endfacet
  facet normal -1.000000 0.000000 0.000000
    outer loop
      vertex -50.000 81.700 5.300
      vertex -50.000 81.792 6.236
      vertex -50.000 84.637 5.671
    endloop
  endfacet
  facet normal -1.000000 0.000000 0.000000
    outer loop
      vertex -50.000 81.700 5.300
      vertex -50.000 84.637 5.671
      vertex -50.000 84.600 5.300
    endloop
  endfacet
  facet normal 1.000000 0.000000 0.000000
    outer loop
      vertex 50.000 81.792 6.236
      vertex 50.000 81.700 5.300
      vertex 50.000 84.600 5.300
    endloop
  endfacet
  facet normal 1.000000 0.000000 0.000000
    outer loop
      vertex 50.000 81.792 6.236
      vertex 50.000 84.600 5.300
      vertex 50.000 84.637 5.671
    endloop
  endfacet
  facet normal 0.000000 0.995185 0.098017
    outer loop
      vertex -50.000 81.700 5.300
      vertex 50.000 81.700 5.300
      vertex 50.000 81.792 4.364
    endloop
  endfacet
  facet normal 0.000000 0.995185 0.098017
    outer loop
      vertex -50.000 81.700 5.300
      vertex 50.000 81.792 4.364
      vertex -50.000 81.792 4.364
    endloop
  endfacet
  facet normal 0.000000 -0.995185 -0.098017
    outer loop
      vertex -50.000 84.637 4.929
      vertex 50.000 84.637 4.929
      vertex 50.000 84.600 5.300
    endloop
  endfacet
  facet normal 0.000000 -0.995185 -0.098017
    outer loop
      vertex -50.000 84.637 4.929
      vertex 50.000 84.600 5.300
      vertex -50.000 84.600 5.300
    endloop
  endfacet
  facet normal -1.000000 0.000000 0.000000
    outer loop
      vertex -50.000 81.792 4.364
      vertex -50.000 81.700 5.300
      vertex -50.000 84.600 5.300
    endloop
  endfacet
  facet normal -1.000000 0.000000 0.000000
    outer loop
      vertex -50.000 81.792 4.364
      vertex -50.000 84.600 5.300
      vertex -50.000 84.637 4.929
    endloop
  endfacet
  facet normal 1.000000 0.000000 0.000000
    outer loop
      vertex 50.000 81.700 5.300
      vertex 50.000 81.792 4.364
      vertex 50.000 84.637 4.929
    endloop
  endfacet
  facet normal 1.000000 0.000000 0.000000
    outer loop
      vertex 50.000 81.700 5.300
      vertex 50.000 84.637 4.929
      vertex 50.000 84.600 5.300
    endloop
  endfacet
  facet normal 0.000000 0.956940 0.290285
    outer loop
      vertex -50.000 81.792 4.364
      vertex 50.000 81.792 4.364
      vertex 50.000 82.065 3.463
    endloop
  endfacet
  facet normal 0.000000 0.956940 0.290285
    outer loop
      vertex -50.000 81.792 4.364
      vertex 50.000 82.065 3.463
      vertex -50.000 82.065 3.463
    endloop
  endfacet
  facet normal 0.000000 -0.956940 -0.290285
    outer loop
      vertex -50.000 84.745 4.573
      vertex 50.000 84.745 4.573
      vertex 50.000 84.637 4.929
    endloop
  endfacet
  facet normal 0.000000 -0.956940 -0.290285
    outer loop
      vertex -50.000 84.745 4.573
      vertex 50.000 84.637 4.929
      vertex -50.000 84.637 4.929
    endloop
  endfacet
  facet normal -1.000000 0.000000 0.000000
    outer loop
      vertex -50.000 82.065 3.463
      vertex -50.000 81.792 4.364
      vertex -50.000 84.637 4.929
    endloop
  endfacet
  facet normal -1.000000 0.000000 0.000000
    outer loop
      vertex -50.000 82.065 3.463
      vertex -50.000 84.637 4.929
      vertex -50.000 84.745 4.573
    endloop
  endfacet
  facet normal 1.000000 0.000000 0.000000
    outer loop
      vertex 50.000 81.792 4.364
      vertex 50.000 82.065 3.463
      vertex 50.000 84.745 4.573
    endloop
  endfacet
  facet normal 1.000000 0.000000 0.000000
    outer loop
      vertex 50.000 81.792 4.364
      vertex 50.000 84.745 4.573
      vertex 50.000 84.637 4.929
    endloop
  endfacet
  facet normal 0.000000 0.881921 0.471397
    outer loop
      vertex -50.000 82.065 3.463
      vertex 50.000 82.065 3.463
      vertex 50.000 82.509 2.633
    endloop
  endfacet
  facet normal 0.000000 0.881921 0.471397
    outer loop
      vertex -50.000 82.065 3.463
      vertex 50.000 82.509 2.633
      vertex -50.000 82.509 2.633
    endloop
  endfacet
  facet normal 0.000000 -0.881921 -0.471397
    outer loop
      vertex -50.000 84.920 4.244
      vertex 50.000 84.920 4.244
      vertex 50.000 84.745 4.573
    endloop
  endfacet
  facet normal 0.000000 -0.881921 -0.471397
    outer loop
      vertex -50.000 84.920 4.244
      vertex 50.000 84.745 4.573
      vertex -50.000 84.745 4.573
    endloop
  endfacet
  facet normal -1.000000 0.000000 0.000000
    outer loop
      vertex -50.000 82.509 2.633
      vertex -50.000 82.065 3.463
      vertex -50.000 84.745 4.573
    endloop
  endfacet
  facet normal -1.000000 0.000000 0.000000
    outer loop
      vertex -50.000 82.509 2.633
      vertex -50.000 84.745 4.573
      vertex -50.000 84.920 4.244
    endloop
  endfacet
  facet normal 1.000000 0.000000 0.000000
    outer loop
      vertex 50.000 82.065 3.463
      vertex 50.000 82.509 2.633
      vertex 50.000 84.920 4.244
    endloop
  endfacet
  facet normal 1.000000 0.000000 0.000000
    outer loop
      vertex 50.000 82.065 3.463
      vertex 50.000 84.920 4.244
      vertex 50.000 84.745 4.573
    endloop
  endfacet
  facet normal 0.000000 0.773010 0.634393
    outer loop
      vertex -50.000 82.509 2.633
      vertex 50.000 82.509 2.633
      vertex 50.000 83.106 1.906
    endloop
  endfacet
  facet normal 0.000000 0.773010 0.634393
    outer loop
      vertex -50.000 82.509 2.633
      vertex 50.000 83.106 1.906
      vertex -50.000 83.106 1.906
    endloop
  endfacet
  facet normal 0.000000 -0.773010 -0.634393
    outer loop
      vertex -50.000 85.156 3.956
      vertex 50.000 85.156 3.956
      vertex 50.000 84.920 4.244
    endloop
  endfacet
  facet normal 0.000000 -0.773010 -0.634393
    outer loop
      vertex -50.000 85.156 3.956
      vertex 50.000 84.920 4.244
      vertex -50.000 84.920 4.244
    endloop
  endfacet
  facet normal -1.000000 0.000000 0.000000
    outer loop
      vertex -50.000 83.106 1.906
      vertex -50.000 82.509 2.633
      vertex -50.000 84.920 4.244
    endloop
  endfacet
  facet normal -1.000000 0.000000 0.000000
    outer loop
      vertex -50.000 83.106 1.906
      vertex -50.000 84.920 4.244
      vertex -50.000 85.156 3.956
    endloop
  endfacet
  facet normal 1.000000 0.000000 0.000000
    outer loop
      vertex 50.000 82.509 2.633
      vertex 50.000 83.106 1.906
      vertex 50.000 85.156 3.956
    endloop
  endfacet
  facet normal 1.000000 0.000000 0.000000
    outer loop
      vertex 50.000 82.509 2.633
      vertex 50.000 85.156 3.956
      vertex 50.000 84.920 4.244
    endloop
  endfacet
  facet normal 0.000000 0.634393 0.773010
    outer loop
      vertex -50.000 83.106 1.906
      vertex 50.000 83.106 1.906
      vertex 50.000 83.833 1.309
    endloop
  endfacet
  facet normal 0.000000 0.634393 0.773010
    outer loop
      vertex -50.000 83.106 1.906
      vertex 50.000 83.833 1.309
      vertex -50.000 83.833 1.309
    endloop
  endfacet
  facet normal 0.000000 -0.634393 -0.773010
    outer loop
      vertex -50.000 85.444 3.720
      vertex 50.000 85.444 3.720
      vertex 50.000 85.156 3.956
    endloop
  endfacet
  facet normal 0.000000 -0.634393 -0.773010
    outer loop
      vertex -50.000 85.444 3.720
      vertex 50.000 85.156 3.956
      vertex -50.000 85.156 3.956
    endloop
  endfacet
  facet normal -1.000000 0.000000 0.000000
    outer loop
      vertex -50.000 83.833 1.309
      vertex -50.000 83.106 1.906
      vertex -50.000 85.156 3.956
    endloop
  endfacet
  facet normal -1.000000 0.000000 0.000000
    outer loop
      vertex -50.000 83.833 1.309
      vertex -50.000 85.156 3.956
      vertex -50.000 85.444 3.720
    endloop
  endfacet
  facet normal 1.000000 0.000000 0.000000
    outer loop
      vertex 50.000 83.106 1.906
      vertex 50.000 83.833 1.309
      vertex 50.000 85.444 3.720
    endloop
  endfacet
  facet normal 1.000000 0.000000 0.000000
    outer loop
      vertex 50.000 83.106 1.906
      vertex 50.000 85.444 3.720
      vertex 50.000 85.156 3.956
    endloop
  endfacet
  facet normal 0.000000 0.471397 0.881921
    outer loop
      vertex -50.000 83.833 1.309
      vertex 50.000 83.833 1.309
      vertex 50.000 84.663 0.865
    endloop
  endfacet
  facet normal 0.000000 0.471397 0.881921
    outer loop
      vertex -50.000 83.833 1.309
      vertex 50.000 84.663 0.865
      vertex -50.000 84.663 0.865
    endloop
  endfacet
  facet normal 0.000000 -0.471397 -0.881921
    outer loop
      vertex -50.000 85.773 3.545
      vertex 50.000 85.773 3.545
      vertex 50.000 85.444 3.720
    endloop
  endfacet
  facet normal 0.000000 -0.471397 -0.881921
    outer loop
      vertex -50.000 85.773 3.545
      vertex 50.000 85.444 3.720
      vertex -50.000 85.444 3.720
    endloop
  endfacet
  facet normal -1.000000 0.000000 0.000000
    outer loop
      vertex -50.000 84.663 0.865
      vertex -50.000 83.833 1.309
      vertex -50.000 85.444 3.720
    endloop
  endfacet
  facet normal -1.000000 0.000000 0.000000
    outer loop
      vertex -50.000 84.663 0.865
      vertex -50.000 85.444 3.720
      vertex -50.000 85.773 3.545
    endloop
  endfacet
  facet normal 1.000000 0.000000 0.000000
    outer loop
      vertex 50.000 83.833 1.309
      vertex 50.000 84.663 0.865
      vertex 50.000 85.773 3.545
    endloop
  endfacet
  facet normal 1.000000 0.000000 0.000000
    outer loop
      vertex 50.000 83.833 1.309
      vertex 50.000 85.773 3.545
      vertex 50.000 85.444 3.720
    endloop
  endfacet
  facet normal 0.000000 0.290285 0.956940
    outer loop
      vertex -50.000 84.663 0.865
      vertex 50.000 84.663 0.865
      vertex 50.000 85.564 0.592
    endloop
  endfacet
  facet normal 0.000000 0.290285 0.956940
    outer loop
      vertex -50.000 84.663 0.865
      vertex 50.000 85.564 0.592
      vertex -50.000 85.564 0.592
    endloop
  endfacet
  facet normal 0.000000 -0.290285 -0.956940
    outer loop
      vertex -50.000 86.129 3.437
      vertex 50.000 86.129 3.437
      vertex 50.000 85.773 3.545
    endloop
  endfacet
  facet normal 0.000000 -0.290285 -0.956940
    outer loop
      vertex -50.000 86.129 3.437
      vertex 50.000 85.773 3.545
      vertex -50.000 85.773 3.545
    endloop
  endfacet
  facet normal -1.000000 0.000000 0.000000
    outer loop
      vertex -50.000 85.564 0.592
      vertex -50.000 84.663 0.865
      vertex -50.000 85.773 3.545
    endloop
  endfacet
  facet normal -1.000000 0.000000 0.000000
    outer loop
      vertex -50.000 85.564 0.592
      vertex -50.000 85.773 3.545
      vertex -50.000 86.129 3.437
    endloop
  endfacet
  facet normal 1.000000 0.000000 0.000000
    outer loop
      vertex 50.000 84.663 0.865
      vertex 50.000 85.564 0.592
      vertex 50.000 86.129 3.437
    endloop
  endfacet
  facet normal 1.000000 0.000000 0.000000
    outer loop
      vertex 50.000 84.663 0.865
      vertex 50.000 86.129 3.437
      vertex 50.000 85.773 3.545
    endloop
  endfacet
  facet normal 0.000000 0.098017 0.995185
    outer loop
      vertex -50.000 85.564 0.592
      vertex 50.000 85.564 0.592
      vertex 50.000 86.500 0.500
    endloop
  endfacet
  facet normal 0.000000 0.098017 0.995185
    outer loop
      vertex -50.000 85.564 0.592
      vertex 50.000 86.500 0.500
      vertex -50.000 86.500 0.500
    endloop
  endfacet
  facet normal 0.000000 -0.098017 -0.995185
    outer loop
      vertex -50.000 86.500 3.400
      vertex 50.000 86.500 3.400
      vertex 50.000 86.129 3.437
    endloop
  endfacet
  facet normal 0.000000 -0.098017 -0.995185
    outer loop
      vertex -50.000 86.500 3.400
      vertex 50.000 86.129 3.437
      vertex -50.000 86.129 3.437
    endloop
  endfacet
  facet normal -1.000000 0.000000 0.000000
    outer loop
      vertex -50.000 86.500 0.500
      vertex -50.000 85.564 0.592
      vertex -50.000 86.129 3.437
    endloop
  endfacet
  facet normal -1.000000 0.000000 0.000000
    outer loop
      vertex -50.000 86.500 0.500
      vertex -50.000 86.129 3.437
      vertex -50.000 86.500 3.400
    endloop
  endfacet
  facet normal 1.000000 0.000000 0.000000
    outer loop
      vertex 50.000 85.564 0.592
      vertex 50.000 86.500 0.500
      vertex 50.000 86.500 3.400
    endloop
  endfacet
  facet normal 1.000000 0.000000 0.000000
    outer loop
      vertex 50.000 85.564 0.592
      vertex 50.000 86.500 3.400
      vertex 50.000 86.129 3.437
    endloop
  endfacet
  facet normal 0.000000 -0.098017 0.995185
    outer loop
      vertex -50.000 86.500 0.500
      vertex 50.000 86.500 0.500
      vertex 50.000 87.436 0.592
    endloop
  endfacet
  facet normal 0.000000 -0.098017 0.995185
    outer loop
      vertex -50.000 86.500 0.500
      vertex 50.000 87.436 0.592
      vertex -50.000 87.436 0.592
    endloop
  endfacet
  facet normal 0.000000 0.098017 -0.995185
    outer loop
      vertex -50.000 86.871 3.437
      vertex 50.000 86.871 3.437
      vertex 50.000 86.500 3.400
    endloop
  endfacet
  facet normal 0.000000 0.098017 -0.995185
    outer loop
      vertex -50.000 86.871 3.437
      vertex 50.000 86.500 3.400
      vertex -50.000 86.500 3.400
    endloop
  endfacet
  facet normal -1.000000 0.000000 0.000000
    outer loop
      vertex -50.000 87.436 0.592
      vertex -50.000 86.500 0.500
      vertex -50.000 86.500 3.400
    endloop
  endfacet
  facet normal -1.000000 0.000000 0.000000
    outer loop
      vertex -50.000 87.436 0.592
      vertex -50.000 86.500 3.400
      vertex -50.000 86.871 3.437
    endloop
  endfacet
  facet normal 1.000000 0.000000 0.000000
    outer loop
      vertex 50.000 86.500 0.500
      vertex 50.000 87.436 0.592
      vertex 50.000 86.871 3.437
    endloop
  endfacet
  facet normal 1.000000 0.000000 0.000000
    outer loop
      vertex 50.000 86.500 0.500
      vertex 50.000 86.871 3.437
      vertex 50.000 86.500 3.400
    endloop
  endfacet
  facet normal 0.000000 -0.290285 0.956940
    outer loop
      vertex -50.000 87.436 0.592
      vertex 50.000 87.436 0.592
      vertex 50.000 88.337 0.865
    endloop
  endfacet
  facet normal 0.000000 -0.290285 0.956940
    outer loop
      vertex -50.000 87.436 0.592
      vertex 50.000 88.337 0.865
      vertex -50.000 88.337 0.865
    endloop
  endfacet
  facet normal 0.000000 0.290285 -0.956940
    outer loop
      vertex -50.000 87.227 3.545
      vertex 50.000 87.227 3.545
      vertex 50.000 86.871 3.437
    endloop
  endfacet
  facet normal 0.000000 0.290285 -0.956940
    outer loop
      vertex -50.000 87.227 3.545
      vertex 50.000 86.871 3.437
      vertex -50.000 86.871 3.437
    endloop
  endfacet
  facet normal -1.000000 0.000000 0.000000
    outer loop
      vertex -50.000 88.337 0.865
      vertex -50.000 87.436 0.592
      vertex -50.000 86.871 3.437
    endloop
  endfacet
  facet normal -1.000000 0.000000 0.000000
    outer loop
      vertex -50.000 88.337 0.865
      vertex -50.000 86.871 3.437
      vertex -50.000 87.227 3.545
    endloop
  endfacet
  facet normal 1.000000 0.000000 0.000000
    outer loop
      vertex 50.000 87.436 0.592
      vertex 50.000 88.337 0.865
      vertex 50.000 87.227 3.545
    endloop
  endfacet
  facet normal 1.000000 0.000000 0.000000
    outer loop
      vertex 50.000 87.436 0.592
      vertex 50.000 87.227 3.545
      vertex 50.000 86.871 3.437
    endloop
  endfacet
  facet normal 0.000000 -0.471397 0.881921
    outer loop
      vertex -50.000 88.337 0.865
      vertex 50.000 88.337 0.865
      vertex 50.000 89.167 1.309
    endloop
  endfacet
  facet normal 0.000000 -0.471397 0.881921
    outer loop
      vertex -50.000 88.337 0.865
      vertex 50.000 89.167 1.309
      vertex -50.000 89.167 1.309
    endloop
  endfacet
  facet normal 0.000000 0.471397 -0.881921
    outer loop
      vertex -50.000 87.556 3.720
      vertex 50.000 87.556 3.720
      vertex 50.000 87.227 3.545
    endloop
  endfacet
  facet normal 0.000000 0.471397 -0.881921
    outer loop
      vertex -50.000 87.556 3.720
      vertex 50.000 87.227 3.545
      vertex -50.000 87.227 3.545
    endloop
  endfacet
  facet normal -1.000000 0.000000 0.000000
    outer loop
      vertex -50.000 89.167 1.309
      vertex -50.000 88.337 0.865
      vertex -50.000 87.227 3.545
    endloop
  endfacet
  facet normal -1.000000 0.000000 0.000000
    outer loop
      vertex -50.000 89.167 1.309
      vertex -50.000 87.227 3.545
      vertex -50.000 87.556 3.720
    endloop
  endfacet
  facet normal 1.000000 0.000000 0.000000
    outer loop
      vertex 50.000 88.337 0.865
      vertex 50.000 89.167 1.309
      vertex 50.000 87.556 3.720
    endloop
  endfacet
  facet normal 1.000000 0.000000 0.000000
    outer loop
      vertex 50.000 88.337 0.865
      vertex 50.000 87.556 3.720
      vertex 50.000 87.227 3.545
    endloop
  endfacet
  facet normal 0.000000 -0.634393 0.773010
    outer loop
      vertex -50.000 89.167 1.309
      vertex 50.000 89.167 1.309
      vertex 50.000 89.894 1.906
    endloop
  endfacet
  facet normal 0.000000 -0.634393 0.773010
    outer loop
      vertex -50.000 89.167 1.309
      vertex 50.000 89.894 1.906
      vertex -50.000 89.894 1.906
    endloop
  endfacet
  facet normal 0.000000 0.634393 -0.773010
    outer loop
      vertex -50.000 87.844 3.956
      vertex 50.000 87.844 3.956
      vertex 50.000 87.556 3.720
    endloop
  endfacet
  facet normal 0.000000 0.634393 -0.773010
    outer loop
      vertex -50.000 87.844 3.956
      vertex 50.000 87.556 3.720
      vertex -50.000 87.556 3.720
    endloop
  endfacet
  facet normal -1.000000 0.000000 0.000000
    outer loop
      vertex -50.000 89.894 1.906
      vertex -50.000 89.167 1.309
      vertex -50.000 87.556 3.720
    endloop
  endfacet
  facet normal -1.000000 0.000000 0.000000
    outer loop
      vertex -50.000 89.894 1.906
      vertex -50.000 87.556 3.720
      vertex -50.000 87.844 3.956
    endloop
  endfacet
  facet normal 1.000000 0.000000 0.000000
    outer loop
      vertex 50.000 89.167 1.309
      vertex 50.000 89.894 1.906
      vertex 50.000 87.844 3.956
    endloop
  endfacet
  facet normal 1.000000 0.000000 0.000000
    outer loop
      vertex 50.000 89.167 1.309
      vertex 50.000 87.844 3.956
      vertex 50.000 87.556 3.720
    endloop
  endfacet
  facet normal 0.000000 -0.773010 0.634393
    outer loop
      vertex -50.000 89.894 1.906
      vertex 50.000 89.894 1.906
      vertex 50.000 90.491 2.633
    endloop
  endfacet
  facet normal 0.000000 -0.773010 0.634393
    outer loop
      vertex -50.000 89.894 1.906
      vertex 50.000 90.491 2.633
      vertex -50.000 90.491 2.633
    endloop
  endfacet
  facet normal 0.000000 0.773010 -0.634393
    outer loop
      vertex -50.000 88.080 4.244
      vertex 50.000 88.080 4.244
      vertex 50.000 87.844 3.956
    endloop
  endfacet
  facet normal 0.000000 0.773010 -0.634393
    outer loop
      vertex -50.000 88.080 4.244
      vertex 50.000 87.844 3.956
      vertex -50.000 87.844 3.956
    endloop
  endfacet
  facet normal -1.000000 0.000000 0.000000
    outer loop
      vertex -50.000 90.491 2.633
      vertex -50.000 89.894 1.906
      vertex -50.000 87.844 3.956
    endloop
  endfacet
  facet normal -1.000000 0.000000 0.000000
    outer loop
      vertex -50.000 90.491 2.633
      vertex -50.000 87.844 3.956
      vertex -50.000 88.080 4.244
    endloop
  endfacet
  facet normal 1.000000 0.000000 0.000000
    outer loop
      vertex 50.000 89.894 1.906
      vertex 50.000 90.491 2.633
      vertex 50.000 88.080 4.244
    endloop
  endfacet
  facet normal 1.000000 0.000000 0.000000
    outer loop
      vertex 50.000 89.894 1.906
      vertex 50.000 88.080 4.244
      vertex 50.000 87.844 3.956
    endloop
  endfacet
  facet normal 0.000000 -0.881921 0.471397
    outer loop
      vertex -50.000 90.491 2.633
      vertex 50.000 90.491 2.633
      vertex 50.000 90.935 3.463
    endloop
  endfacet
  facet normal 0.000000 -0.881921 0.471397
    outer loop
      vertex -50.000 90.491 2.633
      vertex 50.000 90.935 3.463
      vertex -50.000 90.935 3.463
    endloop
  endfacet
  facet normal 0.000000 0.881921 -0.471397
    outer loop
      vertex -50.000 88.255 4.573
      vertex 50.000 88.255 4.573
      vertex 50.000 88.080 4.244
    endloop
  endfacet
  facet normal 0.000000 0.881921 -0.471397
    outer loop
      vertex -50.000 88.255 4.573
      vertex 50.000 88.080 4.244
      vertex -50.000 88.080 4.244
    endloop
  endfacet
  facet normal -1.000000 0.000000 0.000000
    outer loop
      vertex -50.000 90.935 3.463
      vertex -50.000 90.491 2.633
      vertex -50.000 88.080 4.244
    endloop
  endfacet
  facet normal -1.000000 0.000000 0.000000
    outer loop
      vertex -50.000 90.935 3.463
      vertex -50.000 88.080 4.244
      vertex -50.000 88.255 4.573
    endloop
  endfacet
  facet normal 1.000000 0.000000 0.000000
    outer loop
      vertex 50.000 90.491 2.633
      vertex 50.000 90.935 3.463
      vertex 50.000 88.255 4.573
    endloop
  endfacet
  facet normal 1.000000 0.000000 0.000000
    outer loop
      vertex 50.000 90.491 2.633
      vertex 50.000 88.255 4.573
      vertex 50.000 88.080 4.244
    endloop
  endfacet
  facet normal 0.000000 -0.956940 0.290285
    outer loop
      vertex -50.000 90.935 3.463
      vertex 50.000 90.935 3.463
      vertex 50.000 91.208 4.364
    endloop
  endfacet
  facet normal 0.000000 -0.956940 0.290285
    outer loop
      vertex -50.000 90.935 3.463
      vertex 50.000 91.208 4.364
      vertex -50.000 91.208 4.364
    endloop
  endfacet
  facet normal 0.000000 0.956940 -0.290285
    outer loop
      vertex -50.000 88.363 4.929
      vertex 50.000 88.363 4.929
      vertex 50.000 88.255 4.573
    endloop
  endfacet
  facet normal 0.000000 0.956940 -0.290285
    outer loop
      vertex -50.000 88.363 4.929
      vertex 50.000 88.255 4.573
      vertex -50.000 88.255 4.573
    endloop
  endfacet
  facet normal -1.000000 0.000000 0.000000
    outer loop
      vertex -50.000 91.208 4.364
      vertex -50.000 90.935 3.463
      vertex -50.000 88.255 4.573
    endloop
  endfacet
  facet normal -1.000000 0.000000 0.000000
    outer loop
      vertex -50.000 91.208 4.364
      vertex -50.000 88.255 4.573
      vertex -50.000 88.363 4.929
    endloop
  endfacet
  facet normal 1.000000 0.000000 0.000000
    outer loop
      vertex 50.000 90.935 3.463
      vertex 50.000 91.208 4.364
      vertex 50.000 88.363 4.929
    endloop
  endfacet
  facet normal 1.000000 0.000000 0.000000
    outer loop
      vertex 50.000 90.935 3.463
      vertex 50.000 88.363 4.929
      vertex 50.000 88.255 4.573
    endloop
  endfacet
  facet normal 0.000000 -0.995185 0.098017
    outer loop
      vertex -50.000 91.208 4.364
      vertex 50.000 91.208 4.364
      vertex 50.000 91.300 5.300
    endloop
  endfacet
  facet normal 0.000000 -0.995185 0.098017
    outer loop
      vertex -50.000 91.208 4.364
      vertex 50.000 91.300 5.300
      vertex -50.000 91.300 5.300
    endloop
  endfacet
  facet normal 0.000000 0.995185 -0.098017
    outer loop
      vertex -50.000 88.400 5.300
      vertex 50.000 88.400 5.300
      vertex 50.000 88.363 4.929
    endloop
  endfacet
  facet normal 0.000000 0.995185 -0.098017
    outer loop
      vertex -50.000 88.400 5.300
      vertex 50.000 88.363 4.929
      vertex -50.000 88.363 4.929
    endloop
  endfacet
  facet normal -1.000000 0.000000 0.000000
    outer loop
      vertex -50.000 91.300 5.300
      vertex -50.000 91.208 4.364
      vertex -50.000 88.363 4.929
    endloop
  endfacet
  facet normal -1.000000 0.000000 0.000000
    outer loop
      vertex -50.000 91.300 5.300
      vertex -50.000 88.363 4.929
      vertex -50.000 88.400 5.300
    endloop
  endfacet
  facet normal 1.000000 0.000000 0.000000
    outer loop
      vertex 50.000 91.208 4.364
      vertex 50.000 91.300 5.300
      vertex 50.000 88.400 5.300
    endloop
  endfacet
  facet normal 1.000000 0.000000 0.000000
    outer loop
      vertex 50.000 91.208 4.364
      vertex 50.000 88.400 5.300
      vertex 50.000 88.363 4.929
    endloop
  endfacet
  facet normal 0.000000 0.000000 1.000000
    outer loop
      vertex -54.000 82.500 0.000
      vertex 54.000 82.500 0.000
      vertex 54.000 88.500 0.000
    endloop
  endfacet
  facet normal 0.000000 0.000000 1.000000
    outer loop
      vertex -54.000 82.500 0.000
      vertex 54.000 88.500 0.000
      vertex -54.000 88.500 0.000
    endloop
  endfacet
  facet normal 0.000000 0.000000 -1.000000
    outer loop
      vertex -54.000 82.500 2.800
      vertex -54.000 88.500 2.800
      vertex 54.000 88.500 2.800
    endloop
  endfacet
  facet normal 0.000000 0.000000 -1.000000
    outer loop
      vertex -54.000 82.500 2.800
      vertex 54.000 88.500 2.800
      vertex 54.000 82.500 2.800
    endloop
  endfacet
  facet normal 0.000000 1.000000 0.000000
    outer loop
      vertex -54.000 82.500 0.000
      vertex -54.000 82.500 2.800
      vertex 54.000 82.500 2.800
    endloop
  endfacet
  facet normal 0.000000 1.000000 0.000000
    outer loop
      vertex -54.000 82.500 0.000
      vertex 54.000 82.500 2.800
      vertex 54.000 82.500 0.000
    endloop
  endfacet
  facet normal -1.000000 0.000000 0.000000
    outer loop
      vertex 54.000 82.500 0.000
      vertex 54.000 82.500 2.800
      vertex 54.000 88.500 2.800
    endloop
  endfacet
  facet normal -1.000000 0.000000 0.000000
    outer loop
      vertex 54.000 82.500 0.000
      vertex 54.000 88.500 2.800
      vertex 54.000 88.500 0.000
    endloop
  endfacet
  facet normal 0.000000 -1.000000 0.000000
    outer loop
      vertex 54.000 88.500 0.000
      vertex 54.000 88.500 2.800
      vertex -54.000 88.500 2.800
    endloop
  endfacet
  facet normal 0.000000 -1.000000 0.000000
    outer loop
      vertex 54.000 88.500 0.000
      vertex -54.000 88.500 2.800
      vertex -54.000 88.500 0.000
    endloop
  endfacet
  facet normal 1.000000 0.000000 0.000000
    outer loop
      vertex -54.000 88.500 0.000
      vertex -54.000 88.500 2.800
      vertex -54.000 82.500 2.800
    endloop
  endfacet
  facet normal 1.000000 0.000000 0.000000
    outer loop
      vertex -54.000 88.500 0.000
      vertex -54.000 82.500 2.800
      vertex -54.000 82.500 0.000
    endloop
  endfacet
  facet normal 0.000000 0.000000 1.000000
    outer loop
      vertex -34.000 -95.000 0.000
      vertex 34.000 -95.000 0.000
      vertex 34.000 -85.000 0.000
    endloop
  endfacet
  facet normal 0.000000 0.000000 1.000000
    outer loop
      vertex -34.000 -95.000 0.000
      vertex 34.000 -85.000 0.000
      vertex -34.000 -85.000 0.000
    endloop
  endfacet
  facet normal 0.000000 0.000000 -1.000000
    outer loop
      vertex -34.000 -95.000 1.200
      vertex -34.000 -85.000 1.200
      vertex 34.000 -85.000 1.200
    endloop
  endfacet
  facet normal 0.000000 0.000000 -1.000000
    outer loop
      vertex -34.000 -95.000 1.200
      vertex 34.000 -85.000 1.200
      vertex 34.000 -95.000 1.200
    endloop
  endfacet
  facet normal 0.000000 1.000000 0.000000
    outer loop
      vertex -34.000 -95.000 0.000
      vertex -34.000 -95.000 1.200
      vertex 34.000 -95.000 1.200
    endloop
  endfacet
  facet normal 0.000000 1.000000 0.000000
    outer loop
      vertex -34.000 -95.000 0.000
      vertex 34.000 -95.000 1.200
      vertex 34.000 -95.000 0.000
    endloop
  endfacet
  facet normal -1.000000 0.000000 0.000000
    outer loop
      vertex 34.000 -95.000 0.000
      vertex 34.000 -95.000 1.200
      vertex 34.000 -85.000 1.200
    endloop
  endfacet
  facet normal -1.000000 0.000000 0.000000
    outer loop
      vertex 34.000 -95.000 0.000
      vertex 34.000 -85.000 1.200
      vertex 34.000 -85.000 0.000
    endloop
  endfacet
  facet normal 0.000000 -1.000000 0.000000
    outer loop
      vertex 34.000 -85.000 0.000
      vertex 34.000 -85.000 1.200
      vertex -34.000 -85.000 1.200
    endloop
  endfacet
  facet normal 0.000000 -1.000000 0.000000
    outer loop
      vertex 34.000 -85.000 0.000
      vertex -34.000 -85.000 1.200
      vertex -34.000 -85.000 0.000
    endloop
  endfacet
  facet normal 1.000000 0.000000 0.000000
    outer loop
      vertex -34.000 -85.000 0.000
      vertex -34.000 -85.000 1.200
      vertex -34.000 -95.000 1.200
    endloop
  endfacet
  facet normal 1.000000 0.000000 0.000000
    outer loop
      vertex -34.000 -85.000 0.000
      vertex -34.000 -95.000 1.200
      vertex -34.000 -95.000 0.000
    endloop
  endfacet
  facet normal 0.000000 0.000000 1.000000
    outer loop
      vertex -26.000 -94.000 0.000
      vertex 26.000 -94.000 0.000
      vertex 26.000 -86.000 0.000
    endloop
  endfacet
  facet normal 0.000000 0.000000 1.000000
    outer loop
      vertex -26.000 -94.000 0.000
      vertex 26.000 -86.000 0.000
      vertex -26.000 -86.000 0.000
    endloop
  endfacet
  facet normal 0.000000 0.000000 -1.000000
    outer loop
      vertex -26.000 -94.000 4.000
      vertex -26.000 -86.000 4.000
      vertex 26.000 -86.000 4.000
    endloop
  endfacet
  facet normal 0.000000 0.000000 -1.000000
    outer loop
      vertex -26.000 -94.000 4.000
      vertex 26.000 -86.000 4.000
      vertex 26.000 -94.000 4.000
    endloop
  endfacet
  facet normal 0.000000 1.000000 0.000000
    outer loop
      vertex -26.000 -94.000 0.000
      vertex -26.000 -94.000 4.000
      vertex 26.000 -94.000 4.000
    endloop
  endfacet
  facet normal 0.000000 1.000000 0.000000
    outer loop
      vertex -26.000 -94.000 0.000
      vertex 26.000 -94.000 4.000
      vertex 26.000 -94.000 0.000
    endloop
  endfacet
  facet normal -1.000000 0.000000 0.000000
    outer loop
      vertex 26.000 -94.000 0.000
      vertex 26.000 -94.000 4.000
      vertex 26.000 -86.000 4.000
    endloop
  endfacet
  facet normal -1.000000 0.000000 0.000000
    outer loop
      vertex 26.000 -94.000 0.000
      vertex 26.000 -86.000 4.000
      vertex 26.000 -86.000 0.000
    endloop
  endfacet
  facet normal 0.000000 -1.000000 0.000000
    outer loop
      vertex 26.000 -86.000 0.000
      vertex 26.000 -86.000 4.000
      vertex -26.000 -86.000 4.000
    endloop
  endfacet
  facet normal 0.000000 -1.000000 0.000000
    outer loop
      vertex 26.000 -86.000 0.000
      vertex -26.000 -86.000 4.000
      vertex -26.000 -86.000 0.000
    endloop
  endfacet
  facet normal 1.000000 0.000000 0.000000
    outer loop
      vertex -26.000 -86.000 0.000
      vertex -26.000 -86.000 4.000
      vertex -26.000 -94.000 4.000
    endloop
  endfacet
  facet normal 1.000000 0.000000 0.000000
    outer loop
      vertex -26.000 -86.000 0.000
      vertex -26.000 -94.000 4.000
      vertex -26.000 -94.000 0.000
    endloop
  endfacet
endsolid food_caddy_k1se_flip_lid_216mm
