solid food_caddy_k1se_liner_hanger_plate_bed_centered
  facet normal 0.000000 -1.000000 0.000000
    outer loop
      vertex 32.000 31.000 0.000
      vertex 188.000 31.000 0.000
      vertex 188.000 31.000 2.800
    endloop
  endfacet
  facet normal 0.000000 -1.000000 0.000000
    outer loop
      vertex 32.000 31.000 0.000
      vertex 188.000 31.000 2.800
      vertex 32.000 31.000 2.800
    endloop
  endfacet
  facet normal 0.000000 1.000000 0.000000
    outer loop
      vertex 184.000 38.000 0.000
      vertex 36.000 38.000 0.000
      vertex 36.000 38.000 2.800
    endloop
  endfacet
  facet normal 0.000000 1.000000 0.000000
    outer loop
      vertex 184.000 38.000 0.000
      vertex 36.000 38.000 2.800
      vertex 184.000 38.000 2.800
    endloop
  endfacet
  facet normal 0.000000 0.000000 1.000000
    outer loop
      vertex 32.000 31.000 2.800
      vertex 188.000 31.000 2.800
      vertex 184.000 38.000 2.800
    endloop
  endfacet
  facet normal 0.000000 0.000000 1.000000
    outer loop
      vertex 32.000 31.000 2.800
      vertex 184.000 38.000 2.800
      vertex 36.000 38.000 2.800
    endloop
  endfacet
  facet normal 0.000000 0.000000 -1.000000
    outer loop
      vertex 188.000 31.000 0.000
      vertex 32.000 31.000 0.000
      vertex 36.000 38.000 0.000
    endloop
  endfacet
  facet normal 0.000000 0.000000 -1.000000
    outer loop
      vertex 188.000 31.000 0.000
      vertex 36.000 38.000 0.000
      vertex 184.000 38.000 0.000
    endloop
  endfacet
  facet normal 0.707107 -0.707107 0.000000
    outer loop
      vertex 188.000 31.000 0.000
      vertex 209.000 52.000 0.000
      vertex 209.000 52.000 2.800
    endloop
  endfacet
  facet normal 0.707107 -0.707107 0.000000
    outer loop
      vertex 188.000 31.000 0.000
      vertex 209.000 52.000 2.800
      vertex 188.000 31.000 2.800
    endloop
  endfacet
  facet normal -0.707107 0.707107 0.000000
    outer loop
      vertex 202.000 56.000 0.000
      vertex 184.000 38.000 0.000
      vertex 184.000 38.000 2.800
    endloop
  endfacet
  facet normal -0.707107 0.707107 0.000000
    outer loop
      vertex 202.000 56.000 0.000
      vertex 184.000 38.000 2.800
      vertex 202.000 56.000 2.800
    endloop
  endfacet
  facet normal 0.000000 0.000000 1.000000
    outer loop
      vertex 188.000 31.000 2.800
      vertex 209.000 52.000 2.800
      vertex 202.000 56.000 2.800
    endloop
  endfacet
  facet normal 0.000000 0.000000 1.000000
    outer loop
      vertex 188.000 31.000 2.800
      vertex 202.000 56.000 2.800
      vertex 184.000 38.000 2.800
    endloop
  endfacet
  facet normal 0.000000 0.000000 -1.000000
    outer loop
      vertex 209.000 52.000 0.000
      vertex 188.000 31.000 0.000
      vertex 184.000 38.000 0.000
    endloop
  endfacet
  facet normal 0.000000 0.000000 -1.000000
    outer loop
      vertex 209.000 52.000 0.000
      vertex 184.000 38.000 0.000
      vertex 202.000 56.000 0.000
    endloop
  endfacet
  facet normal 1.000000 0.000000 0.000000
    outer loop
      vertex 209.000 52.000 0.000
      vertex 209.000 168.000 0.000
      vertex 209.000 168.000 2.800
    endloop
  endfacet
  facet normal 1.000000 0.000000 0.000000
    outer loop
      vertex 209.000 52.000 0.000
      vertex 209.000 168.000 2.800
      vertex 209.000 52.000 2.800
    endloop
  endfacet
  facet normal -1.000000 0.000000 0.000000
    outer loop
      vertex 202.000 164.000 0.000
      vertex 202.000 56.000 0.000
      vertex 202.000 56.000 2.800
    endloop
  endfacet
  facet normal -1.000000 0.000000 0.000000
    outer loop
      vertex 202.000 164.000 0.000
      vertex 202.000 56.000 2.800
      vertex 202.000 164.000 2.800
    endloop
  endfacet
  facet normal 0.000000 0.000000 1.000000
    outer loop
      vertex 209.000 52.000 2.800
      vertex 209.000 168.000 2.800
      vertex 202.000 164.000 2.800
    endloop
  endfacet
  facet normal 0.000000 0.000000 1.000000
    outer loop
      vertex 209.000 52.000 2.800
      vertex 202.000 164.000 2.800
      vertex 202.000 56.000 2.800
    endloop
  endfacet
  facet normal 0.000000 0.000000 -1.000000
    outer loop
      vertex 209.000 168.000 0.000
      vertex 209.000 52.000 0.000
      vertex 202.000 56.000 0.000
    endloop
  endfacet
  facet normal 0.000000 0.000000 -1.000000
    outer loop
      vertex 209.000 168.000 0.000
      vertex 202.000 56.000 0.000
      vertex 202.000 164.000 0.000
    endloop
  endfacet
  facet normal 0.707107 0.707107 0.000000
    outer loop
      vertex 209.000 168.000 0.000
      vertex 188.000 189.000 0.000
      vertex 188.000 189.000 2.800
    endloop
  endfacet
  facet normal 0.707107 0.707107 0.000000
    outer loop
      vertex 209.000 168.000 0.000
      vertex 188.000 189.000 2.800
      vertex 209.000 168.000 2.800
    endloop
  endfacet
  facet normal -0.707107 -0.707107 0.000000
    outer loop
      vertex 184.000 182.000 0.000
      vertex 202.000 164.000 0.000
      vertex 202.000 164.000 2.800
    endloop
  endfacet
  facet normal -0.707107 -0.707107 0.000000
    outer loop
      vertex 184.000 182.000 0.000
      vertex 202.000 164.000 2.800
      vertex 184.000 182.000 2.800
    endloop
  endfacet
  facet normal 0.000000 0.000000 1.000000
    outer loop
      vertex 209.000 168.000 2.800
      vertex 188.000 189.000 2.800
      vertex 184.000 182.000 2.800
    endloop
  endfacet
  facet normal 0.000000 0.000000 1.000000
    outer loop
      vertex 209.000 168.000 2.800
      vertex 184.000 182.000 2.800
      vertex 202.000 164.000 2.800
    endloop
  endfacet
  facet normal 0.000000 0.000000 -1.000000
    outer loop
      vertex 188.000 189.000 0.000
      vertex 209.000 168.000 0.000
      vertex 202.000 164.000 0.000
    endloop
  endfacet
  facet normal 0.000000 0.000000 -1.000000
    outer loop
      vertex 188.000 189.000 0.000
      vertex 202.000 164.000 0.000
      vertex 184.000 182.000 0.000
    endloop
  endfacet
  facet normal 0.000000 1.000000 0.000000
    outer loop
      vertex 188.000 189.000 0.000
      vertex 32.000 189.000 0.000
      vertex 32.000 189.000 2.800
    endloop
  endfacet
  facet normal 0.000000 1.000000 0.000000
    outer loop
      vertex 188.000 189.000 0.000
      vertex 32.000 189.000 2.800
      vertex 188.000 189.000 2.800
    endloop
  endfacet
  facet normal 0.000000 -1.000000 0.000000
    outer loop
      vertex 36.000 182.000 0.000
      vertex 184.000 182.000 0.000
      vertex 184.000 182.000 2.800
    endloop
  endfacet
  facet normal 0.000000 -1.000000 0.000000
    outer loop
      vertex 36.000 182.000 0.000
      vertex 184.000 182.000 2.800
      vertex 36.000 182.000 2.800
    endloop
  endfacet
  facet normal 0.000000 0.000000 1.000000
    outer loop
      vertex 188.000 189.000 2.800
      vertex 32.000 189.000 2.800
      vertex 36.000 182.000 2.800
    endloop
  endfacet
  facet normal 0.000000 0.000000 1.000000
    outer loop
      vertex 188.000 189.000 2.800
      vertex 36.000 182.000 2.800
      vertex 184.000 182.000 2.800
    endloop
  endfacet
  facet normal 0.000000 0.000000 -1.000000
    outer loop
      vertex 32.000 189.000 0.000
      vertex 188.000 189.000 0.000
      vertex 184.000 182.000 0.000
    endloop
  endfacet
  facet normal 0.000000 0.000000 -1.000000
    outer loop
      vertex 32.000 189.000 0.000
      vertex 184.000 182.000 0.000
      vertex 36.000 182.000 0.000
    endloop
  endfacet
  facet normal -0.707107 0.707107 0.000000
    outer loop
      vertex 32.000 189.000 0.000
      vertex 11.000 168.000 0.000
      vertex 11.000 168.000 2.800
    endloop
  endfacet
  facet normal -0.707107 0.707107 0.000000
    outer loop
      vertex 32.000 189.000 0.000
      vertex 11.000 168.000 2.800
      vertex 32.000 189.000 2.800
    endloop
  endfacet
  facet normal 0.707107 -0.707107 0.000000
    outer loop
      vertex 18.000 164.000 0.000
      vertex 36.000 182.000 0.000
      vertex 36.000 182.000 2.800
    endloop
  endfacet
  facet normal 0.707107 -0.707107 0.000000
    outer loop
      vertex 18.000 164.000 0.000
      vertex 36.000 182.000 2.800
      vertex 18.000 164.000 2.800
    endloop
  endfacet
  facet normal 0.000000 0.000000 1.000000
    outer loop
      vertex 32.000 189.000 2.800
      vertex 11.000 168.000 2.800
      vertex 18.000 164.000 2.800
    endloop
  endfacet
  facet normal 0.000000 0.000000 1.000000
    outer loop
      vertex 32.000 189.000 2.800
      vertex 18.000 164.000 2.800
      vertex 36.000 182.000 2.800
    endloop
  endfacet
  facet normal 0.000000 0.000000 -1.000000
    outer loop
      vertex 11.000 168.000 0.000
      vertex 32.000 189.000 0.000
      vertex 36.000 182.000 0.000
    endloop
  endfacet
  facet normal 0.000000 0.000000 -1.000000
    outer loop
      vertex 11.000 168.000 0.000
      vertex 36.000 182.000 0.000
      vertex 18.000 164.000 0.000
    endloop
  endfacet
  facet normal -1.000000 0.000000 0.000000
    outer loop
      vertex 11.000 168.000 0.000
      vertex 11.000 52.000 0.000
      vertex 11.000 52.000 2.800
    endloop
  endfacet
  facet normal -1.000000 0.000000 0.000000
    outer loop
      vertex 11.000 168.000 0.000
      vertex 11.000 52.000 2.800
      vertex 11.000 168.000 2.800
    endloop
  endfacet
  facet normal 1.000000 0.000000 0.000000
    outer loop
      vertex 18.000 56.000 0.000
      vertex 18.000 164.000 0.000
      vertex 18.000 164.000 2.800
    endloop
  endfacet
  facet normal 1.000000 0.000000 0.000000
    outer loop
      vertex 18.000 56.000 0.000
      vertex 18.000 164.000 2.800
      vertex 18.000 56.000 2.800
    endloop
  endfacet
  facet normal 0.000000 0.000000 1.000000
    outer loop
      vertex 11.000 168.000 2.800
      vertex 11.000 52.000 2.800
      vertex 18.000 56.000 2.800
    endloop
  endfacet
  facet normal 0.000000 0.000000 1.000000
    outer loop
      vertex 11.000 168.000 2.800
      vertex 18.000 56.000 2.800
      vertex 18.000 164.000 2.800
    endloop
  endfacet
  facet normal 0.000000 0.000000 -1.000000
    outer loop
      vertex 11.000 52.000 0.000
      vertex 11.000 168.000 0.000
      vertex 18.000 164.000 0.000
    endloop
  endfacet
  facet normal 0.000000 0.000000 -1.000000
    outer loop
      vertex 11.000 52.000 0.000
      vertex 18.000 164.000 0.000
      vertex 18.000 56.000 0.000
    endloop
  endfacet
  facet normal -0.707107 -0.707107 0.000000
    outer loop
      vertex 11.000 52.000 0.000
      vertex 32.000 31.000 0.000
      vertex 32.000 31.000 2.800
    endloop
  endfacet
  facet normal -0.707107 -0.707107 0.000000
    outer loop
      vertex 11.000 52.000 0.000
      vertex 32.000 31.000 2.800
      vertex 11.000 52.000 2.800
    endloop
  endfacet
  facet normal 0.707107 0.707107 0.000000
    outer loop
      vertex 36.000 38.000 0.000
      vertex 18.000 56.000 0.000
      vertex 18.000 56.000 2.800
    endloop
  endfacet
  facet normal 0.707107 0.707107 0.000000
    outer loop
      vertex 36.000 38.000 0.000
      vertex 18.000 56.000 2.800
      vertex 36.000 38.000 2.800
    endloop
  endfacet
  facet normal 0.000000 0.000000 1.000000
    outer loop
      vertex 11.000 52.000 2.800
      vertex 32.000 31.000 2.800
      vertex 36.000 38.000 2.800
    endloop
  endfacet
  facet normal 0.000000 0.000000 1.000000
    outer loop
      vertex 11.000 52.000 2.800
      vertex 36.000 38.000 2.800
      vertex 18.000 56.000 2.800
    endloop
  endfacet
  facet normal 0.000000 0.000000 -1.000000
    outer loop
      vertex 32.000 31.000 0.000
      vertex 11.000 52.000 0.000
      vertex 18.000 56.000 0.000
    endloop
  endfacet
  facet normal 0.000000 0.000000 -1.000000
    outer loop
      vertex 32.000 31.000 0.000
      vertex 18.000 56.000 0.000
      vertex 36.000 38.000 0.000
    endloop
  endfacet
  facet normal 0.000000 0.000000 1.000000
    outer loop
      vertex 80.000 28.000 0.000
      vertex 140.000 28.000 0.000
      vertex 140.000 35.000 0.000
    endloop
  endfacet
  facet normal 0.000000 0.000000 1.000000
    outer loop
      vertex 80.000 28.000 0.000
      vertex 140.000 35.000 0.000
      vertex 80.000 35.000 0.000
    endloop
  endfacet
  facet normal 0.000000 0.000000 -1.000000
    outer loop
      vertex 80.000 28.000 2.800
      vertex 80.000 35.000 2.800
      vertex 140.000 35.000 2.800
    endloop
  endfacet
  facet normal 0.000000 0.000000 -1.000000
    outer loop
      vertex 80.000 28.000 2.800
      vertex 140.000 35.000 2.800
      vertex 140.000 28.000 2.800
    endloop
  endfacet
  facet normal 0.000000 1.000000 0.000000
    outer loop
      vertex 80.000 28.000 0.000
      vertex 80.000 28.000 2.800
      vertex 140.000 28.000 2.800
    endloop
  endfacet
  facet normal 0.000000 1.000000 0.000000
    outer loop
      vertex 80.000 28.000 0.000
      vertex 140.000 28.000 2.800
      vertex 140.000 28.000 0.000
    endloop
  endfacet
  facet normal -1.000000 0.000000 0.000000
    outer loop
      vertex 140.000 28.000 0.000
      vertex 140.000 28.000 2.800
      vertex 140.000 35.000 2.800
    endloop
  endfacet
  facet normal -1.000000 0.000000 0.000000
    outer loop
      vertex 140.000 28.000 0.000
      vertex 140.000 35.000 2.800
      vertex 140.000 35.000 0.000
    endloop
  endfacet
  facet normal 0.000000 -1.000000 0.000000
    outer loop
      vertex 140.000 35.000 0.000
      vertex 140.000 35.000 2.800
      vertex 80.000 35.000 2.800
    endloop
  endfacet
  facet normal 0.000000 -1.000000 0.000000
    outer loop
      vertex 140.000 35.000 0.000
      vertex 80.000 35.000 2.800
      vertex 80.000 35.000 0.000
    endloop
  endfacet
  facet normal 1.000000 0.000000 0.000000
    outer loop
      vertex 80.000 35.000 0.000
      vertex 80.000 35.000 2.800
      vertex 80.000 28.000 2.800
    endloop
  endfacet
  facet normal 1.000000 0.000000 0.000000
    outer loop
      vertex 80.000 35.000 0.000
      vertex 80.000 28.000 2.800
      vertex 80.000 28.000 0.000
    endloop
  endfacet
  facet normal 0.000000 0.000000 1.000000
    outer loop
      vertex 80.000 185.000 0.000
      vertex 140.000 185.000 0.000
      vertex 140.000 192.000 0.000
    endloop
  endfacet
  facet normal 0.000000 0.000000 1.000000
    outer loop
      vertex 80.000 185.000 0.000
      vertex 140.000 192.000 0.000
      vertex 80.000 192.000 0.000
    endloop
  endfacet
  facet normal 0.000000 0.000000 -1.000000
    outer loop
      vertex 80.000 185.000 2.800
      vertex 80.000 192.000 2.800
      vertex 140.000 192.000 2.800
    endloop
  endfacet
  facet normal 0.000000 0.000000 -1.000000
    outer loop
      vertex 80.000 185.000 2.800
      vertex 140.000 192.000 2.800
      vertex 140.000 185.000 2.800
    endloop
  endfacet
  facet normal 0.000000 1.000000 0.000000
    outer loop
      vertex 80.000 185.000 0.000
      vertex 80.000 185.000 2.800
      vertex 140.000 185.000 2.800
    endloop
  endfacet
  facet normal 0.000000 1.000000 0.000000
    outer loop
      vertex 80.000 185.000 0.000
      vertex 140.000 185.000 2.800
      vertex 140.000 185.000 0.000
    endloop
  endfacet
  facet normal -1.000000 0.000000 0.000000
    outer loop
      vertex 140.000 185.000 0.000
      vertex 140.000 185.000 2.800
      vertex 140.000 192.000 2.800
    endloop
  endfacet
  facet normal -1.000000 0.000000 0.000000
    outer loop
      vertex 140.000 185.000 0.000
      vertex 140.000 192.000 2.800
      vertex 140.000 192.000 0.000
    endloop
  endfacet
  facet normal 0.000000 -1.000000 0.000000
    outer loop
      vertex 140.000 192.000 0.000
      vertex 140.000 192.000 2.800
      vertex 80.000 192.000 2.800
    endloop
  endfacet
  facet normal 0.000000 -1.000000 0.000000
    outer loop
      vertex 140.000 192.000 0.000
      vertex 80.000 192.000 2.800
      vertex 80.000 192.000 0.000
    endloop
  endfacet
  facet normal 1.000000 0.000000 0.000000
    outer loop
      vertex 80.000 192.000 0.000
      vertex 80.000 192.000 2.800
      vertex 80.000 185.000 2.800
    endloop
  endfacet
  facet normal 1.000000 0.000000 0.000000
    outer loop
      vertex 80.000 192.000 0.000
      vertex 80.000 185.000 2.800
      vertex 80.000 185.000 0.000
    endloop
  endfacet
  facet normal 0.000000 0.000000 1.000000
    outer loop
      vertex 8.000 90.000 0.000
      vertex 15.000 90.000 0.000
      vertex 15.000 130.000 0.000
    endloop
  endfacet
  facet normal 0.000000 0.000000 1.000000
    outer loop
      vertex 8.000 90.000 0.000
      vertex 15.000 130.000 0.000
      vertex 8.000 130.000 0.000
    endloop
  endfacet
  facet normal 0.000000 0.000000 -1.000000
    outer loop
      vertex 8.000 90.000 2.800
      vertex 8.000 130.000 2.800
      vertex 15.000 130.000 2.800
    endloop
  endfacet
  facet normal 0.000000 0.000000 -1.000000
    outer loop
      vertex 8.000 90.000 2.800
      vertex 15.000 130.000 2.800
      vertex 15.000 90.000 2.800
    endloop
  endfacet
  facet normal 0.000000 1.000000 0.000000
    outer loop
      vertex 8.000 90.000 0.000
      vertex 8.000 90.000 2.800
      vertex 15.000 90.000 2.800
    endloop
  endfacet
  facet normal 0.000000 1.000000 0.000000
    outer loop
      vertex 8.000 90.000 0.000
      vertex 15.000 90.000 2.800
      vertex 15.000 90.000 0.000
    endloop
  endfacet
  facet normal -1.000000 0.000000 0.000000
    outer loop
      vertex 15.000 90.000 0.000
      vertex 15.000 90.000 2.800
      vertex 15.000 130.000 2.800
    endloop
  endfacet
  facet normal -1.000000 0.000000 0.000000
    outer loop
      vertex 15.000 90.000 0.000
      vertex 15.000 130.000 2.800
      vertex 15.000 130.000 0.000
    endloop
  endfacet
  facet normal 0.000000 -1.000000 0.000000
    outer loop
      vertex 15.000 130.000 0.000
      vertex 15.000 130.000 2.800
      vertex 8.000 130.000 2.800
    endloop
  endfacet
  facet normal 0.000000 -1.000000 0.000000
    outer loop
      vertex 15.000 130.000 0.000
      vertex 8.000 130.000 2.800
      vertex 8.000 130.000 0.000
    endloop
  endfacet
  facet normal 1.000000 0.000000 0.000000
    outer loop
      vertex 8.000 130.000 0.000
      vertex 8.000 130.000 2.800
      vertex 8.000 90.000 2.800
    endloop
  endfacet
  facet normal 1.000000 0.000000 0.000000
    outer loop
      vertex 8.000 130.000 0.000
      vertex 8.000 90.000 2.800
      vertex 8.000 90.000 0.000
    endloop
  endfacet
  facet normal 0.000000 0.000000 1.000000
    outer loop
      vertex 205.000 90.000 0.000
      vertex 212.000 90.000 0.000
      vertex 212.000 130.000 0.000
    endloop
  endfacet
  facet normal 0.000000 0.000000 1.000000
    outer loop
      vertex 205.000 90.000 0.000
      vertex 212.000 130.000 0.000
      vertex 205.000 130.000 0.000
    endloop
  endfacet
  facet normal 0.000000 0.000000 -1.000000
    outer loop
      vertex 205.000 90.000 2.800
      vertex 205.000 130.000 2.800
      vertex 212.000 130.000 2.800
    endloop
  endfacet
  facet normal 0.000000 0.000000 -1.000000
    outer loop
      vertex 205.000 90.000 2.800
      vertex 212.000 130.000 2.800
      vertex 212.000 90.000 2.800
    endloop
  endfacet
  facet normal 0.000000 1.000000 0.000000
    outer loop
      vertex 205.000 90.000 0.000
      vertex 205.000 90.000 2.800
      vertex 212.000 90.000 2.800
    endloop
  endfacet
  facet normal 0.000000 1.000000 0.000000
    outer loop
      vertex 205.000 90.000 0.000
      vertex 212.000 90.000 2.800
      vertex 212.000 90.000 0.000
    endloop
  endfacet
  facet normal -1.000000 0.000000 0.000000
    outer loop
      vertex 212.000 90.000 0.000
      vertex 212.000 90.000 2.800
      vertex 212.000 130.000 2.800
    endloop
  endfacet
  facet normal -1.000000 0.000000 0.000000
    outer loop
      vertex 212.000 90.000 0.000
      vertex 212.000 130.000 2.800
      vertex 212.000 130.000 0.000
    endloop
  endfacet
  facet normal 0.000000 -1.000000 0.000000
    outer loop
      vertex 212.000 130.000 0.000
      vertex 212.000 130.000 2.800
      vertex 205.000 130.000 2.800
    endloop
  endfacet
  facet normal 0.000000 -1.000000 0.000000
    outer loop
      vertex 212.000 130.000 0.000
      vertex 205.000 130.000 2.800
      vertex 205.000 130.000 0.000
    endloop
  endfacet
  facet normal 1.000000 0.000000 0.000000
    outer loop
      vertex 205.000 130.000 0.000
      vertex 205.000 130.000 2.800
      vertex 205.000 90.000 2.800
    endloop
  endfacet
  facet normal 1.000000 0.000000 0.000000
    outer loop
      vertex 205.000 130.000 0.000
      vertex 205.000 90.000 2.800
      vertex 205.000 90.000 0.000
    endloop
  endfacet
  facet normal 0.000000 0.000000 1.000000
    outer loop
      vertex 75.000 60.000 3.400
      vertex 94.000 60.000 3.400
      vertex 94.000 160.000 3.400
    endloop
  endfacet
  facet normal 0.000000 0.000000 1.000000
    outer loop
      vertex 75.000 60.000 3.400
      vertex 94.000 160.000 3.400
      vertex 75.000 160.000 3.400
    endloop
  endfacet
  facet normal 0.000000 0.000000 -1.000000
    outer loop
      vertex 75.000 60.000 0.000
      vertex 75.000 160.000 0.000
      vertex 94.000 160.000 0.000
    endloop
  endfacet
  facet normal 0.000000 0.000000 -1.000000
    outer loop
      vertex 75.000 60.000 0.000
      vertex 94.000 160.000 0.000
      vertex 94.000 60.000 0.000
    endloop
  endfacet
  facet normal 0.000000 -1.000000 0.000000
    outer loop
      vertex 75.000 60.000 3.400
      vertex 75.000 60.000 0.000
      vertex 94.000 60.000 0.000
    endloop
  endfacet
  facet normal 0.000000 -1.000000 0.000000
    outer loop
      vertex 75.000 60.000 3.400
      vertex 94.000 60.000 0.000
      vertex 94.000 60.000 3.400
    endloop
  endfacet
  facet normal 1.000000 0.000000 0.000000
    outer loop
      vertex 94.000 60.000 3.400
      vertex 94.000 60.000 0.000
      vertex 94.000 160.000 0.000
    endloop
  endfacet
  facet normal 1.000000 0.000000 0.000000
    outer loop
      vertex 94.000 60.000 3.400
      vertex 94.000 160.000 0.000
      vertex 94.000 160.000 3.400
    endloop
  endfacet
  facet normal 0.000000 1.000000 0.000000
    outer loop
      vertex 94.000 160.000 3.400
      vertex 94.000 160.000 0.000
      vertex 75.000 160.000 0.000
    endloop
  endfacet
  facet normal 0.000000 1.000000 0.000000
    outer loop
      vertex 94.000 160.000 3.400
      vertex 75.000 160.000 0.000
      vertex 75.000 160.000 3.400
    endloop
  endfacet
  facet normal -1.000000 0.000000 0.000000
    outer loop
      vertex 75.000 160.000 3.400
      vertex 75.000 160.000 0.000
      vertex 75.000 60.000 0.000
    endloop
  endfacet
  facet normal -1.000000 0.000000 0.000000
    outer loop
      vertex 75.000 160.000 3.400
      vertex 75.000 60.000 0.000
      vertex 75.000 60.000 3.400
    endloop
  endfacet
  facet normal 0.000000 0.000000 1.000000
    outer loop
      vertex 75.000 60.000 12.000
      vertex 78.000 60.000 12.000
      vertex 78.000 160.000 12.000
    endloop
  endfacet
  facet normal 0.000000 0.000000 1.000000
    outer loop
      vertex 75.000 60.000 12.000
      vertex 78.000 160.000 12.000
      vertex 75.000 160.000 12.000
    endloop
  endfacet
  facet normal 0.000000 0.000000 -1.000000
    outer loop
      vertex 75.000 60.000 0.000
      vertex 75.000 160.000 0.000
      vertex 78.000 160.000 0.000
    endloop
  endfacet
  facet normal 0.000000 0.000000 -1.000000
    outer loop
      vertex 75.000 60.000 0.000
      vertex 78.000 160.000 0.000
      vertex 78.000 60.000 0.000
    endloop
  endfacet
  facet normal 0.000000 -1.000000 0.000000
    outer loop
      vertex 75.000 60.000 12.000
      vertex 75.000 60.000 0.000
      vertex 78.000 60.000 0.000
    endloop
  endfacet
  facet normal 0.000000 -1.000000 0.000000
    outer loop
      vertex 75.000 60.000 12.000
      vertex 78.000 60.000 0.000
      vertex 78.000 60.000 12.000
    endloop
  endfacet
  facet normal 1.000000 0.000000 0.000000
    outer loop
      vertex 78.000 60.000 12.000
      vertex 78.000 60.000 0.000
      vertex 78.000 160.000 0.000
    endloop
  endfacet
  facet normal 1.000000 0.000000 0.000000
    outer loop
      vertex 78.000 60.000 12.000
      vertex 78.000 160.000 0.000
      vertex 78.000 160.000 12.000
    endloop
  endfacet
  facet normal 0.000000 1.000000 0.000000
    outer loop
      vertex 78.000 160.000 12.000
      vertex 78.000 160.000 0.000
      vertex 75.000 160.000 0.000
    endloop
  endfacet
  facet normal 0.000000 1.000000 0.000000
    outer loop
      vertex 78.000 160.000 12.000
      vertex 75.000 160.000 0.000
      vertex 75.000 160.000 12.000
    endloop
  endfacet
  facet normal -1.000000 0.000000 0.000000
    outer loop
      vertex 75.000 160.000 12.000
      vertex 75.000 160.000 0.000
      vertex 75.000 60.000 0.000
    endloop
  endfacet
  facet normal -1.000000 0.000000 0.000000
    outer loop
      vertex 75.000 160.000 12.000
      vertex 75.000 60.000 0.000
      vertex 75.000 60.000 12.000
    endloop
  endfacet
  facet normal 0.000000 0.000000 1.000000
    outer loop
      vertex 88.000 60.000 15.000
      vertex 93.000 60.000 15.000
      vertex 93.000 160.000 15.000
    endloop
  endfacet
  facet normal 0.000000 0.000000 1.000000
    outer loop
      vertex 88.000 60.000 15.000
      vertex 93.000 160.000 15.000
      vertex 88.000 160.000 15.000
    endloop
  endfacet
  facet normal 0.000000 0.000000 -1.000000
    outer loop
      vertex 88.000 60.000 11.300
      vertex 88.000 160.000 11.300
      vertex 93.000 160.000 11.300
    endloop
  endfacet
  facet normal 0.000000 0.000000 -1.000000
    outer loop
      vertex 88.000 60.000 11.300
      vertex 93.000 160.000 11.300
      vertex 93.000 60.000 11.300
    endloop
  endfacet
  facet normal 0.000000 -1.000000 0.000000
    outer loop
      vertex 88.000 60.000 15.000
      vertex 88.000 60.000 11.300
      vertex 93.000 60.000 11.300
    endloop
  endfacet
  facet normal 0.000000 -1.000000 0.000000
    outer loop
      vertex 88.000 60.000 15.000
      vertex 93.000 60.000 11.300
      vertex 93.000 60.000 15.000
    endloop
  endfacet
  facet normal 1.000000 0.000000 0.000000
    outer loop
      vertex 93.000 60.000 15.000
      vertex 93.000 60.000 11.300
      vertex 93.000 160.000 11.300
    endloop
  endfacet
  facet normal 1.000000 0.000000 0.000000
    outer loop
      vertex 93.000 60.000 15.000
      vertex 93.000 160.000 11.300
      vertex 93.000 160.000 15.000
    endloop
  endfacet
  facet normal 0.000000 1.000000 0.000000
    outer loop
      vertex 93.000 160.000 15.000
      vertex 93.000 160.000 11.300
      vertex 88.000 160.000 11.300
    endloop
  endfacet
  facet normal 0.000000 1.000000 0.000000
    outer loop
      vertex 93.000 160.000 15.000
      vertex 88.000 160.000 11.300
      vertex 88.000 160.000 15.000
    endloop
  endfacet
  facet normal -1.000000 0.000000 0.000000
    outer loop
      vertex 88.000 160.000 15.000
      vertex 88.000 160.000 11.300
      vertex 88.000 60.000 11.300
    endloop
  endfacet
  facet normal -1.000000 0.000000 0.000000
    outer loop
      vertex 88.000 160.000 15.000
      vertex 88.000 60.000 11.300
      vertex 88.000 60.000 15.000
    endloop
  endfacet
  facet normal 0.969416 0.000000 -0.245422
    outer loop
      vertex 92.800 60.000 11.300
      vertex 90.800 60.000 3.400
      vertex 90.800 160.000 3.400
    endloop
  endfacet
  facet normal 0.969416 0.000000 -0.245422
    outer loop
      vertex 92.800 60.000 11.300
      vertex 90.800 160.000 3.400
      vertex 92.800 160.000 11.300
    endloop
  endfacet
  facet normal 0.000000 0.000000 -1.000000
    outer loop
      vertex 90.800 60.000 3.400
      vertex 88.500 60.000 3.400
      vertex 88.500 160.000 3.400
    endloop
  endfacet
  facet normal 0.000000 0.000000 -1.000000
    outer loop
      vertex 90.800 60.000 3.400
      vertex 88.500 160.000 3.400
      vertex 90.800 160.000 3.400
    endloop
  endfacet
  facet normal -0.969416 0.000000 0.245422
    outer loop
      vertex 88.500 60.000 3.400
      vertex 90.500 60.000 11.300
      vertex 90.500 160.000 11.300
    endloop
  endfacet
  facet normal -0.969416 0.000000 0.245422
    outer loop
      vertex 88.500 60.000 3.400
      vertex 90.500 160.000 11.300
      vertex 88.500 160.000 3.400
    endloop
  endfacet
  facet normal 0.000000 0.000000 1.000000
    outer loop
      vertex 90.500 60.000 11.300
      vertex 92.800 60.000 11.300
      vertex 92.800 160.000 11.300
    endloop
  endfacet
  facet normal 0.000000 0.000000 1.000000
    outer loop
      vertex 90.500 60.000 11.300
      vertex 92.800 160.000 11.300
      vertex 90.500 160.000 11.300
    endloop
  endfacet
  facet normal 0.000000 -1.000000 0.000000
    outer loop
      vertex 90.650 60.000 7.350
      vertex 90.800 60.000 3.400
      vertex 92.800 60.000 11.300
    endloop
  endfacet
  facet normal 0.000000 -1.000000 0.000000
    outer loop
      vertex 90.650 60.000 7.350
      vertex 88.500 60.000 3.400
      vertex 90.800 60.000 3.400
    endloop
  endfacet
  facet normal 0.000000 -1.000000 0.000000
    outer loop
      vertex 90.650 60.000 7.350
      vertex 90.500 60.000 11.300
      vertex 88.500 60.000 3.400
    endloop
  endfacet
  facet normal 0.000000 -1.000000 0.000000
    outer loop
      vertex 90.650 60.000 7.350
      vertex 92.800 60.000 11.300
      vertex 90.500 60.000 11.300
    endloop
  endfacet
  facet normal 0.000000 1.000000 0.000000
    outer loop
      vertex 90.650 160.000 7.350
      vertex 92.800 160.000 11.300
      vertex 90.800 160.000 3.400
    endloop
  endfacet
  facet normal 0.000000 1.000000 0.000000
    outer loop
      vertex 90.650 160.000 7.350
      vertex 90.800 160.000 3.400
      vertex 88.500 160.000 3.400
    endloop
  endfacet
  facet normal 0.000000 1.000000 0.000000
    outer loop
      vertex 90.650 160.000 7.350
      vertex 88.500 160.000 3.400
      vertex 90.500 160.000 11.300
    endloop
  endfacet
  facet normal 0.000000 1.000000 0.000000
    outer loop
      vertex 90.650 160.000 7.350
      vertex 90.500 160.000 11.300
      vertex 92.800 160.000 11.300
    endloop
  endfacet
  facet normal 0.000000 0.000000 1.000000
    outer loop
      vertex 126.000 60.000 3.400
      vertex 145.000 60.000 3.400
      vertex 145.000 160.000 3.400
    endloop
  endfacet
  facet normal 0.000000 0.000000 1.000000
    outer loop
      vertex 126.000 60.000 3.400
      vertex 145.000 160.000 3.400
      vertex 126.000 160.000 3.400
    endloop
  endfacet
  facet normal 0.000000 0.000000 -1.000000
    outer loop
      vertex 126.000 60.000 0.000
      vertex 126.000 160.000 0.000
      vertex 145.000 160.000 0.000
    endloop
  endfacet
  facet normal 0.000000 0.000000 -1.000000
    outer loop
      vertex 126.000 60.000 0.000
      vertex 145.000 160.000 0.000
      vertex 145.000 60.000 0.000
    endloop
  endfacet
  facet normal 0.000000 -1.000000 0.000000
    outer loop
      vertex 126.000 60.000 3.400
      vertex 126.000 60.000 0.000
      vertex 145.000 60.000 0.000
    endloop
  endfacet
  facet normal 0.000000 -1.000000 0.000000
    outer loop
      vertex 126.000 60.000 3.400
      vertex 145.000 60.000 0.000
      vertex 145.000 60.000 3.400
    endloop
  endfacet
  facet normal 1.000000 0.000000 0.000000
    outer loop
      vertex 145.000 60.000 3.400
      vertex 145.000 60.000 0.000
      vertex 145.000 160.000 0.000
    endloop
  endfacet
  facet normal 1.000000 0.000000 0.000000
    outer loop
      vertex 145.000 60.000 3.400
      vertex 145.000 160.000 0.000
      vertex 145.000 160.000 3.400
    endloop
  endfacet
  facet normal 0.000000 1.000000 0.000000
    outer loop
      vertex 145.000 160.000 3.400
      vertex 145.000 160.000 0.000
      vertex 126.000 160.000 0.000
    endloop
  endfacet
  facet normal 0.000000 1.000000 0.000000
    outer loop
      vertex 145.000 160.000 3.400
      vertex 126.000 160.000 0.000
      vertex 126.000 160.000 3.400
    endloop
  endfacet
  facet normal -1.000000 0.000000 0.000000
    outer loop
      vertex 126.000 160.000 3.400
      vertex 126.000 160.000 0.000
      vertex 126.000 60.000 0.000
    endloop
  endfacet
  facet normal -1.000000 0.000000 0.000000
    outer loop
      vertex 126.000 160.000 3.400
      vertex 126.000 60.000 0.000
      vertex 126.000 60.000 3.400
    endloop
  endfacet
  facet normal 0.000000 0.000000 1.000000
    outer loop
      vertex 142.000 60.000 12.000
      vertex 145.000 60.000 12.000
      vertex 145.000 160.000 12.000
    endloop
  endfacet
  facet normal 0.000000 0.000000 1.000000
    outer loop
      vertex 142.000 60.000 12.000
      vertex 145.000 160.000 12.000
      vertex 142.000 160.000 12.000
    endloop
  endfacet
  facet normal 0.000000 0.000000 -1.000000
    outer loop
      vertex 142.000 60.000 0.000
      vertex 142.000 160.000 0.000
      vertex 145.000 160.000 0.000
    endloop
  endfacet
  facet normal 0.000000 0.000000 -1.000000
    outer loop
      vertex 142.000 60.000 0.000
      vertex 145.000 160.000 0.000
      vertex 145.000 60.000 0.000
    endloop
  endfacet
  facet normal 0.000000 -1.000000 0.000000
    outer loop
      vertex 142.000 60.000 12.000
      vertex 142.000 60.000 0.000
      vertex 145.000 60.000 0.000
    endloop
  endfacet
  facet normal 0.000000 -1.000000 0.000000
    outer loop
      vertex 142.000 60.000 12.000
      vertex 145.000 60.000 0.000
      vertex 145.000 60.000 12.000
    endloop
  endfacet
  facet normal 1.000000 0.000000 0.000000
    outer loop
      vertex 145.000 60.000 12.000
      vertex 145.000 60.000 0.000
      vertex 145.000 160.000 0.000
    endloop
  endfacet
  facet normal 1.000000 0.000000 0.000000
    outer loop
      vertex 145.000 60.000 12.000
      vertex 145.000 160.000 0.000
      vertex 145.000 160.000 12.000
    endloop
  endfacet
  facet normal 0.000000 1.000000 0.000000
    outer loop
      vertex 145.000 160.000 12.000
      vertex 145.000 160.000 0.000
      vertex 142.000 160.000 0.000
    endloop
  endfacet
  facet normal 0.000000 1.000000 0.000000
    outer loop
      vertex 145.000 160.000 12.000
      vertex 142.000 160.000 0.000
      vertex 142.000 160.000 12.000
    endloop
  endfacet
  facet normal -1.000000 0.000000 0.000000
    outer loop
      vertex 142.000 160.000 12.000
      vertex 142.000 160.000 0.000
      vertex 142.000 60.000 0.000
    endloop
  endfacet
  facet normal -1.000000 0.000000 0.000000
    outer loop
      vertex 142.000 160.000 12.000
      vertex 142.000 60.000 0.000
      vertex 142.000 60.000 12.000
    endloop
  endfacet
  facet normal 0.000000 0.000000 1.000000
    outer loop
      vertex 127.000 60.000 15.000
      vertex 132.000 60.000 15.000
      vertex 132.000 160.000 15.000
    endloop
  endfacet
  facet normal 0.000000 0.000000 1.000000
    outer loop
      vertex 127.000 60.000 15.000
      vertex 132.000 160.000 15.000
      vertex 127.000 160.000 15.000
    endloop
  endfacet
  facet normal 0.000000 0.000000 -1.000000
    outer loop
      vertex 127.000 60.000 11.300
      vertex 127.000 160.000 11.300
      vertex 132.000 160.000 11.300
    endloop
  endfacet
  facet normal 0.000000 0.000000 -1.000000
    outer loop
      vertex 127.000 60.000 11.300
      vertex 132.000 160.000 11.300
      vertex 132.000 60.000 11.300
    endloop
  endfacet
  facet normal 0.000000 -1.000000 0.000000
    outer loop
      vertex 127.000 60.000 15.000
      vertex 127.000 60.000 11.300
      vertex 132.000 60.000 11.300
    endloop
  endfacet
  facet normal 0.000000 -1.000000 0.000000
    outer loop
      vertex 127.000 60.000 15.000
      vertex 132.000 60.000 11.300
      vertex 132.000 60.000 15.000
    endloop
  endfacet
  facet normal 1.000000 0.000000 0.000000
    outer loop
      vertex 132.000 60.000 15.000
      vertex 132.000 60.000 11.300
      vertex 132.000 160.000 11.300
    endloop
  endfacet
  facet normal 1.000000 0.000000 0.000000
    outer loop
      vertex 132.000 60.000 15.000
      vertex 132.000 160.000 11.300
      vertex 132.000 160.000 15.000
    endloop
  endfacet
  facet normal 0.000000 1.000000 0.000000
    outer loop
      vertex 132.000 160.000 15.000
      vertex 132.000 160.000 11.300
      vertex 127.000 160.000 11.300
    endloop
  endfacet
  facet normal 0.000000 1.000000 0.000000
    outer loop
      vertex 132.000 160.000 15.000
      vertex 127.000 160.000 11.300
      vertex 127.000 160.000 15.000
    endloop
  endfacet
  facet normal -1.000000 0.000000 0.000000
    outer loop
      vertex 127.000 160.000 15.000
      vertex 127.000 160.000 11.300
      vertex 127.000 60.000 11.300
    endloop
  endfacet
  facet normal -1.000000 0.000000 0.000000
    outer loop
      vertex 127.000 160.000 15.000
      vertex 127.000 60.000 11.300
      vertex 127.000 60.000 15.000
    endloop
  endfacet
  facet normal 0.969416 0.000000 0.245422
    outer loop
      vertex 127.200 60.000 11.300
      vertex 129.200 60.000 3.400
      vertex 129.200 160.000 3.400
    endloop
  endfacet
  facet normal 0.969416 0.000000 0.245422
    outer loop
      vertex 127.200 60.000 11.300
      vertex 129.200 160.000 3.400
      vertex 127.200 160.000 11.300
    endloop
  endfacet
  facet normal 0.000000 0.000000 1.000000
    outer loop
      vertex 129.200 60.000 3.400
      vertex 131.500 60.000 3.400
      vertex 131.500 160.000 3.400
    endloop
  endfacet
  facet normal 0.000000 0.000000 1.000000
    outer loop
      vertex 129.200 60.000 3.400
      vertex 131.500 160.000 3.400
      vertex 129.200 160.000 3.400
    endloop
  endfacet
  facet normal -0.969416 0.000000 -0.245422
    outer loop
      vertex 131.500 60.000 3.400
      vertex 129.500 60.000 11.300
      vertex 129.500 160.000 11.300
    endloop
  endfacet
  facet normal -0.969416 0.000000 -0.245422
    outer loop
      vertex 131.500 60.000 3.400
      vertex 129.500 160.000 11.300
      vertex 131.500 160.000 3.400
    endloop
  endfacet
  facet normal 0.000000 0.000000 -1.000000
    outer loop
      vertex 129.500 60.000 11.300
      vertex 127.200 60.000 11.300
      vertex 127.200 160.000 11.300
    endloop
  endfacet
  facet normal 0.000000 0.000000 -1.000000
    outer loop
      vertex 129.500 60.000 11.300
      vertex 127.200 160.000 11.300
      vertex 129.500 160.000 11.300
    endloop
  endfacet
  facet normal 0.000000 1.000000 0.000000
    outer loop
      vertex 129.350 60.000 7.350
      vertex 129.200 60.000 3.400
      vertex 127.200 60.000 11.300
    endloop
  endfacet
  facet normal 0.000000 1.000000 0.000000
    outer loop
      vertex 129.350 60.000 7.350
      vertex 131.500 60.000 3.400
      vertex 129.200 60.000 3.400
    endloop
  endfacet
  facet normal 0.000000 1.000000 0.000000
    outer loop
      vertex 129.350 60.000 7.350
      vertex 129.500 60.000 11.300
      vertex 131.500 60.000 3.400
    endloop
  endfacet
  facet normal 0.000000 1.000000 0.000000
    outer loop
      vertex 129.350 60.000 7.350
      vertex 127.200 60.000 11.300
      vertex 129.500 60.000 11.300
    endloop
  endfacet
  facet normal 0.000000 -1.000000 0.000000
    outer loop
      vertex 129.350 160.000 7.350
      vertex 127.200 160.000 11.300
      vertex 129.200 160.000 3.400
    endloop
  endfacet
  facet normal 0.000000 -1.000000 0.000000
    outer loop
      vertex 129.350 160.000 7.350
      vertex 129.200 160.000 3.400
      vertex 131.500 160.000 3.400
    endloop
  endfacet
  facet normal 0.000000 -1.000000 0.000000
    outer loop
      vertex 129.350 160.000 7.350
      vertex 131.500 160.000 3.400
      vertex 129.500 160.000 11.300
    endloop
  endfacet
  facet normal 0.000000 -1.000000 0.000000
    outer loop
      vertex 129.350 160.000 7.350
      vertex 129.500 160.000 11.300
      vertex 127.200 160.000 11.300
    endloop
  endfacet
  facet normal -0.098017 -0.995185 0.000000
    outer loop
      vertex 189.800 113.800 8.000
      vertex 189.800 113.800 0.000
      vertex 190.541 113.727 0.000
    endloop
  endfacet
  facet normal -0.098017 -0.995185 0.000000
    outer loop
      vertex 189.800 113.800 8.000
      vertex 190.541 113.727 0.000
      vertex 190.541 113.727 8.000
    endloop
  endfacet
  facet normal 0.098017 0.995185 0.000000
    outer loop
      vertex 190.083 111.422 8.000
      vertex 190.083 111.422 0.000
      vertex 189.800 111.450 0.000
    endloop
  endfacet
  facet normal 0.098017 0.995185 0.000000
    outer loop
      vertex 190.083 111.422 8.000
      vertex 189.800 111.450 0.000
      vertex 189.800 111.450 8.000
    endloop
  endfacet
  facet normal 0.000000 0.000000 1.000000
    outer loop
      vertex 190.541 113.727 8.000
      vertex 189.800 113.800 8.000
      vertex 189.800 111.450 8.000
    endloop
  endfacet
  facet normal 0.000000 0.000000 1.000000
    outer loop
      vertex 190.541 113.727 8.000
      vertex 189.800 111.450 8.000
      vertex 190.083 111.422 8.000
    endloop
  endfacet
  facet normal 0.000000 0.000000 -1.000000
    outer loop
      vertex 189.800 113.800 0.000
      vertex 190.541 113.727 0.000
      vertex 190.083 111.422 0.000
    endloop
  endfacet
  facet normal 0.000000 0.000000 -1.000000
    outer loop
      vertex 189.800 113.800 0.000
      vertex 190.083 111.422 0.000
      vertex 189.800 111.450 0.000
    endloop
  endfacet
  facet normal -0.290285 -0.956940 0.000000
    outer loop
      vertex 190.541 113.727 8.000
      vertex 190.541 113.727 0.000
      vertex 191.254 113.511 0.000
    endloop
  endfacet
  facet normal -0.290285 -0.956940 0.000000
    outer loop
      vertex 190.541 113.727 8.000
      vertex 191.254 113.511 0.000
      vertex 191.254 113.511 8.000
    endloop
  endfacet
  facet normal 0.290285 0.956940 0.000000
    outer loop
      vertex 190.355 111.340 8.000
      vertex 190.355 111.340 0.000
      vertex 190.083 111.422 0.000
    endloop
  endfacet
  facet normal 0.290285 0.956940 0.000000
    outer loop
      vertex 190.355 111.340 8.000
      vertex 190.083 111.422 0.000
      vertex 190.083 111.422 8.000
    endloop
  endfacet
  facet normal 0.000000 0.000000 1.000000
    outer loop
      vertex 191.254 113.511 8.000
      vertex 190.541 113.727 8.000
      vertex 190.083 111.422 8.000
    endloop
  endfacet
  facet normal 0.000000 0.000000 1.000000
    outer loop
      vertex 191.254 113.511 8.000
      vertex 190.083 111.422 8.000
      vertex 190.355 111.340 8.000
    endloop
  endfacet
  facet normal 0.000000 0.000000 -1.000000
    outer loop
      vertex 190.541 113.727 0.000
      vertex 191.254 113.511 0.000
      vertex 190.355 111.340 0.000
    endloop
  endfacet
  facet normal 0.000000 0.000000 -1.000000
    outer loop
      vertex 190.541 113.727 0.000
      vertex 190.355 111.340 0.000
      vertex 190.083 111.422 0.000
    endloop
  endfacet
  facet normal -0.471397 -0.881921 0.000000
    outer loop
      vertex 191.254 113.511 8.000
      vertex 191.254 113.511 0.000
      vertex 191.911 113.160 0.000
    endloop
  endfacet
  facet normal -0.471397 -0.881921 0.000000
    outer loop
      vertex 191.254 113.511 8.000
      vertex 191.911 113.160 0.000
      vertex 191.911 113.160 8.000
    endloop
  endfacet
  facet normal 0.471397 0.881921 0.000000
    outer loop
      vertex 190.606 111.206 8.000
      vertex 190.606 111.206 0.000
      vertex 190.355 111.340 0.000
    endloop
  endfacet
  facet normal 0.471397 0.881921 0.000000
    outer loop
      vertex 190.606 111.206 8.000
      vertex 190.355 111.340 0.000
      vertex 190.355 111.340 8.000
    endloop
  endfacet
  facet normal 0.000000 0.000000 1.000000
    outer loop
      vertex 191.911 113.160 8.000
      vertex 191.254 113.511 8.000
      vertex 190.355 111.340 8.000
    endloop
  endfacet
  facet normal 0.000000 0.000000 1.000000
    outer loop
      vertex 191.911 113.160 8.000
      vertex 190.355 111.340 8.000
      vertex 190.606 111.206 8.000
    endloop
  endfacet
  facet normal 0.000000 0.000000 -1.000000
    outer loop
      vertex 191.254 113.511 0.000
      vertex 191.911 113.160 0.000
      vertex 190.606 111.206 0.000
    endloop
  endfacet
  facet normal 0.000000 0.000000 -1.000000
    outer loop
      vertex 191.254 113.511 0.000
      vertex 190.606 111.206 0.000
      vertex 190.355 111.340 0.000
    endloop
  endfacet
  facet normal -0.634393 -0.773010 0.000000
    outer loop
      vertex 191.911 113.160 8.000
      vertex 191.911 113.160 0.000
      vertex 192.487 112.687 0.000
    endloop
  endfacet
  facet normal -0.634393 -0.773010 0.000000
    outer loop
      vertex 191.911 113.160 8.000
      vertex 192.487 112.687 0.000
      vertex 192.487 112.687 8.000
    endloop
  endfacet
  facet normal 0.634393 0.773010 0.000000
    outer loop
      vertex 190.825 111.025 8.000
      vertex 190.825 111.025 0.000
      vertex 190.606 111.206 0.000
    endloop
  endfacet
  facet normal 0.634393 0.773010 0.000000
    outer loop
      vertex 190.825 111.025 8.000
      vertex 190.606 111.206 0.000
      vertex 190.606 111.206 8.000
    endloop
  endfacet
  facet normal 0.000000 0.000000 1.000000
    outer loop
      vertex 192.487 112.687 8.000
      vertex 191.911 113.160 8.000
      vertex 190.606 111.206 8.000
    endloop
  endfacet
  facet normal 0.000000 0.000000 1.000000
    outer loop
      vertex 192.487 112.687 8.000
      vertex 190.606 111.206 8.000
      vertex 190.825 111.025 8.000
    endloop
  endfacet
  facet normal 0.000000 0.000000 -1.000000
    outer loop
      vertex 191.911 113.160 0.000
      vertex 192.487 112.687 0.000
      vertex 190.825 111.025 0.000
    endloop
  endfacet
  facet normal 0.000000 0.000000 -1.000000
    outer loop
      vertex 191.911 113.160 0.000
      vertex 190.825 111.025 0.000
      vertex 190.606 111.206 0.000
    endloop
  endfacet
  facet normal -0.773010 -0.634393 0.000000
    outer loop
      vertex 192.487 112.687 8.000
      vertex 192.487 112.687 0.000
      vertex 192.960 112.111 0.000
    endloop
  endfacet
  facet normal -0.773010 -0.634393 0.000000
    outer loop
      vertex 192.487 112.687 8.000
      vertex 192.960 112.111 0.000
      vertex 192.960 112.111 8.000
    endloop
  endfacet
  facet normal 0.773010 0.634393 0.000000
    outer loop
      vertex 191.006 110.806 8.000
      vertex 191.006 110.806 0.000
      vertex 190.825 111.025 0.000
    endloop
  endfacet
  facet normal 0.773010 0.634393 0.000000
    outer loop
      vertex 191.006 110.806 8.000
      vertex 190.825 111.025 0.000
      vertex 190.825 111.025 8.000
    endloop
  endfacet
  facet normal 0.000000 0.000000 1.000000
    outer loop
      vertex 192.960 112.111 8.000
      vertex 192.487 112.687 8.000
      vertex 190.825 111.025 8.000
    endloop
  endfacet
  facet normal 0.000000 0.000000 1.000000
    outer loop
      vertex 192.960 112.111 8.000
      vertex 190.825 111.025 8.000
      vertex 191.006 110.806 8.000
    endloop
  endfacet
  facet normal 0.000000 0.000000 -1.000000
    outer loop
      vertex 192.487 112.687 0.000
      vertex 192.960 112.111 0.000
      vertex 191.006 110.806 0.000
    endloop
  endfacet
  facet normal 0.000000 0.000000 -1.000000
    outer loop
      vertex 192.487 112.687 0.000
      vertex 191.006 110.806 0.000
      vertex 190.825 111.025 0.000
    endloop
  endfacet
  facet normal -0.881921 -0.471397 0.000000
    outer loop
      vertex 192.960 112.111 8.000
      vertex 192.960 112.111 0.000
      vertex 193.311 111.454 0.000
    endloop
  endfacet
  facet normal -0.881921 -0.471397 0.000000
    outer loop
      vertex 192.960 112.111 8.000
      vertex 193.311 111.454 0.000
      vertex 193.311 111.454 8.000
    endloop
  endfacet
  facet normal 0.881921 0.471397 0.000000
    outer loop
      vertex 191.140 110.555 8.000
      vertex 191.140 110.555 0.000
      vertex 191.006 110.806 0.000
    endloop
  endfacet
  facet normal 0.881921 0.471397 0.000000
    outer loop
      vertex 191.140 110.555 8.000
      vertex 191.006 110.806 0.000
      vertex 191.006 110.806 8.000
    endloop
  endfacet
  facet normal 0.000000 0.000000 1.000000
    outer loop
      vertex 193.311 111.454 8.000
      vertex 192.960 112.111 8.000
      vertex 191.006 110.806 8.000
    endloop
  endfacet
  facet normal 0.000000 0.000000 1.000000
    outer loop
      vertex 193.311 111.454 8.000
      vertex 191.006 110.806 8.000
      vertex 191.140 110.555 8.000
    endloop
  endfacet
  facet normal 0.000000 0.000000 -1.000000
    outer loop
      vertex 192.960 112.111 0.000
      vertex 193.311 111.454 0.000
      vertex 191.140 110.555 0.000
    endloop
  endfacet
  facet normal 0.000000 0.000000 -1.000000
    outer loop
      vertex 192.960 112.111 0.000
      vertex 191.140 110.555 0.000
      vertex 191.006 110.806 0.000
    endloop
  endfacet
  facet normal -0.956940 -0.290285 0.000000
    outer loop
      vertex 193.311 111.454 8.000
      vertex 193.311 111.454 0.000
      vertex 193.527 110.741 0.000
    endloop
  endfacet
  facet normal -0.956940 -0.290285 0.000000
    outer loop
      vertex 193.311 111.454 8.000
      vertex 193.527 110.741 0.000
      vertex 193.527 110.741 8.000
    endloop
  endfacet
  facet normal 0.956940 0.290285 0.000000
    outer loop
      vertex 191.222 110.283 8.000
      vertex 191.222 110.283 0.000
      vertex 191.140 110.555 0.000
    endloop
  endfacet
  facet normal 0.956940 0.290285 0.000000
    outer loop
      vertex 191.222 110.283 8.000
      vertex 191.140 110.555 0.000
      vertex 191.140 110.555 8.000
    endloop
  endfacet
  facet normal 0.000000 0.000000 1.000000
    outer loop
      vertex 193.527 110.741 8.000
      vertex 193.311 111.454 8.000
      vertex 191.140 110.555 8.000
    endloop
  endfacet
  facet normal 0.000000 0.000000 1.000000
    outer loop
      vertex 193.527 110.741 8.000
      vertex 191.140 110.555 8.000
      vertex 191.222 110.283 8.000
    endloop
  endfacet
  facet normal 0.000000 0.000000 -1.000000
    outer loop
      vertex 193.311 111.454 0.000
      vertex 193.527 110.741 0.000
      vertex 191.222 110.283 0.000
    endloop
  endfacet
  facet normal 0.000000 0.000000 -1.000000
    outer loop
      vertex 193.311 111.454 0.000
      vertex 191.222 110.283 0.000
      vertex 191.140 110.555 0.000
    endloop
  endfacet
  facet normal -0.995185 -0.098017 0.000000
    outer loop
      vertex 193.527 110.741 8.000
      vertex 193.527 110.741 0.000
      vertex 193.600 110.000 0.000
    endloop
  endfacet
  facet normal -0.995185 -0.098017 0.000000
    outer loop
      vertex 193.527 110.741 8.000
      vertex 193.600 110.000 0.000
      vertex 193.600 110.000 8.000
    endloop
  endfacet
  facet normal 0.995185 0.098017 0.000000
    outer loop
      vertex 191.250 110.000 8.000
      vertex 191.250 110.000 0.000
      vertex 191.222 110.283 0.000
    endloop
  endfacet
  facet normal 0.995185 0.098017 0.000000
    outer loop
      vertex 191.250 110.000 8.000
      vertex 191.222 110.283 0.000
      vertex 191.222 110.283 8.000
    endloop
  endfacet
  facet normal 0.000000 0.000000 1.000000
    outer loop
      vertex 193.600 110.000 8.000
      vertex 193.527 110.741 8.000
      vertex 191.222 110.283 8.000
    endloop
  endfacet
  facet normal 0.000000 0.000000 1.000000
    outer loop
      vertex 193.600 110.000 8.000
      vertex 191.222 110.283 8.000
      vertex 191.250 110.000 8.000
    endloop
  endfacet
  facet normal 0.000000 0.000000 -1.000000
    outer loop
      vertex 193.527 110.741 0.000
      vertex 193.600 110.000 0.000
      vertex 191.250 110.000 0.000
    endloop
  endfacet
  facet normal 0.000000 0.000000 -1.000000
    outer loop
      vertex 193.527 110.741 0.000
      vertex 191.250 110.000 0.000
      vertex 191.222 110.283 0.000
    endloop
  endfacet
  facet normal -0.995185 0.098017 0.000000
    outer loop
      vertex 193.600 110.000 8.000
      vertex 193.600 110.000 0.000
      vertex 193.527 109.259 0.000
    endloop
  endfacet
  facet normal -0.995185 0.098017 0.000000
    outer loop
      vertex 193.600 110.000 8.000
      vertex 193.527 109.259 0.000
      vertex 193.527 109.259 8.000
    endloop
  endfacet
  facet normal 0.995185 -0.098017 0.000000
    outer loop
      vertex 191.222 109.717 8.000
      vertex 191.222 109.717 0.000
      vertex 191.250 110.000 0.000
    endloop
  endfacet
  facet normal 0.995185 -0.098017 0.000000
    outer loop
      vertex 191.222 109.717 8.000
      vertex 191.250 110.000 0.000
      vertex 191.250 110.000 8.000
    endloop
  endfacet
  facet normal 0.000000 0.000000 1.000000
    outer loop
      vertex 193.527 109.259 8.000
      vertex 193.600 110.000 8.000
      vertex 191.250 110.000 8.000
    endloop
  endfacet
  facet normal 0.000000 0.000000 1.000000
    outer loop
      vertex 193.527 109.259 8.000
      vertex 191.250 110.000 8.000
      vertex 191.222 109.717 8.000
    endloop
  endfacet
  facet normal 0.000000 0.000000 -1.000000
    outer loop
      vertex 193.600 110.000 0.000
      vertex 193.527 109.259 0.000
      vertex 191.222 109.717 0.000
    endloop
  endfacet
  facet normal 0.000000 0.000000 -1.000000
    outer loop
      vertex 193.600 110.000 0.000
      vertex 191.222 109.717 0.000
      vertex 191.250 110.000 0.000
    endloop
  endfacet
  facet normal -0.956940 0.290285 0.000000
    outer loop
      vertex 193.527 109.259 8.000
      vertex 193.527 109.259 0.000
      vertex 193.311 108.546 0.000
    endloop
  endfacet
  facet normal -0.956940 0.290285 0.000000
    outer loop
      vertex 193.527 109.259 8.000
      vertex 193.311 108.546 0.000
      vertex 193.311 108.546 8.000
    endloop
  endfacet
  facet normal 0.956940 -0.290285 0.000000
    outer loop
      vertex 191.140 109.445 8.000
      vertex 191.140 109.445 0.000
      vertex 191.222 109.717 0.000
    endloop
  endfacet
  facet normal 0.956940 -0.290285 0.000000
    outer loop
      vertex 191.140 109.445 8.000
      vertex 191.222 109.717 0.000
      vertex 191.222 109.717 8.000
    endloop
  endfacet
  facet normal 0.000000 0.000000 1.000000
    outer loop
      vertex 193.311 108.546 8.000
      vertex 193.527 109.259 8.000
      vertex 191.222 109.717 8.000
    endloop
  endfacet
  facet normal 0.000000 0.000000 1.000000
    outer loop
      vertex 193.311 108.546 8.000
      vertex 191.222 109.717 8.000
      vertex 191.140 109.445 8.000
    endloop
  endfacet
  facet normal 0.000000 0.000000 -1.000000
    outer loop
      vertex 193.527 109.259 0.000
      vertex 193.311 108.546 0.000
      vertex 191.140 109.445 0.000
    endloop
  endfacet
  facet normal 0.000000 0.000000 -1.000000
    outer loop
      vertex 193.527 109.259 0.000
      vertex 191.140 109.445 0.000
      vertex 191.222 109.717 0.000
    endloop
  endfacet
  facet normal -0.881921 0.471397 0.000000
    outer loop
      vertex 193.311 108.546 8.000
      vertex 193.311 108.546 0.000
      vertex 192.960 107.889 0.000
    endloop
  endfacet
  facet normal -0.881921 0.471397 0.000000
    outer loop
      vertex 193.311 108.546 8.000
      vertex 192.960 107.889 0.000
      vertex 192.960 107.889 8.000
    endloop
  endfacet
  facet normal 0.881921 -0.471397 0.000000
    outer loop
      vertex 191.006 109.194 8.000
      vertex 191.006 109.194 0.000
      vertex 191.140 109.445 0.000
    endloop
  endfacet
  facet normal 0.881921 -0.471397 0.000000
    outer loop
      vertex 191.006 109.194 8.000
      vertex 191.140 109.445 0.000
      vertex 191.140 109.445 8.000
    endloop
  endfacet
  facet normal 0.000000 0.000000 1.000000
    outer loop
      vertex 192.960 107.889 8.000
      vertex 193.311 108.546 8.000
      vertex 191.140 109.445 8.000
    endloop
  endfacet
  facet normal 0.000000 0.000000 1.000000
    outer loop
      vertex 192.960 107.889 8.000
      vertex 191.140 109.445 8.000
      vertex 191.006 109.194 8.000
    endloop
  endfacet
  facet normal 0.000000 0.000000 -1.000000
    outer loop
      vertex 193.311 108.546 0.000
      vertex 192.960 107.889 0.000
      vertex 191.006 109.194 0.000
    endloop
  endfacet
  facet normal 0.000000 0.000000 -1.000000
    outer loop
      vertex 193.311 108.546 0.000
      vertex 191.006 109.194 0.000
      vertex 191.140 109.445 0.000
    endloop
  endfacet
  facet normal -0.773010 0.634393 0.000000
    outer loop
      vertex 192.960 107.889 8.000
      vertex 192.960 107.889 0.000
      vertex 192.487 107.313 0.000
    endloop
  endfacet
  facet normal -0.773010 0.634393 0.000000
    outer loop
      vertex 192.960 107.889 8.000
      vertex 192.487 107.313 0.000
      vertex 192.487 107.313 8.000
    endloop
  endfacet
  facet normal 0.773010 -0.634393 0.000000
    outer loop
      vertex 190.825 108.975 8.000
      vertex 190.825 108.975 0.000
      vertex 191.006 109.194 0.000
    endloop
  endfacet
  facet normal 0.773010 -0.634393 0.000000
    outer loop
      vertex 190.825 108.975 8.000
      vertex 191.006 109.194 0.000
      vertex 191.006 109.194 8.000
    endloop
  endfacet
  facet normal 0.000000 0.000000 1.000000
    outer loop
      vertex 192.487 107.313 8.000
      vertex 192.960 107.889 8.000
      vertex 191.006 109.194 8.000
    endloop
  endfacet
  facet normal 0.000000 0.000000 1.000000
    outer loop
      vertex 192.487 107.313 8.000
      vertex 191.006 109.194 8.000
      vertex 190.825 108.975 8.000
    endloop
  endfacet
  facet normal 0.000000 0.000000 -1.000000
    outer loop
      vertex 192.960 107.889 0.000
      vertex 192.487 107.313 0.000
      vertex 190.825 108.975 0.000
    endloop
  endfacet
  facet normal 0.000000 0.000000 -1.000000
    outer loop
      vertex 192.960 107.889 0.000
      vertex 190.825 108.975 0.000
      vertex 191.006 109.194 0.000
    endloop
  endfacet
  facet normal -0.634393 0.773010 0.000000
    outer loop
      vertex 192.487 107.313 8.000
      vertex 192.487 107.313 0.000
      vertex 191.911 106.840 0.000
    endloop
  endfacet
  facet normal -0.634393 0.773010 0.000000
    outer loop
      vertex 192.487 107.313 8.000
      vertex 191.911 106.840 0.000
      vertex 191.911 106.840 8.000
    endloop
  endfacet
  facet normal 0.634393 -0.773010 0.000000
    outer loop
      vertex 190.606 108.794 8.000
      vertex 190.606 108.794 0.000
      vertex 190.825 108.975 0.000
    endloop
  endfacet
  facet normal 0.634393 -0.773010 0.000000
    outer loop
      vertex 190.606 108.794 8.000
      vertex 190.825 108.975 0.000
      vertex 190.825 108.975 8.000
    endloop
  endfacet
  facet normal 0.000000 0.000000 1.000000
    outer loop
      vertex 191.911 106.840 8.000
      vertex 192.487 107.313 8.000
      vertex 190.825 108.975 8.000
    endloop
  endfacet
  facet normal 0.000000 0.000000 1.000000
    outer loop
      vertex 191.911 106.840 8.000
      vertex 190.825 108.975 8.000
      vertex 190.606 108.794 8.000
    endloop
  endfacet
  facet normal 0.000000 0.000000 -1.000000
    outer loop
      vertex 192.487 107.313 0.000
      vertex 191.911 106.840 0.000
      vertex 190.606 108.794 0.000
    endloop
  endfacet
  facet normal 0.000000 0.000000 -1.000000
    outer loop
      vertex 192.487 107.313 0.000
      vertex 190.606 108.794 0.000
      vertex 190.825 108.975 0.000
    endloop
  endfacet
  facet normal -0.471397 0.881921 0.000000
    outer loop
      vertex 191.911 106.840 8.000
      vertex 191.911 106.840 0.000
      vertex 191.254 106.489 0.000
    endloop
  endfacet
  facet normal -0.471397 0.881921 0.000000
    outer loop
      vertex 191.911 106.840 8.000
      vertex 191.254 106.489 0.000
      vertex 191.254 106.489 8.000
    endloop
  endfacet
  facet normal 0.471397 -0.881921 0.000000
    outer loop
      vertex 190.355 108.660 8.000
      vertex 190.355 108.660 0.000
      vertex 190.606 108.794 0.000
    endloop
  endfacet
  facet normal 0.471397 -0.881921 0.000000
    outer loop
      vertex 190.355 108.660 8.000
      vertex 190.606 108.794 0.000
      vertex 190.606 108.794 8.000
    endloop
  endfacet
  facet normal 0.000000 0.000000 1.000000
    outer loop
      vertex 191.254 106.489 8.000
      vertex 191.911 106.840 8.000
      vertex 190.606 108.794 8.000
    endloop
  endfacet
  facet normal 0.000000 0.000000 1.000000
    outer loop
      vertex 191.254 106.489 8.000
      vertex 190.606 108.794 8.000
      vertex 190.355 108.660 8.000
    endloop
  endfacet
  facet normal 0.000000 0.000000 -1.000000
    outer loop
      vertex 191.911 106.840 0.000
      vertex 191.254 106.489 0.000
      vertex 190.355 108.660 0.000
    endloop
  endfacet
  facet normal 0.000000 0.000000 -1.000000
    outer loop
      vertex 191.911 106.840 0.000
      vertex 190.355 108.660 0.000
      vertex 190.606 108.794 0.000
    endloop
  endfacet
  facet normal -0.290285 0.956940 0.000000
    outer loop
      vertex 191.254 106.489 8.000
      vertex 191.254 106.489 0.000
      vertex 190.541 106.273 0.000
    endloop
  endfacet
  facet normal -0.290285 0.956940 0.000000
    outer loop
      vertex 191.254 106.489 8.000
      vertex 190.541 106.273 0.000
      vertex 190.541 106.273 8.000
    endloop
  endfacet
  facet normal 0.290285 -0.956940 0.000000
    outer loop
      vertex 190.083 108.578 8.000
      vertex 190.083 108.578 0.000
      vertex 190.355 108.660 0.000
    endloop
  endfacet
  facet normal 0.290285 -0.956940 0.000000
    outer loop
      vertex 190.083 108.578 8.000
      vertex 190.355 108.660 0.000
      vertex 190.355 108.660 8.000
    endloop
  endfacet
  facet normal 0.000000 0.000000 1.000000
    outer loop
      vertex 190.541 106.273 8.000
      vertex 191.254 106.489 8.000
      vertex 190.355 108.660 8.000
    endloop
  endfacet
  facet normal 0.000000 0.000000 1.000000
    outer loop
      vertex 190.541 106.273 8.000
      vertex 190.355 108.660 8.000
      vertex 190.083 108.578 8.000
    endloop
  endfacet
  facet normal 0.000000 0.000000 -1.000000
    outer loop
      vertex 191.254 106.489 0.000
      vertex 190.541 106.273 0.000
      vertex 190.083 108.578 0.000
    endloop
  endfacet
  facet normal 0.000000 0.000000 -1.000000
    outer loop
      vertex 191.254 106.489 0.000
      vertex 190.083 108.578 0.000
      vertex 190.355 108.660 0.000
    endloop
  endfacet
  facet normal -0.098017 0.995185 0.000000
    outer loop
      vertex 190.541 106.273 8.000
      vertex 190.541 106.273 0.000
      vertex 189.800 106.200 0.000
    endloop
  endfacet
  facet normal -0.098017 0.995185 0.000000
    outer loop
      vertex 190.541 106.273 8.000
      vertex 189.800 106.200 0.000
      vertex 189.800 106.200 8.000
    endloop
  endfacet
  facet normal 0.098017 -0.995185 0.000000
    outer loop
      vertex 189.800 108.550 8.000
      vertex 189.800 108.550 0.000
      vertex 190.083 108.578 0.000
    endloop
  endfacet
  facet normal 0.098017 -0.995185 0.000000
    outer loop
      vertex 189.800 108.550 8.000
      vertex 190.083 108.578 0.000
      vertex 190.083 108.578 8.000
    endloop
  endfacet
  facet normal 0.000000 0.000000 1.000000
    outer loop
      vertex 189.800 106.200 8.000
      vertex 190.541 106.273 8.000
      vertex 190.083 108.578 8.000
    endloop
  endfacet
  facet normal 0.000000 0.000000 1.000000
    outer loop
      vertex 189.800 106.200 8.000
      vertex 190.083 108.578 8.000
      vertex 189.800 108.550 8.000
    endloop
  endfacet
  facet normal 0.000000 0.000000 -1.000000
    outer loop
      vertex 190.541 106.273 0.000
      vertex 189.800 106.200 0.000
      vertex 189.800 108.550 0.000
    endloop
  endfacet
  facet normal 0.000000 0.000000 -1.000000
    outer loop
      vertex 190.541 106.273 0.000
      vertex 189.800 108.550 0.000
      vertex 190.083 108.578 0.000
    endloop
  endfacet
  facet normal 0.098017 0.995185 0.000000
    outer loop
      vertex 189.800 106.200 8.000
      vertex 189.800 106.200 0.000
      vertex 189.059 106.273 0.000
    endloop
  endfacet
  facet normal 0.098017 0.995185 0.000000
    outer loop
      vertex 189.800 106.200 8.000
      vertex 189.059 106.273 0.000
      vertex 189.059 106.273 8.000
    endloop
  endfacet
  facet normal -0.098017 -0.995185 0.000000
    outer loop
      vertex 189.517 108.578 8.000
      vertex 189.517 108.578 0.000
      vertex 189.800 108.550 0.000
    endloop
  endfacet
  facet normal -0.098017 -0.995185 0.000000
    outer loop
      vertex 189.517 108.578 8.000
      vertex 189.800 108.550 0.000
      vertex 189.800 108.550 8.000
    endloop
  endfacet
  facet normal 0.000000 0.000000 1.000000
    outer loop
      vertex 189.059 106.273 8.000
      vertex 189.800 106.200 8.000
      vertex 189.800 108.550 8.000
    endloop
  endfacet
  facet normal 0.000000 0.000000 1.000000
    outer loop
      vertex 189.059 106.273 8.000
      vertex 189.800 108.550 8.000
      vertex 189.517 108.578 8.000
    endloop
  endfacet
  facet normal 0.000000 -0.000000 -1.000000
    outer loop
      vertex 189.800 106.200 0.000
      vertex 189.059 106.273 0.000
      vertex 189.517 108.578 0.000
    endloop
  endfacet
  facet normal 0.000000 0.000000 -1.000000
    outer loop
      vertex 189.800 106.200 0.000
      vertex 189.517 108.578 0.000
      vertex 189.800 108.550 0.000
    endloop
  endfacet
  facet normal 0.290285 0.956940 0.000000
    outer loop
      vertex 189.059 106.273 8.000
      vertex 189.059 106.273 0.000
      vertex 188.346 106.489 0.000
    endloop
  endfacet
  facet normal 0.290285 0.956940 0.000000
    outer loop
      vertex 189.059 106.273 8.000
      vertex 188.346 106.489 0.000
      vertex 188.346 106.489 8.000
    endloop
  endfacet
  facet normal -0.290285 -0.956940 0.000000
    outer loop
      vertex 189.245 108.660 8.000
      vertex 189.245 108.660 0.000
      vertex 189.517 108.578 0.000
    endloop
  endfacet
  facet normal -0.290285 -0.956940 0.000000
    outer loop
      vertex 189.245 108.660 8.000
      vertex 189.517 108.578 0.000
      vertex 189.517 108.578 8.000
    endloop
  endfacet
  facet normal 0.000000 0.000000 1.000000
    outer loop
      vertex 188.346 106.489 8.000
      vertex 189.059 106.273 8.000
      vertex 189.517 108.578 8.000
    endloop
  endfacet
  facet normal 0.000000 0.000000 1.000000
    outer loop
      vertex 188.346 106.489 8.000
      vertex 189.517 108.578 8.000
      vertex 189.245 108.660 8.000
    endloop
  endfacet
  facet normal 0.000000 0.000000 -1.000000
    outer loop
      vertex 189.059 106.273 0.000
      vertex 188.346 106.489 0.000
      vertex 189.245 108.660 0.000
    endloop
  endfacet
  facet normal 0.000000 0.000000 -1.000000
    outer loop
      vertex 189.059 106.273 0.000
      vertex 189.245 108.660 0.000
      vertex 189.517 108.578 0.000
    endloop
  endfacet
  facet normal 0.471397 0.881921 0.000000
    outer loop
      vertex 188.346 106.489 8.000
      vertex 188.346 106.489 0.000
      vertex 187.689 106.840 0.000
    endloop
  endfacet
  facet normal 0.471397 0.881921 0.000000
    outer loop
      vertex 188.346 106.489 8.000
      vertex 187.689 106.840 0.000
      vertex 187.689 106.840 8.000
    endloop
  endfacet
  facet normal -0.471397 -0.881921 0.000000
    outer loop
      vertex 188.994 108.794 8.000
      vertex 188.994 108.794 0.000
      vertex 189.245 108.660 0.000
    endloop
  endfacet
  facet normal -0.471397 -0.881921 0.000000
    outer loop
      vertex 188.994 108.794 8.000
      vertex 189.245 108.660 0.000
      vertex 189.245 108.660 8.000
    endloop
  endfacet
  facet normal 0.000000 0.000000 1.000000
    outer loop
      vertex 187.689 106.840 8.000
      vertex 188.346 106.489 8.000
      vertex 189.245 108.660 8.000
    endloop
  endfacet
  facet normal 0.000000 0.000000 1.000000
    outer loop
      vertex 187.689 106.840 8.000
      vertex 189.245 108.660 8.000
      vertex 188.994 108.794 8.000
    endloop
  endfacet
  facet normal 0.000000 0.000000 -1.000000
    outer loop
      vertex 188.346 106.489 0.000
      vertex 187.689 106.840 0.000
      vertex 188.994 108.794 0.000
    endloop
  endfacet
  facet normal 0.000000 0.000000 -1.000000
    outer loop
      vertex 188.346 106.489 0.000
      vertex 188.994 108.794 0.000
      vertex 189.245 108.660 0.000
    endloop
  endfacet
  facet normal 0.634393 0.773010 0.000000
    outer loop
      vertex 187.689 106.840 8.000
      vertex 187.689 106.840 0.000
      vertex 187.113 107.313 0.000
    endloop
  endfacet
  facet normal 0.634393 0.773010 0.000000
    outer loop
      vertex 187.689 106.840 8.000
      vertex 187.113 107.313 0.000
      vertex 187.113 107.313 8.000
    endloop
  endfacet
  facet normal -0.634393 -0.773010 0.000000
    outer loop
      vertex 188.775 108.975 8.000
      vertex 188.775 108.975 0.000
      vertex 188.994 108.794 0.000
    endloop
  endfacet
  facet normal -0.634393 -0.773010 0.000000
    outer loop
      vertex 188.775 108.975 8.000
      vertex 188.994 108.794 0.000
      vertex 188.994 108.794 8.000
    endloop
  endfacet
  facet normal 0.000000 0.000000 1.000000
    outer loop
      vertex 187.113 107.313 8.000
      vertex 187.689 106.840 8.000
      vertex 188.994 108.794 8.000
    endloop
  endfacet
  facet normal 0.000000 0.000000 1.000000
    outer loop
      vertex 187.113 107.313 8.000
      vertex 188.994 108.794 8.000
      vertex 188.775 108.975 8.000
    endloop
  endfacet
  facet normal 0.000000 0.000000 -1.000000
    outer loop
      vertex 187.689 106.840 0.000
      vertex 187.113 107.313 0.000
      vertex 188.775 108.975 0.000
    endloop
  endfacet
  facet normal 0.000000 0.000000 -1.000000
    outer loop
      vertex 187.689 106.840 0.000
      vertex 188.775 108.975 0.000
      vertex 188.994 108.794 0.000
    endloop
  endfacet
  facet normal 0.773010 0.634393 0.000000
    outer loop
      vertex 187.113 107.313 8.000
      vertex 187.113 107.313 0.000
      vertex 186.640 107.889 0.000
    endloop
  endfacet
  facet normal 0.773010 0.634393 0.000000
    outer loop
      vertex 187.113 107.313 8.000
      vertex 186.640 107.889 0.000
      vertex 186.640 107.889 8.000
    endloop
  endfacet
  facet normal -0.773010 -0.634393 0.000000
    outer loop
      vertex 188.594 109.194 8.000
      vertex 188.594 109.194 0.000
      vertex 188.775 108.975 0.000
    endloop
  endfacet
  facet normal -0.773010 -0.634393 0.000000
    outer loop
      vertex 188.594 109.194 8.000
      vertex 188.775 108.975 0.000
      vertex 188.775 108.975 8.000
    endloop
  endfacet
  facet normal 0.000000 0.000000 1.000000
    outer loop
      vertex 186.640 107.889 8.000
      vertex 187.113 107.313 8.000
      vertex 188.775 108.975 8.000
    endloop
  endfacet
  facet normal 0.000000 0.000000 1.000000
    outer loop
      vertex 186.640 107.889 8.000
      vertex 188.775 108.975 8.000
      vertex 188.594 109.194 8.000
    endloop
  endfacet
  facet normal 0.000000 0.000000 -1.000000
    outer loop
      vertex 187.113 107.313 0.000
      vertex 186.640 107.889 0.000
      vertex 188.594 109.194 0.000
    endloop
  endfacet
  facet normal 0.000000 0.000000 -1.000000
    outer loop
      vertex 187.113 107.313 0.000
      vertex 188.594 109.194 0.000
      vertex 188.775 108.975 0.000
    endloop
  endfacet
  facet normal 0.881921 0.471397 0.000000
    outer loop
      vertex 186.640 107.889 8.000
      vertex 186.640 107.889 0.000
      vertex 186.289 108.546 0.000
    endloop
  endfacet
  facet normal 0.881921 0.471397 0.000000
    outer loop
      vertex 186.640 107.889 8.000
      vertex 186.289 108.546 0.000
      vertex 186.289 108.546 8.000
    endloop
  endfacet
  facet normal -0.881921 -0.471397 0.000000
    outer loop
      vertex 188.460 109.445 8.000
      vertex 188.460 109.445 0.000
      vertex 188.594 109.194 0.000
    endloop
  endfacet
  facet normal -0.881921 -0.471397 0.000000
    outer loop
      vertex 188.460 109.445 8.000
      vertex 188.594 109.194 0.000
      vertex 188.594 109.194 8.000
    endloop
  endfacet
  facet normal 0.000000 0.000000 1.000000
    outer loop
      vertex 186.289 108.546 8.000
      vertex 186.640 107.889 8.000
      vertex 188.594 109.194 8.000
    endloop
  endfacet
  facet normal 0.000000 0.000000 1.000000
    outer loop
      vertex 186.289 108.546 8.000
      vertex 188.594 109.194 8.000
      vertex 188.460 109.445 8.000
    endloop
  endfacet
  facet normal 0.000000 0.000000 -1.000000
    outer loop
      vertex 186.640 107.889 0.000
      vertex 186.289 108.546 0.000
      vertex 188.460 109.445 0.000
    endloop
  endfacet
  facet normal 0.000000 0.000000 -1.000000
    outer loop
      vertex 186.640 107.889 0.000
      vertex 188.460 109.445 0.000
      vertex 188.594 109.194 0.000
    endloop
  endfacet
  facet normal 0.956940 0.290285 0.000000
    outer loop
      vertex 186.289 108.546 8.000
      vertex 186.289 108.546 0.000
      vertex 186.073 109.259 0.000
    endloop
  endfacet
  facet normal 0.956940 0.290285 0.000000
    outer loop
      vertex 186.289 108.546 8.000
      vertex 186.073 109.259 0.000
      vertex 186.073 109.259 8.000
    endloop
  endfacet
  facet normal -0.956940 -0.290285 0.000000
    outer loop
      vertex 188.378 109.717 8.000
      vertex 188.378 109.717 0.000
      vertex 188.460 109.445 0.000
    endloop
  endfacet
  facet normal -0.956940 -0.290285 0.000000
    outer loop
      vertex 188.378 109.717 8.000
      vertex 188.460 109.445 0.000
      vertex 188.460 109.445 8.000
    endloop
  endfacet
  facet normal 0.000000 0.000000 1.000000
    outer loop
      vertex 186.073 109.259 8.000
      vertex 186.289 108.546 8.000
      vertex 188.460 109.445 8.000
    endloop
  endfacet
  facet normal 0.000000 0.000000 1.000000
    outer loop
      vertex 186.073 109.259 8.000
      vertex 188.460 109.445 8.000
      vertex 188.378 109.717 8.000
    endloop
  endfacet
  facet normal 0.000000 0.000000 -1.000000
    outer loop
      vertex 186.289 108.546 0.000
      vertex 186.073 109.259 0.000
      vertex 188.378 109.717 0.000
    endloop
  endfacet
  facet normal 0.000000 0.000000 -1.000000
    outer loop
      vertex 186.289 108.546 0.000
      vertex 188.378 109.717 0.000
      vertex 188.460 109.445 0.000
    endloop
  endfacet
  facet normal 0.995185 0.098017 0.000000
    outer loop
      vertex 186.073 109.259 8.000
      vertex 186.073 109.259 0.000
      vertex 186.000 110.000 0.000
    endloop
  endfacet
  facet normal 0.995185 0.098017 0.000000
    outer loop
      vertex 186.073 109.259 8.000
      vertex 186.000 110.000 0.000
      vertex 186.000 110.000 8.000
    endloop
  endfacet
  facet normal -0.995185 -0.098017 0.000000
    outer loop
      vertex 188.350 110.000 8.000
      vertex 188.350 110.000 0.000
      vertex 188.378 109.717 0.000
    endloop
  endfacet
  facet normal -0.995185 -0.098017 0.000000
    outer loop
      vertex 188.350 110.000 8.000
      vertex 188.378 109.717 0.000
      vertex 188.378 109.717 8.000
    endloop
  endfacet
  facet normal 0.000000 0.000000 1.000000
    outer loop
      vertex 186.000 110.000 8.000
      vertex 186.073 109.259 8.000
      vertex 188.378 109.717 8.000
    endloop
  endfacet
  facet normal 0.000000 0.000000 1.000000
    outer loop
      vertex 186.000 110.000 8.000
      vertex 188.378 109.717 8.000
      vertex 188.350 110.000 8.000
    endloop
  endfacet
  facet normal 0.000000 0.000000 -1.000000
    outer loop
      vertex 186.073 109.259 0.000
      vertex 186.000 110.000 0.000
      vertex 188.350 110.000 0.000
    endloop
  endfacet
  facet normal 0.000000 0.000000 -1.000000
    outer loop
      vertex 186.073 109.259 0.000
      vertex 188.350 110.000 0.000
      vertex 188.378 109.717 0.000
    endloop
  endfacet
  facet normal 0.995185 -0.098017 0.000000
    outer loop
      vertex 186.000 110.000 8.000
      vertex 186.000 110.000 0.000
      vertex 186.073 110.741 0.000
    endloop
  endfacet
  facet normal 0.995185 -0.098017 0.000000
    outer loop
      vertex 186.000 110.000 8.000
      vertex 186.073 110.741 0.000
      vertex 186.073 110.741 8.000
    endloop
  endfacet
  facet normal -0.995185 0.098017 0.000000
    outer loop
      vertex 188.378 110.283 8.000
      vertex 188.378 110.283 0.000
      vertex 188.350 110.000 0.000
    endloop
  endfacet
  facet normal -0.995185 0.098017 0.000000
    outer loop
      vertex 188.378 110.283 8.000
      vertex 188.350 110.000 0.000
      vertex 188.350 110.000 8.000
    endloop
  endfacet
  facet normal 0.000000 0.000000 1.000000
    outer loop
      vertex 186.073 110.741 8.000
      vertex 186.000 110.000 8.000
      vertex 188.350 110.000 8.000
    endloop
  endfacet
  facet normal 0.000000 0.000000 1.000000
    outer loop
      vertex 186.073 110.741 8.000
      vertex 188.350 110.000 8.000
      vertex 188.378 110.283 8.000
    endloop
  endfacet
  facet normal 0.000000 0.000000 -1.000000
    outer loop
      vertex 186.000 110.000 0.000
      vertex 186.073 110.741 0.000
      vertex 188.378 110.283 0.000
    endloop
  endfacet
  facet normal 0.000000 0.000000 -1.000000
    outer loop
      vertex 186.000 110.000 0.000
      vertex 188.378 110.283 0.000
      vertex 188.350 110.000 0.000
    endloop
  endfacet
  facet normal 0.956940 -0.290285 0.000000
    outer loop
      vertex 186.073 110.741 8.000
      vertex 186.073 110.741 0.000
      vertex 186.289 111.454 0.000
    endloop
  endfacet
  facet normal 0.956940 -0.290285 0.000000
    outer loop
      vertex 186.073 110.741 8.000
      vertex 186.289 111.454 0.000
      vertex 186.289 111.454 8.000
    endloop
  endfacet
  facet normal -0.956940 0.290285 0.000000
    outer loop
      vertex 188.460 110.555 8.000
      vertex 188.460 110.555 0.000
      vertex 188.378 110.283 0.000
    endloop
  endfacet
  facet normal -0.956940 0.290285 0.000000
    outer loop
      vertex 188.460 110.555 8.000
      vertex 188.378 110.283 0.000
      vertex 188.378 110.283 8.000
    endloop
  endfacet
  facet normal 0.000000 0.000000 1.000000
    outer loop
      vertex 186.289 111.454 8.000
      vertex 186.073 110.741 8.000
      vertex 188.378 110.283 8.000
    endloop
  endfacet
  facet normal 0.000000 0.000000 1.000000
    outer loop
      vertex 186.289 111.454 8.000
      vertex 188.378 110.283 8.000
      vertex 188.460 110.555 8.000
    endloop
  endfacet
  facet normal 0.000000 0.000000 -1.000000
    outer loop
      vertex 186.073 110.741 0.000
      vertex 186.289 111.454 0.000
      vertex 188.460 110.555 0.000
    endloop
  endfacet
  facet normal 0.000000 0.000000 -1.000000
    outer loop
      vertex 186.073 110.741 0.000
      vertex 188.460 110.555 0.000
      vertex 188.378 110.283 0.000
    endloop
  endfacet
  facet normal 0.881921 -0.471397 0.000000
    outer loop
      vertex 186.289 111.454 8.000
      vertex 186.289 111.454 0.000
      vertex 186.640 112.111 0.000
    endloop
  endfacet
  facet normal 0.881921 -0.471397 0.000000
    outer loop
      vertex 186.289 111.454 8.000
      vertex 186.640 112.111 0.000
      vertex 186.640 112.111 8.000
    endloop
  endfacet
  facet normal -0.881921 0.471397 0.000000
    outer loop
      vertex 188.594 110.806 8.000
      vertex 188.594 110.806 0.000
      vertex 188.460 110.555 0.000
    endloop
  endfacet
  facet normal -0.881921 0.471397 0.000000
    outer loop
      vertex 188.594 110.806 8.000
      vertex 188.460 110.555 0.000
      vertex 188.460 110.555 8.000
    endloop
  endfacet
  facet normal 0.000000 0.000000 1.000000
    outer loop
      vertex 186.640 112.111 8.000
      vertex 186.289 111.454 8.000
      vertex 188.460 110.555 8.000
    endloop
  endfacet
  facet normal 0.000000 0.000000 1.000000
    outer loop
      vertex 186.640 112.111 8.000
      vertex 188.460 110.555 8.000
      vertex 188.594 110.806 8.000
    endloop
  endfacet
  facet normal 0.000000 0.000000 -1.000000
    outer loop
      vertex 186.289 111.454 0.000
      vertex 186.640 112.111 0.000
      vertex 188.594 110.806 0.000
    endloop
  endfacet
  facet normal 0.000000 0.000000 -1.000000
    outer loop
      vertex 186.289 111.454 0.000
      vertex 188.594 110.806 0.000
      vertex 188.460 110.555 0.000
    endloop
  endfacet
  facet normal 0.773010 -0.634393 0.000000
    outer loop
      vertex 186.640 112.111 8.000
      vertex 186.640 112.111 0.000
      vertex 187.113 112.687 0.000
    endloop
  endfacet
  facet normal 0.773010 -0.634393 0.000000
    outer loop
      vertex 186.640 112.111 8.000
      vertex 187.113 112.687 0.000
      vertex 187.113 112.687 8.000
    endloop
  endfacet
  facet normal -0.773010 0.634393 0.000000
    outer loop
      vertex 188.775 111.025 8.000
      vertex 188.775 111.025 0.000
      vertex 188.594 110.806 0.000
    endloop
  endfacet
  facet normal -0.773010 0.634393 0.000000
    outer loop
      vertex 188.775 111.025 8.000
      vertex 188.594 110.806 0.000
      vertex 188.594 110.806 8.000
    endloop
  endfacet
  facet normal 0.000000 0.000000 1.000000
    outer loop
      vertex 187.113 112.687 8.000
      vertex 186.640 112.111 8.000
      vertex 188.594 110.806 8.000
    endloop
  endfacet
  facet normal 0.000000 0.000000 1.000000
    outer loop
      vertex 187.113 112.687 8.000
      vertex 188.594 110.806 8.000
      vertex 188.775 111.025 8.000
    endloop
  endfacet
  facet normal 0.000000 0.000000 -1.000000
    outer loop
      vertex 186.640 112.111 0.000
      vertex 187.113 112.687 0.000
      vertex 188.775 111.025 0.000
    endloop
  endfacet
  facet normal 0.000000 0.000000 -1.000000
    outer loop
      vertex 186.640 112.111 0.000
      vertex 188.775 111.025 0.000
      vertex 188.594 110.806 0.000
    endloop
  endfacet
  facet normal 0.634393 -0.773010 0.000000
    outer loop
      vertex 187.113 112.687 8.000
      vertex 187.113 112.687 0.000
      vertex 187.689 113.160 0.000
    endloop
  endfacet
  facet normal 0.634393 -0.773010 0.000000
    outer loop
      vertex 187.113 112.687 8.000
      vertex 187.689 113.160 0.000
      vertex 187.689 113.160 8.000
    endloop
  endfacet
  facet normal -0.634393 0.773010 0.000000
    outer loop
      vertex 188.994 111.206 8.000
      vertex 188.994 111.206 0.000
      vertex 188.775 111.025 0.000
    endloop
  endfacet
  facet normal -0.634393 0.773010 0.000000
    outer loop
      vertex 188.994 111.206 8.000
      vertex 188.775 111.025 0.000
      vertex 188.775 111.025 8.000
    endloop
  endfacet
  facet normal 0.000000 0.000000 1.000000
    outer loop
      vertex 187.689 113.160 8.000
      vertex 187.113 112.687 8.000
      vertex 188.775 111.025 8.000
    endloop
  endfacet
  facet normal 0.000000 0.000000 1.000000
    outer loop
      vertex 187.689 113.160 8.000
      vertex 188.775 111.025 8.000
      vertex 188.994 111.206 8.000
    endloop
  endfacet
  facet normal 0.000000 0.000000 -1.000000
    outer loop
      vertex 187.113 112.687 0.000
      vertex 187.689 113.160 0.000
      vertex 188.994 111.206 0.000
    endloop
  endfacet
  facet normal 0.000000 0.000000 -1.000000
    outer loop
      vertex 187.113 112.687 0.000
      vertex 188.994 111.206 0.000
      vertex 188.775 111.025 0.000
    endloop
  endfacet
  facet normal 0.471397 -0.881921 0.000000
    outer loop
      vertex 187.689 113.160 8.000
      vertex 187.689 113.160 0.000
      vertex 188.346 113.511 0.000
    endloop
  endfacet
  facet normal 0.471397 -0.881921 0.000000
    outer loop
      vertex 187.689 113.160 8.000
      vertex 188.346 113.511 0.000
      vertex 188.346 113.511 8.000
    endloop
  endfacet
  facet normal -0.471397 0.881921 -0.000000
    outer loop
      vertex 189.245 111.340 8.000
      vertex 189.245 111.340 0.000
      vertex 188.994 111.206 0.000
    endloop
  endfacet
  facet normal -0.471397 0.881921 0.000000
    outer loop
      vertex 189.245 111.340 8.000
      vertex 188.994 111.206 0.000
      vertex 188.994 111.206 8.000
    endloop
  endfacet
  facet normal 0.000000 0.000000 1.000000
    outer loop
      vertex 188.346 113.511 8.000
      vertex 187.689 113.160 8.000
      vertex 188.994 111.206 8.000
    endloop
  endfacet
  facet normal 0.000000 0.000000 1.000000
    outer loop
      vertex 188.346 113.511 8.000
      vertex 188.994 111.206 8.000
      vertex 189.245 111.340 8.000
    endloop
  endfacet
  facet normal 0.000000 0.000000 -1.000000
    outer loop
      vertex 187.689 113.160 0.000
      vertex 188.346 113.511 0.000
      vertex 189.245 111.340 0.000
    endloop
  endfacet
  facet normal 0.000000 0.000000 -1.000000
    outer loop
      vertex 187.689 113.160 0.000
      vertex 189.245 111.340 0.000
      vertex 188.994 111.206 0.000
    endloop
  endfacet
  facet normal 0.290285 -0.956940 0.000000
    outer loop
      vertex 188.346 113.511 8.000
      vertex 188.346 113.511 0.000
      vertex 189.059 113.727 0.000
    endloop
  endfacet
  facet normal 0.290285 -0.956940 0.000000
    outer loop
      vertex 188.346 113.511 8.000
      vertex 189.059 113.727 0.000
      vertex 189.059 113.727 8.000
    endloop
  endfacet
  facet normal -0.290285 0.956940 0.000000
    outer loop
      vertex 189.517 111.422 8.000
      vertex 189.517 111.422 0.000
      vertex 189.245 111.340 0.000
    endloop
  endfacet
  facet normal -0.290285 0.956940 -0.000000
    outer loop
      vertex 189.517 111.422 8.000
      vertex 189.245 111.340 0.000
      vertex 189.245 111.340 8.000
    endloop
  endfacet
  facet normal 0.000000 0.000000 1.000000
    outer loop
      vertex 189.059 113.727 8.000
      vertex 188.346 113.511 8.000
      vertex 189.245 111.340 8.000
    endloop
  endfacet
  facet normal 0.000000 0.000000 1.000000
    outer loop
      vertex 189.059 113.727 8.000
      vertex 189.245 111.340 8.000
      vertex 189.517 111.422 8.000
    endloop
  endfacet
  facet normal 0.000000 0.000000 -1.000000
    outer loop
      vertex 188.346 113.511 0.000
      vertex 189.059 113.727 0.000
      vertex 189.517 111.422 0.000
    endloop
  endfacet
  facet normal 0.000000 0.000000 -1.000000
    outer loop
      vertex 188.346 113.511 0.000
      vertex 189.517 111.422 0.000
      vertex 189.245 111.340 0.000
    endloop
  endfacet
  facet normal 0.098017 -0.995185 0.000000
    outer loop
      vertex 189.059 113.727 8.000
      vertex 189.059 113.727 0.000
      vertex 189.800 113.800 0.000
    endloop
  endfacet
  facet normal 0.098017 -0.995185 0.000000
    outer loop
      vertex 189.059 113.727 8.000
      vertex 189.800 113.800 0.000
      vertex 189.800 113.800 8.000
    endloop
  endfacet
  facet normal -0.098017 0.995185 0.000000
    outer loop
      vertex 189.800 111.450 8.000
      vertex 189.800 111.450 0.000
      vertex 189.517 111.422 0.000
    endloop
  endfacet
  facet normal -0.098017 0.995185 0.000000
    outer loop
      vertex 189.800 111.450 8.000
      vertex 189.517 111.422 0.000
      vertex 189.517 111.422 8.000
    endloop
  endfacet
  facet normal 0.000000 0.000000 1.000000
    outer loop
      vertex 189.800 113.800 8.000
      vertex 189.059 113.727 8.000
      vertex 189.517 111.422 8.000
    endloop
  endfacet
  facet normal 0.000000 0.000000 1.000000
    outer loop
      vertex 189.800 113.800 8.000
      vertex 189.517 111.422 8.000
      vertex 189.800 111.450 8.000
    endloop
  endfacet
  facet normal 0.000000 0.000000 -1.000000
    outer loop
      vertex 189.059 113.727 0.000
      vertex 189.800 113.800 0.000
      vertex 189.800 111.450 0.000
    endloop
  endfacet
  facet normal 0.000000 0.000000 -1.000000
    outer loop
      vertex 189.059 113.727 0.000
      vertex 189.800 111.450 0.000
      vertex 189.517 111.422 0.000
    endloop
  endfacet
endsolid food_caddy_k1se_liner_hanger_plate_bed_centered
